<?xml version="1.0" encoding="utf-8"?>
<!-- Generator: Adobe Illustrator 26.5.0, SVG Export Plug-In . SVG Version: 6.00 Build 0)  -->
<svg version="1.1" id="comment_x5F_box_xA0_Image_00000093161004687933964220000014489395267606541729_"
	 xmlns="http://www.w3.org/2000/svg" xmlns:xlink="http://www.w3.org/1999/xlink" x="0px" y="0px" viewBox="0 0 465.6 463.4"
	 style="enable-background:new 0 0 465.6 463.4;" xml:space="preserve">
<style type="text/css">
	.st0{fill:#D8D8D8;}
	.st1{fill:#0095EF;}
	.st2{fill:#AC4D32;}
	.st3{fill:#314A72;}
	.st4{fill:#3C8F93;}
	.st5{fill:#5E4540;}
	.st6{fill:#FDB280;}
	.st7{fill:#312934;}
	.st8{fill:#F1F0EE;}
	.st9{fill:#909BBE;}
	.st10{fill:#7783A0;}
	.st11{fill:#F9AB51;}
	.st12{fill:#C25D5C;}
	.st13{fill:#3F344B;}
	.st14{fill:#FEFEFE;}
	.st15{fill:#626B82;}
</style>
<path class="st0" d="M7.1,429.6c1.1-0.3,1.6-1.4,2.6-2c3.3-1.8,6.8-2.8,10.4-3.7c6.5-1.6,13.1-2.8,19.8-3.7
	c5.3-0.7,10.5-1.5,15.8-2.1c4.3-0.5,8.7-0.8,13-1.2c5-0.5,10-1,15.1-1.4c2.7-0.2,5.3-0.3,8-0.5c3.8-0.3,7.7-0.6,11.5-0.7
	c0.1,0,0.3-0.1,0.4-0.2c0.2,0.1,0.5,0.2,0.7,0.4c2.8,1.6,5.6,3.1,8.6,4.2c1.2,4.1,3.4,7.4,6.7,10c3.1,2.5,6.8,4,10.4,5.5
	c2.6,1.1,5.2,2,7.6,3.5c-2.8,0.1-5.6,0.4-8.2,1.3c-3.3,1.2-6.1,3-7.6,6.4c-1.5,3.4-0.2,6,3.4,6.6c0.7,0.1,1.4,0.2,2.1,0.2
	c6.7,0.7,13.5,0.7,20.2-0.1c0.8,0.3,1.6,0.5,2.3,0.4c4-0.3,8.1-0.7,12.1-1.1c1.8,0.5,3.6,1.2,5.4,1.6c4,1,8,1.5,12.1,0.3
	c2.4,0.3,4.8,0.4,7.3,0.5c3.1,0.1,6.3,0.4,9.4,0.6c1.8,0.1,3.3-0.6,4.1-2.3c1.1-2.2,1.3-4.5,0.8-6.9c-0.7-3.8-3-7.8-7.5-8.1
	c2.1-1.1,4.3-1.6,6.4-0.2c0.4,0.2,0.6,0.1,0.9,0c6.4-3.2,12.6-6.5,16.3-13c0.3,0,0.6,0,0.8,0c31.6,0,63.1,0,94.7,0
	c4.4,0,8.8-0.4,13.1-1.2c8.3-1.6,16-4.5,23.3-8.8c0.2,0.2,0.4,0.2,0.6,0.3c3,0.2,6,0.2,9,0.5c1.4,0.1,2.7,0.1,4,0.2
	c2.9,0.2,5.8,0.4,8.8,0.7c1,5.7,2.3,11.3,4,16.9c0.2,0.8,0.6,1.5,0.5,2.3c-1.5,2.7-2.3,5.6-2.4,8.6c-0.2,2-0.2,2,1.6,2.7
	c4.9,2,10,3.2,15.2,3.8c6.3,0.7,12.6,0.3,18.8-1c1.3-0.3,1.5-0.6,1.3-1.9c0-0.9-0.5-1.6-0.9-2.3c0.8,0.1,1.6,0.1,2.4,0.2
	c6.4,0.1,12.8-0.4,19-1.9c1.6-0.4,1.8-0.6,1.2-2.2c-0.9-2.9-3.1-4-5.8-4.5c-1.9-0.4-3.9-0.5-5.8-0.8c-3.5-0.7-6.6-2.3-9.2-4.8
	c-1.6-1.5-3.3-2.4-5.5-1.5c0.4-3.3,0.7-6.5,1.4-9.8c2.6,0.1,5.1,0.6,7.7,1c5.1,0.8,10.3,1.7,15.3,2.9c3.8,0.9,7.6,1.9,11.2,3.5
	c1.5,0.7,2.8,1.5,3.8,2.8c0.1,0.2,0.3,0.4,0.6,0.4c0,0.5,0,1,0,1.4c-0.1,0-0.3,0-0.3,0.1c-1.3,1.9-3.3,2.8-5.4,3.6
	c-1.8,0.7-3.6,1.3-5.5,2c0.3,0.3,0.5,0.4,0.7,0.5c2.3,1.9,2.7,4.2,0.5,6.2c-2.1,1.9-4.6,3-7.2,3.9c-9.3,3.1-18.9,4-28.6,4.5
	c-3.3,0.2-6.6,0.1-9.9,0.1c-6.4,0-12.7-0.4-19-1.2c-5.9-0.8-11.8-1.8-17.4-4c-0.4-0.1-0.7-0.2-1-0.1c-1.7,0.4-3.4,0.2-5.1,0.4
	c-4.2,0.3-8.3,0.5-12.5,0.8c-5,0.3-10.1,0.5-15.1,0.7c-3.9,0.2-7.9,0.4-11.8,0.5c-4.8,0.2-9.6,0.2-14.5,0.5c-2.9,0.1-5.8,0-8.7,0.2
	c-3.4,0.3-6.8,0-10.2,0.2c-4.5,0.3-8.9,0.1-13.4,0.2c-8.9,0.2-17.9,0-26.8,0.3c-1.7,0-3.3,0.2-4.8,1.1c-1.2,0.7-2.6,1.1-3.9,1.6
	c-7.5,2.5-15.3,3.8-23.1,4.8c-6,0.8-12,1.4-18.1,1.5c-0.4,0-0.8-0.1-0.8,0.5c-10.1,0-20.1,0-30.2,0c-0.1-0.5-0.5-0.5-0.8-0.5
	c-2.4,0-4.8-0.3-7.3-0.5c-5.1-0.4-10.1-1-15.1-1.7c-6.9-1-13.7-2.3-20.3-4.8c-3.1-1.2-6.3-2.4-8.4-5.2c-0.2-0.3-0.5-0.3-0.8-0.4
	c-2.3-0.3-4.7-0.3-7-0.5c-4.8-0.3-9.5-0.8-14.2-1.2c-3.2-0.3-6.3-0.4-9.5-0.8c-5.1-0.5-10.1-1.1-15.2-1.6c-5.3-0.5-10.6-1.2-15.8-2
	c-7.3-1.1-14.5-2.3-21.6-4.3c-3-0.9-6-1.8-8.7-3.5c-0.7-0.5-1.1-1.3-2-1.5C7.1,431.2,7.1,430.4,7.1,429.6z"/>
<path class="st1" d="M113.1,418.5c-3-1.1-5.8-2.6-8.6-4.2c-0.2-0.1-0.5-0.2-0.7-0.4c-5.3-3.4-10.3-7.1-14.7-11.7
	c-10.7-11.2-17.3-24.5-19.4-39.9c-0.4-3.2-0.7-6.4-0.7-9.5c0-57.9-0.1-115.7,0-173.6c0.1-33.3,24.4-62.5,57.2-68.9
	c4.6-0.9,9.2-1.4,13.9-1.4c28.8,0,57.6,0,86.4,0c0.2,0,0.5,0,0.7,0c0.2,0.2,0.5,0.2,0.8,0.2c4.5,0.1,9,0.2,13.5,0.3
	c-0.2,1.1-0.6,2.2-0.4,3.4c0.3,2.3,1.4,4.2,2.9,6c5.2,6.2,10.6,12.2,15.9,18.2c0.6,0.8,1.2,1.5,1.9,2.2c0.1,0.4-0.1,0.8-0.3,1.1
	c-1,1.8-2.1,3.6-3.1,5.4c-2.2,3.9-3.6,8.1-2.9,12.7c-1.7,1.4-3.3,2.8-4.7,4.5c-0.8,0.9-1.2,1.9-0.3,2.9c-0.4,1.8,0.3,3.2,1.6,4.3
	c0.8,0.6,1.7,1.1,2.6,1.4c3.8,1.1,7.6,2.2,11.4,3.3c1.4,0.4,2.8,0.5,4.3,0.1c0.6-0.2,1.2-0.4,1.4-1.2c1.7-0.2,2.5-1.3,1.9-3
	c-0.6-1.9-1.5-3.7-2.2-5.5c-0.2-0.4-0.5-0.9-0.2-1.4c0.5-0.1,0.8-0.4,1.1-0.7c1.8-1.5,3.2-3.4,4.4-5.5c0.2-0.3,0.2-0.8,0.8-0.8
	c0.5,0.6,1,1.1,1.5,1.7c1.4,1.5,2.5,3.2,4.2,4.4c-0.1,0.4-0.2,0.9-0.3,1.3c-0.9,3-1.4,6.1-1,9.2c0.1,1.2,0.6,1.8,1.8,1.6
	c0.5-0.1,1.1-0.3,1.6-0.5c2.1-0.7,4.1-1.8,6.2-2c3.9-0.5,7.4-2.2,10.9-3.9c3.6-0.8,5.2-3.4,4.1-6.9c-0.6-1.8-1.8-3.3-3.2-4.5
	c-2.3-2-4.5-4.2-6.7-6.3c0-1.5-0.7-2.8-1.4-4c-1.7-2.7-3.7-5.2-5.8-7.5c-0.6-0.8-1.2-1.5-1.9-2.1c0-0.5,0.3-0.9,0.5-1.3
	c3.3-6.5,6.6-12.9,9.8-19.4c1.2-2.4,2.1-4.8,2.1-7.5c3,0.3,6,0.3,9-0.1c6.5-0.1,13,0.2,19.3,1.7c23.8,5.7,40.6,19.7,50.5,42
	c3.2,7.2,4.9,14.8,5.4,22.6c0,0.1,0.2,0.3,0.1,0.4c-0.3,2.7-0.5,5.5-0.4,8.2c-0.4,2.5-0.5,5,0.5,7.4c0,2.3,0,4.6,0,6.9
	c-0.1,0.4-0.4,0.8-0.7,1.2c-0.3,0.1-0.7,0.2-1,0.4c-5.2,2.4-10.3,5.1-15.4,7.7c-2.8,1.5-5.8,2.6-8,4.9c-0.1,0.1-0.3,0.2-0.4,0.2
	c-1.9,0.3-3,1.6-4,3c-2.6,3.3-3.9,7.2-4.7,11.3c-1.5,7.4-1.6,14.9-2.1,22.4c-0.4,4.4-0.8,8.8-0.8,13.3c0,3.1,0.1,6.2,1.4,9.1
	c1,2.4,2.4,4.5,4.9,5.7c0.2,0.2,0.4,0.3,0.5,0.5c1.8,2.7,3.9,5.1,5.9,7.7c2.8,3.5,5.5,7.1,8.3,10.7c-0.2,4.4-0.1,8.8,0.4,13.2
	c0.5,5.1,1.8,10.1,2.7,15.2c1.4,7.2,2.3,14.4,2.8,21.7c0.4,5.1,0.4,10.3-0.1,15.4c-0.5,5.2-1.3,10.3-2,15.4
	c-0.9,6.1-1.4,12.1-1.5,18.3c-5.8,7.6-12.7,13.9-20.9,18.8c-7.3,4.2-15,7.2-23.3,8.8c-4.3,0.8-8.7,1.2-13.1,1.2
	c-31.6,0-63.1,0-94.7,0c-0.3,0-0.6,0-0.8,0c0.2-0.5,0.4-1,0.6-1.6c1.3-3.7,1.4-7.3-0.6-10.8c-0.7-1.2-1.7-2.3-2.6-3.4
	c1.6-0.6,3.3-1.1,4.9-1.8c2.6-1,3.2-2.2,2.6-4.9c-0.6-2.5-1.9-4.7-3.4-6.8c-1.2-1.8-2.9-3.2-4.3-4.8c-0.1-0.1-0.1-0.3-0.3-0.3l0,0
	c-0.1-0.2-0.1-0.5-0.3-0.6c-3.7-5.7-7.6-11.3-11.7-16.6c-2.5-3.2-5.4-5.8-9.4-7.1c-3.9-1.3-7.9-2.6-11.8-4c-0.3-0.1-0.6-0.3-0.9-0.1
	c-0.5-0.2-0.9-0.5-1.4-0.7c-0.9-0.3-0.9-0.7-0.6-1.6c1-2.5,1.8-5.1,2.7-7.6c0.3-0.9,0.5-1.8,0.1-2.8c-0.4-3.3-0.4-6.6-0.8-9.9
	c-0.5-4.7-2.9-7.2-7.4-8.3c-3.6-0.9-7.2-0.6-10.8,0c-2.6,0.4-4.4,1.8-5.4,4.1c-1.9,4.5-3.6,9.2-2,14.2c-0.3,2.5,0.1,4.8,1.3,6.9
	c0.8,1.4,1.6,2.8,1.8,4.4c-0.7,0.1-1.4,0.3-2.1,0.4c-12.2,2.8-22.2,9.4-30.8,18.2c-0.4,0.4-0.9,0.8-1,1.5h0c-0.2,0-0.2,0.1-0.2,0.2
	c-4.4,2.2-8.6,5-12.3,8.3c-5.6,5-5.7,10.2-0.5,15.6c1.1,1.2,2.5,2.1,3.7,3.2C112.5,410.9,112.2,414.6,113.1,418.5z"/>
<path class="st2" d="M370.2,395.1c0.1-6.1,0.6-12.2,1.5-18.3c0.7-5.1,1.5-10.3,2-15.4c0.5-5.1,0.5-10.3,0.1-15.4
	c-0.5-7.3-1.5-14.5-2.8-21.7c-1-5-2.2-10-2.7-15.2c-0.4-4.4-0.6-8.8-0.4-13.2c2,2.5,4,5,6,7.5c1.4,1.7,2.8,3.5,4.7,4.7
	c0.6,0.4,1.1,0.5,1.7,0.2c5.1-1.8,9.3-7.9,9.2-13.3c0-0.7-0.3-1-0.8-1.3c-2.2-1-4.6-1.5-7-1.9c-2.1-0.3-4.1-0.5-5.8-2
	c-2-1.9-4-3.9-5.6-6.2c0.5-1.3,1.1-2.5,2.2-3.3c1.1,0.1,2,0.9,2.9,1.3c9.3,3.8,18.8,6.3,29,5.4c3.6-0.3,7.2-1,10.6-2.4
	c0.6,0,0.4,0.5,0.4,0.8c0.3,12.7,2.7,25,5.2,37.4c1.7,8.4,3.5,16.7,5,25.1c1.8,9.9,0.3,19.3-4,28.3c-4.1,8.8-7.7,17.9-10.3,27.3
	c-1.4,5-2.5,10.1-3.4,15.2c0,0.2,0,0.5,0,0.7c-0.7,3.2-1,6.5-1.4,9.8c0,0.9-0.6,0.9-1.2,1c-2,0.4-3.9,0.7-5.9,1
	c-7.1,1.3-14.2,2.6-21.3,4c-0.6,0.1-1.2,0.1-1.6-0.5c0.1-0.8-0.3-1.5-0.5-2.3c-1.7-5.5-3-11.2-4-16.9c-0.3-2.3-0.6-4.5-0.9-6.8
	C370.4,404.3,370.2,399.7,370.2,395.1z M389.9,419.9c0.2-3.6,0.7-7.1,1.2-10.6c0.7-5.4,1.7-10.8,3.2-16c2.6-9.4,6-18.5,10.4-27.2
	c0.7-1.3,1.9-2.5,1.8-3.9c-0.1-1.4-1.1-2.8-1.7-4.1c-3.1-6.7-6.2-13.5-9.4-20.3c-0.1,0.4-0.2,0.7-0.3,1.1c-2.4,13-4.9,26-7.3,39
	c-0.9,4.7-1.8,9.5-2,14.2c-0.3,5.8,0.2,11.6,1.4,17.2C388,413,388.8,416.5,389.9,419.9z"/>
<path class="st3" d="M414.9,284.7c-3.4,1.4-6.9,2.1-10.6,2.4c-10.2,0.9-19.7-1.6-29-5.4c-1-0.4-1.8-1.2-2.9-1.3
	c-0.2-0.3-0.2-0.6-0.2-0.9c-0.2-4.1-0.5-8.2-0.7-12.3c-0.2-4.8-1-9.4-2.7-13.9c-1-2.7-2.2-5.4-3.5-8.2c-0.1,0.3-0.2,0.4-0.3,0.6
	c-1.2,4.6-2.3,9.2-3.5,13.8c-0.3,1.1-0.4,2.2-0.2,3.3c0.4,1.7,1.3,3.1,2,4.7c0.5,1,1,2.1,0.4,3.3c-0.6-1-1.1-2.1-2-3
	c-2.1-2.2-4.1-2.5-7-1c-2.6,1.3-3.6,3.5-3.1,6.2c0.3,1.4,1.1,2.6,1.5,4c-2.5-1.1-3.8-3.3-4.9-5.7c-1.3-2.9-1.5-6-1.4-9.1
	c0.1-4.4,0.5-8.8,0.8-13.2c0.6-7.5,0.7-15,2.1-22.4c0.8-4.1,2.2-7.9,4.7-11.3c1-1.4,2.1-2.7,4-3c0.1,0,0.3-0.1,0.4-0.2
	c2.3-2.3,5.2-3.5,8-4.9c5.1-2.7,10.2-5.3,15.4-7.7c0.3-0.1,0.7-0.2,1-0.4c-0.8,1.4-1.9,2.6-3.1,3.6c-0.3,0.3-0.5,0.5-0.3,1
	c1.7,3.6,3.5,7.1,6.1,10.1c1.8,2,3.8,3.6,6.5,4.2c0.9,0.2,1.6,0,2.2-0.5c2.5-2,4.5-4.4,6-7.2c1.8,0.3,3.1-0.5,4.3-1.8
	c1-1.2,1.8-2.4,2.5-3.7c0.4-0.8,1.1-1.5,0.9-2.5l0.1,0c0.2,0,0.3-0.1,0.3-0.3c0.1-0.1,0.1-0.1,0.2-0.1c0.9,1.1,1.8,2.2,3.2,2.8
	c8.7,3.2,12.9,10,15.1,18.5c1.3,5.1,1.9,10.4,3,15.6c0.7,3,1.6,5.9,2.8,8.8c0.7,1.7,1.2,3.5,0.9,5.4c-0.1,0.4-0.2,0.7-0.3,1
	c-0.1-0.2-0.2-0.4-0.2-0.5c-0.9-2.5-2.6-3.8-5.3-3.8c-1.2,0-2.3,0.4-3.4,0.6c-1.1-1.8-1.8-3.9-2.8-5.8c-0.7-1.3-1.3-2.6-1.9-4
	c-0.2,0.3-0.2,0.6-0.2,0.8c0.1,4.1-0.1,8.2-0.9,12.2c-0.1,0.8-0.7,1.6-0.1,2.4c-0.4,1.6-1,3.2-0.9,4.8c-1.1,1.5-2.2,2.9-3.3,4.4
	c-3.2,4.1-6.4,8.2-9.6,12.3c-0.2,0.2-0.5,0.5-0.5,0.8c0.1,0.4,0.5,0.2,0.8,0.2c2.7,0.3,5.5,0.6,8.2,1c0.8,0.1,1.5,0.1,2.2-0.4
	C415.6,280.9,415.2,282.8,414.9,284.7z"/>
<path class="st4" d="M279.1,33.2c5.4,2,10.5,4.5,15.5,7.3c5.8,3.2,8.3,8.3,8.8,14.7c0.7,8,1.7,16,2.5,24.1c0.2,2.3,0.5,4.6,0.2,6.9
	c-0.4,2.8-1.7,5-4,6.7c-0.8-2-2.1-3.4-4.2-4.1c-1.2-0.3-2.4-0.3-3.6-0.3c0-4.4-0.1-8.8,0-13.2c0.1-2.5-1.5-4.7-4.6-4.6
	c-5.2,0.1-10.4,0-15.6,0c0.4-3.2,0.8-6.4,1.2-9.5c0.5-3.4,1-6.8,1.4-10.2c0.4-3.6,1.2-7.2,0.5-10.9c0.2-1.2,0.5-2.4,0.3-3.7
	c-0.1-0.3,0.1-0.5,0.2-0.8C278.1,34.8,278.6,34,279.1,33.2z"/>
<path class="st4" d="M241.5,109.4c-4.5-0.1-9-0.2-13.5-0.3c-0.3,0-0.6,0-0.8-0.2c0.3-0.3,0.6-0.6,0.9-1c2.4-3.8,4.6-7.8,6-12.1
	c0.2-0.5,0.3-1-0.1-1.4c-2-2.1-2.5-4.7-2.6-7.4c-0.1-3.8,0.5-7.6,0.8-11.5c0.4-5.3,0.9-10.7,1.3-16c0.3-3,0.6-6,1.4-9
	c1.3-4.2,4.1-7.2,7.8-9.4c1.1-0.6,2.1-1.2,3.3-1.7c4.7-2,9.2-4.5,13.4-7.3c0.4,0.8,1.4,1.4,1,2.4c-0.3,0.8-0.4,1.6-0.5,2.4
	c-1.6,2.1-2.2,4.5-2.6,7c-0.6,4.4-0.7,8.9-1,13.3c-0.1,1.5-0.2,3-0.3,4.5c-0.2,3-0.7,5.9-0.6,8.9c-5.2,0-10.5,0-15.7,0.1
	c-2.2,0-3.8,1.5-3.8,3.7c0,9.6,0,19.2,0,28.8c0,2.2,1.6,3.7,3.8,3.8c1.2,0,2.3,0,3.5,0.1C242.6,107.7,242.1,108.6,241.5,109.4z"/>
<path class="st5" d="M408.7,202.3c0.2,1-0.5,1.7-0.9,2.5c-0.7,1.3-1.5,2.6-2.5,3.7c-1.1,1.4-2.5,2.1-4.3,1.8
	c-2.4-0.9-4.6-2.2-6.7-3.6c-2.9-1.9-5.3-4.1-6.4-7.5c-0.4-1.2-0.5-2.3,0-3.6c1.1-2.8,1.3-5.7,0.5-8.7c-0.7-2.6-2.2-3.6-4.8-3.2
	c0-2.8,0.1-5.5,0.4-8.2c0-0.1-0.1-0.3-0.1-0.4c0.3-0.4,0.4-0.8,0.5-1.3c1.8-6.3,8-10.9,14.4-10.7c6.9,0.2,12.9,5.2,14.3,11.8
	c0.5,2.6,0.6,5.2,0.3,7.9c-0.6,0-1.1,0.3-1.5,0.6c-0.6,0.4-1.2,0.6-1.9,0.8c-2.3,0.5-4.3-0.4-6.1-1.7c-1.5-1.1-2.5-2.6-3.8-3.8
	c-1.8-1.7-3.9-1.5-5.3,0.6c-0.9,1.3-1.1,2.9-0.8,4.4c0.3,1.4,0.5,2.7-1.3,3.3c-0.4,0.1-0.7,0.6-1,1c-1.4,1.9-1.6,4-1,6.1
	c1.6,5.3,4.7,9.7,9,13.1c1.9,1.5,4.4,2.1,6-1.4C406.3,204.2,407.2,203,408.7,202.3z"/>
<path class="st6" d="M260.1,36.9c0.1-0.8,0.2-1.6,0.5-2.4c0.3-1-0.6-1.6-1-2.4c-0.6-1.7-1.7-3.2-1.8-5.1c0.1-2.4,0.5-4.8,1.2-7.1
	c1.1-3.4,2.2-3.8,5.3-2.1c3.5,2,7.1,2,10.7,0.1c2.1-1.1,2.7-0.8,3.4,1.3c1,2.8,1.6,5.7,2.4,8.5c-0.6,0.5-0.4,1.2-0.6,1.8
	c-0.4,1.1-0.7,2.3-1.1,3.5c-0.5,0.8-1,1.5-1.5,2.3c-0.2,0.2-0.3,0.5-0.2,0.8c0.3,1.2-0.1,2.5-0.3,3.7c-0.4,1-0.7,2-1.2,3
	c-2.4,5.2-8.4,6.3-12.6,2.3C261,43,260.2,40.1,260.1,36.9z"/>
<path class="st6" d="M408.7,202.3c-1.5,0.7-2.3,1.9-3,3.3c-1.5,3.5-4,2.9-6,1.4c-4.3-3.4-7.4-7.8-9-13.1c-0.6-2.1-0.4-4.2,1-6.1
	c0.3-0.4,0.6-0.9,1-1c1.8-0.6,1.6-1.8,1.3-3.3c-0.3-1.5-0.1-3,0.8-4.4c1.4-2,3.5-2.3,5.3-0.6c1.3,1.2,2.3,2.8,3.8,3.8
	c1.9,1.3,3.8,2.2,6.1,1.7c0.7-0.1,1.3-0.4,1.9-0.8c0.5-0.3,0.9-0.6,1.5-0.6c-0.5,6.6-1.7,13-4.2,19.2c-0.1,0-0.1,0-0.2,0.1
	C408.9,202.1,408.8,202.2,408.7,202.3L408.7,202.3z"/>
<path class="st7" d="M280.7,27.9c-0.8-2.8-1.4-5.7-2.4-8.5c-0.7-2.2-1.3-2.4-3.4-1.3c-3.6,1.9-7.2,1.9-10.7-0.1
	c-3.1-1.7-4.2-1.3-5.3,2.1c-0.7,2.3-1.2,4.6-1.2,7.1c-2.1-1.4-2.5-3.7-3-5.9c-1.2-5.9,0.2-11.1,4.3-15.6c2.3-2.5,5.2-3.5,8.5-3.6
	c2.1-0.1,4.1,0.2,6.1,0.7c5.9,1.7,9.2,6.1,9.5,12.7C283.3,19.8,282.2,23.9,280.7,27.9z"/>
<path class="st6" d="M418.2,260.7c0-1.7,0.5-3.2,0.9-4.8c1.1-2.8,3.3-4.5,5.9-5.7c1.1-0.2,2.2-0.6,3.4-0.6c2.7,0,4.4,1.2,5.3,3.8
	c0.1,0.2,0.2,0.4,0.2,0.5c0.4,3.2-0.7,6-2.4,8.5c-2,3-4,6.1-5.2,9.6c-1,2.6-2.9,3.9-5.8,3.8c-0.7,0-1.4-0.1-2.1-0.1
	c-0.5-0.2-1-0.4-1.5-0.6c-2.9-1.3-3.4-3.7-1.1-6c2-2,5.3-2.6,8-1.4c0.4,0.2,0.8,0.6,1.2,0c1.8-2.3,3.7-4.5,5.5-6.7
	c0.3-0.4,0.5-0.9,0.3-1.3c-0.2-0.5-0.7-0.4-1.1-0.4c-2.5-0.2-5-0.4-7.5-0.7c-1.4-0.2-2.6-0.1-3.3,1.3
	C418.7,260.2,418.4,260.5,418.2,260.7z"/>
<path class="st8" d="M418.2,260.7c0.2-0.3,0.5-0.5,0.7-0.8c0.7-1.4,2-1.5,3.3-1.3c2.5,0.3,5,0.5,7.5,0.7c0.4,0,1-0.1,1.1,0.4
	c0.2,0.5,0,0.9-0.3,1.3c-1.9,2.2-3.7,4.5-5.5,6.7c-0.5,0.6-0.8,0.2-1.2,0c-2.7-1.1-6-0.6-8,1.4c-2.3,2.2-1.8,4.6,1.1,6
	c0.5,0.2,1,0.4,1.5,0.6c-0.6,0.8-1.2,1.5-1.9,2.3c-0.3,0.3-0.5,0.6-0.5,1c-0.7,0.6-1.4,0.5-2.2,0.4c-2.7-0.4-5.5-0.7-8.2-1
	c-0.3,0-0.7,0.1-0.8-0.2c-0.1-0.3,0.3-0.5,0.5-0.8c3.2-4.1,6.4-8.2,9.6-12.3C416,263.7,417.1,262.2,418.2,260.7z"/>
<path class="st6" d="M294.2,88.5c1.2,0,2.4,0,3.6,0.3c2.1,0.6,3.4,2.1,4.2,4.1c0.5,1.9,0,3.7-0.6,5.5c-1.2,1.7-2.8,3-4.7,3.9
	c-0.8,0.1-1.6,0.5-2.5,0.5c-2.8,0.2-4.8-0.9-5.6-3.6c-0.7-2.3-0.8-4.7-0.2-7c0.4-1.6,1.4-2.5,2.9-3.1
	C292.3,88.6,293.2,88.5,294.2,88.5z"/>
<path class="st4" d="M296.8,102.2c1.9-0.9,3.5-2.2,4.7-3.9c0.4,0.5,0.7,1.1,0.8,1.7c0.9,4.1,3.1,7,7.3,8.4c-0.3,0.2-0.6,0.3-0.8,0.4
	c-3,0.4-6,0.3-9,0.1C299.7,106.2,298.8,104,296.8,102.2z"/>
<path class="st9" d="M113.1,418.5c-0.9-3.9-0.6-7.6,1.5-11.1c3.1,1.8,6.2,3.5,9.5,4.7c4.8,1.7,9.1,4,12.7,7.8
	c2.2,2.4,5.4,3.2,8.6,3.4c3.1,0.2,6-0.6,8.8-1.7c0.3,0.9,1.1,1.2,1.7,1.8c2.1,2.2,4,4.5,6.3,6.4c0.7,1.1,1.7,1.8,2.7,2.5
	c4.4,3.3,9.1,6.1,13.9,8.8c0.6,0.8,1.1,1.6,1.3,2.6c0.3,1.5,0.5,3.1,0.5,4.7c0,1.7,0.4,3.4-1,4.9c-4.1,1.2-8.1,0.6-12.1-0.3
	c-1.8-0.4-3.6-1-5.4-1.6c-0.2-0.1-0.4-0.3-0.6-0.4c-4.7-2-9-4.5-13.3-7.2c-1.7-1.1-3.5-2.1-5.3-3.1c-1.7-1.1-3.4-2.2-5.3-3
	c-2.4-1.5-5-2.4-7.6-3.5c-3.6-1.6-7.3-3.1-10.4-5.5C116.5,425.9,114.2,422.6,113.1,418.5z"/>
<path class="st10" d="M178.9,441.1c-4.8-2.7-9.5-5.5-13.9-8.8c-1-0.7-2-1.4-2.7-2.5c2.4-0.8,4.8-1.5,7.1-2.3
	c4.9-1.9,9.5-4.3,13.5-7.8c2.4-2.1,4.8-4.3,7.4-6.2c1.9-1.4,3.7-2.7,5.6-4c1.3-0.8,2.7-1.6,4-2.4c3.3-2.1,6.7-2.9,10.5-1.5
	c1.7,0.6,3,1.7,4.5,2.7c0.9,1.1,1.9,2.1,2.6,3.4c2,3.5,1.9,7.1,0.6,10.8c-0.2,0.5-0.4,1-0.6,1.6c-3.7,6.5-9.9,9.8-16.3,13
	c-0.3,0.1-0.5,0.3-0.9,0c-2.2-1.4-4.3-0.9-6.4,0.2c-1.8,0.1-3.4,0.7-5,1.4c-2,0.9-4,1.8-6.2,1.9
	C181.4,440.6,180.1,440.7,178.9,441.1z"/>
<path class="st7" d="M376.3,434.8c0.4,0.6,1,0.6,1.6,0.5c7.1-1.3,14.2-2.7,21.3-4c2-0.4,3.9-0.7,5.9-1c0.6-0.1,1.2-0.2,1.2-1
	c2.2-1,3.9,0,5.5,1.5c2.6,2.4,5.7,4.1,9.2,4.8c1.9,0.4,3.9,0.5,5.8,0.8c2.7,0.5,4.9,1.6,5.8,4.5c-1.1,0-2.1,0.5-3.1,0.7
	c-6.4,1.4-12.9,2-19.5,1.9c-0.4,0-0.8-0.1-1.2,0.1c0.4,0.4,0.8,0.8,1.2,1.1c0.4,0.7,0.9,1.4,0.9,2.3c-3.4,0.6-6.8,1.2-10.2,1.4
	c-5.6,0.2-11.3,0.1-16.8-1.3c-3.4-0.9-6.7-2-9.8-3.7C374,440.4,374.7,437.5,376.3,434.8z"/>
<path class="st11" d="M178.9,441.1c1.2-0.4,2.5-0.5,3.8-0.6c2.2-0.1,4.2-1,6.2-1.9c1.6-0.7,3.2-1.3,5-1.4c4.5,0.3,6.8,4.3,7.5,8.1
	c0.4,2.4,0.3,4.7-0.8,6.9c-0.8,1.6-2.3,2.4-4.1,2.3c-3.1-0.2-6.3-0.5-9.4-0.6c-2.4-0.1-4.9-0.2-7.3-0.5c1.4-1.4,1-3.2,1-4.9
	c0-1.6-0.2-3.2-0.5-4.7C180,442.7,179.5,441.9,178.9,441.1z M188.9,446.7c0.1-1.5-0.2-3-0.8-4.4c-0.2-0.4-0.3-1-0.9-0.9
	c-0.6,0.1-0.6,0.7-0.6,1.1c0,0.7,0,1.4,0.1,2.1c0.3,2.1,0.9,4.3-0.5,6.3c-0.2,0.3-0.1,0.6,0.2,0.9c0.4,0.3,0.8,0.3,1.1,0.1
	c0.5-0.3,0.8-0.8,0.9-1.3C188.7,449.2,188.9,448,188.9,446.7z M192.8,448c0-2.4-0.4-4.4-0.8-6.4c0-0.2-0.1-0.4-0.2-0.6
	c-0.2-0.3-0.4-0.6-0.9-0.5c-0.4,0.1-0.4,0.5-0.4,0.8c0,0.2,0,0.5,0.1,0.7c0.8,3.1,0.8,6.1,0.2,9.2c-0.1,0.4-0.3,0.9,0.2,1
	c0.5,0.2,0.7-0.3,0.9-0.6C192.6,450.5,192.8,449.1,192.8,448z M183.8,447.1c0,1.1-0.2,2.5-0.8,3.8c-0.1,0.4-0.2,0.9,0.2,1.1
	c0.5,0.2,0.7-0.3,0.9-0.6c1.4-2.6,1.6-5.2,0.5-8c-0.1-0.3-0.3-0.6-0.5-0.8c-0.2-0.3-0.6-0.5-1-0.3c-0.4,0.2-0.1,0.6,0,0.8
	C183.6,444.3,183.7,445.5,183.8,447.1z"/>
<path class="st11" d="M137.8,437.6c1.9,0.8,3.6,1.8,5.3,3c-0.5,1.2-0.3,2.3,0.2,3.5c0.8,1.8,1.7,3.6,2.6,5.4c0.5,1,1.1,1.9,2,2.7
	c-6.7,0.8-13.5,0.8-20.2,0.1c-0.7-0.1-1.4-0.1-2.1-0.2c-3.6-0.7-5-3.3-3.4-6.6c1.5-3.3,4.3-5.2,7.6-6.4
	C132.3,438,135,437.7,137.8,437.6z M139.7,444.3c0-0.3,0-0.6,0-0.8c0-0.4-0.1-1-0.6-1c-0.5,0-0.6,0.5-0.6,0.9
	c-0.3,2.3-1.2,4.4-2.5,6.2c-0.3,0.4-0.5,0.8-0.1,1.2c0.4,0.4,0.9,0.3,1.3,0.1c0.4-0.2,0.6-0.5,0.8-0.8
	C139,448.3,139.7,446.4,139.7,444.3z M134.6,442.1c-0.3,0.2-0.3,0.5-0.4,0.8c-0.3,2.4-1.3,4.5-2.6,6.5c-0.2,0.4-0.8,0.8-0.3,1.2
	c0.4,0.4,0.9,0.1,1.3-0.2c0.6-0.4,1-0.9,1.3-1.5c0.7-1.5,1.1-3.2,1.1-4.9C135,443.4,135.2,442.7,134.6,442.1z M143,446.2
	c-0.1-0.5-0.1-1.1-0.2-1.7c-0.1-0.6,0-1.6-0.7-1.6c-0.6,0-0.4,1-0.5,1.5c-0.3,1.7-0.1,3.6-1,5.2c-0.2,0.3-0.7,0.6-0.2,1
	c0.4,0.4,0.8,0.1,1.2-0.1c0.5-0.3,0.8-0.8,0.9-1.3C142.9,448.2,143,447.3,143,446.2z"/>
<path class="st10" d="M147.8,452.1c-0.9-0.7-1.5-1.7-2-2.7c-0.9-1.8-1.7-3.6-2.6-5.4c-0.5-1.1-0.7-2.3-0.2-3.5c1.8,1,3.6,2,5.3,3.1
	c4.3,2.7,8.6,5.2,13.3,7.2c0.2,0.1,0.4,0.3,0.6,0.4c-4,0.4-8.1,0.8-12.1,1.1C149.4,452.5,148.6,452.4,147.8,452.1z"/>
<path class="st5" d="M373.9,443.5c3.1,1.6,6.4,2.8,9.8,3.7c5.5,1.4,11.2,1.6,16.8,1.3c3.4-0.1,6.8-0.8,10.2-1.4
	c0.2,1.3,0,1.6-1.3,1.9c-6.2,1.3-12.4,1.7-18.8,1c-5.2-0.6-10.3-1.8-15.2-3.8C373.7,445.5,373.7,445.4,373.9,443.5z"/>
<path class="st5" d="M409.9,444.7c-0.4-0.4-0.7-0.7-1.2-1.1c0.4-0.3,0.8-0.2,1.2-0.1c6.6,0.1,13-0.6,19.5-1.9c1-0.2,2-0.7,3.1-0.7
	c0.5,1.5,0.4,1.8-1.2,2.2c-6.3,1.5-12.6,2-19,1.9C411.5,444.9,410.7,444.8,409.9,444.7z"/>
<path class="st12" d="M180.3,361.3c0.3-0.1,0.6,0,0.9,0.1c3.9,1.3,7.8,2.7,11.8,4c4,1.3,6.9,3.8,9.4,7.1c4.1,5.4,8,11,11.7,16.6
	c0.1,0.2,0.2,0.4,0.3,0.6c-0.4,0.1-0.7-0.2-1-0.3c-3.7-1.5-7.1-1.1-10.2,1.4c-1.2,1-2,2.3-2.3,3.8c-0.2,1.3,0.2,2.4,1.4,3.2
	c-1.4,0.5-2.7,0.9-4.1,1c-1.1-1-2.2-2-3.4-3c-1.2-1-2.6-0.7-3.5,0.6c-0.6,0.9-0.6,1.9-0.6,2.9c-0.6,0-1.1-0.1-1.6-0.4
	c-2.7-1.2-5.3-2.6-8.4-2.3c-0.3-4.2-0.6-8.4-0.9-12.5c-0.2-2.4-0.8-2.9-3.2-2.8c-9,0.5-17.9,1.1-26.9,1.7c-1.4,0.1-2,0.9-1.9,2.4
	c0.5,4.2,1.1,8.3,1.5,12.5c0.5,4,1.1,8,1.4,12c-1.4,0.2-2.6-0.5-3.9-0.7c-0.1-2.2-0.3-4.4-0.4-6.7c-0.2-4-1.2-7.7-3.6-10.9
	c-1.3-1.7-2.4-1.7-3.8-0.2c-0.4,0.4-0.6,0.8-0.9,1.2c-0.8,1-1.2,2.2-2.1,3.1c0-1,0-2,0-3c-0.1-1.7-0.5-3.3-1.5-4.8
	c-0.6-0.9-1.1-1.9-1.7-2.7c-2.2-3-5.1-4.8-8.8-5.2c0.1-0.6,0.6-1,1-1.5c8.6-8.9,18.6-15.4,30.8-18.2c0.7-0.2,1.4-0.3,2.1-0.4
	c0.5,1.4,1,2.8,1.4,4.2c0.6,1.7,1.4,3.3,3,4.4c0.5,0.4,1,0.7,1.4,1.2c1.4,1.7,3.2,2.5,5.3,1.9c3.4-0.9,6.4-2.8,8.6-5.6
	C178.8,364.6,180,363.2,180.3,361.3z"/>
<path class="st13" d="M296.8,102.2c2,1.8,3,4.1,3,6.7c0,2.7-0.9,5.2-2.1,7.5c-3.3,6.5-6.6,12.9-9.8,19.4c-0.2,0.4-0.5,0.8-0.5,1.3
	c-0.2,0.2-0.4,0.4-0.5,0.7c-1.6,3.1-3.2,6.2-4.8,9.2c-1.4,2.8-2.7,5.6-4.3,8.3c-0.3,0.5-0.4,0.9-0.4,1.5c-0.5,0-0.6,0.5-0.8,0.8
	c-1.2,2-2.6,3.9-4.4,5.5c-0.3,0.3-0.7,0.6-1.1,0.7c-0.4,0-0.4-0.3-0.5-0.6c-1-2-1.8-4.1-3.3-5.9c-2-2.4-4.2-3.2-7.1-1.9
	c-1.7,0.8-3.3,1.7-4.8,2.9c-0.7-4.6,0.8-8.7,3-12.7c1-1.8,2-3.6,3.1-5.4c0.2-0.3,0.5-0.7,0.3-1.1c0.5,0,0.6-0.5,0.8-0.8
	c5.4-9.2,11.8-17.7,18-26.3c1.2-1.7,2.7-3.2,3.6-5c1.8,0,3.6,0,5.5,0c3.1,0,4.4-1.2,4.6-4.3C295.1,102.7,295.9,102.3,296.8,102.2z"
	/>
<path class="st6" d="M123.9,380.1c3.7,0.4,6.6,2.2,8.9,5.2c0.6,0.9,1.1,1.8,1.7,2.7c0.2,1.3-0.3,2.2-1.4,2.9c-1.6,1-3.3,2.1-4.9,3.2
	c-0.6,0.3-1.2,0.6-1.8,0.8c-0.7,0.2-0.7,0.5-0.5,1.2c0.9,3.1,3.4,4.6,5.9,6.1c0.1,0.5,0.6,0.6,0.9,0.9c1.6,1.1,3.2,2.2,4.9,3.3
	c1.6,1.1,3.2,2.1,5.2,2.2c1.4,0.5,2.8,0.6,4.3,0.7c1.3,0.2,2.6,0.9,3.9,0.7c0.3,0.3,0.7,0.4,1.2,0.5c2.3,0.6,4.6,1.1,6.8,2.1
	c1.1,0.5,1.6,1.3,1.6,2.5c0,1.1-0.4,2-0.8,2.9c-1.5,1.6-3.4,2.6-5.3,3.6c-2.9,1-5.8,1.9-8.8,1.7c-3.2-0.2-6.4-1-8.6-3.4
	c-3.5-3.8-7.9-6.1-12.7-7.8c-3.3-1.2-6.5-2.9-9.5-4.7c-1.2-1.1-2.6-2-3.7-3.2c-5.2-5.4-5.1-10.6,0.5-15.6c3.7-3.3,7.8-6,12.3-8.3
	C123.7,380.2,123.8,380.2,123.9,380.1C123.9,380.1,123.9,380.1,123.9,380.1z"/>
<path class="st6" d="M180.8,396.7c3.1-0.2,5.7,1.2,8.4,2.3c0.5,0.2,1,0.4,1.6,0.4c2.5,0.5,5,0.1,7.5-0.5c1.4-0.1,2.6-0.5,4.1-1
	c-1.2-0.9-1.6-1.9-1.4-3.2c0.3-1.6,1.1-2.9,2.3-3.8c3.1-2.5,6.5-2.9,10.2-1.4c0.3,0.1,0.6,0.4,1,0.3l0,0c0.1,0.1,0.2,0.2,0.3,0.3
	c1.4,1.6,3.1,3,4.3,4.8c1.5,2.1,2.8,4.3,3.4,6.8c0.6,2.8,0,3.9-2.6,4.9c-1.6,0.6-3.3,1.2-4.9,1.8c-1.5-1-2.8-2-4.5-2.7
	c-3.8-1.5-7.2-0.7-10.5,1.5c-1.3,0.8-2.6,1.6-4,2.4c-1.6-0.2-3.2,0-4.6,0.7c-1.7,0.8-3.5,1.2-5.4,1.5c-1.3,0.2-2.6,0.1-3.9,0.3
	c-1.9-0.2-3.9-0.2-5.8-0.8c-3.5-1-5.6-4.5-4.6-8C172.6,399.1,176.1,396.7,180.8,396.7z"/>
<path class="st6" d="M353.2,277.1c-0.4-1.4-1.2-2.6-1.5-4c-0.5-2.8,0.5-4.9,3.1-6.2c2.9-1.5,4.9-1.2,7,1c0.8,0.9,1.4,1.9,2,3
	c0.6,2.1,1.5,4.1,2.4,6.1c1.1,2.4,2.3,4.7,4,6.7c1.6,2.3,3.6,4.3,5.6,6.2c1.6,1.5,3.7,1.8,5.8,2c2.4,0.3,4.8,0.8,7,1.9
	c0.6,0.3,0.8,0.6,0.8,1.3c0.1,5.4-4.1,11.5-9.2,13.3c-0.6,0.2-1.1,0.1-1.7-0.2c-1.9-1.2-3.3-3-4.7-4.7c-2-2.5-4-5-6-7.5
	c-2.8-3.5-5.5-7.1-8.3-10.7c-2-2.5-4.1-5-5.9-7.7C353.5,277.4,353.3,277.3,353.2,277.1z"/>
<path class="st6" d="M180.3,361.3c-0.3,1.9-1.5,3.3-2.7,4.7c-2.3,2.8-5.2,4.7-8.6,5.6c-2.1,0.6-3.9-0.2-5.3-1.9
	c-0.4-0.5-0.9-0.9-1.4-1.2c-1.6-1.1-2.4-2.6-3-4.4c-0.5-1.4-1-2.8-1.4-4.2c-0.2-1.6-1-3-1.8-4.4c-1.2-2.2-1.6-4.5-1.3-6.9
	c1.1,1.9,1.4,4,2,6.1c0.1-1,0.1-2.1,0.1-3.1c0-0.9-0.1-1.8,0.4-2.6c1.3-1.8,2-3.9,2.5-6c0.3-1.4,1.2-1.6,2.3-0.8
	c4,2.8,8.1,2.8,12.2,0.2c1.5-1,2.4-0.6,3,1c1,2.6,1.4,5.2,1.4,8c0,1,0,2,0.6,3c0.6-2,1.2-3.9,1.8-5.8c0.4,0.9,0.2,1.9-0.1,2.8
	c-0.9,2.6-1.7,5.1-2.7,7.6c-0.3,0.9-0.2,1.3,0.6,1.6C179.4,360.8,179.8,361.1,180.3,361.3z"/>
<path class="st13" d="M241.5,109.4c0.6-0.8,1.1-1.7,1.9-2.4c4.1,0,8.3,0,12.4,0c0,0.3,0.3,0.4,0.5,0.6c2,1.4,3.8,2.9,5.4,4.7
	c1.1,1.2,2.1,2.4,3.3,3.5c1.7,1.4,3.2,3.2,4.8,4.6c0.5,0.5,0.4,0.8,0.1,1.3c-0.9,1.3-1.8,2.6-2.6,3.9c-2.5,3.8-5.2,7.5-7.5,11.4
	c-5.4-6-10.8-12-15.9-18.2c-1.4-1.7-2.6-3.7-2.9-6C240.9,111.6,241.3,110.5,241.5,109.4z"/>
<path class="st7" d="M181,348.6c-0.6,1.9-1.2,3.8-1.8,5.8c-0.7-1-0.6-2-0.6-3c0.1-2.8-0.4-5.4-1.4-8c-0.6-1.7-1.5-2-3-1
	c-4.1,2.6-8.1,2.6-12.2-0.2c-1.2-0.8-2-0.5-2.3,0.8c-0.5,2.2-1.2,4.2-2.5,6c-0.5,0.7-0.4,1.7-0.4,2.6c0,1,0,2-0.1,3.1
	c-0.6-2.1-0.9-4.2-2-6.1c-1.6-5.1,0.1-9.7,2-14.2c1-2.3,2.9-3.7,5.4-4.1c3.6-0.6,7.2-0.9,10.8,0c4.6,1.1,6.9,3.6,7.4,8.3
	C180.6,342,180.6,345.4,181,348.6z"/>
<path class="st7" d="M296.4,150.8c2.2,2.1,4.4,4.3,6.7,6.3c1.4,1.2,2.6,2.7,3.2,4.5c1.1,3.5-0.4,6.1-4.1,6.9
	c-2.2,0.2-4.4-0.3-6.5-0.9c-3-0.8-5.8-0.7-8.6,0.7c-2.1,1.1-3.7,2.6-4.8,4.7c-0.1,0.2-0.1,0.9-0.6,0.3c-0.3-3.1,0.1-6.2,1-9.2
	c0.1-0.4,0.2-0.8,0.3-1.3c0.4-1.1,0.8-2.2,1.2-3.4c0.9-2.7,1.9-5.4,4.2-7.2C291.2,150.1,293.6,148.9,296.4,150.8z"/>
<path class="st7" d="M259.9,136.9c2.3-3.9,5-7.6,7.5-11.4c0.8-1.3,1.7-2.6,2.6-3.9c0.3-0.5,0.5-0.8-0.1-1.3
	c-1.7-1.5-3.1-3.2-4.8-4.6c-1.2-1-2.2-2.3-3.3-3.5c-1.7-1.7-3.5-3.3-5.4-4.7c-0.2-0.2-0.5-0.3-0.5-0.6c9.4,0,18.9,0,28.3,0
	c-0.9,1.9-2.4,3.4-3.6,5c-6.2,8.6-12.6,17.1-18,26.3c-0.2,0.3-0.3,0.8-0.8,0.8C261.1,138.5,260.5,137.7,259.9,136.9z"/>
<path class="st6" d="M383.7,183.8c2.6-0.3,4.1,0.6,4.8,3.2c0.8,2.9,0.6,5.9-0.5,8.7c-0.5,1.3-0.4,2.4,0,3.6c1.1,3.4,3.5,5.6,6.4,7.5
	c2.1,1.4,4.3,2.7,6.7,3.6c-1.5,2.8-3.5,5.2-6,7.2c-0.7,0.5-1.4,0.7-2.2,0.5c-2.7-0.5-4.8-2.2-6.5-4.2c-2.7-3-4.4-6.5-6.1-10.1
	c-0.2-0.5,0-0.7,0.3-1c1.2-1.1,2.3-2.2,3.1-3.6c0.3-0.3,0.6-0.7,0.7-1.2c0.8-1.1,1.2-2.5,1.6-3.8c0.2-0.6,0-1.2-0.4-1.6
	c-0.4-0.5-0.8-1-1.2-1.5C383.1,188.7,383.3,186.3,383.7,183.8z"/>
<path class="st7" d="M255.4,158.3c1.5-1.2,3.1-2.1,4.8-2.9c3-1.3,5.2-0.5,7.1,1.9c1.5,1.8,2.3,3.9,3.3,5.9c0.1,0.2,0.1,0.6,0.5,0.6
	c-0.2,0.5,0.1,0.9,0.2,1.4c0.8,1.8,1.6,3.6,2.2,5.5c0.6,1.7-0.2,2.8-1.9,3c-0.9-0.4-1.6-0.9-2.2-1.8c-1-1.3-2.3-2.2-3.9-2.6
	c-2.6-0.8-5.3-0.6-8-0.7c-2.7-0.1-5.2-0.8-7.2-2.9c-0.9-1.1-0.5-2,0.3-2.9C252.1,161.1,253.8,159.7,255.4,158.3z"/>
<path class="st13" d="M296.4,150.8c-2.9-2-5.2-0.7-7.9,1.5c-2.3,1.9-3.3,4.6-4.2,7.2c-0.4,1.1-0.8,2.2-1.2,3.4
	c-1.7-1.2-2.9-2.9-4.2-4.4c0.5,0,0.5-0.4,0.7-0.7c3.2-6.2,6.4-12.3,9.6-18.5c2.1,2.4,4.1,4.8,5.8,7.5
	C295.8,148.1,296.4,149.4,296.4,150.8z"/>
<path class="st5" d="M250.4,165.7c2,2.1,4.5,2.8,7.2,2.9c2.7,0.1,5.4-0.1,8,0.7c1.6,0.5,2.9,1.4,3.9,2.6c0.6,0.8,1.3,1.4,2.2,1.8
	c-0.2,0.7-0.8,1-1.4,1.2c-1.4,0.4-2.9,0.2-4.3-0.1c-3.8-1-7.6-2.1-11.4-3.3c-1-0.3-1.9-0.7-2.6-1.4
	C250.7,168.9,250,167.6,250.4,165.7z"/>
<path class="st5" d="M281.8,173.4c0.5,0.7,0.5-0.1,0.6-0.3c1.1-2,2.7-3.6,4.8-4.7c2.8-1.4,5.6-1.6,8.6-0.7c2.1,0.6,4.3,1,6.5,0.9
	c-3.5,1.7-6.9,3.4-10.9,3.9c-2.2,0.3-4.2,1.3-6.2,2c-0.5,0.2-1.1,0.4-1.6,0.5C282.4,175.2,281.9,174.7,281.8,173.4z"/>
<path class="st7" d="M289.2,139.3c-3.2,6.2-6.4,12.3-9.6,18.5c-0.2,0.3-0.2,0.7-0.7,0.7c-0.5-0.6-1-1.1-1.5-1.7c0-0.5,0.1-1,0.4-1.5
	c1.6-2.7,2.8-5.5,4.3-8.3c1.6-3.1,3.2-6.2,4.8-9.2c0.1-0.2,0.3-0.4,0.5-0.7C288,137.8,288.6,138.5,289.2,139.3z"/>
<path class="st14" d="M384.2,191.1c0.4,0.5,0.8,1,1.2,1.5c0.4,0.5,0.6,1,0.4,1.6c-0.4,1.3-0.8,2.7-1.6,3.8
	C384.2,195.8,384.2,193.4,384.2,191.1z"/>
<path class="st12" d="M214.7,390c-0.1-0.1-0.2-0.2-0.3-0.3C214.6,389.7,214.6,389.9,214.7,390z"/>
<path class="st12" d="M123.9,380.1c-0.1,0.1-0.2,0.1-0.2,0.2C123.7,380.2,123.7,380.1,123.9,380.1z"/>
<path class="st1" d="M370.2,283.7c-1.7-2-3-4.3-4-6.7c-0.9-2-1.8-4-2.4-6.1c0.6-1.2,0-2.2-0.4-3.3c-0.7-1.6-1.7-3-2-4.7
	c-0.2-1.1-0.1-2.2,0.2-3.3c1.1-4.6,2.3-9.2,3.5-13.8c0-0.1,0.1-0.3,0.3-0.6c1.3,2.8,2.5,5.4,3.5,8.2c1.7,4.5,2.5,9.1,2.7,13.9
	c0.2,4.1,0.5,8.2,0.7,12.3c0,0.3,0,0.6,0.2,0.9C371.2,281.2,370.7,282.4,370.2,283.7z"/>
<path class="st13" d="M425,250.2c-2.6,1.2-4.8,2.9-5.9,5.7c-0.6-0.8-0.1-1.7,0.1-2.4c0.8-4.1,1-8.1,0.9-12.2c0-0.2,0-0.5,0.2-0.8
	c0.6,1.3,1.3,2.7,1.9,4C423.2,246.4,423.9,248.4,425,250.2z"/>
<path class="st5" d="M408.8,202.4c0-0.2,0.1-0.3,0.3-0.3C409,202.2,409,202.4,408.8,202.4z"/>
<path class="st8" d="M284.1,107c-9.4,0-18.9,0-28.3,0c-4.1,0-8.3,0-12.4,0c-1.2,0-2.3,0-3.5-0.1c-2.2-0.1-3.8-1.6-3.8-3.8
	c0-9.6,0-19.2,0-28.8c0-2.2,1.6-3.7,3.8-3.7c5.2,0,10.5,0,15.7-0.1c6.1,0,12.3,0,18.4,0c5.2,0,10.4,0.2,15.6,0
	c3.2-0.1,4.7,2.1,4.6,4.6c-0.1,4.4,0,8.8,0,13.2c-1,0-2,0.2-2.9,0.5c-1.5,0.5-2.5,1.5-2.9,3.1c-0.5,2.4-0.5,4.8,0.2,7
	c0.8,2.7,2.8,3.8,5.6,3.6c-0.2,3.1-1.6,4.3-4.6,4.3C287.8,107,285.9,107,284.1,107z M268.5,88.9c0-2.3-1.2-3.6-3.4-3.6
	c-2.1,0-3.6,1.5-3.6,3.5c0,1.9,1.5,3.5,3.5,3.5C267,92.3,268.5,90.9,268.5,88.9z"/>
<path class="st5" d="M274,70.7c-6.1,0-12.3,0-18.4,0c-0.1-3,0.4-5.9,0.6-8.9c0.1-1.5,0.2-3,0.3-4.5c0.3-4.4,0.4-8.9,1-13.3
	c0.3-2.5,1-4.9,2.6-7c0.2,3.1,0.9,6.1,3.3,8.4c4.1,4,10.2,2.9,12.6-2.3c0.4-1,0.8-2,1.2-3c0.7,3.7-0.1,7.3-0.5,10.9
	c-0.4,3.4-0.9,6.8-1.4,10.2C274.8,64.3,274.4,67.5,274,70.7z"/>
<path class="st15" d="M181.9,411.9c1.3-0.2,2.6-0.1,3.9-0.3c1.9-0.2,3.7-0.7,5.4-1.5c1.5-0.7,3-0.9,4.6-0.7c-1.9,1.3-3.7,2.7-5.6,4
	c-2.6,1.9-4.9,4.1-7.4,6.2c-4,3.5-8.5,5.9-13.5,7.8c-2.4,0.9-4.8,1.5-7.1,2.3c-2.3-2-4.2-4.3-6.3-6.4c-0.6-0.6-1.4-0.9-1.7-1.8
	c1.9-1,3.8-1.9,5.3-3.6c0.6,0,1.3,0,1.9-0.1c5.6-0.5,11.3-1.1,16.9-1.6c2.9-0.2,3.6-1,3.5-3.9C181.9,412.3,181.9,412.1,181.9,411.9z
	"/>
<path class="st7" d="M188.9,446.7c0.1,1.3-0.2,2.5-0.5,3.8c-0.1,0.5-0.4,1.1-0.9,1.3c-0.4,0.2-0.8,0.2-1.1-0.1
	c-0.3-0.2-0.4-0.5-0.2-0.9c1.4-2,0.8-4.1,0.5-6.3c-0.1-0.7-0.1-1.4-0.1-2.1c0-0.5,0-1,0.6-1.1c0.6-0.1,0.8,0.5,0.9,0.9
	C188.6,443.7,188.9,445.1,188.9,446.7z"/>
<path class="st7" d="M192.8,448c0.1,1.1-0.1,2.5-0.9,3.7c-0.2,0.3-0.4,0.8-0.9,0.6c-0.5-0.2-0.3-0.7-0.2-1c0.6-3.1,0.6-6.2-0.2-9.2
	c-0.1-0.2-0.1-0.5-0.1-0.7c0-0.3,0-0.7,0.4-0.8c0.4-0.1,0.7,0.2,0.9,0.5c0.1,0.2,0.2,0.4,0.2,0.6C192.3,443.7,192.8,445.7,192.8,448
	z"/>
<path class="st7" d="M183.8,447.1c0-1.6-0.2-2.8-0.6-3.9c-0.1-0.3-0.4-0.6,0-0.8c0.4-0.2,0.7,0,1,0.3c0.2,0.2,0.4,0.5,0.5,0.8
	c1.1,2.7,0.9,5.4-0.5,8c-0.2,0.3-0.3,0.8-0.9,0.6c-0.5-0.2-0.4-0.7-0.2-1.1C183.5,449.5,183.8,448.1,183.8,447.1z"/>
<path class="st7" d="M139.7,444.3c-0.1,2.1-0.7,4-1.7,5.8c-0.2,0.4-0.5,0.7-0.8,0.8c-0.4,0.2-0.9,0.3-1.3-0.1
	c-0.4-0.4-0.1-0.8,0.1-1.2c1.3-1.9,2.2-3.9,2.5-6.2c0-0.4,0.1-0.9,0.6-0.9c0.6,0,0.6,0.5,0.6,1C139.7,443.7,139.7,444,139.7,444.3z"
	/>
<path class="st7" d="M134.6,442.1c0.6,0.5,0.4,1.2,0.4,1.9c0,1.7-0.4,3.3-1.1,4.9c-0.3,0.6-0.7,1.2-1.3,1.5
	c-0.4,0.2-0.9,0.5-1.3,0.2c-0.5-0.5,0.1-0.9,0.3-1.2c1.4-2,2.3-4.1,2.6-6.5C134.3,442.6,134.3,442.3,134.6,442.1z"/>
<path class="st7" d="M143,446.2c-0.1,1.1-0.1,2.1-0.5,3c-0.2,0.5-0.4,1-0.9,1.3c-0.4,0.2-0.8,0.5-1.2,0.1c-0.4-0.4,0.1-0.7,0.2-1
	c0.9-1.6,0.7-3.5,1-5.2c0.1-0.5-0.1-1.5,0.5-1.5c0.7,0,0.6,1,0.7,1.6C143,445.1,143,445.7,143,446.2z"/>
<path class="st8" d="M181.9,411.9c0,0.2,0,0.4,0,0.6c0.1,2.9-0.6,3.6-3.5,3.9c-5.6,0.5-11.3,1.1-16.9,1.6c-0.6,0.1-1.3,0.1-1.9,0.1
	c0.4-0.9,0.9-1.8,0.8-2.9c-0.1-1.2-0.5-2-1.6-2.5c-2.2-1-4.5-1.5-6.8-2.1c-0.4-0.1-0.8-0.2-1.2-0.5c-0.3-4-0.9-8-1.4-12
	c-0.5-4.2-1-8.3-1.5-12.5c-0.2-1.5,0.5-2.3,1.9-2.4c9-0.6,17.9-1.2,26.9-1.7c2.4-0.1,3,0.4,3.2,2.8c0.4,4.2,0.6,8.4,0.9,12.5
	c-4.7,0-8.2,2.5-9.2,6.5c-0.9,3.5,1.1,7,4.6,8C178.1,411.7,180,411.7,181.9,411.9z"/>
<path class="st1" d="M131.6,402.2c-2.5-1.5-4.9-3-5.9-6.1c-0.2-0.7-0.2-1,0.5-1.2c0.6-0.2,1.2-0.5,1.9-0.8c1.1,1.4,2.6,2.5,4.2,3.1
	c1.7,0.6,2.3,0.4,3.3-1.1c0.1-0.1,0.1-0.2,0.2-0.3v0c0.9-0.9,1.4-2.1,2.1-3.1c0.3-0.4,0.6-0.8,0.9-1.2c1.4-1.5,2.6-1.5,3.8,0.2
	c2.4,3.2,3.4,7,3.6,10.9c0.1,2.2,0.3,4.5,0.4,6.7c-1.4-0.1-2.9-0.2-4.3-0.7c-0.7-1-1.7-1.7-2.7-2.3
	C137.4,404.4,134.7,402.8,131.6,402.2z"/>
<path class="st2" d="M135.7,396c-1.1,1.6-1.7,1.8-3.3,1.1c-1.7-0.6-3.1-1.7-4.2-3.1c1.6-1.1,3.2-2.1,4.9-3.2
	c1.1-0.7,1.7-1.6,1.4-2.9c1,1.4,1.4,3,1.5,4.8c0,1,0,2,0,3v0C135.8,395.8,135.8,395.9,135.7,396z"/>
<path class="st1" d="M198.2,398.9c-2.4,0.6-4.9,1-7.5,0.5c0-1,0-2,0.6-2.9c0.9-1.3,2.2-1.6,3.5-0.6
	C196,396.9,197.1,397.9,198.2,398.9z"/>
<path class="st9" d="M131.6,402.2c3.1,0.6,5.7,2.2,8.3,4c1,0.7,1.9,1.4,2.7,2.3c-2,0-3.6-1.1-5.2-2.2c-1.6-1.1-3.2-2.2-4.9-3.3
	C132.2,402.8,131.7,402.7,131.6,402.2z"/>
<path class="st14" d="M268.5,88.9c0,1.9-1.5,3.4-3.5,3.4c-1.9,0-3.5-1.6-3.5-3.5c0-2,1.5-3.5,3.6-3.5
	C267.3,85.4,268.5,86.7,268.5,88.9z"/>
<path class="st12" d="M135.7,396c0.1-0.1,0.1-0.2,0.2-0.3C135.8,395.8,135.8,395.9,135.7,396z"/>
</svg>
