<?xml version="1.0" encoding="utf-8"?>
<!-- Generator: Adobe Illustrator 27.5.0, SVG Export Plug-In . SVG Version: 6.00 Build 0)  -->
<svg version="1.1" id="Layer_1" xmlns="http://www.w3.org/2000/svg" xmlns:xlink="http://www.w3.org/1999/xlink" x="0px" y="0px"
	 width="677.2px" height="676.7px" viewBox="0 0 677.2 676.7" style="enable-background:new 0 0 677.2 676.7;" xml:space="preserve"
	>
<style type="text/css">
	.st0{fill:#D70567;}
	.st1{fill:#FFFFFF;}
	.st2{enable-background:new    ;}
</style>
<g>
	<circle class="st0" cx="337.7" cy="339.7" r="325.3"/>
	<g>
		<g id="Layer_2_00000020368982889904773340000007250923061923717544_">
			<g id="color2">
				<path class="st1" d="M311.9,247.7c-2.7,0.2-5.5,2.4-5.2,5.9c0.2,2.9,2.5,5.5,5.1,5.4c3,0,5.4-2.4,5.4-5.6
					C317.2,249.5,314.3,247.7,311.9,247.7L311.9,247.7z"/>
				<path class="st1" d="M334.7,253.9c-3,0-5.2,2.4-5.2,5.5c0,3.3,2,5.5,5.2,5.5c3.3,0.2,5.3-2.4,5.5-5.9
					C340.2,256.4,337.4,253.8,334.7,253.9z"/>
				<path class="st1" d="M261.3,261.6c-4.3-2.9-9-4.5-14.3-3.2c-2.2,0.6-4.2,2.4-4.2,4.1c0,1.9,1.6,3.6,3.8,4
					c0.7,0.2,1.2,0.2,1.9,0.1c5.2-0.7,10.4-2.1,15.7-1.8c0.1,0,0.1-0.1,0.2-0.2C263.9,263.2,262.5,262.4,261.3,261.6z"/>
				<path class="st1" d="M339.6,243.3c0-4.6-3.7-7.9-7.3-7.6c-4.2-0.1-7.3,3.2-7.3,7.6c-0.1,4.4,3.1,7.7,7.2,7.8
					C336.5,251.1,339.6,247.7,339.6,243.3L339.6,243.3z"/>
				<path class="st1" d="M261.5,219.5c-5.5,1.1-8.4,5.1-8.2,10.3c0.1,2.4,1.1,4.4,3.3,5.4c2.4,1.1,5.1,1.4,7.3-0.4
					c1.7-1.4,2.8-3.3,2.4-5.5c-0.3-2-2.1-2.4-4.4-2.6c2.9-1.2,4.6-0.9,5.9,1c1.2,1.5,0.7,3.2,0.1,4.6c-1.8,4.4-4.9,8-7.3,12.1
					c-4.5,7.7-1.7,13.4,4.6,17.8c0.2,0.2,0.6,0.5,0.9,0.2c0.3-0.2,0-0.7-0.2-0.9c-4.2-5.9-3.3-12,1.1-17.4c2.3-2.8,4.4-5.7,5.9-9
					c1.3-2.9,2.1-5.8,1.1-9C272.5,220.1,267.4,218.2,261.5,219.5z"/>
			</g>
		</g>
		<g id="layer1">
			<g id="color1">
				<path class="st1" d="M408.1,282.7c-0.7-0.6-1.6-0.7-2.6-0.7c-0.2,0.2-0.3,0.2-0.5,0c-0.6,0.1-1.1,0.2-1.5,0.2
					c-0.2,0.4-0.6,0.2-0.9,0.2c-0.7,0.1-1.5,0.2-2.2,0.2c-0.2,0.4-0.6,0.3-0.9,0.2c-0.2,0.1-0.6,0.1-0.8,0.2c-0.2,0.3-0.7,0.2-1,0.1
					c-1.1,0.2-2.1,0.2-3.3,0.4c-0.2,0.2-0.2,0.2-0.5,0.1c-11.2,1.2-22.2,2-33.4,2c-15.2,0-30.2-1.1-45.2-3.2
					c-7.6-1-15.1-2.3-22.4-4.2c-3.6-1-7.1-2.2-10.7-3.3c-1.1-0.2-2.4-0.8-2.9,0.4c-0.4,1.1,1.1,1.7,2,2.3c5,2.9,10.3,5.1,15.8,6.9
					c13,4.2,26.5,6.4,40.1,7.4c14.3,1.1,28.8,1.1,43-0.4c0.7-0.1,1.5-0.2,2.4,0.2c-0.7,1-1.5,1.2-2.3,1.7c-8.2,4.6-17.4,6-26.6,6.8
					c-7.2,0.5-14.3,0.2-21.4-0.2c-14.3-1.2-28.3-4-41.2-10.8c-7.3-3.8-14.2-8.2-19-15.2c-0.7-1.1-1.6-2-2.8-2.5
					c-0.4-0.2-0.9-0.6-1.5-0.2c-0.5,0.4-0.5,0.9-0.4,1.4c0.2,0.9,0.6,1.7,1.1,2.5c5.8,9.5,13.7,16.7,23.6,21.6
					c7.3,3.5,14.8,5.9,22.7,7.7c9.5,2.1,18.9,3.3,28.6,3.4c9.9,0.1,19.5-1.1,29.1-3.5c9-2.3,17.7-5.5,25.7-10.3
					c0-0.3,0.2-0.5,0.6-0.4c0.2-0.1,0.3-0.2,0.5-0.2c0-0.3,0.2-0.5,0.5-0.4c1.9-1.1,3.3-2.6,5.1-4.1c0-0.3,0.2-0.5,0.5-0.4
					c1-1.1,2-2,2.7-3.3c-0.2-0.2-0.1-0.5,0.2-0.6c0.2-0.3,0.2-0.7,0.1-1.1C408.1,283.2,408,283,408.1,282.7L408.1,282.7z"/>
				<path class="st1" d="M408.5,256.5c-9-6.4-19.4-9.5-29.9-12.5c-2.9-0.7-5.7-1.4-9-2.2c3.8-2,7.3-4,10.7-5.8
					c6.3-3.3,12.6-6.5,19.4-8.7c1.7-0.6,3.6-1,5.5-0.7c1.5,0.2,2,1.1,1.1,2.4c-0.6,1-1.5,1.5-2.3,2.4c-0.7,0.8-1.5,1.8-0.7,2.9
					c0.7,1.1,1.9,1.1,2.9,0.6c4.1-1.9,7.3-4.6,9-8.6c1.4-2.9,0.2-5.9-2.5-7.5c-2.6-1.5-5.5-1.8-8.5-1.7c-5.1,0.2-9.9,1.5-14.7,3.3
					c-9.1,3.6-17.7,8.3-26.1,13.3c-5.4,3.2-10.7,6.4-15.8,10c0.3,0.7,0.8,0.6,1.1,0.7c4.7,0.8,9.5,1.8,14.1,2.9
					c10.4,2.5,20.6,5.5,30.5,9.6c3.5,1.5,7,2.9,9.7,5.6c2.4,2.5,2,5-1.4,6.3c-2.4,1-5.1,1.4-7.7,1.7c-7.7,1.1-15.6,1.3-23.3,1.5
					c-16,0.6-31.9,0.5-47.8-1.5c-11.4-1.4-22.7-3.1-33.8-6.4c-3.5-1.1-7-2.2-9.9-4.6c-2-1.7-2.4-3.7-1.1-5.9
					c0.5-0.8,1.1-1.6,1.5-2.4c1-1.5,0.7-2.8-1-3.5c-1-0.5-2-0.5-2.9,0c-2,0.9-3.6,2-5.1,3.5c-3.1,3.2-3.6,6.8-1.2,10.7
					c3.3,5.1,8.2,8.2,13.7,10.1c11.7,4.1,23.7,5.9,35.9,7.5c9.6,1.2,19.4,1.6,29.2,2c15.7,0.7,31.5,1.1,47.2-1.3
					c5.1-0.7,9.9-1.9,14.3-4.3c6.2-3.3,7.5-9.4,3.2-14.9C411.7,259.1,410.2,257.7,408.5,256.5L408.5,256.5z"/>
			</g>
		</g>
	</g>
	<g class="st2">
		<path class="st1" d="M132.1,327c11.2,0,19.6,3.5,27.2,10.5c1,0.9,1,2.2,0.1,3.1l-8.8,9.1c-0.8,0.8-2,0.8-2.8,0
			c-4.2-3.7-9.7-5.7-15.2-5.7c-12.7,0-22,10.6-22,23.2c0,12.5,9.4,22.8,22.1,22.8c5.3,0,11-1.9,15.1-5.4c0.8-0.7,2.2-0.7,2.9,0.1
			l8.8,9.3c0.8,0.8,0.7,2.2-0.1,3c-7.6,7.4-17.3,10.9-27.3,10.9c-22.5,0-40.6-17.9-40.6-40.4C91.6,345.1,109.7,327,132.1,327z"/>
		<path class="st1" d="M165.6,364c0-1.2,1-2.1,2.1-2.1h12c1.1,0,2.1,0.9,2.1,2.1v20.8c0,4.6,2.6,8.7,7.2,8.7c4.4,0,6.7-4.2,6.7-8
			V364c0-1.8,1.2-2.1,2.4-2.1h11.5c1.1,0,2.1,0.9,2.1,2.1v40.7c0,1.1-1,2.1-2.1,2.1h-5.3c-1,0-1.8-0.8-2.1-1.6l-1.7-4.2
			c-2.9,2.8-6.5,6.9-15.2,6.9c-13.4,0-19.8-10.8-19.8-23.6V364z"/>
		<path class="st1" d="M224,364c0-1.2,1-2.1,2.1-2.1h5.3c1.2,0,1.7,0.7,2,1.3l2,4.9c2.2-3.3,6.4-7.4,12.3-7.4c6.2,0,10.6,2.2,9,4.8
			l-5.5,9c-0.4,0.8-1.2,1.5-2.5,1c-0.6-0.2-1.7-0.6-2.7-0.6c-3.4,0-6,2.6-6,6.4v23.3c0,1.3-0.7,2.1-2.5,2.1h-11.5
			c-1.1,0-2.1-1-2.1-2.1V364z"/>
		<path class="st1" d="M262.7,364c0-1.2,1-2.1,2.1-2.1h5.3c1.2,0,1.7,0.7,2,1.3l2,4.9c2.2-3.3,6.4-7.4,12.3-7.4
			c6.2,0,10.6,2.2,9,4.8l-5.5,9c-0.4,0.8-1.2,1.5-2.5,1c-0.6-0.2-1.7-0.6-2.7-0.6c-3.4,0-6,2.6-6,6.4v23.3c0,1.3-0.7,2.1-2.5,2.1
			h-11.5c-1.1,0-2.1-1-2.1-2.1V364z"/>
		<path class="st1" d="M298.5,364.8c-0.7-1.5,0.2-2.9,1.9-2.9h12.8c0.9,0,1.6,0.6,1.9,1.2l8.7,20.9h0.2l8.9-20.9
			c0.2-0.7,1-1.2,1.9-1.2h12.7c1.7,0,2.7,1.5,1.9,2.9L315,439.2c-0.3,0.7-1,1.3-1.9,1.3h-12.6c-1.7,0-2.7-1.5-1.9-3l16.7-35.3
			L298.5,364.8z"/>
		<path class="st1" d="M419.4,327c11.2,0,19.6,3.5,27.2,10.5c1,0.9,1,2.2,0.1,3.1l-8.8,9.1c-0.8,0.8-2,0.8-2.8,0
			c-4.2-3.7-9.7-5.7-15.2-5.7c-12.7,0-22,10.6-22,23.2c0,12.5,9.4,22.8,22.1,22.8c5.3,0,11-1.9,15.1-5.4c0.8-0.7,2.2-0.7,2.9,0.1
			l8.8,9.3c0.8,0.8,0.7,2.2-0.1,3c-7.6,7.4-17.3,10.9-27.3,10.9c-22.5,0-40.6-17.9-40.6-40.4C378.9,345.1,396.9,327,419.4,327z"/>
		<path class="st1" d="M455.2,330.3c0-1.1,1-2.1,2.1-2.1h12.4c1.1,0,2.1,1,2.1,2.1v74.4c0,1.1-1,2.1-2.1,2.1h-12.4
			c-1.1,0-2.1-1-2.1-2.1V330.3z"/>
		<path class="st1" d="M482.9,364c0-1.2,1-2.1,2.1-2.1h12c1.1,0,2.1,0.9,2.1,2.1v20.8c0,4.6,2.6,8.7,7.2,8.7c4.4,0,6.7-4.2,6.7-8
			V364c0-1.8,1.2-2.1,2.4-2.1H527c1.1,0,2.1,0.9,2.1,2.1v40.7c0,1.1-1,2.1-2.1,2.1h-5.3c-1,0-1.8-0.8-2.1-1.6l-1.7-4.2
			c-2.9,2.8-6.5,6.9-15.2,6.9c-13.4,0-19.8-10.8-19.8-23.6V364z"/>
		<path class="st1" d="M541.3,330.3c0-1.1,1-2.1,2.1-2.1h12.5c1.1,0,2.1,1,2.1,2.1v32.6c1.3-0.8,5.5-2.1,9.3-2.1
			c12,0,22.4,7.8,22.4,23.6c0,12.9-9.6,23.6-22.3,23.6c-9.9,0-15.1-7.1-15.1-7.1l-1.3,3.7c-0.4,1.2-1.2,2.2-2.4,2.2h-5.3
			c-1.1,0-2.1-1-2.1-2.1V330.3z M565.2,393.4c5.2,0,9.1-4,9.1-9.2c0-5.1-3.9-9-9.1-9c-5.2,0-9,3.9-9,9
			C556.2,389.4,560,393.4,565.2,393.4z"/>
	</g>
</g>
</svg>
