<?xml version="1.0" encoding="utf-8"?>
<!-- Generator: Adobe Illustrator 27.6.1, SVG Export Plug-In . SVG Version: 6.00 Build 0)  -->
<svg version="1.1" id="Layer_1" xmlns="http://www.w3.org/2000/svg" xmlns:xlink="http://www.w3.org/1999/xlink" x="0px" y="0px"
	 width="677.2px" height="676.7px" viewBox="0 0 677.2 676.7" style="enable-background:new 0 0 677.2 676.7;" xml:space="preserve"
	>
<style type="text/css">
	.st0{fill:#EDECED;}
	.st1{fill:#D31E52;}
	.st2{fill:#43474F;}
</style>
<circle class="st0" cx="337.7" cy="339.7" r="325.3"/>
<path class="st1" d="M435.4,331.3c0.6,0.6,0.6,1.1,0.6,1.7c0,2.6,0,5.4,0,8c0,1.1-0.6,1.7-1.7,1.7c-10,0-19.9,0-29.9,0
	c-2.6,0-2.6,0-2.6,2.6c0,4-0.3,8.3-0.3,12.2c0,2,0.6,2.6,2.3,2.6c11.1,0,22.2,0,33.3,0c2.3,0,2.3,0,2.3,2.3c0,3.1,0,6.3,0,9.4
	c0,1.1-0.3,1.4-1.4,1.4c-16.8,0-33.6,0-50.4,0c-1.1,0-1.4-0.3-1.4-1.4c0-22.2,0-44.7,0-66.9c0-1.7,0.3-2.3,2-2.3
	c16.2,0,32.5,0,48.7,0c1.7,0,2.3,0.3,2,2c0,2.8,0,6,0,8.8c0,1.4-0.3,1.7-1.7,1.7c-10.8,0-21.9,0-32.7,0c-2.6,0-2.6,0-2.6,2.6
	c0,3.7,0,7.7,0,11.4c0,1.7,0.3,2,2.3,1.7c0.6-0.3,1.1-0.3,1.7-0.3c8.5,0,17.1,0,25.9,0C432.6,331,434,331,435.4,331.3L435.4,331.3z"
	/>
<path class="st1" d="M376.8,303.1c-9.1,9.1-17.7,17.9-26.5,26.8c-0.9,0.9-0.9,2.6,0,3.1c0.6,0.3,1.1,0.9,1.4,1.4
	c4,5.4,7.7,10.8,11.7,16.5c2,2.8,3.7,5.7,5.7,8.3c3.4,4.8,6.8,9.4,10.5,14.5c-1.1,0-2,0-2.8,0c-4.6,0-9.4,0-14,0
	c-1.4,0-2.6-0.6-3.4-1.7c-6.3-9.4-12.5-18.8-19.1-28.2c-1.1-1.7-1.4-1.7-2.8-0.3c-2.3,2.3-4.6,4.6-6.8,6.8c-0.9,0.9-0.6,1.7-0.6,2.3
	c-0.9,2,0.6,3.7,0.3,5.7c-0.3,2,0,4,0,6c0,2.6,0,5.4,0,8c0,1.1-0.3,1.7-1.4,1.7c-4,0-8.3,0-12.2,0c-0.9,0-1.7,0-1.4-1.1
	c0.3-3.1-0.6-6-0.3-9.1c0.3-2.8,0-5.7,0.3-8.5c0.3-6.8,0-13.7,0-20.5c0-10,0-19.9,0-29.9c0-1.1,0.3-1.7,1.4-1.4
	c4,0.6,8.3,0.3,12.2,0.3c1.4,0,1.7,0.3,1.7,1.7c0,8.5,0,17.1,0,25.9c0,0.6-0.3,1.1,0.3,1.4c0.6,0.3,0.9-0.3,1.1-0.6
	c8.3-8.8,16.5-17.4,24.8-26.5c1.4-1.4,3.1-1.7,4.6-1.7C365.9,302.8,371.3,303.1,376.8,303.1z"/>
<path class="st2" d="M476.7,373.4c-8,0-15.9,0-23.9,0c-2.6,0-2.8-0.3-2.8-2.8c0.6-9.4,0-18.8,0.3-27.9c0-12.5,0-25.1,0-37.6
	c0-1.7,0.6-2,2-2c14.2,0,28.2,0,42.4,0c2.6,0,4.8,0.3,7.4,0.3c0.9,0,1.1,0.3,1.1,0.9c0,3.4,0,6.8,0,10.3c0,1.4-0.9,1.4-1.7,1.4
	c-11.1,0-21.9,0-33,0c-1.7,0-2.6,0.3-2.3,2.3c0.3,3.7,0,7.4,0,11.1c0,1.4,0.3,1.7,1.7,1.7c10.3,0,20.2,0,30.5,0c1.4,0,2,0.3,2,2
	c-0.3,2.6,0,5.4,0,8c0,1.4-0.3,1.7-1.7,1.7c-10,0-19.9,0-29.6,0c-0.9,0-2-0.3-2.8,0.3c-0.9,0.9,0,1.7,0,2.6c0,4.3,0,8.5,0,12.5
	c0,1.7,0.6,2,2,2c11.4,0,22.5,0,33.9,0c2.3,0,2.3,0,2.3,2.3c0,2.8,0,5.7,0,8.5c0,2.3,0,2.3-2.3,2.3
	C492.9,373.4,484.7,373.4,476.7,373.4z"/>
<path class="st2" d="M567.3,373.4c-1.7,0-3.4,0-5.4,0c-2.8,0-3.1-0.3-3.4-2.8c-0.6-3.1-1.7-6-2.8-8.8c-0.3-0.9-0.6-2-0.9-2.8
	s-0.9-1.1-1.7-1.1c-8,0-15.9,0-23.9,0c-0.9,0-1.4,0.3-1.7,1.1c-1.4,4.6-3.1,8.8-4.6,13.4c-0.3,1.1-1.1,1.7-2.3,1.7c-4,0-8,0-12,0
	c-1.7,0-1.7-0.6-1.1-1.7c1.4-3.4,2.6-7.1,4-10.5c2.3-5.7,4.6-11.1,6.5-16.8c5.1-13.4,10.3-26.8,15.1-40.2c0.3-1.1,0.9-1.4,2-1.4
	c4.3,0,8.5,0,12.8,0c1.1,0,1.4,0.3,2,1.4c5.7,15.7,11.7,31.3,17.4,46.7c2.6,7.1,5.4,14.2,8,21.4c0.3,0.9-0.6,0.9-0.9,0.9
	C571.8,373.4,569.5,373.4,567.3,373.4z M541.4,346.1c2.6,0,4.3,0,6.3,0c2.3,0,2.6,0,1.7-2.3c-2.3-6.8-4.6-13.4-6.8-20.2
	c-0.3-0.9-0.6-1.7-0.9-2.6c0-0.3-0.3-0.6-0.6-0.6s-0.6,0.3-0.6,0.6c-2.8,8-5.7,15.9-8.5,23.9c-0.6,1.7,0,2,1.7,1.7
	C536.5,345.8,539.4,346.4,541.4,346.1z"/>
<path class="st2" d="M597.7,303.1c8.8,0,17.9,0,26.8,0c1.7,0,2,0.3,2,2c0,2.8,0,6,0,8.8c0,1.4-0.3,2-1.7,2c-5.7,0-11.4,0-17.4,0
	c-1.4,0-2,0.3-2,1.7c-0.3,14.2,0,28.5,0,43c0,3.7,0,7.7,0,11.4c0,1.4-0.6,1.7-1.7,1.7c-4,0-8,0-12,0c-1.4,0-1.7-0.6-1.7-1.7
	c0-15.4,0-30.8,0-46.1c0-2.6,0-5.4,0-8c0-1.1-0.3-1.7-1.7-1.7c-6,0-12,0-17.7,0c-1.4,0-2-0.3-1.7-1.7c0-3.1,0-6.3,0-9.4
	c0-1.1,0.3-1.7,1.7-1.7C579.5,303.1,588.6,303.1,597.7,303.1L597.7,303.1z"/>
<path class="st1" d="M227.3,338.1c0-11.1,0-22.2,0-33.3c0-1.4,0.6-1.7,1.7-1.7c4,0,7.7,0,11.7,0c1.7,0,2,0.6,2,2.3
	c0,17.7,0,35.6,0,53.3c0,1.4,0.3,1.7,1.7,1.7c10,0,20.2,0,30.2,0c2.6,0,2.6,0,2.6,2.3c0,3.1,0,6.3,0,9.1c0,0.9,0,1.4-1.4,1.4
	c-9.4,0-18.8,0-28.2,0c-6.3,0-12.2,0-18.5,0c-1.4,0-1.7-0.6-1.7-2C227.3,360.6,227.3,349.2,227.3,338.1z"/>
<path class="st1" d="M301.3,338.4c0,11.1,0,22.2,0,33.3c0,1.4-0.3,1.7-1.7,1.7c-4.3,0-8.3,0-12.5,0c-1.4,0-1.7-0.3-1.7-1.7
	c0-21.1,0-42.1,0-63.2c0-0.9,0-1.7-0.3-2.3c-0.3-1.7,0.9-3.1,2.6-3.1c4,0,8,0,12,0c1.4,0,1.7,0.3,1.7,1.7
	C301.3,315.9,301.3,327.3,301.3,338.4z"/>
<path class="st2" d="M213.6,338.4c0,11.1,0,21.9,0,33c0,2.3,0,2-2.3,2c-3.4-0.3-6.8,0-10.3,0c-3.1,0-2.8,0.3-2.8-2.8
	c0-21.9,0-43.6,0-65.5c0-2.3,0-2.3,2.3-2.3c3.7,0,7.4,0,11.1,0c1.7,0,2.3,0.3,2,2C213.3,316.2,213.6,327.3,213.6,338.4L213.6,338.4z
	"/>
<path class="st1" d="M435.4,331.3L435.4,331.3V331C435.4,331.3,435.4,331.3,435.4,331.3z"/>
<path class="st1" d="M106.8,394.5c-4.3,0-7.4,0.3-10.5-0.6c-2.8-0.6-5.7-1.4-8.5-2.6c-4-1.4-7.7-3.4-11.4-5.7
	c-3.4-2-6.3-4.6-10.5-5.7c-3.1-0.6-6.3-1.4-9.4-2c-0.9-0.3-1.1-0.3-0.9-1.1c0.6-3.1,0.6-6.3,0-9.4c-0.3-1.7-0.3-3.7-0.6-5.7
	c-0.6-2.6-1.7-4.8-2.3-7.7c-1.4-5.1-2-10.5-2-15.9c0-4.3,0.6-8.5,1.7-12.5c1.4-6,4-11.7,7.1-16.8c1.1-2,1.7-4.3,2.6-6.3
	c1.4-2.8,3.1-5.7,5.1-8.5c2.6-3.1,5.7-5.7,9.1-7.7c3.4-2,7.4-3.1,11.4-3.7c6-0.9,11.7-0.3,17.4,0.6c1.7,0.3,3.4,1.1,4.8,1.1
	c0.6,0,1.4,0.9,2.3,1.1c2,0.6,4.8,1.4,6.5,2.6c3.4,2,6.5,3.7,10,6.3c12.8,9.1,22.5,21.1,28.5,35.9c3.4,8.3,5.1,17.1,4.3,26.2
	c-0.6,7.7-3.4,14.8-8.8,20.8c-4.6,5.1-10.3,8-16.5,9.7c-2.3,0.6-4.8,2-6.8,2.8c-3.1,1.4-6.3,2.6-9.7,3.4
	C115.1,393.9,110.5,394.8,106.8,394.5z M127.3,384c0.9,0,2,0,2.8,0s2-0.3,2.8-0.3c9.7-1.4,16.8-6.5,21.1-15.4
	c3.1-6.3,4-13.4,3.4-20.5c-0.6-4.8-1.4-9.4-3.1-14c-2.8-8-7.1-15.4-12.5-21.9c-6.8-8.3-14.2-14.2-23.4-19.1
	c-4.6-2.3-9.1-4.3-14.2-5.4c-5.4-1.1-10.8-2-16.8-1.1c-8.3,1.1-14.8,4.6-19.6,11.7c-3.4,5.1-5.1,10.8-5.7,17.1
	c-0.3,4.3,0,8.8,0.9,13.1c2.8,13.4,9.4,24.8,19.1,34.5c4.8,4.8,10,9.1,15.9,12.2C107.7,380.3,116.8,383.7,127.3,384z"/>
<path class="st0" d="M127.3,384c-10.5-0.3-19.6-3.4-28.8-8.5c-6-3.4-11.1-7.7-15.9-12.2c-9.4-9.7-16.2-21.4-19.1-34.5
	c-0.9-4.3-1.4-8.8-0.9-13.1c0.6-6.3,2-12,5.7-17.1c4.8-7.1,11.4-10.5,19.6-11.7c5.7-0.9,11.1-0.3,16.8,1.1c4.8,1.1,9.7,3.1,14.2,5.4
	c9.1,4.8,16.5,10.8,23.4,19.1c5.4,6.5,9.7,13.7,12.5,21.9c1.7,4.6,2.6,9.1,3.1,14c0.6,7.1-0.3,14-3.4,20.5
	c-4.3,8.8-11.7,14-21.1,15.4c-0.9,0.3-2,0.3-2.8,0.3C129.6,384,128.2,384,127.3,384z M107.7,329.6c0.3,0,0.6,0.3,0.6-0.3
	c0.3-0.3,0-0.6-0.3-0.6c-2-2-3.7-4.6-5.7-6.5c-7.4-9.1-14.8-17.7-21.9-26.8c-0.6-0.6-0.9-0.3-1.1,0c-2,1.7-4,3.4-5.4,5.4
	c-4.8,6.5-6,14-5.4,21.9c0,0.9,0.6,1.4,1.4,1.4c3.1,0.6,6.3,0.9,9.1,1.4c7.1,1.1,14,2,21.1,3.4C102.8,329,105.4,329,107.7,329.6z
	 M125.9,379.1c4.8,0.3,9.1-0.6,13.1-2.3c1.7-0.6,2.8-2,4.6-2.6c0.6-0.3,0.6-0.9,0.3-1.7c-3.4-4-6.5-8-10-12
	c-5.4-6.5-10.8-13.4-16.2-19.9c-0.3-0.6-0.6-1.1-1.1-0.9c-0.6,0.3-0.6,0.9-0.6,1.7c0,3.4-0.6,7.4-0.6,10.8
	c-0.3,4.6-0.6,8.8-0.6,13.4c-0.3,3.7-0.3,7.7-0.6,11.1c0,0.9,0.3,1.4,0.9,1.4C118.8,378.3,122.5,379.4,125.9,379.1z M153.5,350.6
	c0.3-2.3-0.6-4.8-0.6-7.4c-0.3-2-0.6-2.3-2.8-2.8c-4.8-0.6-10-1.4-14.8-2c-4.6-0.6-9.1-1.1-13.7-2c-0.3,0-0.6,0-0.9,0
	c-0.3,0.3,0,0.6,0.3,0.9c0.6,0.6,1.1,1.1,1.7,2c3.7,4.6,7.4,9.1,11.1,13.7c4.3,4.8,8.3,10.3,12.5,15.1c1.4,2,2,2,3.1-0.3
	C152.1,362.6,153.8,357.2,153.5,350.6z M112.2,326.1c0-0.3,0.3-0.3,0-0.6c-0.3-4,0.3-8,0.6-12.2c0-2.3,0.3-4.6,0.3-6.8
	c0.3-3.4,0.6-6.8,0.6-10.5c0-0.9-0.6-1.1-1.1-1.7c-6.3-2.8-13.4-3.7-20.2-3.4c-2.3,0.3-4.6,0.9-6.5,1.4c-0.9,0.3-1.1,0.6-0.6,1.4
	c0.9,0.9,1.7,2,2.6,3.1c7.7,9.4,15.7,19.1,23.4,28.8C111.1,325.6,111.4,326.1,112.2,326.1z M111.4,339.2c0-0.3,0-0.6,0-0.6
	c0-0.6,0.6-0.6,0-0.9c-0.6-0.3-0.6,0.3-0.9,0.6c-2.3,1.4-4.3,3.4-6.3,4.8c-3.1,2.3-6,5.1-9.1,7.7c-2.8,2.3-5.7,4.8-8.3,7.1
	c-0.6,0.6-0.6,0.9,0,1.7c5.1,4.6,10,9.1,16.2,12.5c2,0.9,3.7,2,5.7,3.4c0.6,0.6,1.1,0.3,1.1-0.6c0-0.6,0.3-1.1,0.3-1.7
	c0-3.4,0-6.5,0.6-10c0.6-4,0.3-7.7,0.6-12C111.1,347.2,111.1,343.2,111.4,339.2z M70.3,328.4c-0.6,0-1.1,0-0.6,0.9
	c0.6,2,1.4,4.6,2,6.5c2.3,6.3,6,12,10,17.7c0.9,1.1,1.4,0.9,2,0.3c0.9-0.9,2-2,3.4-2.6c4.8-4,9.7-8,14.8-12c1.7-1.4,3.4-2.6,4.8-4
	c0.3-0.3,0.6-0.6,0.6-0.6c-0.3-0.6-0.6-0.3-0.6-0.3c-0.6,0.3-1.4-0.3-2-0.3c-5.4-0.6-10.5-1.7-16.2-2.6
	C82.3,330.4,76.3,329.3,70.3,328.4z M150.9,335.5c0-0.3-0.3-0.6-0.3-0.6c-2.3-6.3-5.4-12-9.4-17.4c-2.6-3.4-1.7-3.7-5.4-0.6
	c-5.1,4.6-10.5,9.1-15.9,13.4c-0.3,0.3-0.9,0.6-0.9,0.9c0,0.6,0.6,0.6,1.1,0.6c4.3,0.6,8.5,1.1,12.8,2c5.7,0.9,11.7,1.7,17.4,2.8
	C150.7,336.1,150.9,336.1,150.9,335.5z M116.8,325c0,0.6-0.3,1.1,0.3,1.4c0.6,0.3,0.9-0.6,1.4-0.6c5.1-4.6,10.5-9.1,15.9-13.4
	c1.7-1.4,1.7-1.4,0-3.1c-4.6-4.6-9.1-8.3-14.8-11.4c-1.1-0.6-1.4-0.6-1.7,0.6c-0.6,2.3-0.3,4.8-0.6,7.1
	C117.3,311.9,117,318.5,116.8,325z"/>
<path class="st1" d="M107.7,329.6c-2.6-0.6-4.8-0.6-7.4-1.1c-7.1-1.1-14-2-21.1-3.4c-3.1-0.6-6.3-0.9-9.1-1.4
	c-0.9-0.3-1.4-0.6-1.4-1.4c-0.3-7.7,0.9-15.1,5.4-21.9c1.4-2,3.4-3.7,5.4-5.4c0.3-0.3,0.6-0.6,1.1,0c7.4,9.1,14.8,17.7,21.9,26.8
	c2,2,3.4,4.6,5.7,6.5c0.3,0.3,0.6,0.6,0.3,0.6C108.2,329.8,107.9,329.6,107.7,329.6z"/>
<path class="st1" d="M125.9,379.1c-3.4,0.3-7.1-0.9-10.8-1.4c-0.9-0.3-1.1-0.6-0.9-1.4c0.6-3.7,0.6-7.4,0.6-11.1
	c0.3-4.6,0.6-8.8,0.6-13.4c0.3-3.4,0.6-7.4,0.6-10.8c0-0.6,0-1.4,0.6-1.7c0.6-0.3,0.6,0.6,1.1,0.9c5.4,6.5,10.8,13.4,16.2,19.9
	c3.4,4,6.5,8,10,12c0.6,0.6,0.6,1.4-0.3,1.7c-1.7,0.6-2.8,2-4.6,2.6C135,378.3,130.7,379.4,125.9,379.1z"/>
<path class="st1" d="M153.5,350.6c0,6.3-1.4,12-4.6,17.1c-1.1,2-1.7,2-3.1,0.3c-4-5.1-8.3-10.3-12.5-15.1
	c-3.7-4.6-7.4-9.1-11.1-13.7c-0.6-0.6-1.1-1.1-1.7-2c-0.3-0.3-0.6-0.6-0.3-0.9c0.3-0.3,0.6-0.3,0.9,0c4.6,0.9,9.1,1.4,13.7,2
	c4.8,0.6,9.7,1.4,14.8,2c2,0.3,2.8,0.6,2.8,2.8C153.2,345.8,153.8,348.6,153.5,350.6z"/>
<path class="st1" d="M112.2,326.1c-0.6,0-0.6-0.6-1.1-0.6c-7.7-9.7-15.4-19.1-23.4-28.8c-0.9-0.9-1.7-2-2.6-3.1
	c-0.6-0.6-0.6-1.1,0.6-1.4c2-0.6,4.3-1.1,6.3-1.1c7.1-0.6,13.7,0.6,20.2,3.4c0.6,0.3,1.1,0.6,1.1,1.7c0,3.4-0.3,6.8-0.6,10.5
	c-0.3,2.3-0.3,4.6-0.3,6.8c0,4-0.6,8-0.6,12.2C112.2,325.6,112.2,325.9,112.2,326.1z"/>
<path class="st1" d="M111.4,339.2c-0.3,4-0.6,8-0.6,12.2c-0.3,4,0,7.7-0.6,12c-0.6,3.1-0.6,6.3-0.6,9.7c0,0.6-0.3,1.1-0.3,1.7
	c-0.3,0.9-0.6,0.9-1.1,0.6c-2-1.1-3.7-2.3-5.7-3.4c-6.3-3.4-10.8-8.3-16.2-12.5c-0.6-0.6-0.6-0.9,0-1.7c2.8-2.3,5.4-4.8,8.3-7.1
	c3.1-2.6,6-5.4,9.1-7.7c2-1.7,4-3.4,6.3-4.8c0.3-0.3,0.6-0.6,0.9-0.6c0.6,0.3-0.3,0.6,0,0.9C111.4,338.7,111.4,338.7,111.4,339.2z"
	/>
<path class="st1" d="M70.3,328.4c6,0.9,12,2,17.7,2.6c5.4,0.9,10.5,1.7,16.2,2.6c0.6,0,1.4,0.6,2,0.3c0.3,0,0.6-0.3,0.6,0.3
	c0,0.3-0.3,0.6-0.6,0.6c-1.7,1.4-3.4,2.6-4.8,4c-4.8,4-9.7,8-14.8,12c-1.1,0.9-2.3,1.7-3.4,2.6c-0.6,0.6-1.4,0.9-2-0.3
	c-4-5.4-7.7-11.1-10-17.7c-0.6-2-1.4-4.6-2-6.5C69.5,328.4,69.8,328.4,70.3,328.4z"/>
<path class="st1" d="M150.9,335.5c0,0.6-0.6,0.6-0.6,0.6c-5.7-1.1-11.7-2-17.4-2.8c-4.3-0.6-8.5-1.4-12.8-2c-0.6,0-1.1,0.3-1.1-0.6
	c0-0.6,0.6-0.6,0.9-0.9c5.4-4.3,10.5-8.8,15.9-13.4c3.7-3.1,2.8-2.6,5.4,0.6c4,5.1,7.1,11.1,9.4,17.4
	C150.7,335,150.9,335.5,150.9,335.5z"/>
<path class="st1" d="M116.8,325c0.6-6.3,0.6-12.8,0.9-19.1c0.3-2.3,0-4.8,0.6-7.1c0.3-1.1,0.6-1.4,1.7-0.6
	c5.1,3.4,10.3,7.1,14.8,11.4c1.7,1.7,1.7,1.7,0,3.1c-5.1,4.3-10.5,8.8-15.9,13.4c-0.6,0.6-0.6,1.1-1.4,0.6
	C116.5,326.1,116.8,325.3,116.8,325z"/>
</svg>
