<?xml version="1.0" encoding="utf-8"?>
<!-- Generator: Adobe Illustrator 27.8.0, SVG Export Plug-In . SVG Version: 6.00 Build 0)  -->
<svg version="1.1" id="Layer_1" xmlns="http://www.w3.org/2000/svg" xmlns:xlink="http://www.w3.org/1999/xlink" x="0px" y="0px"
	 width="677.2px" height="676.7px" viewBox="0 0 677.2 676.7" style="enable-background:new 0 0 677.2 676.7;" xml:space="preserve"
	>
<style type="text/css">
	.st0{fill:#F07E19;}
	.st1{fill:#FFFFFF;}
</style>
<circle class="st0" cx="338.6" cy="338.4" r="325.3"/>
<g>
	<g>
		<path class="st1" d="M197.1,423c0,0,0.2-0.7,1-0.7h18.2v49.9h-14.8V448h-0.8l-7.1,23.1c0,0-0.2,1-1.2,1h-11.1c-1,0-1.1-1-1.1-1
			L173,448h-0.8v24.1h-14.8v-49.9h18.3c0.8,0,0.9,0.7,0.9,0.7l10,26.5h0.5L197.1,423z"/>
		<path class="st1" d="M247.2,430c9.9,0,14.9,2.5,14.8,13v29.1h-14.3v-2.5c-3.1,1.6-6.8,3.1-9.7,3.1h-1.6c-9.6-0.1-14.3,0.7-14.3-13
			V456c0-10.7,4.8-11.1,14.3-11.1h2.2c4.1,0,5.7,0.5,9.2,1.5V444c-0.2-2.8-1.1-3.6-4.1-3.6h-17.3l-0.1-9
			C226.2,431.3,235.3,430,247.2,430z M240.6,453.3H239c-2,0-2.8,0.6-2.8,2.7v4.1c0,1.8,0.9,2.6,2.8,2.6h1.2c2,0,4.2-0.6,7.4-1.1
			v-7.7C244.5,453.6,242.6,453.3,240.6,453.3z"/>
		<path class="st1" d="M297.4,452.1l12.3,20.1h-16.3l-6.2-11h-0.2l-6.2,11h-16.3l11.7-20.1l-11.2-21.6H281l5.9,11.4h0.3l5.9-11.4
			h16.1L297.4,452.1z"/>
		<path class="st1" d="M308.7,442.4h25.1v12.2h-25.1V442.4z"/>
		<path class="st1" d="M369.3,422.3H386c0,0-11.7,43-12.9,47.8c-0.5,2.1-1.4,2.4-2.5,2.4h-20.8c-1.1,0-1.8-0.3-2.5-2.4
			c-1.4-4.8-13-47.8-13-47.8h16.7l8.7,35.4h0.8L369.3,422.3z"/>
		<path class="st1" d="M427.2,443.2v15.9c0,10.6-4.9,13.5-14.9,13.5h-11.6c-9.9,0-14.8-2.9-14.8-13.5v-15.9
			c0-10.5,4.9-13.4,14.8-13.4h11.6C422.3,429.9,427.2,432.8,427.2,443.2z M412.9,459.2v-15.9c0-1.8-1-2.7-2.9-2.7h-6.8
			c-1.8,0-2.8,0.8-2.8,2.7v15.9c0,1.8,1,2.8,2.8,2.8h6.8C411.9,461.9,412.9,461,412.9,459.2z"/>
		<path class="st1" d="M447.1,472.2h-14.3v-52.7h14.3V472.2z"/>
		<path class="st1" d="M451.1,430.4h5.6v-8.1h14.3v8.1h10.6v11.3h-10.6v17.5c0,1.5,0.8,2.4,2.5,2.4c0.2,0,8.7-0.1,8.7-0.1l-0.2,9.1
			c0,0-8.7,1.9-14,1.9c-9.7,0-11.2-6.1-11.2-12.7v-18h-5.6L451.1,430.4L451.1,430.4z"/>
		<path class="st1" d="M521.3,440.8H502c-1.1,0-1.5,0-1.5,0.8v0.8c0,1,0.7,1.1,1.1,1.1l7.9,1.5c9.4,1.5,14.1,2,14.1,11.8v2
			c0,10.3-5,13.8-14.9,13.8c-11.8,0-23.1-1.5-23.1-1.5l0.1-9.7h19.7c3.1,0,4.2-0.2,4.2-1.8v-0.9c0-0.8-1-1.1-5.9-2
			c-2.8-0.5-6.6-1.1-9.1-1.5c-5.3-1.1-8.3-2.8-8.3-9.8v-3.4c0-10.3,4.9-11.7,14.8-11.7c11.8,0,20.2,0.9,20.2,0.9L521.3,440.8
			L521.3,440.8z"/>
	</g>
	<g>
		<path class="st1" d="M117.2,490.6h15.2v3.4h-11.3v5.4h9.9v3.5h-9.9v5.5h11.3v3.6h-15.2V490.6z"/>
		<path class="st1" d="M149.5,512h-3.8v-22.5h3.8V512z"/>
		<path class="st1" d="M176.9,511.8c0,0-3.8,0.4-8.5,0.4c-3.8,0-5.7-1-5.7-5.2v-6.9c0-3.4,2.2-5.5,6.1-5.5h3.7
			c3.8,0,5.8,2.1,5.8,5.5v5c0,0.3,0,0.4-0.3,0.4h-11.5v1.1c0,2.5,0.4,2.5,2.5,2.5h8V511.8z M174.5,500.8c0-3-0.8-3.2-2.8-3.2h-2.1
			c-2,0-3.1,0.2-3.1,3.2v1.6l8-0.1L174.5,500.8L174.5,500.8z"/>
		<path class="st1" d="M204.6,511.8c0,0-3.1,0.4-7.9,0.4c-3.8,0-5.7-1.3-5.7-5.5V500c0-4.2,1.9-5.6,5.7-5.5c4.8,0,7.9,0.2,7.9,0.2
			v3.1h-7.3c-1.8,0-2.5,0.6-2.5,2.5v6.1c0,1.8,0.8,2.5,2.5,2.5h7.3V511.8z"/>
		<path class="st1" d="M215.7,494.6h2.5v-4h3.8v4h4.8v3.3H222v9.1c0,1.4,0.5,1.8,1.7,1.8c0.4,0,3.4-0.1,3.4-0.1v2.8
			c0,0-2.9,0.5-4.8,0.5c-3.4,0-4.1-2-4.1-4.6v-9.7h-2.5L215.7,494.6L215.7,494.6z"/>
		<path class="st1" d="M239.5,494.6h3.8v1.7c1.4-0.8,3.2-1.8,4.9-1.8h2v3.4h-2.6c-1.3,0-2.9,0.5-4.3,1.1V512h-3.8V494.6z"/>
		<path class="st1" d="M264.1,487.7c1.1,0,2.1,0.8,2.1,2s-0.9,2-2.1,2c-1.1,0-2.1-0.8-2.1-2C262,488.5,262.9,487.7,264.1,487.7z
			 M266,512h-3.8v-17.5h3.8V512z"/>
		<path class="st1" d="M292.8,511.8c0,0-3.1,0.4-7.9,0.4c-3.8,0-5.7-1.3-5.7-5.5V500c0-4.2,1.9-5.6,5.7-5.5c4.8,0,7.9,0.2,7.9,0.2
			v3.1h-7.3c-1.8,0-2.5,0.6-2.5,2.5v6.1c0,1.8,0.8,2.5,2.5,2.5h7.3V511.8z"/>
		<path class="st1" d="M314.1,494.4c3.8,0,6.1,0.8,6.1,5.1V512h-3.8v-1.4c-1.4,0.7-3.2,1.5-4.9,1.5h-1.1c-3.8,0-5.7-0.1-5.7-5.1
			v-1.7c0-4.3,1.9-4.6,5.7-4.6h2.1c1.9,0,2.5,0.2,4,0.6v-1.3c0-2.1-0.5-2.7-2.6-2.7l-7.4,0.1v-2.7
			C306.5,494.8,309.4,494.4,314.1,494.4z M312.8,503.5h-1.8c-2,0-2.6,0.1-2.6,2.4v0.9c0,1.8,0.8,2.3,2.6,2.3h1.2
			c1.3,0,2.9-0.7,4.3-1.1v-4.3C315.1,503.7,314.1,503.5,312.8,503.5z"/>
		<path class="st1" d="M337.4,512h-3.8v-22.5h3.8V512z"/>
		<path class="st1" d="M382.5,494.1h-9.4c-2.1,0-2.5,0.2-2.5,1.9v0.6c0,0.9,0.3,1.1,1.5,1.4c0,0,6.3,1.1,7.7,1.5
			c3.1,0.6,3.9,1.8,3.9,4.4v2.8c0,3.8-1.6,5.4-6.6,5.4c-4.9,0-10.6-0.3-10.6-0.3v-3.4h10.1c2.5,0,3.1-0.4,3.1-2.4v-1.6
			c0-0.8-0.2-1.4-1.3-1.5c-1.5-0.3-6.1-1.1-7.1-1.3c-3.3-0.6-4.9-0.9-4.9-4.1v-1.8c0-3.8,1.7-5.3,6.7-5.2c4.9,0,9.2,0.3,9.2,0.3
			V494.1z"/>
		<path class="st1" d="M410.5,511.8c0,0-3.8,0.4-8.5,0.4c-3.8,0-5.7-1-5.7-5.2v-6.9c0-3.4,2.2-5.5,6.1-5.5h3.7
			c3.8,0,5.8,2.1,5.8,5.5v5c0,0.3,0,0.4-0.3,0.4H400v1.1c0,2.5,0.4,2.5,2.5,2.5h8L410.5,511.8z M408,500.8c0-3-0.8-3.2-2.8-3.2h-2.1
			c-2,0-3.1,0.2-3.1,3.2v1.6l8-0.1L408,500.8L408,500.8z"/>
		<path class="st1" d="M424.8,494.6h3.8v1.7c1.4-0.8,3.2-1.8,4.9-1.8h2v3.4h-2.6c-1.3,0-2.9,0.5-4.3,1.1V512h-3.8V494.6z"/>
		<path class="st1" d="M457.3,512.1h-5.8c-0.4,0-0.5-0.2-0.7-0.5c-0.5-1.4-5.1-17-5.1-17h4.1l4,14.2h1.2l3.9-14.2h4.1
			c0,0-4.7,15.6-5.1,17C457.9,512,457.8,512.1,457.3,512.1z"/>
		<path class="st1" d="M476.8,487.7c1.1,0,2.1,0.8,2.1,2s-0.9,2-2.1,2s-2.1-0.8-2.1-2C474.7,488.5,475.7,487.7,476.8,487.7z
			 M478.7,512h-3.8v-17.5h3.8V512z"/>
		<path class="st1" d="M505.5,511.8c0,0-3.1,0.4-7.9,0.4c-3.8,0-5.7-1.3-5.7-5.5V500c0-4.2,1.9-5.6,5.7-5.5c4.8,0,7.9,0.2,7.9,0.2
			v3.1h-7.3c-1.8,0-2.5,0.6-2.5,2.5v6.1c0,1.8,0.8,2.5,2.5,2.5h7.3V511.8z"/>
		<path class="st1" d="M532,511.8c0,0-3.8,0.4-8.5,0.4c-3.8,0-5.7-1-5.7-5.2v-6.9c0-3.4,2.2-5.5,6.1-5.5h3.7c3.8,0,5.8,2.1,5.8,5.5
			v5c0,0.3,0,0.4-0.3,0.4h-11.5v1.1c0,2.5,0.4,2.5,2.5,2.5h8V511.8z M529.5,500.8c0-3-0.8-3.2-2.8-3.2h-2.1c-2,0-3.1,0.2-3.1,3.2
			v1.6l8-0.1L529.5,500.8L529.5,500.8z"/>
		<path class="st1" d="M551.3,497.8c-1.6,0-2.2,0-2.2,0.9v0.7c0,0.9,0.2,1,0.9,1.1l5.4,1c2.9,0.6,4.7,0.9,4.7,4.2v1.5
			c0,3.8-2.1,5.1-6,5.1c-4.8,0-8.9-0.4-8.9-0.4v-2.9h8.3c2.1,0,3-0.5,3-1.9v-0.7c0-0.7,0-1.1-1.1-1.3c-1.8-0.3-5.4-0.8-7.1-1.1
			c-2.1-0.4-3.1-0.9-3.1-3.6v-1.4c0-3.8,1.9-4.4,5.8-4.4c4.8,0,7.7,0.2,7.7,0.2v3.1H551.3z"/>
	</g>
	<path class="st1" d="M176.5,164.6c2.9,0,5.4,0,7.9,0c17.5,0,35,0,52.5-0.1c2.5,0,4.6,0.6,6.7,2.1c20.2,13.3,40.4,26.6,60.6,39.9
		c10,6.6,19.9,13.2,29.8,19.9c1.9,1.3,3.4,1.6,5.5,0.2c29.6-19.6,59.3-39.2,88.8-58.9c3.3-2.2,6.4-3.1,10.3-3.1
		c17.9,0.2,35.8,0,53.7,0c0.8,0,1.5,0,2.3,0.1c0.6,0.1,1.4-0.1,1.7,0.6c0.4,0.9-0.3,1.4-0.9,1.8c-4.3,3.1-8.6,6.3-13,9.4
		c-14.3,10.2-28.5,20.4-42.8,30.6c-19.2,13.6-38.5,26.9-57.4,40.8c-13.6,10-27.7,19.4-41.1,29.7c-2.9,2.2-5,2.2-8,0.1
		c-30.7-22.1-61.5-44-92.2-66c-20.6-14.7-41.2-29.4-61.9-44.2C178.1,167,177.1,166.5,176.5,164.6z"/>
	<path class="st1" d="M532,252.7c-54.7,50.9-109.5,101.9-164.1,152.8c-0.2-0.1-0.3-0.2-0.4-0.2c1.5-2.9,3-5.8,4.7-8.7
		c19.8-34.1,39.6-68.1,59.5-102.3c1.9-3.2,0.2-3.1-2.2-3.1c-19.5,0.1-39.1,0-58.6,0c-4.1,0-4.1-0.2-2.1-3.5
		c6-10.3,11.9-20.5,17.9-30.8c0.7-1.2,1.5-2.3,2.8-3.1c35.5-25.4,71.1-50.7,106.5-76.1c0.5-0.4,1.1-0.6,1.6-0.9
		c0.8,1.4-0.3,2.1-0.8,2.8c-13.1,22.9-26.3,45.8-39.4,68.8c-2,3.5-2,3.5,2.1,3.5c23.2,0,46.5,0,69.8,0c0.8,0,1.8,0,2.6,0
		C531.7,252,531.8,252.3,532,252.7z"/>
	<path class="st1" d="M303.7,403.1c-10.3-9.5-20.5-19.1-30.8-28.6c-42.3-39.4-84.7-78.7-127-118.1c-1.2-1.1-2.5-2.4-3.8-3.6
		c1.5-1.3,2.8-0.8,3.9-0.8c22.8,0,45.7,0,68.6,0c4.1,0,4.2-0.1,2.1-3.8c-13-22.7-25.9-45.5-38.9-68.1c-0.5-0.8-1.1-1.5-1-2.4l0,0
		c1.2-0.6,1.8,0.5,2.5,1.1c34.9,24.9,69.8,49.8,104.7,74.7c1.1,0.8,2.2,1.8,2.9,3c6.4,11,12.8,22.1,19.2,33.1
		c0.2,0.3,0.2,0.7,0.3,1.1c-0.8,1.1-1.9,0.5-2.8,0.5c-19.8,0-39.6,0.1-59.4,0c-2.8,0-3.8,0.2-2,3.2c20,34.4,39.9,68.9,59.8,103.4
		c0.9,1.5,1.6,3.1,2.5,4.8C304.1,402.7,303.9,402.9,303.7,403.1z"/>
</g>
</svg>
