<?xml version="1.0" encoding="utf-8"?>
<!-- Generator: Adobe Illustrator 27.8.0, SVG Export Plug-In . SVG Version: 6.00 Build 0)  -->
<svg version="1.1" id="Layer_1" xmlns="http://www.w3.org/2000/svg" xmlns:xlink="http://www.w3.org/1999/xlink" x="0px" y="0px"
	 width="677.2px" height="676.7px" viewBox="0 0 677.2 676.7" style="enable-background:new 0 0 677.2 676.7;" xml:space="preserve"
	>
<style type="text/css">
	.st0{fill:#337BAE;}
	.st1{fill:#FFFFFF;}
</style>
<circle class="st0" cx="338.6" cy="338.4" r="325.3"/>
<g>
	<g>
		<g>
			<path class="st1" d="M130.2,389.1c-9.2-9.2-14.7-20.5-16.9-33.4c-2.4-15.6,0.5-29.9,11.2-42c4.9-5.7,11.4-7.7,18.7-6
				c7.1,1.6,11.9,6.4,13.9,13.4c2.2,7.9-0.2,14.7-6.4,19.8c-7.1,5.7-13,12.1-16.5,20.7c-3.1,7.3-4.2,15-3.3,23.1
				c0.2,0.9,0.2,2,0.2,3.1C130.9,388.3,130.5,388.7,130.2,389.1z"/>
			<path class="st1" d="M131.1,390.5c-0.5,0.2-1.1,0.5-1.6,0.5c-23.5-0.2-42.2-9.5-54.1-30.2c-4-7-6.2-14.7-4.8-22.9
				c1.8-9.9,11.5-16.3,21.4-14.7c10.1,1.6,17,10.6,16.1,20.7c-1.8,18.9,4.9,34.1,20.7,45.3c0.4,0.2,0.9,0.2,1.3,0.4l0,0
				c0.2,0.2,0.4,0.4,0.5,0.5l0,0C130.7,390.2,130.9,390.3,131.1,390.5L131.1,390.5z"/>
			<path class="st1" d="M130.2,389.1c0.4-0.4,0.5-0.7,0.9-0.9c0.2-0.7,0.5-1.6,0.5-2.4c0.5-14.3,6.2-26.2,18.5-34.3
				c4.2-2.7,8.6-4.4,13.6-4.6c7.5-0.4,13.6,5.3,13.7,12.8c0.2,7.3-5.7,13.4-13.2,13.2c-5.3,0-10.6,0.4-15.6,2.6
				c-6.8,2.7-10.3,5.9-16.5,14.8c-0.2-0.5-0.2-0.9-0.4-1.3c-0.2,0.5-0.5,0.9-0.7,1.6l0,0c-0.2-0.2-0.4-0.4-0.5-0.5l0,0
				c-0.2-0.2-0.4-0.4-0.5-0.5l0,0C130.2,389.4,130.2,389.2,130.2,389.1z"/>
			<path class="st1" d="M68.8,309.1c0.2-5.7,3.1-9.2,7.3-9.9c3.8-0.5,7.9,1.6,9.2,5.3c0.9,2.4,1.6,5.1,2.2,7.7
				c0.9,3.8-1.6,8.1-5.5,9.3c-3.8,1.5-8.4,0.2-10.3-3.5C70.2,314.8,69.5,311.2,68.8,309.1z"/>
			<path class="st1" d="M164.6,295.4c-1.3,4.2-3.3,8.8-7.7,11.7c-3.1,2-7.3,1.3-9.9-1.5c-2.7-2.6-3.5-6.4-1.6-9.9
				c1.3-2.4,2.6-4.6,4-6.6c2.2-3.1,6.2-4.2,9.7-3.1C162.3,287.3,164.6,290.6,164.6,295.4z"/>
			<path class="st1" d="M184.6,357.7c-3.8,0-6.2-1.8-6.8-4.6c-0.5-2.6,0.7-5.3,3.1-6.6c1.6-0.7,3.5-1.5,5.3-1.8
				c3.1-0.7,6.2,1.1,7.1,4c0.9,2.7-0.5,6-3.3,7.1C187.9,356.6,185.9,357.2,184.6,357.7z"/>
		</g>
	</g>
	<path class="st1" d="M215.6,386.9v-81.2h32.8h4c11,0,18.3,2,22.2,5.7s5.7,11.2,5.7,22.2c0,10.8-1.8,18-5.5,21.6
		c-3.7,3.5-11,5.3-22.2,5.3h-3.5H231v26.2L215.6,386.9L215.6,386.9z M231,347.6h17.6c7,0,11.4-0.9,13.2-2.4
		c1.8-1.6,2.7-5.3,2.7-11.4c0-6.8-0.7-11-2.4-12.8c-1.6-1.6-5.7-2.4-12.1-2.4H231V347.6z"/>
	<path class="st1" d="M303.2,305.7v81.2h-13.6v-81.2H303.2z"/>
	<path class="st1" d="M330.9,346.5H317c0-6.8,1.6-11.4,4.8-13.6c3.1-2.4,9.5-3.5,18.9-3.5c10.3,0,17.2,1.5,20.7,4.2
		c3.7,2.7,5.3,8.1,5.3,16.1v37h-13.6l0.5-7.7h-0.4c-2.6,5.7-8.6,8.4-18.1,8.4c-13.7,0-20.5-5.9-20.5-17.6c0-11.7,7.1-17.8,21.1-17.8
		c9.3,0,15,2.2,17.2,6.4h0.2v-9.2c0-4.4-0.7-7.3-2.4-8.8c-1.6-1.5-4.8-2.2-9.5-2.2C334.2,338.6,330.9,341.2,330.9,346.5z
		 M339.9,361.4c-7.7,0-11.5,2.7-11.5,7.9c0,3.7,0.9,6,2.4,7.3c1.6,1.1,4.9,1.6,9.9,1.6c8.2,0,12.5-2.7,12.5-8.4
		C353.1,364.3,348.7,361.4,339.9,361.4z"/>
	<path class="st1" d="M380.2,330h13.6l-0.5,9.5h0.2c2.7-6.8,8.6-10.3,17.8-10.3c13.4,0,20.2,6.2,20.2,18.7v38.9h-13.6v-34.3v-2.2
		l-0.2-4c-0.5-4.2-4-6.4-9.9-6.4c-9.2,0-13.7,4.4-13.7,13v33.7h-13.6V330H380.2z"/>
	<path class="st1" d="M540.1,305.7v81.2h-15.4v-44.4c0-3.5,0.2-7.5,0.2-12.1l0.2-6l0.2-6h-0.5l-1.8,5.7l-1.8,5.7
		c-1.6,5.1-2.9,8.8-3.8,11.2l-17.8,45.8h-13.9l-18-45.5c-0.9-2.6-2.4-6.2-3.8-11.2l-1.8-5.7l-1.8-5.7h-0.4l0.2,5.9l0.2,6
		c0.2,4.6,0.4,8.4,0.4,11.7v44.2h-15.4v-80.8H470l14.5,37.6c0.9,2.6,2.4,6.4,3.8,11.2l1.8,5.7l1.8,5.7h0.5l1.6-5.7l1.8-5.7
		c1.5-4.8,2.7-8.4,3.8-11.2l14.3-37.8L540.1,305.7L540.1,305.7L540.1,305.7z"/>
	<path class="st1" d="M567.9,318.7v20.9h37.9v11.4h-37.9v22.9h40.5v12.8h-55.9v-81h55.5v12.8L567.9,318.7L567.9,318.7z"/>
</g>
</svg>
