<?xml version="1.0" encoding="utf-8"?>
<!-- Generator: Adobe Illustrator 27.6.1, SVG Export Plug-In . SVG Version: 6.00 Build 0)  -->
<svg version="1.1" id="Layer_1" xmlns="http://www.w3.org/2000/svg" xmlns:xlink="http://www.w3.org/1999/xlink" x="0px" y="0px"
	 width="677.2px" height="676.7px" viewBox="0 0 677.2 676.7" style="enable-background:new 0 0 677.2 676.7;" xml:space="preserve"
	>
<style type="text/css">
	.st0{fill:#00B200;stroke:#00B200;stroke-width:10;stroke-miterlimit:10;}
	.st1{fill:#FFFFFF;stroke:#FFFFFF;stroke-width:10;stroke-miterlimit:10;}
	.st2{fill:#FFFFFF;}
</style>
<circle class="st0" cx="338.6" cy="338.4" r="325.3"/>
<g>
	<path class="st1" d="M108.3,294.7c1.1-6.8,3.7-12.8,8.1-17.9c3.3-3.8,7.2-6.6,11.2-9.4c0.8-0.5,1.3-0.6,2.2,0.1
		c5.4,4.2,7.7,10.1,9.1,16.4c0.8,3.8,0.1,7.7-1.1,11.4c-1.2,3.4-2.9,6.5-5,9.4c-0.3,0.4-0.6,0.7-0.4,1.1c0.2,0.3,0.7,0.1,1,0.1
		c3.3-0.3,6.5-0.8,9.8-0.4c3.1,0.3,6.1,0.6,9.1,1.4c5.2,1.4,9.9,3.8,14.1,7.2c2,1.7,2,1.9,0.6,4.1c-3,4.9-7.5,8.2-12.1,11.2
		c-4.3,2.9-9,4.7-14.3,4.1c-2.9-0.3-5.9-0.6-8.7-1.7c-0.3-0.1-0.6-0.3-1-0.1c1.9,3.1,3.5,6.4,4.3,10c0.6,2.8,1,5.6,0.6,8.5
		c-0.4,3.1-0.5,6.3-1.1,9.5c-0.1,0.3,0,0.5-0.1,0.8c-1.1,4-1.1,3.8-5.4,3.3c-3.6-0.4-7.3-0.9-10.5-2.7c-4.2-2.2-7.4-5.7-10-9.6
		c-2.9-4.5-3.6-9.6-4.5-14.7c-1.8,1.7-3.5,3.4-5.3,5c-3.8,3.3-8.4,5.2-13.3,6.4c-2.7,0.7-5.4,0.9-8,1.1c-2.2,0.2-4.3-0.3-6.5-0.6
		c-0.7-0.1-1-0.8-1-1.3c-0.2-2.1-0.7-4.2-0.1-6.4c0.4-1.5,0.3-3.1,0.3-4.7c0.3-4.5,2-8.4,4.7-11.9c3.4-4.5,7.9-7.5,13.2-9.6
		c1.2-0.5,2.5-1,4-1c-0.6-1.1-1.8-1.2-2.6-1.5c-4.7-1.9-8.9-4.5-12.8-7.9c-2-1.7-3.4-4-4.6-6.3c-1.9-3.6-4-7.3-5.1-11.3
		c-0.3-1-0.1-1.3,0.6-1.8c5.7-3.3,11.9-5.4,18.6-4.7c5.2,0.5,10,2.2,14.3,5.6c2.4,1.9,3.9,4.3,5.9,6.5
		C107,293.4,107.5,294,108.3,294.7z M98,313.7c-4.1,1.9-7.7,4.3-10.7,7.6c-2.7,3.1-4.2,6.8-5.6,10.5c-0.6,1.6-1,3.3-0.8,5.1
		c0.1,0.8,0.4,1.4,1.3,1.5c3.4,0.1,6.7,0,10-0.8c5.1-1.3,9.9-3,13.9-7c0.4,3.6,1.3,6.9,2.8,9.9c3.1,6.1,8.5,9.4,14.9,11.3
		c2.5,0.7,3.2,0.1,4-2.3c0.6-1.8,1-3.6,1.3-5.4c0.4-2.4,0.8-4.8,0.6-7.1c-0.1-2.8-0.4-5.7-1.9-8.4c0.5,0.1,0.7,0.1,1,0.1
		c3.3,1.1,6.8,1.7,10.2,1c6.8-1.4,12.3-5,15.7-11.2c1.1-2,1.1-2.1-0.5-3.5c-6.2-5.3-13.6-7-21.5-6.8c-1.1,0.1-2.3,0.3-3.4,0.3
		c-0.8,0-1.1-0.3-0.6-1c3-5.2,5-10.7,4.2-16.8c-0.4-3-1.3-5.9-2.9-8.5c-0.8-1.2-1.9-1.7-3.3-1.4c-4.3,1.1-7.9,3.3-11,6.3
		c-3.3,3.1-5,7.3-6.4,11.6c-0.1,0.3,0.2,0.8-0.3,1c-0.4,0.1-0.5-0.4-0.8-0.7c-3-3.7-6.2-7.1-10.8-8.9c-5-2-9.8-2.5-14.8-0.3
		c-3.8,1.7-3.3,0.9-2.7,4.6c1,5.6,3.4,10.3,7.9,13.9C91,310.6,94.4,312,98,313.7z"/>
	<g>
		<path d="M233.3,360.3l-19.7-34.7h-8.4v34.7h-17.9v-89.1h33.5c6.9,0,12.8,1.2,17.6,3.6c4.9,2.4,8.5,5.7,10.9,9.8
			c2.4,4.1,3.6,8.7,3.6,13.9c0,5.9-1.7,11.2-5.1,15.9s-8.5,8-15.2,9.8l21.3,36.1H233.3z M205.2,312.2h14.9c4.9,0,8.5-1.1,10.9-3.5
			c2.4-2.4,3.6-5.6,3.6-9.8c0-4.1-1.2-7.3-3.6-9.5c-2.4-2.2-6-3.4-10.9-3.4h-14.9V312.2z"/>
		<path d="M287.1,285.7V308h30v14.2h-30v23.6h33.8v14.6h-51.7v-89.2h51.7v14.6H287.1z"/>
		<path d="M337,305.4c-2.1-2-3.1-4.5-3.1-7.5c0-3,1-5.5,3.1-7.5c2.1-2,4.7-3,8-3c3.1,0,5.7,1,7.8,3s3.1,4.5,3.1,7.5
			c0,3-1,5.5-3.1,7.5c-2,2-4.7,3-7.8,3C341.8,308.4,339.1,307.4,337,305.4z M337,358.2c-2.1-2-3.1-4.5-3.1-7.5c0-3,1-5.5,3.1-7.5
			c2.1-2,4.7-3,8-3c3.1,0,5.7,1,7.8,3c2,2,3.1,4.5,3.1,7.5c0,3-1,5.5-3.1,7.5c-2,2-4.7,3-7.8,3C341.8,361.2,339.1,360.2,337,358.2z"
			/>
		<path d="M426.5,276.7c7.1,3.6,12.6,8.9,16.5,15.6c3.9,6.8,5.8,14.6,5.8,23.6s-1.9,16.7-5.8,23.4c-3.9,6.7-9.4,11.9-16.5,15.5
			c-7.1,3.6-15.3,5.5-24.7,5.5h-31.2v-89.1h31.2C411.2,271.2,419.5,273.1,426.5,276.7z M422.9,337.5c5.1-5.1,7.7-12.3,7.7-21.6
			s-2.6-16.5-7.7-21.8c-5.1-5.2-12.3-7.9-21.7-7.9h-12.6v58.9h12.6C410.6,345.2,417.8,342.6,422.9,337.5z"/>
		<path d="M508.2,360.3l-19.7-34.7h-8.4v34.7h-17.9v-89.1h33.5c6.9,0,12.8,1.2,17.6,3.6c4.9,2.4,8.5,5.7,10.9,9.8
			c2.4,4.1,3.6,8.7,3.6,13.9c0,5.9-1.7,11.2-5.1,15.9s-8.5,8-15.2,9.8l21.3,36.1H508.2z M480.1,312.2H495c4.9,0,8.5-1.1,10.9-3.5
			s3.6-5.6,3.6-9.8c0-4.1-1.2-7.3-3.6-9.5c-2.4-2.2-6-3.4-10.9-3.4h-14.9V312.2z"/>
		<path d="M614.9,271.2l-30.1,58.1v31h-17.9v-31l-30.3-58.1h20.2L576,312l19-40.7H614.9L614.9,271.2z"/>
	</g>
	<g>
		<path class="st2" d="M63.9,383.1c1-1.8,2.5-3.2,4.3-4.2s3.8-1.5,5.9-1.5c2.4,0,4.7,0.6,6.6,1.8c1.9,1.2,3.3,2.9,4.1,5.1h-4.5
			c-0.6-1.2-1.4-2.1-2.5-2.7c-1.1-0.6-2.3-0.9-3.7-0.9c-1.5,0-2.9,0.3-4.1,1c-1.2,0.7-2.1,1.7-2.8,2.9s-1,2.8-1,4.5
			c0,1.7,0.3,3.2,1,4.5s1.6,2.3,2.8,3c1.2,0.7,2.6,1,4.1,1c1.4,0,2.6-0.3,3.7-0.9c1.1-0.6,1.9-1.5,2.5-2.7h4.5
			c-0.9,2.2-2.2,3.9-4.1,5.1c-1.9,1.2-4.1,1.8-6.6,1.8c-2.2,0-4.1-0.5-5.9-1.5s-3.2-2.4-4.3-4.2c-1-1.8-1.6-3.8-1.6-6.1
			C62.3,386.9,62.8,384.9,63.9,383.1z"/>
		<path class="st2" d="M89.1,386.6c0.8-1.4,1.8-2.5,3.1-3.3c1.3-0.8,2.7-1.1,4.3-1.1c1.5,0,2.7,0.3,3.8,0.8c1.1,0.6,1.9,1.3,2.6,2.1
			v-2.7h3.8v18.3h-3.8V398c-0.6,0.9-1.5,1.6-2.6,2.2c-1.1,0.6-2.4,0.9-3.8,0.9c-1.6,0-3-0.4-4.3-1.2c-1.3-0.8-2.4-1.9-3.1-3.4
			c-0.8-1.5-1.1-3.1-1.1-4.9C87.9,389.6,88.3,388.1,89.1,386.6z M102.2,388.3c-0.5-1-1.2-1.7-2-2.1c-0.8-0.5-1.7-0.7-2.7-0.7
			c-1,0-1.9,0.3-2.7,0.7c-0.8,0.4-1.5,1.1-2,2.1c-0.5,0.9-0.8,2-0.8,3.3s0.3,2.4,0.8,3.3c0.5,1,1.2,1.7,2,2.2
			c0.8,0.5,1.7,0.8,2.7,0.8c1,0,1.9-0.3,2.7-0.7c0.8-0.5,1.5-1.2,2-2.2c0.5-1,0.8-2,0.8-3.3C102.9,390.4,102.7,389.2,102.2,388.3z"
			/>
		<path class="st2" d="M118.1,383c1.1-0.6,2.4-0.9,3.8-0.9c1.6,0,3.1,0.4,4.3,1.1c1.3,0.8,2.4,1.9,3.1,3.3s1.1,3.1,1.1,4.9
			c0,1.9-0.4,3.5-1.1,4.9c-0.8,1.5-1.8,2.6-3.1,3.4c-1.3,0.8-2.7,1.2-4.3,1.2c-1.4,0-2.6-0.3-3.7-0.8c-1.1-0.6-2-1.3-2.7-2.1v11.4
			h-3.8v-27h3.8v2.7C116.2,384.3,117,383.6,118.1,383z M125.9,388.2c-0.5-0.9-1.2-1.6-2-2.1c-0.8-0.5-1.8-0.7-2.7-0.7
			c-1,0-1.9,0.3-2.7,0.7c-0.8,0.5-1.5,1.2-2,2.1c-0.5,1-0.8,2-0.8,3.3c0,1.3,0.3,2.4,0.8,3.3s1.2,1.7,2,2.2c0.8,0.5,1.7,0.7,2.7,0.7
			c1,0,1.9-0.3,2.7-0.8c0.8-0.5,1.5-1.2,2-2.2s0.8-2,0.8-3.3C126.6,390.2,126.4,389.1,125.9,388.2z"/>
		<path class="st2" d="M138.6,385.6v10.2c0,0.7,0.2,1.1,0.5,1.5s0.9,0.4,1.7,0.4h2.3v3.1h-3c-1.7,0-3-0.4-3.9-1.2
			c-0.9-0.8-1.3-2.1-1.3-3.9v-10.2h-2.2v-3.1h2.2v-4.5h3.8v4.5h4.5v3.1L138.6,385.6L138.6,385.6z"/>
		<path class="st2" d="M163.1,382.4v18.3h-3.8v-2.2c-0.6,0.8-1.4,1.3-2.4,1.8s-2,0.6-3.1,0.6c-1.5,0-2.7-0.3-3.9-0.9
			c-1.1-0.6-2-1.5-2.7-2.7c-0.6-1.1-1-2.6-1-4.3v-10.7h3.8v10.2c0,1.7,0.4,2.9,1.2,3.8s1.9,1.3,3.4,1.3c1.4,0,2.6-0.4,3.4-1.3
			c0.8-0.9,1.2-2.1,1.2-3.8v-10.2L163.1,382.4L163.1,382.4z"/>
		<path class="st2" d="M174.1,382.9c0.9-0.5,2-0.8,3.3-0.8v3.9h-1c-1.5,0-2.6,0.4-3.4,1.1c-0.8,0.8-1.1,2-1.1,3.9v9.6h-3.8v-18.3
			h3.8v2.7C172.5,384.2,173.2,383.5,174.1,382.9z"/>
		<path class="st2" d="M197.5,393h-14c0.1,1.5,0.6,2.6,1.6,3.5s2.2,1.3,3.6,1.3c2,0,3.4-0.8,4.3-2.6h4.1c-0.6,1.7-1.5,3.1-3,4.1
			s-3.3,1.6-5.4,1.6c-1.7,0-3.3-0.4-4.7-1.1s-2.5-1.9-3.3-3.3c-0.8-1.4-1.1-3.1-1.1-5s0.4-3.5,1.1-5c0.8-1.4,1.9-2.6,3.2-3.3
			c1.4-0.8,3-1.1,4.8-1.1c1.7,0,3.3,0.4,4.6,1.1c1.3,0.8,2.4,1.8,3.1,3.2c0.8,1.3,1.1,2.9,1.1,4.7
			C197.6,391.8,197.6,392.5,197.5,393z M193.7,390c0-1.4-0.5-2.5-1.5-3.4c-1-0.8-2.2-1.3-3.6-1.3c-1.3,0-2.4,0.4-3.4,1.3
			c-1,0.8-1.5,2-1.7,3.4H193.7z"/>
		<path class="st2" d="M224.9,377.6v3.1h-6.1v20H215v-20h-6.2v-3.1H224.9z"/>
		<path class="st2" d="M241.9,383.1c1.1,0.6,2,1.5,2.6,2.7c0.6,1.1,1,2.6,1,4.3v10.8h-3.8v-10.2c0-1.7-0.4-2.9-1.2-3.8
			s-1.9-1.3-3.4-1.3c-1.4,0-2.6,0.4-3.4,1.3c-0.8,0.9-1.2,2.1-1.2,3.8v10.2h-3.8v-24.6h3.8v8.4c0.6-0.8,1.5-1.3,2.4-1.8
			c1-0.4,2-0.6,3.3-0.6C239.6,382.2,240.8,382.4,241.9,383.1z"/>
		<path class="st2" d="M266.9,393h-14c0.1,1.5,0.6,2.6,1.6,3.5s2.2,1.3,3.6,1.3c2,0,3.4-0.8,4.3-2.6h4.1c-0.6,1.7-1.5,3.1-3,4.1
			s-3.3,1.6-5.4,1.6c-1.7,0-3.3-0.4-4.7-1.1c-1.4-0.8-2.5-1.9-3.3-3.3c-0.8-1.4-1.1-3.1-1.1-5s0.4-3.5,1.1-5
			c0.8-1.4,1.9-2.6,3.2-3.3c1.4-0.8,3-1.1,4.8-1.1c1.7,0,3.3,0.4,4.6,1.1c1.3,0.8,2.4,1.8,3.1,3.2c0.8,1.3,1.1,2.9,1.1,4.7
			C267,391.8,266.9,392.5,266.9,393z M263,390c0-1.4-0.5-2.5-1.5-3.4c-1-0.8-2.2-1.3-3.6-1.3c-1.3,0-2.4,0.4-3.4,1.3
			c-1,0.8-1.5,2-1.7,3.4H263z"/>
		<path class="st2" d="M309.4,377.6l-6.8,23h-4.3l-4.9-17.5l-5.2,17.5l-4.3,0.1l-6.5-23.1h4l4.8,18.8l5.2-18.8h4.3l4.8,18.7
			l4.8-18.7H309.4L309.4,377.6z"/>
		<path class="st2" d="M315.8,399.9c-1.4-0.8-2.5-1.9-3.3-3.3s-1.2-3.1-1.2-5c0-1.9,0.4-3.5,1.2-4.9c0.8-1.5,1.9-2.6,3.4-3.3
			c1.4-0.8,3-1.1,4.7-1.1c1.7,0,3.3,0.4,4.7,1.1c1.4,0.8,2.6,1.9,3.4,3.3s1.2,3.1,1.2,4.9s-0.4,3.5-1.3,4.9c-0.8,1.5-2,2.6-3.4,3.3
			c-1.5,0.8-3.1,1.1-4.8,1.1C318.7,401.1,317.2,400.6,315.8,399.9z M323.2,397.1c0.8-0.4,1.5-1.1,2-2.1c0.5-1,0.8-2,0.8-3.4
			s-0.3-2.4-0.8-3.4c-0.5-0.9-1.2-1.6-2-2s-1.7-0.7-2.7-0.7c-1,0-1.9,0.3-2.7,0.7c-0.8,0.4-1.5,1.1-2,2s-0.7,2-0.7,3.4
			c0,2,0.5,3.5,1.5,4.5c1,1.1,2.3,1.6,3.8,1.6C321.4,397.8,322.4,397.5,323.2,397.1z"/>
		<path class="st2" d="M339.7,382.9c0.9-0.5,2-0.8,3.3-0.8v3.9h-1c-1.5,0-2.6,0.4-3.4,1.1c-0.8,0.8-1.1,2-1.1,3.9v9.6h-3.8v-18.3
			h3.8v2.7C338.1,384.2,338.8,383.5,339.7,382.9z"/>
		<path class="st2" d="M350.3,376.2v24.6h-3.8v-24.6H350.3z"/>
		<path class="st2" d="M355.1,386.6c0.8-1.4,1.8-2.5,3.1-3.3c1.3-0.8,2.8-1.1,4.4-1.1c1.2,0,2.4,0.3,3.5,0.8c1.1,0.5,2.1,1.2,2.7,2
			v-8.8h3.8v24.6h-3.8V398c-0.6,0.9-1.5,1.6-2.6,2.2s-2.4,0.9-3.8,0.9c-1.6,0-3.1-0.4-4.3-1.2c-1.3-0.8-2.4-1.9-3.1-3.4
			c-0.8-1.5-1.1-3.1-1.1-4.9C354,389.6,354.3,388.1,355.1,386.6z M368.1,388.3c-0.5-1-1.2-1.7-2-2.1c-0.8-0.5-1.7-0.7-2.7-0.7
			c-1,0-1.9,0.3-2.7,0.7c-0.9,0.4-1.5,1.1-2,2.1c-0.5,0.9-0.8,2-0.8,3.3s0.3,2.4,0.8,3.3c0.5,1,1.2,1.7,2,2.2
			c0.8,0.5,1.7,0.8,2.7,0.8s1.9-0.3,2.7-0.7c0.8-0.5,1.5-1.2,2-2.2s0.8-2,0.8-3.3C368.9,390.4,368.6,389.2,368.1,388.3z"/>
		<path class="st2" d="M390.1,377.6v23h-3.8v-23H390.1z"/>
		<path class="st2" d="M408.2,383.1c1.1,0.6,2,1.5,2.7,2.7c0.6,1.1,1,2.6,1,4.3v10.8h-3.8v-10.2c0-1.7-0.4-2.9-1.2-3.8
			c-0.8-0.9-1.9-1.3-3.4-1.3c-1.5,0-2.6,0.4-3.4,1.3c-0.8,0.9-1.3,2.1-1.3,3.8v10.2h-3.8v-18.3h3.8v2.1c0.6-0.8,1.4-1.3,2.4-1.8
			s2-0.6,3.1-0.6C405.8,382.2,407.1,382.4,408.2,383.1z"/>
		<path class="st2" d="M439.2,396h-9.6l-1.7,4.7h-4l8.2-23.1h4.4l8.2,23.1h-4L439.2,396z M438.2,393l-3.8-10.7l-3.8,10.7H438.2z"/>
		<path class="st2" d="M476,400.8h-3.8l-11.4-17.2v17.2h-3.8v-23.1h3.8l11.4,17.2v-17.2h3.8V400.8z"/>
		<path class="st2" d="M497.6,393h-14c0.1,1.5,0.6,2.6,1.6,3.5s2.2,1.3,3.6,1.3c2,0,3.4-0.8,4.3-2.6h4.1c-0.6,1.7-1.5,3.1-3,4.1
			s-3.3,1.6-5.4,1.6c-1.7,0-3.3-0.4-4.7-1.1c-1.4-0.8-2.5-1.9-3.3-3.3c-0.8-1.4-1.1-3.1-1.1-5s0.4-3.5,1.1-5
			c0.8-1.4,1.9-2.6,3.2-3.3c1.4-0.8,3-1.1,4.8-1.1c1.7,0,3.3,0.4,4.6,1.1c1.3,0.8,2.4,1.8,3.1,3.2s1.1,2.9,1.1,4.7
			C497.7,391.8,497.7,392.5,497.6,393z M493.8,390c0-1.4-0.5-2.5-1.5-3.4c-1-0.8-2.2-1.3-3.6-1.3c-1.3,0-2.4,0.4-3.4,1.3
			c-1,0.8-1.5,2-1.7,3.4H493.8z"/>
		<path class="st2" d="M526.1,382.4l-5.7,18.3h-4l-3.7-13.5l-3.7,13.5h-4l-5.7-18.3h3.8l3.8,14.7l3.9-14.7h4l3.7,14.6l3.8-14.6
			H526.1z"/>
		<path class="st2" d="M541.3,397.7h7.8v3.1h-11.6v-23h3.8L541.3,397.7L541.3,397.7z"/>
		<path class="st2" d="M552.4,379.3c-0.4-0.4-0.7-1-0.7-1.7c0-0.7,0.3-1.3,0.7-1.7c0.4-0.4,1-0.7,1.7-0.7c0.6,0,1.2,0.3,1.7,0.7
			c0.4,0.4,0.7,1,0.7,1.7s-0.3,1.3-0.7,1.7c-0.4,0.4-1,0.7-1.7,0.7C553.4,380,552.9,379.8,552.4,379.3z M556,382.4v18.3h-3.8v-18.3
			H556z"/>
		<path class="st2" d="M572.2,383c1.1,0.6,2,1.3,2.6,2.1v-2.7h3.8V401c0,1.7-0.4,3.2-1.1,4.5c-0.7,1.3-1.7,2.4-3.1,3.1
			c-1.3,0.8-2.9,1.1-4.8,1.1c-2.5,0-4.5-0.6-6.2-1.7s-2.6-2.7-2.8-4.7h3.8c0.3,1,0.9,1.7,1.9,2.3s2,0.9,3.4,0.9
			c1.5,0,2.7-0.4,3.7-1.4s1.4-2.3,1.4-4V398c-0.6,0.9-1.5,1.6-2.6,2.2c-1.1,0.6-2.4,0.9-3.7,0.9c-1.6,0-3.1-0.4-4.3-1.2
			c-1.3-0.8-2.4-1.9-3.1-3.4c-0.8-1.5-1.1-3.1-1.1-4.9s0.4-3.4,1.1-4.9c0.8-1.4,1.8-2.5,3.1-3.3c1.3-0.8,2.7-1.1,4.3-1.1
			C569.8,382.2,571,382.4,572.2,383z M573.9,388.3c-0.5-1-1.2-1.7-2-2.1c-0.8-0.5-1.7-0.7-2.7-0.7c-1,0-1.9,0.3-2.7,0.7
			c-0.9,0.4-1.5,1.1-2,2.1c-0.5,0.9-0.8,2-0.8,3.3s0.3,2.4,0.8,3.3c0.5,1,1.2,1.7,2,2.2c0.8,0.5,1.7,0.8,2.7,0.8s1.9-0.3,2.7-0.7
			c0.8-0.5,1.5-1.2,2-2.2c0.5-1,0.8-2,0.8-3.3C574.7,390.4,574.5,389.2,573.9,388.3z"/>
		<path class="st2" d="M596.7,383.1c1.1,0.6,2,1.5,2.6,2.7c0.6,1.1,1,2.6,1,4.3v10.8h-3.8v-10.2c0-1.7-0.4-2.9-1.2-3.8
			c-0.8-0.9-1.9-1.3-3.4-1.3s-2.6,0.4-3.4,1.3c-0.8,0.9-1.3,2.1-1.3,3.8v10.2h-3.8v-24.6h3.8v8.4c0.6-0.8,1.5-1.3,2.4-1.8
			s2-0.6,3.3-0.6C594.4,382.2,595.6,382.4,596.7,383.1z"/>
		<path class="st2" d="M609.4,385.6v10.2c0,0.7,0.2,1.1,0.5,1.5c0.3,0.3,0.9,0.4,1.7,0.4h2.3v3.1h-3c-1.7,0-3-0.4-3.9-1.2
			c-0.9-0.8-1.3-2.1-1.3-3.9v-10.2h-2.2v-3.1h2.2v-4.5h3.8v4.5h4.5v3.1L609.4,385.6L609.4,385.6z"/>
	</g>
</g>
</svg>
