<?xml version="1.0" encoding="utf-8"?>
<!-- Generator: Adobe Illustrator 27.8.0, SVG Export Plug-In . SVG Version: 6.00 Build 0)  -->
<svg version="1.1" id="Layer_1" xmlns="http://www.w3.org/2000/svg" xmlns:xlink="http://www.w3.org/1999/xlink" x="0px" y="0px"
	 width="677.2px" height="676.7px" viewBox="0 0 677.2 676.7" style="enable-background:new 0 0 677.2 676.7;" xml:space="preserve"
	>
<style type="text/css">
	.st0{fill:#F67C01;}
	.st1{fill:#FFFFFF;stroke:#FFFFFF;stroke-width:16;stroke-miterlimit:10;}
</style>
<circle class="st0" cx="338.6" cy="338.4" r="325.3"/>
<path class="st1" d="M251.1,290.9c0-3.8,0-6.6,0-9.5c0-24.8,0-49.6,0-74.5c0-5.6,0.9-8.8,7.9-8.8c83.9,0,168,0,251.9,0
	c5.4,0,7.5,2.2,7.5,7.5c0,57.5,0,115.3,0,172.7c0,5.9-2.5,7.5-8.1,7.5c-24.8-0.3-49.6,0-74.5,0c-2.9,0-5.6,0-9.5,0
	c-0.3,3.2-0.3,5.9-0.3,8.8c0,24.6-0.3,49.2,0,73.8c0,8.1-2.5,10.1-10.4,10.1c-82.3-0.3-164.9-0.3-247.1,0c-7.5,0-9.7-2.2-9.7-9.7
	c0.3-55.9,0.3-112.1,0-168c0-7.5,2.2-10.1,9.7-10.1C195.6,290.9,222.5,290.9,251.1,290.9z M416.3,385.7c-4.1,0-7.2,0-10.1,0
	c-48.1,0-96.4,0-144.5,0c-10.4,0-10.4,0-10.4-10.6c0-22.6,0-44.9,0-67.5c0-2.9,0-5.4,0-7.9c-28.6,0-55.9,0-83.3,0
	c0,56.9,0,113.3,0,169.5c82.9,0,165.5,0,248.1,0C416.3,441.6,416.3,414.3,416.3,385.7z M508.9,207c-83.5,0-165.9,0-248.5,0
	c0,28.2,0,55.5,0,83.9c3.8,0,7,0,10.1,0c48.3,0,96.8,0,145.1,0c7.5,0,10.4,2.2,10.1,9.7c-0.3,18.5,0,37,0,55.5c0,6.6,0,13.5,0,20.4
	c28.2,0,55.5,0,83.3,0C508.9,319.8,508.9,263.8,508.9,207z M260.2,299.3c-0.3,2.9-0.3,5.4-0.3,7.5c0,20.7,0.3,41.5-0.3,61.9
	c0,6.6,1.8,8.5,8.1,8.5c46.7-0.3,93.6,0,140.4,0c2.5,0,5,0,7.9,0c0-26.4,0-51.9,0-77.6C364.2,299.3,312.7,299.3,260.2,299.3z"/>
</svg>
