<?xml version="1.0" encoding="utf-8"?>
<!-- Generator: Adobe Illustrator 27.8.0, SVG Export Plug-In . SVG Version: 6.00 Build 0)  -->
<svg version="1.1" id="Layer_1" xmlns="http://www.w3.org/2000/svg" xmlns:xlink="http://www.w3.org/1999/xlink" x="0px" y="0px"
	 width="677.2px" height="676.7px" viewBox="0 0 677.2 676.7" style="enable-background:new 0 0 677.2 676.7;" xml:space="preserve"
	>
<style type="text/css">
	.st0{fill:#FB2C36;}
	.st1{fill:#FFFFFF;stroke:#FFFFFF;stroke-width:5;stroke-miterlimit:10;}
</style>
<circle class="st0" cx="338.6" cy="338.4" r="325.3"/>
<g>
	<path class="st1" d="M425.3,327.9c5.5,1.4,10.2,2.5,14.8,3.7c29,7.7,55.6,19.6,74.6,44.1c16.1,20.7,14.2,46.6-4.8,60.9
		c-12.7,9.6-27,11-41.9,5.9c-3.7-1.2-7.1-3.1-11.6-5.1c-1,4.2-1.9,7.9-2.6,11.6c-4.6,22.7-10.7,44.9-25.8,63.3
		c-19.1,23.2-47.9,26.1-67.5,6.2c-6-6.1-9.8-14.5-14.5-21.9c-1.4-2.2-2.2-4.8-3.8-8.4c-2.8,6.1-4.9,11.3-7.5,16.2
		c-11.1,21.2-31.4,31-53.2,25.5c-13.1-3.3-22.3-12.1-29.6-22.9c-13.3-19.7-19.1-42.3-23.6-65.2c-0.4-1.9-0.8-3.8-1.3-5.7
		c-0.1-0.4-0.6-0.7-0.7-0.8c-7.9,2.8-15.6,6.2-23.5,8.1c-17.2,4.2-32.7,0.6-43.3-14.2c-10.9-15.2-9.8-31.9-1.4-48
		c7.4-14.2,19.3-24.6,33.4-31.2c16.8-7.8,34.6-13.4,52-19.9c2.2-0.8,4.6-1.3,7.8-2.2c-1.4-2.5-2.2-4.4-3.4-6.1
		c-18.2-25.9-23.5-54.6-17.9-85.3c1.3-7-0.3-11.3-5-16.2c-24.3-25.1-12.8-64.9,21-72.9c15.9-3.8,30.3,0.6,42.3,11.5
		c3.6,3.3,6.6,4,11.1,2.2c25.2-10.3,50.7-10.3,76.3-1.5c5,1.7,8.3,1,12.4-2.6c19.1-16.8,44.2-15.8,61.5,2
		c17.2,17.6,17.7,43.2,0.6,61.6c-4.6,4.9-5.6,9.1-4.3,15.6c6.3,30.2,0.6,58.4-16.2,84.3C428.5,322.5,427.2,324.8,425.3,327.9z
		 M342.3,459.6c9.7-0.1,13.5,3.1,16.8,12.1c3.6,9.6,7.2,19.4,12.5,28.1c8.2,13.3,21.9,15.4,34,5.4c5.7-4.7,11.2-11,13.8-17.7
		c6.2-16.2,10.6-33,15.8-49.6c2.7-8.7,1.9-15.8-6-22.1c-5.9-4.7-5.3-12.3,0.1-16.5c5.5-4.3,10.1-2.2,15.2,1.6
		c10.1,7.7,20.3,15.3,31.1,21.9c6.9,4.1,14.9,3.8,21.3-1.9c6.9-6.1,9.6-14.4,6.1-22.7c-3.1-7.2-7.6-14.6-13.5-19.5
		c-22.3-18.5-48.5-28.5-77.4-31c-4.3-0.4-9.5,0.5-13.2,2.6c-40.9,22.9-81.4,22.3-122-0.9c-2.8-1.6-6.5-2.8-9.6-2.6
		c-29,2.7-55.5,12.3-78.7,30.1c-4.2,3.2-7.9,7.4-10.8,11.9c-6.9,10.3-6.3,22,0.8,30c6.7,7.4,16.1,9.1,27.4,1.4
		c12.2-8.4,22.9-19,33.8-29.1c6.1-5.7,10.9-6.6,16.6-1.4c5.3,4.8,5.3,10.1,0,16c-2.3,2.5-5.3,4.6-7.1,7.4c-1.7,2.6-3.7,6.1-3.3,8.9
		c3,21.9,7,43.7,17.4,63.5c4.1,7.8,10,15.4,16.8,20.9c11.4,9.1,24.5,6.6,32.3-5.8c5.2-8.4,9-17.9,12.4-27.2
		C328.6,462,330.8,459.7,342.3,459.6z M246.8,256.8c2.2,47.2,33.1,82.3,79.7,89.1c35.3,5.1,71.5-11.9,89.2-42.3
		c14.1-24.2,16.4-49.3,6-75.5c-4-10.2-1.9-14.7,8.2-18.7c1.6-0.6,3.2-1.3,4.4-2.4c8.4-7.8,9.9-22.8,3.3-31.8
		c-6.6-8.8-21.4-11.5-31.4-5.6c-4.1,2.4-6.4,4.7-3,9.8c3.6,5.3,0.6,10-3.7,13.4c-4.2,3.4-8.6,2.8-12.7-0.7c-4.3-3.7-8.2-8.1-13-10.7
		c-14.6-7.9-30.5-9.2-46.6-6.6c-12.9,2.1-26.1,3.8-35.2,15.8c-1.9,2.5-9.4,3.5-12.4,1.8c-2.9-1.6-3.2-7.6-4.8-11.7
		c-1.1-2.9-1.4-6.9-3.6-8.4c-3.6-2.6-8.2-4.7-12.6-5.3c-11.7-1.6-21.5,5.5-24.3,16.7c-3,12.2,1.8,21.7,13.3,26.7
		c8.6,3.7,9.7,8.2,6.7,16.9C251.2,236.8,249.3,246.9,246.8,256.8z"/>
	<path class="st1" d="M338.5,269.9c4.3,1.6,9.6,2.3,12.7,5.2c3.2,3,2.9,8.1-0.9,11.9c-1.7,1.7-3.7,3.4-5,5.4c-0.7,1.2-0.3,3-0.4,4.6
		c1.5-0.1,3.5,0.3,4.6-0.4c2.4-1.7,4.3-4,6.4-6.1c3.3-3.4,6.9-5,10.9-1.5c4.1,3.5,5.6,8.6,1.6,12.3c-5.4,5-11.6,10.3-18.5,12.3
		c-14.7,4.4-28.9,1.8-40.1-9.6c-2.4-2.4-4.7-6.4-4.4-9.4c0.3-3,3.4-6.6,6.2-8.1c1.6-0.9,5.5,1.5,7.8,3.1c2.4,1.7,3.9,4.5,6.2,6.3
		c1.2,0.9,3.3,0.6,5,0.8c-0.1-1.6,0.3-3.3-0.3-4.7c-0.7-1.5-2.1-2.7-3.3-3.9c-3.7-3.7-4.8-7.7-2.6-12.7c2.2-5.1,6.5-4.3,10.7-4.3
		c1,0,2,0.1,2.9,0.1C338.1,270.8,338.3,270.3,338.5,269.9z"/>
	<path class="st1" d="M299.8,240.4c7.3-0.1,13.6,6.2,13.6,13.4c0,7.3-6.2,13.3-13.7,13.2c-7.3-0.1-13.1-5.7-13.2-12.9
		C286.3,246.8,292.4,240.5,299.8,240.4z"/>
	<path class="st1" d="M377.7,267.1c-7.6,0.1-13.8-6-13.7-13.4c0.1-7,6.2-13.1,13.3-13.2c7.5-0.2,13.6,6,13.5,13.6
		C390.7,261.5,385.2,267,377.7,267.1z"/>
</g>
</svg>
