<?xml version="1.0" encoding="utf-8"?>
<!-- Generator: Adobe Illustrator 26.5.0, SVG Export Plug-In . SVG Version: 6.00 Build 0)  -->
<svg version="1.1" id="a" xmlns="http://www.w3.org/2000/svg" xmlns:xlink="http://www.w3.org/1999/xlink" x="0px" y="0px"
	 viewBox="0 0 38 36" enable-background="new 0 0 38 36" xml:space="preserve">
<path fill="#8AB9F1" d="M36.7,20.5c0,0.2,0,0.4,0,0.6c-0.1,0.4-0.3,0.8-0.7,1c-0.2,0.2-0.3,0.4-0.2,0.7c0.2,0.9,0,1.7-0.8,2.2
	c-0.1,0.1-0.2,0.2-0.2,0.3c-0.1,0.5-0.5,0.8-0.9,1.2c-0.3,0.2-0.7,0.5-0.8,0.9c-0.2,0.5-0.5,0.7-1,0.6c-0.1,0-0.2,0-0.3,0
	c-0.2,0.1-0.4,0.1-0.5,0.3c-0.3,0.4-0.5,0.8-0.7,1.2c-0.1,0.1-0.2,0.2-0.2,0.2c-0.4-0.1-0.5,0.1-0.7,0.4c-0.3,0.4-0.6,0.7-1,0.8
	c-0.6,0.1-0.5,0.1-0.7,0.7c-0.3,1.2-1,2.2-2.4,2.1c-0.4,0-0.6,0.1-0.8,0.5c-0.1,0.1-0.1,0.2-0.2,0.3c-0.2,0.4-0.6,0.7-1,0.7
	c-0.5,0-1-0.1-1.4-0.1c-0.2,0-0.4,0-0.5,0.1c-0.6,0.6-1.3,0.7-2,0.5c-0.5-0.1-1-0.3-1.6-0.3c-0.4,0-0.9,0-1.3-0.4
	c-0.2-0.3-0.4-0.3-0.7-0.3c-0.4,0-0.8-0.1-1.1-0.4c-0.2-0.2-0.4-0.4-0.6-0.6c-0.5-0.5-1.1-0.8-1.8-0.9c-0.3,0-0.7-0.1-1-0.2
	c-0.1,0-0.3-0.1-0.4-0.2c-0.2-0.3-0.4-0.2-0.7-0.2c-0.9,0.3-1.8,0.3-2.4-0.5c-0.5-0.5-1-0.7-1.6-0.9c-0.8-0.2-1.3-0.7-1.4-1.5
	c-0.1-0.6-0.3-0.9-0.9-1.1c-0.7-0.2-0.9-0.6-0.8-1.3c0-0.1,0-0.2,0-0.3c-0.1-0.3-0.2-0.5-0.3-0.8C3,25.4,2.9,25.2,2.9,25
	c-0.1-0.5-0.1-1-0.2-1.5c-0.1-0.4,0-0.7,0.4-1c0.3-0.2,0.3-0.4,0-0.7c-0.1-0.1-0.2-0.2-0.4-0.3c-0.2-0.1-0.3-0.2-0.1-0.4
	c0.1-0.2,0.1-0.3,0-0.5c-0.1-0.1-0.1-0.2-0.1-0.3c0-0.6,0-1.1,0.1-1.7c0-0.2,0-0.4-0.2-0.5C2,18,1.7,17.7,1.5,17.4
	c-0.5-0.8-0.3-1.7,0.2-2.4c0.1-0.2,0.2-0.4,0.1-0.6c-0.1-0.4-0.2-0.7-0.2-1.1c-0.1-0.5,0.2-1,0.6-1.3c0.5-0.2,0.5-0.6,0.5-1
	c0-0.4,0.2-0.8,0.5-1.1c0.3-0.3,0.7-0.5,0.6-1c0.7,0.1,0.8-0.5,1.2-0.8c0.6-0.4,0.1-0.9,0.1-1.4C5.4,6.9,5.5,7,5.7,7.1
	C5.8,7.1,6,7.3,6.1,7.3c0.4,0,0.9-0.1,1.3-0.1c0.4,0,0.6-0.2,0.7-0.5C8.2,5.8,8.7,5.4,9.3,5c0.3-0.2,0.6-0.4,0.6-0.7
	c0.2-0.7,0.6-1.2,1.3-1.5c0.7-0.3,1.3-0.7,1.8-1.3c0.1-0.2,0.4-0.3,0.6-0.3c0.5,0,1.1,0,1.6,0.2c0.5,0.1,0.7,0.1,1-0.3
	c0.1-0.1,0.2-0.2,0.3-0.3c0.4-0.4,0.6-0.4,1.1-0.2c0.4,0.1,0.8,0.2,1.2,0.3c0.2,0,0.5,0,0.7,0.1c0.4,0.1,0.7,0.1,1-0.3
	c0.1,0.1,0.1,0.2,0.2,0.3c0.1,0.2,0.3,0.4,0.5,0.5c0.4,0.1,0.7,0.4,1,0.7c0.4,0.5,0.8,0.8,1.5,0.7c0.4,0,0.9,0,1.3,0.1
	c0.5,0.2,0.9,0.2,1.4,0.1C27.2,3,28.1,3,28.6,3.8c0.4,0.6,1,0.8,1.6,0.7c0,0,0,0,0.1,0c0.8,0,1.5,0.7,1.6,1.5c0,0.4,0.1,0.5,0.6,0.6
	c0.2,0,0.4,0.1,0.5,0.2c0.3,0.5,0.5,1.1,0.7,1.6c0.1,0.2,0.1,0.3,0.2,0.5c0.2,0.2,0.3,0.4,0.3,0.8c0,0.3-0.1,0.5-0.1,0.8
	c0,0.2,0.1,0.4,0.2,0.5c0.3,0.3,0.4,0.8,0.2,1.2c-0.2,0.4-0.2,1,0.1,1.3c0.4,0.3,0.4,0.8,0.5,1.2c0,0.2,0,0.5,0,0.7
	c0,0.4,0.1,0.6,0.4,0.8c0.4,0.2,0.7,0.6,0.8,1c0.1,0.5,0.2,1,0.1,1.4C36.3,19.3,36.5,19.9,36.7,20.5z M20.8,18.1
	C20.8,18.1,20.8,18.1,20.8,18.1c0,0.3,0,0.6,0,0.9c0.1,0.4,0.2,0.7,0.5,0.9c0.2,0.1,0.2,0.5,0.3,0.7c0,0.2,0,0.5,0,0.7
	c0,0.1,0,0.3,0.1,0.3c0.4,0.4,0.3,1,0.3,1.5c0,0.1-0.1,0.4-0.2,0.4c-0.4,0.1-0.3,0.3-0.3,0.6c0.2,0.8,0,1.6-0.6,2.2
	c-0.2,0.2-0.4,0.4-0.4,0.7c-0.1,0.8-0.6,1.5-1.4,1.8c-0.5,0.2-0.7,0.5-0.7,1c-0.1,0.7-0.7,1.1-1.1,1.6c-0.3,0.3-0.7,0.1-1.1,0.1
	c-0.1,0-0.3,0-0.4,0c-0.1,0-0.2,0-0.3,0.1c0.1,0.1,0.1,0.2,0.2,0.3c0.1,0.1,0.2,0.1,0.3,0.1c0.3,0.1,0.5,0.2,0.8,0.2
	c0.4,0.1,0.8,0.2,1.1,0.2c0.3,0,0.6,0.1,0.9,0.1c0.1,0,0.3,0,0.4-0.1c0.5-0.3,1-0.3,1.6-0.2c0.1,0,0.3,0,0.4-0.1
	c0.5-0.5,1-0.9,1.7-0.9c0.4,0,0.6-0.2,0.8-0.6c0.2-0.5,0.5-1,1.1-1.2c0.6-0.2,0.7-0.2,0.6-0.8c-0.1-0.8,0.2-1.3,0.7-1.9
	c0.1-0.1,0.2-0.2,0.3-0.4c0-0.1,0.1-0.3,0-0.4c-0.4-0.7-0.4-1.3,0-2c0.2-0.3,0.1-0.5-0.1-0.6c-0.4-0.3-0.5-0.6-0.5-1
	c0-0.2,0-0.4-0.1-0.5c-0.1-0.2-0.2-0.5-0.4-0.6c-0.4-0.3-0.7-0.6-0.7-1.1c0-0.2-0.1-0.3-0.4-0.4c-0.3-0.1-0.6-0.2-0.9-0.4
	c-0.2-0.1-0.3-0.2-0.5,0c-0.1,0.1-0.3,0.1-0.3-0.1c0-0.6-0.5-0.7-0.9-1c-0.1,0-0.2,0-0.3,0.1c-0.1,0-0.1,0.1-0.2,0.2
	C21.1,18.3,21,18.2,20.8,18.1z M32.6,17.9C32.6,17.9,32.6,17.9,32.6,17.9c0-0.1,0-0.2,0-0.3c0-0.5-0.1-0.6-0.6-0.7
	c-0.2-0.1-0.5-0.2-0.7-0.4c-0.3-0.3-0.6-0.7-0.9-1.1c-0.3-0.4-0.6-0.6-1.1-0.7c-0.1,0-0.3-0.1-0.4-0.1c-0.2-0.2-0.4-0.1-0.6,0.1
	c-0.1,0.1-0.2,0.1-0.3,0.1c-0.1-0.1-0.1-0.2-0.2-0.4c0-0.1,0-0.2,0-0.3c0-0.2,0-0.3-0.2-0.3c-0.4-0.1-0.8-0.2-1.2-0.2
	c-0.3,0-0.5,0-0.8,0.1c-0.3,0.1-0.6,0.2-0.9,0.2c-0.8,0.1-1.5,0.5-2.3,0.7c0,0-0.1,0.1-0.1,0.1c-0.1,0.1-0.3,0.1-0.4,0.2
	c-0.3,0.2-0.6,0.4-0.8,0.6c-0.2,0.1-0.3,0.4-0.1,0.5c0.1,0.1,0.3,0.1,0.5,0.1c0.2,0,0.4,0,0.6,0c0.1,0,0.3,0,0.4,0
	c0.4,0,0.8,0,1.1,0.2c0.5,0.3,0.9,0.4,1.5,0.5c0.5,0.1,0.7,0.4,0.7,0.8c0,0.2,0.2,0.3,0.4,0.3c0.1,0,0.3,0,0.4,0
	c0.6,0.1,1,0.4,1.1,1c0,0.2,0.1,0.4,0.1,0.6c0,0.4,0.1,0.5,0.5,0.6c0.7,0.2,1.5,1,1.2,2.1c-0.1,0.3,0,0.5,0.3,0.6
	c0.7,0.4,1,1.2,0.6,1.9c-0.1,0.2-0.1,0.4,0.1,0.5c0.2,0.2,0.4,0.2,0.6,0.1c0.3-0.2,0.5-0.4,0.6-0.8c0.1-0.4,0.2-0.9,0.7-1
	c0,0,0.1-0.1,0.1-0.1c0.2-0.3,0.4-0.6,0.5-0.9c0.1-0.2,0.2-0.6,0.2-0.8c-0.2-0.8-0.4-1.5,0.1-2.2c0.1-0.2,0.1-0.3-0.1-0.5
	c-0.2-0.1-0.3-0.4-0.4-0.6C32.6,18.5,32.6,18.2,32.6,17.9z M5.7,15.3c-0.2,0.3-0.3,0.5-0.4,0.8c-0.1,0.2-0.1,0.5-0.1,0.8
	c-0.1,0.3,0,0.5,0.3,0.7c0.7,0.3,1.3,0.8,1.3,1.6c0,0.2,0.2,0.4,0.4,0.4c0.7,0.2,1.2,0.6,1.7,1.1c0.1,0.1,0.3,0.2,0.5,0.2
	c0.5-0.1,1-0.1,1.5,0.2c0.2,0.1,0.5,0.2,0.7,0.1c0.4-0.2,0.8-0.2,1.2-0.2c0.2,0,0.5-0.1,0.6-0.2c0.3-0.4,0.7-0.5,1.2-0.4
	c0.3,0,0.4-0.1,0.6-0.3c0.1-0.1,0.3-0.2,0.5-0.3c0.1-0.1,0.3-0.1,0.4-0.2c0.2-0.2,0.4-0.5,0.5-0.7c0.1-0.2,0.2-0.4,0.1-0.5
	c0-0.1-0.3-0.2-0.5-0.2c-1.2,0.1-2.4-0.1-3.5-0.6c-0.3-0.1-0.6-0.3-0.8-0.7c-0.1-0.3-0.4-0.4-0.7-0.4c-0.9,0-1.3-0.4-1.4-1.2
	c-0.1-0.3-0.2-0.6-0.5-0.7c-0.4-0.2-0.8-0.5-1-0.9c-0.2-0.4-0.1-0.8,0-1.1c0.1-0.3,0.1-0.7-0.2-0.9C7.7,11,7.6,10.4,7.7,9.7
	c0-0.2,0.1-0.4-0.2-0.5C7.2,9.2,7.1,9.3,6.9,9.5c-0.2,0.3-0.4,0.6-0.6,0.8c-0.3,0.3-0.4,0.6-0.5,0.9c-0.1,0.4-0.2,0.8-0.6,1.1
	c-0.1,0.1-0.2,0.3-0.2,0.5c-0.1,0.5-0.1,1.1-0.2,1.6c0,0.3,0,0.4,0.3,0.5C5.4,15.1,5.6,15.2,5.7,15.3z M11.5,27.6c0,0.2,0,0.3,0,0.4
	c0.1,0.5,0.3,0.6,0.8,0.5c0.2,0,0.4-0.1,0.6,0c0.9,0.1,1.6-0.2,2.3-0.8c0.3-0.3,0.5-0.4,0.9-0.4c0.7,0,0.9-0.1,1-0.8
	c0.1-0.4,0.3-0.7,0.7-0.9c0.4-0.2,0.6-0.5,0.8-0.9c0.1-0.3,0.3-0.6,0.5-0.9c0.1-0.2,0.2-0.4,0.1-0.5c-0.3-0.6-0.1-1,0.2-1.5
	c0.1-0.1,0.1-0.3,0-0.5c0-0.3-0.1-0.6-0.2-0.9c0-0.2,0-0.5-0.1-0.8c0-0.1-0.1-0.2-0.2-0.3c-0.1,0.1-0.2,0.1-0.3,0.2
	c-0.1,0.1-0.1,0.2-0.1,0.4c-0.1,0.2-0.2,0.4-0.4,0.3c-0.3,0-0.5,0.1-0.5,0.5c0,0.5-0.3,0.9-0.8,1.1c-0.3,0.1-0.5,0.3-0.6,0.6
	c0,0.1-0.1,0.2-0.2,0.3c-0.4,0.4-0.9,0.4-1.4,0.5c-0.3,0-0.5,0.1-0.7,0.4c-0.2,0.3-0.4,0.4-0.8,0.4c-0.4,0-0.9-0.1-1.3-0.1
	c-0.2,0-0.4,0-0.6,0.2c-0.2,0.2-0.4,0.4-0.6,0.4c-0.8,0-1.6,0-2.1-0.8c-0.1-0.2-0.3-0.2-0.5-0.1c-0.5,0.2-1.1,0.4-1.6,0
	c-0.1,0-0.2,0-0.2,0c-0.4,0-0.5,0.1-0.4,0.5c0,0.2,0.1,0.4,0,0.5c-0.2,0.4,0,0.7,0.3,1c0.3,0.4,0.6,0.8,0.9,1.1
	c0.1,0.1,0.3,0.3,0.4,0.3c0.4,0,0.7,0.3,1.1,0.5c0.1,0.1,0.3,0.1,0.5,0.2c0.1,0,0.2,0.1,0.2,0.2c0.1,0.3,0.2,0.4,0.5,0.5
	c0.3,0.1,0.5,0.1,0.8,0.2c0.7,0.2,0.7,0.3,0.7-0.5C11.2,27.8,11.2,27.6,11.5,27.6z M31.5,11.4c0.5,0,0.6-0.1,0.4-0.4
	c-0.1-0.2-0.2-0.4-0.3-0.6c-0.2-0.3-0.3-0.6-0.3-1c0-0.1-0.1-0.3-0.2-0.3c-0.5-0.2-0.9-0.5-1-1c-0.1-0.3-0.3-0.5-0.7-0.5
	c-0.6,0.1-1-0.2-1.2-0.8c-0.1-0.3-0.3-0.3-0.6-0.3c-0.3,0.1-0.6,0.1-0.9,0.1c-0.5,0-0.8-0.2-1.2-0.5c-0.2-0.1-0.4-0.2-0.6,0
	c-0.3,0.3-0.7,0.4-1.1,0.4c-0.6,0-1,0.4-1.6,0.6c-0.2,0.1-0.5,0.3-0.7,0.3c-1,0.1-1,0.1-1.2,1c-0.1,0.5-0.4,0.8-0.8,0.8
	c-0.5,0-0.5,0.1-0.5,0.6c0,0.5,0,1-0.6,1.3c-0.1,0-0.1,0.2-0.1,0.3c0.2,0.5,0.1,1-0.1,1.4c0,0.1-0.1,0.3,0,0.4
	c0.2,0.3,0.2,0.7,0.1,1.1c0,0.1,0,0.2,0,0.3c0.1,0.1,0.2,0.3,0.4,0.3c0.1,0,0.2-0.1,0.3-0.2c0.4-0.5,0.7-1,1-1.4
	c0.1-0.1,0.3-0.3,0.5-0.3c0.3,0,0.5-0.2,0.6-0.5c0-0.1,0.1-0.2,0.2-0.3c0.3-0.5,0.9-0.5,1.4-0.5c0.2,0,0.4-0.1,0.6-0.2
	c0.5-0.6,1.2-0.7,1.9-0.6c0.4,0.1,0.7,0,1-0.1c0.8-0.4,1.8-0.3,2.4,0.2c0.3,0.2,0.6,0.3,0.9,0.2c0.4-0.2,0.8-0.1,1.2,0
	C31,11.3,31.3,11.3,31.5,11.4z M18.2,3.2C18.2,3.2,18.2,3.2,18.2,3.2c-0.7,0-1.3,0.1-2,0.2c-0.1,0-0.3,0.1-0.3,0.2
	c0,0.5-0.4,0.6-0.7,0.7c-0.2,0-0.4,0.1-0.5,0.2c-0.5,0.1-0.8,0.4-1,0.8c-0.2,0.3-0.4,0.6-0.7,0.9c-0.3,0.3-0.5,0.5-0.5,0.9
	c-0.1,0.3-0.2,0.7-0.3,1c-0.1,0.2-0.1,0.3-0.1,0.5c0,0.4,0.1,0.8,0.1,1.3c0,0.3-0.1,0.4-0.3,0.6c-0.6,0.3-0.6,1.1-0.1,1.5
	c0.3,0.3,0.4,0.6,0.4,0.9c0,0.3,0.2,0.6,0.4,0.8c0.3,0.3,0.6,0.6,0.7,1c0.1,0.3,0.3,0.5,0.7,0.6c0.3,0,0.5,0.2,0.7,0.4
	c0.1,0.2,0.3,0.3,0.5,0.4c0.5,0.2,0.9,0.3,1.3,0.6c0.1,0.1,0.4,0,0.5-0.1C17,16.3,17,16,16.9,16c-0.3-0.5-0.7-0.9-1-1.3
	c-0.2-0.3-0.4-0.5-0.2-0.8c0.2-0.4,0.2-0.7,0-1.1c-0.2-0.4-0.2-0.7,0-1.1c0.1-0.3,0.2-0.6,0.2-0.9c-0.1-0.3-0.1-0.6,0-0.9
	c0.2-0.3,0.4-0.7,0.6-0.9c0.2-0.2,0.4-0.5,0.2-0.8c-0.1-0.1,0-0.3,0-0.4c0.1-0.8,0.6-1.4,1.4-1.6c0.3-0.1,0.5-0.3,0.5-0.6
	c0-0.2,0.1-0.4,0.2-0.6c0.2-0.3,0.4-0.6,0.6-1c0.2-0.4,0-0.7-0.4-0.7C18.8,3.2,18.5,3.2,18.2,3.2z"/>
</svg>
