<svg width="0" height="0" class="hidden">
  <symbol version="1.1" id="contact_icon" xmlns="http://www.w3.org/2000/svg" xmlns:xlink="http://www.w3.org/1999/xlink" x="0px" y="0px" enable-background="new 0 0 275 273" xml:space="preserve" viewBox="0 0 275 273">
    <path fill="#85B8E4" d="M49.1,216.2c-4.5,0-8.7,0.1-12.8,0c-3.4-0.1-5.7-1.9-6.2-4.8c-0.6-3.5,1.9-6.6,5.7-6.6c4.3-0.1,8.6,0,13.1,0
	c0-12.5,0-24.8,0-37.5c-3.1,0-6.3,0-9.5,0c-1.2,0-2.5,0.1-3.7,0c-3.3-0.2-5.6-2.7-5.6-5.9c0.1-3.1,2.4-5.4,5.6-5.5
	c4.3-0.1,8.7,0,13.2,0c0-12.5,0-24.8,0-37.5c-4.3,0-8.6,0-12.9,0c-3.5-0.1-6-2.5-5.9-5.7c0-3.3,2.5-5.6,6.3-5.7
	c4.2-0.1,8.3,0,12.6,0c0-12.5,0-24.8,0-37.5c-3.2,0-6.5,0-9.8,0c-1.2,0-2.3,0-3.5,0C32.4,69.2,30.2,67,30,64c-0.1-3.1,2-5.7,5.2-5.9
	C38.6,57.9,42,58,45.4,58c1.1,0,2.2,0,3.6,0c0-3.7-0.2-7.2,0.1-10.8c0.3-3.9,0.6-7.9,1.9-11.5C55.4,24.4,63.9,18.3,76,17.2
	c1.2-0.1,2.3-0.1,3.5-0.1c43.8,0,87.7,0,131.5,0c10.3,0,18.7,3.6,24.8,11.9c4,5.4,5.4,11.6,5.4,18.3c-0.1,33.1,0,66.2,0,99.2
	c0,26.6-0.3,53.2,0.1,79.7c0.3,17.3-12.5,31-30.8,30.9c-43.5-0.3-87-0.1-130.5-0.1c-1.5,0-3-0.1-4.5-0.2
	c-14.5-1-25.9-12.9-26.4-27.4C48.9,225.2,49.1,220.9,49.1,216.2z M60.5,216.2c0,3.8,0,7.2,0,10.6c0,11.7,7.1,18.8,18.8,18.8
	c43.9,0,87.8,0,131.7,0c11.6,0,18.8-7.1,18.8-18.7c0-60,0-120,0-180c0-1.9-0.2-3.9-0.6-5.7c-2.1-8.1-8.8-12.9-18-12.9
	c-44,0-88,0-132,0c-1.2,0-2.3,0-3.5,0.2c-7.2,1-12.5,4.9-14.2,11.9c-1.3,5.5-1,11.5-1.4,17.4c4.9,0,9,0,13.2,0c3.2,0,5.4,1.7,6,4.3
	c0.9,3.7-1.7,7-5.6,7.1c-4.4,0.1-8.8,0-13.1,0c0,12.7,0,25,0,37.5c4.2,0,8.3,0,12.3,0c4,0,6.5,2.2,6.6,5.6c0,3.6-2.5,5.8-6.6,5.8
	c-4.1,0-8.1,0-12.2,0c0,12.6,0,25,0,37.5c4.4,0,8.7-0.1,12.9,0c3.9,0.1,6.3,2.8,5.9,6.4c-0.3,3-2.7,4.9-6.2,5c-4.2,0-8.4,0-12.6,0
	c0,12.7,0,25,0,37.5c4.5,0,8.9,0,13.2,0c2.5,0,4.3,1.3,5.2,3.6c0.9,2.1,0.7,4.4-1,5.8c-1.4,1.1-3.3,1.9-5.1,2
	C69,216.4,64.9,216.2,60.5,216.2z"></path>
    <path fill="#85B8E4" d="M145.2,194.3c-11.7,0-23.5,0-35.2,0c-5.3,0-7.4-2.2-7.2-7.5c0.9-20.5,14-36.7,33.1-41.1
	c24-5.5,48,11.3,51.1,35.8c0.3,2.1,0.5,4.1,0.5,6.2c0.1,4.3-2.2,6.6-6.6,6.6C169,194.3,157.1,194.3,145.2,194.3z M114.9,182.7
	c20.2,0,40.4,0,60.6,0c-0.9-14.4-14.6-26.5-30.1-26.6C129.8,156,116.2,167.9,114.9,182.7z"></path>
    <path fill="#85B8E4" d="M145.3,135.4c-15.3,0-27.7-12.3-27.8-27.5c0-15.4,12.4-27.9,27.7-27.9c15.2,0.1,27.7,12.5,27.7,27.7
	C172.9,122.9,160.5,135.3,145.3,135.4z M145.2,123.9c8.9,0,16.2-7.2,16.3-16.1c0.1-9-7.3-16.4-16.3-16.4c-9,0-16.3,7.4-16.2,16.4
	C129,116.8,136.2,123.9,145.2,123.9z"></path>
    <g></g>
    <g></g>
    <g></g>
    <g></g>
    <g></g>
    <g></g>
    <g></g>
    <g></g>
    <g></g>
    <g></g>
    <g></g>
    <g></g>
    <g></g>
    <g></g>
    <g></g>
  </symbol>
</svg>