<?xml version="1.0" encoding="utf-8"?>
<!-- Generator: Adobe Illustrator 26.5.0, SVG Export Plug-In . SVG Version: 6.00 Build 0)  -->
<svg version="1.1" id="Layer_1" xmlns="http://www.w3.org/2000/svg" xmlns:xlink="http://www.w3.org/1999/xlink" x="0px" y="0px"
	 width="275px" height="273px" viewBox="0 0 275 273" enable-background="new 0 0 275 273" xml:space="preserve">
<path fill="#679BF1" d="M251.4,131c0,31.5,0,63,0,94.5c0,2.8,0.2,5.6,0.1,8.4c-0.1,8.6-2.6,16.4-8.2,23.1c-4.6,5.4-10.3,9-17.2,11
	c-3.6,1-7.3,1.5-11,1.5c-23.9,0-47.8-0.1-71.8-0.1c-23.3,0-46.6,0-69.9,0c-4,0-8-0.3-11.9-1.3c-12.4-3.2-22.4-14.2-24.3-26.8
	c-0.7-4.8-0.5-9.6-0.5-14.4c0-1.9,0-1.9-1.9-1.9c-3,0-6,0-9,0c-2.3,0-4.5-0.6-6.3-2c-2.8-2.2-3.8-5.1-3.3-8.5
	c0.5-3.2,2.4-5.5,5.5-6.6c1-0.4,2.1-0.5,3.2-0.6c3.5-0.1,7-0.1,10.5,0c0.9,0,1.2-0.3,1.2-1.2c0-11,0-22.1,0-33.1
	c0-1.2,0-1.3-1.3-1.3c-3.4,0-6.7,0.1-10.1,0c-4.6-0.1-8-3.1-8.9-7.6c-0.9-5.1,3.1-10,8.3-10.1c3.6-0.1,7.1,0,10.7,0
	c1.3,0,1.3,0,1.3-1.4c0-11,0-21.9,0-32.9c0-1.3,0-1.3-1.3-1.3c-3.3,0-6.6,0.1-9.9,0c-3.9-0.1-7-1.7-8.6-5.4
	c-2.1-4.9,0.6-10.4,5.7-11.8c1-0.3,2.1-0.4,3.2-0.5c3.3-0.1,6.6-0.1,9.9,0c0.9,0,1.1-0.3,1.1-1.2c0-11.1,0-22.2,0-33.3
	c0-0.9-0.3-1.2-1.2-1.1c-3.4,0-6.7,0-10.1,0c-5,0-8.8-3.2-9.3-8.2c-0.6-5,3.1-9.3,7.9-9.5c3.4-0.2,6.8-0.2,10.2-0.2
	c2.5,0,2.6,0,2.5-2.6c-0.1-4.8,0-9.6,1-14.4C40.3,16.7,48,7.7,61.2,3.9c3.4-1,6.8-1.4,10.4-1.4c48.7,0,97.5,0,146.2,0.1
	c9.7,0,18,3.6,24.7,10.8c4.8,5.2,7.7,11.4,8.5,18.4c0.2,2.1,0.4,4.3,0.4,6.4C251.4,69.2,251.4,100.1,251.4,131
	C251.4,131,251.4,131,251.4,131z M233.7,135.7c0-32.5,0-64.9,0-97.4c0-1.4,0-2.9-0.2-4.3c-0.7-5.2-3.2-9.1-7.7-11.7
	c-3.4-2-7.2-2.3-11.1-2.3c-47.1,0-94.2,0-141.2,0c-2.1,0-4.3,0.2-6.4,0.6c-6.3,1.3-10.4,5-11.7,11.5c-0.9,4.6-0.8,9.3-1.1,14
	c-0.1,0.8,0.4,0.9,1,0.9c3.6,0,7.1,0,10.7,0c2.4,0,4.7,0.7,6.5,2.4c2.5,2.4,3.4,6.4,2.2,9.6c-1.3,3.3-4.5,5.7-8,5.7
	c-3.5,0-7.1,0-10.6,0c-1.4,0-1.4,0-1.4,1.4c0,10.8,0,21.5,0,32.3c0,1.9-0.2,1.8,1.8,1.8c3.7,0.1,7.4-0.1,11,0.3
	c3.6,0.3,6.3,2.3,7.3,5.9c1,3.6,0.3,6.8-2.6,9.4c-1.7,1.5-3.9,2.1-6.1,2.2c-3.4,0.1-6.9,0-10.3,0c-0.7,0-1,0.2-1,1
	c0,11.2,0,22.4,0,33.6c0,0.8,0.3,1,1,1c2.1,0,4.1,0,6.2,0c2,0,4.1-0.1,6,0.3c7.8,1.4,8.8,9.9,5.5,14c-1.9,2.4-4.5,3.4-7.4,3.5
	c-3.4,0.1-6.8,0-10.2,0c-0.9,0-1.2,0.3-1.2,1.2c0,11.1,0,22.2,0,33.3c0,0.9,0.3,1.2,1.2,1.2c3.4,0,6.7,0,10.1,0c4.6,0,7.8,2.5,9,7
	c1,3.6-0.7,7.1-3.2,8.6c-2.5,1.6-5.2,2.2-8,2.3c-2.8,0.1-5.6,0.2-8.4,0.2c-0.6,0-1,0.1-1,0.8c0.1,3.9-0.1,7.9,0.3,11.8
	c0.4,4.5,2.5,8.3,6.3,11c3.3,2.3,7,3,10.9,3c47,0,94.1,0,141.1,0c1.9,0,3.9,0,5.8-0.2c5.1-0.5,9.4-2.6,12.2-7.2
	c2-3.1,2.6-6.6,2.6-10.3C233.7,201.1,233.7,168.4,233.7,135.7z"/>
<path fill="#679BF1" d="M144.3,201c-12.8,0-25.6,0-38.4,0c-1.6,0-3.2-0.2-4.6-0.7c-3.7-1.1-5.9-4.3-5.9-8.5
	c0-11.7,3.4-22.4,10.6-31.7c7.9-10.2,18.4-16.2,31.2-18c14.5-2.1,27.3,1.9,38.5,11.2c5.7,4.7,10,10.6,13,17.4
	c2.4,5.4,3.7,11,4.1,16.9c0.1,1.9,0.2,3.9,0,5.8c-0.5,4-3.3,6.7-7.3,7.3c-0.9,0.1-1.9,0.2-2.9,0.2C169.8,201,157,201,144.3,201z
	 M174.1,183c0-0.3,0-0.4,0-0.5c-0.1-0.3-0.1-0.6-0.2-0.9c-1.6-6.2-5-11.2-10-15.1c-5.7-4.6-12.3-7-19.6-7.1
	c-4.4-0.1-8.6,0.8-12.6,2.7c-8.7,4-14.6,10.4-17.2,19.8c-0.4,1.3-0.3,1.3,1.1,1.3c19.1,0,38.2,0,57.3,0
	C173.2,183,173.6,183,174.1,183z"/>
<path fill="#679BF1" d="M177,103.9c0.2,17.9-14.8,32.8-32.7,32.8c-18.1,0-33-14.8-33-32.7c0-18.1,14.8-33,32.8-32.9
	C162.1,71.1,177.1,85.9,177,103.9z M144.1,118.8c8.1,0.3,15.2-6.8,15.2-14.9c-0.1-8.4-6.7-15.1-14.9-15.1c-8.4,0-15,6.6-15.1,14.9
	C129,112.2,135.9,119.1,144.1,118.8z"/>
</svg>
