<?xml version="1.0" encoding="utf-8"?>
<!-- Generator: Adobe Illustrator 26.5.0, SVG Export Plug-In . SVG Version: 6.00 Build 0)  -->
<svg version="1.1" id="Layer_1" xmlns="http://www.w3.org/2000/svg" xmlns:xlink="http://www.w3.org/1999/xlink" x="0px" y="0px"
	 viewBox="0 0 166.7 166.6" style="enable-background:new 0 0 166.7 166.6;" xml:space="preserve">
<style type="text/css">
	.st0{fill:#1F64AC;}
	.st1{fill:#3A9AD3;}
	.st2{fill:#FDFDFD;}
	.st3{fill:#E8E8E6;}
	.st4{fill:#FCFCFC;}
</style>
<path class="st0" d="M164.6,83.3c0.4,44.3-35.8,81.6-81.5,81.5c-45-0.1-81.3-36-81.4-80.9C1.5,37.6,38.1,3.3,80.6,2
	C128.5,0.5,165.2,39.6,164.6,83.3z M152.7,83.5c0.5-38-31-69.2-68.6-69.6c-38.5-0.4-69.6,30.4-70.5,67.5
	c-1,39.8,30.4,71.3,69.3,71.5C122.6,153.1,153,120.8,152.7,83.5z"/>
<path class="st0" d="M41.9,51.1c27.7,0,55.1,0,82.7,0c-2.5,28.1-5,56.1-7.5,84.2c-10.9,3.1-21.8,6.1-32.6,9.1
	c-1.2,0.3-2.4,0-3.7-0.4c-10.5-2.9-20.9-5.8-31.5-8.7C46.9,107.3,44.4,79.3,41.9,51.1z M83.1,115.9c-3.9-0.8-7.7-1.9-11.4-3
	c-0.3-2.9-0.6-5.5-0.8-8.2c-3.5,0-6.8,0-10.4,0c0.5,5.5,0.9,10.8,1.4,15.9c0.7,0.7,1.3,0.8,1.8,1c6.5,1.8,12.9,3.7,19.4,5.6
	c0,3.4,0,6.8,0,10.5c9.4-2.6,18.5-5.2,27.5-7.7c2.2-24.2,4.3-47.9,6.4-71.7c-11.4,0-22.6,0-33.9,0c0,3.5,0,6.9,0,10.2l0,0.1
	c-8.6,0-17.2,0-25.9,0c0.5,3.5,0.2,6.7,1.2,10c8.2,0,16.4,0,24.7,0c0,0,0.1,0.1,0.1,0.1c0,0.1-0.1,0.2-0.1,0.3
	c-8,3.5-16,6.9-24.2,10.5c1.4,3.3,0.1,6.8,1.6,10.2c7.5,0,15.1,0,22.6,0C83.1,105,83.1,110.5,83.1,115.9z"/>
<path class="st0" d="M76.8,39c1.9,0,3.4,0,5.3,0c-1.9-2.1-3.6-3.8-5.2-5.6c0-1.7,0-3.2,0-4.9c4.2,0,8.2,0,12.4,0
	c0.6,1.4,0.1,3,0.3,4.7c-1.8,0-3.3,0-5.4,0c2.2,1.8,4,3.3,5.8,4.8c-0.2,0.2-0.4,0.4-0.6,0.6c0,1.6,0,3.3,0,5c-4.1,0-8.2,0-12.4,0
	C76.5,42.3,77,40.7,76.8,39z"/>
<path class="st0" d="M105,28.5c0,1.7,0,3.1,0,4.8c-1.6,0-3.2,0-5.1,0c2.1,1.9,3.9,3.4,5.6,5c-0.2,0.2-0.3,0.3-0.5,0.5
	c0,1.6,0,3.2,0,4.9c-4.2,0-8.3,0-12.5,0c0-1.5,0-3,0-4.6c1.5,0,3.1,0,5.2,0c-2.8-3.3-7-5.6-5-10.6C96.7,28.5,100.8,28.5,105,28.5z"
	/>
<path class="st0" d="M61.3,28.5c4.3,0,8.4,0,12.7,0c0,1.5,0,3,0,4.6c-2.2,0.7-4.7-0.2-7.1,0.5c0,1.8,0,3.5,0,5.4c2.4,0,4.7,0,7.1,0
	c0,1.6,0,3.1,0,4.7c-4.2,0-8.4,0-12.7,0C61.3,38.7,61.3,33.7,61.3,28.5z"/>
<path class="st1" d="M83.1,68.4c0-3.3,0-6.7,0-10.2c11.4,0,22.5,0,33.9,0c-2.1,23.8-4.3,47.5-6.4,71.7c-9,2.5-18,5-27.5,7.7
	c0-3.7,0-7.1,0-10.5c0,0,0-0.2,0-0.2c7.1-1.9,14.3-3.9,21.3-5.8c0.6-6,1.3-11.6,1.6-17.2c0.3-4.8,1.3-9.6,1-14.4
	c0-0.3-0.1-0.4-0.4-0.3c-7.7-0.1-15.3-0.1-23-0.2l0,0c8.1-3.4,16.3-6.8,24.5-10.3c0.7-3.3,0.6-6.7,1-10.3
	C100.2,68.4,91.7,68.4,83.1,68.4z"/>
<path class="st2" d="M83.1,68.4c8.6,0,17.1,0,26,0c-0.4,3.6-0.3,7-1,10.3c-8.2,3.4-16.3,6.9-24.5,10.3c-0.8-0.6-0.5-1.5-0.5-2.3
	c0-2.6,0-5.1,0-7.7c0-0.1,0.1-0.2,0.1-0.3c0,0-0.1-0.1-0.1-0.1c0-3.3,0-6.7,0-10C83.1,68.5,83.1,68.4,83.1,68.4z"/>
<path class="st3" d="M83.1,79c0,2.6,0,5.1,0,7.7c0,0.8-0.3,1.7,0.5,2.3c0,0,0,0,0,0c-1.1,3.4-0.2,6.9-0.5,10.4l0,0.2
	c-7.6,0-15.1,0-22.6,0c-1.6-3.4-0.2-6.8-1.6-10.2C67.1,85.9,75.1,82.4,83.1,79z"/>
<path class="st3" d="M83.1,127.1c-6.5-1.9-12.9-3.7-19.4-5.6c-0.6-0.2-1.1-0.3-1.8-1c-0.4-5-0.9-10.3-1.4-15.9c3.6,0,6.9,0,10.4,0
	c0.3,2.7,0.5,5.3,0.8,8.2c3.6,1.2,7.5,2.3,11.4,3l0,0.2c0,3.6,0,7.2,0,10.7L83.1,127.1z"/>
<path class="st3" d="M83.1,68.5c0,3.3,0,6.7,0,10c-8.2,0-16.5,0-24.7,0c-1-3.2-0.7-6.5-1.2-10C65.9,68.5,74.5,68.5,83.1,68.5z"/>
<path class="st1" d="M83.1,115.9c0-5.4,0-10.9,0-16.3c0,0,0-0.2,0-0.2c4.3,0,8.5,0,12.9,0c-0.7,4.8-0.5,9.3-1.5,13.7
	c-4,1.1-7.7,2-11.4,3L83.1,115.9z"/>
<path class="st4" d="M83.1,116.1c3.7-1,7.5-2,11.4-3c1-4.4,0.8-8.9,1.5-13.7c-4.3,0-8.6,0-12.9,0c0.3-3.5-0.6-7,0.5-10.4
	c7.7,0.1,15.3,0.1,23,0.2c0.1,0.1,0.2,0.2,0.4,0.3c0.3,4.8-0.7,9.6-1,14.4c-0.3,5.6-1,11.2-1.6,17.2c-7,1.9-14.2,3.8-21.3,5.8
	C83.1,123.3,83.1,119.7,83.1,116.1z"/>
<path class="st3" d="M107,89.5c-0.2-0.1-0.3-0.2-0.4-0.3C106.9,89.1,107,89.2,107,89.5z"/>
</svg>
