<svg width="0" height="0" class="hidden">
  <symbol version="1.1" id="email_icon" xmlns="http://www.w3.org/2000/svg" xmlns:xlink="http://www.w3.org/1999/xlink" x="0px" y="0px" enable-background="new 0 0 38 36" xml:space="preserve" viewBox="0 0 38 36">
    <g>
      <path d="M18.3,35.2c-3.4,0-6.3-0.6-8.7-1.9c-2.4-1.3-4.2-3.1-5.5-5.4c-1.3-2.4-1.9-5.2-1.9-8.5
		c0-2.7,0.4-5.1,1.2-7.4C4.2,9.6,5.4,7.6,7,6c1.6-1.7,3.5-3,5.7-3.9c2.2-0.9,4.8-1.4,7.6-1.4c3,0,5.6,0.6,8,1.8
		c2.3,1.2,4.1,3,5.5,5.3c1.3,2.3,2,5,2,8.2c0,1.3-0.2,2.6-0.5,3.9c-0.3,1.3-0.8,2.4-1.4,3.4c-0.6,1-1.4,1.8-2.3,2.5
		c-0.9,0.6-2,0.9-3.3,0.9c-1.3,0-2.4-0.4-3.1-1.1c-0.8-0.8-1.2-1.6-1.4-2.6h-0.2c-0.5,1.1-1.3,2-2.3,2.7c-1,0.7-2.3,1.1-3.8,1.1
		c-2.2,0-3.9-0.7-5.1-2.2c-1.2-1.5-1.8-3.4-1.8-5.8c0-1.9,0.4-3.6,1.1-5c0.7-1.4,1.8-2.6,3.2-3.4C16.4,9.4,18,9,19.9,9
		c1.3,0,2.5,0.1,3.7,0.3c1.2,0.2,2.2,0.5,2.9,0.7L26,18.7c0,0.5,0,0.9,0,1.1s0,0.4,0,0.5c0,1.5,0.3,2.5,0.8,3
		c0.5,0.5,1.2,0.7,1.9,0.7c0.9,0,1.6-0.4,2.3-1.1c0.6-0.7,1.1-1.7,1.4-2.9c0.3-1.2,0.5-2.6,0.5-4c0-2.7-0.5-4.9-1.6-6.8
		s-2.6-3.3-4.4-4.2c-1.9-1-4-1.5-6.4-1.5c-3.3,0-6,0.7-8.3,2c-2.3,1.3-4,3.2-5.1,5.6c-1.2,2.4-1.7,5.1-1.7,8.1
		c0,4.2,1.1,7.5,3.4,9.8c2.2,2.3,5.5,3.4,9.7,3.4c1.7,0,3.4-0.2,5-0.6s3-0.8,4.2-1.3v2.9c-1.2,0.5-2.6,0.9-4.1,1.3
		C21.8,35,20.1,35.2,18.3,35.2z M18.1,24c1.6,0,2.8-0.6,3.5-1.8c0.7-1.2,1.1-2.8,1.2-4.7l0.3-5.4c-0.4-0.1-0.8-0.2-1.4-0.3
		c-0.6-0.1-1.2-0.1-1.8-0.1c-1.4,0-2.5,0.3-3.4,1c-0.9,0.7-1.5,1.6-1.8,2.6c-0.4,1.1-0.6,2.2-0.6,3.4c0,1.8,0.4,3.2,1.1,4
		C15.9,23.6,16.9,24,18.1,24z"></path>
    </g>
  </symbol>
</svg>