<?xml version="1.0" encoding="utf-8"?>
<!-- Generator: Adobe Illustrator 26.5.0, SVG Export Plug-In . SVG Version: 6.00 Build 0)  -->
<svg version="1.1" id="a" xmlns="http://www.w3.org/2000/svg" xmlns:xlink="http://www.w3.org/1999/xlink" x="0px" y="0px"
	 viewBox="0 0 38 36" enable-background="new 0 0 38 36" xml:space="preserve">
<path fill-rule="evenodd" clip-rule="evenodd" fill="#8AB9F1" d="M19,0C8.5,0,0,8.3,0,18.5C0,26.7,5.4,33.6,13,36
	c0.9,0.2,1.3-0.4,1.3-0.9V32c-5.3,1-6.4-2.5-6.4-2.5c-0.9-2.1-2.1-2.7-2.1-2.7c-1.7-1.1,0.1-1.1,0.1-1.1c1.9,0.1,2.9,1.9,2.9,1.9
	c1.7,2.8,4.4,2,5.5,1.5c0.2-1.2,0.7-2,1.2-2.5c-4.2-0.5-8.7-2.1-8.7-9.1c0-2,0.7-3.7,2-5C8.6,12,7.9,10.2,9,7.6c0,0,1.6-0.5,5.2,1.9
	c1.5-0.4,3.1-0.6,4.8-0.6c1.6,0,3.2,0.2,4.8,0.6C27.4,7.1,29,7.6,29,7.6c1,2.5,0.4,4.4,0.2,4.9c1.2,1.3,1.9,2.9,1.9,5
	c0,7.1-4.4,8.6-8.7,9.1c0.7,0.6,1.3,1.7,1.3,3.4v5.1c0,0.5,0.3,1.1,1.3,0.9c7.5-2.4,13-9.4,13-17.5C38,8.3,29.5,0,19,0z"/>
</svg>
