<svg width="0" height="0" class="hidden">
  <symbol version="1.1" id="home_icon" xmlns="http://www.w3.org/2000/svg" xmlns:xlink="http://www.w3.org/1999/xlink" x="0px" y="0px" enable-background="new 0 0 275 273" xml:space="preserve" viewBox="0 0 275 273">
    <path  d="M155,183.6c-12.5,0-24.6,0-37,0c0,1,0,1.9,0,2.8c0,19.7,0,39.5,0,59.2c0,6.2-2.7,9-9,9c-20,0-40,0-60,0
	c-6.4,0-9-2.7-9-9.2c0-33.2,0-66.5,0-99.7c0-1,0-2,0-3.3c-1-0.1-1.9-0.1-2.7-0.1c-4.8,0-9.7,0-14.5,0c-6.7-0.1-11.3-3-13.4-8.5
	c-2.1-5.4-0.7-10.6,4.2-15.1C51.4,84.2,89.1,49.8,126.9,15.5c6.2-5.7,13.1-5.6,19.4,0.1c7.7,6.9,15.3,13.9,22.9,20.9
	c0.6,0.5,1.2,1.1,2.3,2c0-1.6,0-2.7,0-3.8c0.1-4.6,3.1-7.7,7.7-7.7c17.2-0.1,34.3-0.1,51.5,0c5,0,7.9,3.1,7.9,8.3
	c0,19.6,0.1,39.2-0.1,58.7c0,4.1,0.9,6.9,4.2,9.6c6.1,5,11.9,10.5,17.6,15.9c7.5,7.2,4.6,19.4-5.2,22.2c-1.8,0.5-3.8,0.6-5.7,0.6
	c-5.3,0.1-10.7,0-16.3,0c0,1.1,0,2.1,0,3c0,33,0,66,0,99c0,0.7,0,1.5,0,2.2c-0.1,4.9-3,8-7.9,8c-20.7,0-41.3,0-62,0
	c-5.2,0-8.1-3-8.1-8.4c0-19.8,0-39.7,0-59.5C155,185.7,155,184.7,155,183.6z M218,239.4c0-1.3,0-2.2,0-3.2c0-33.4,0-66.8,0-100.2
	c0-5.9,2.8-8.8,8.7-8.8c5.5-0.1,11,0,16.5,0c0.8,0,1.6-0.1,2.4-0.1c0.2-0.3,0.3-0.5,0.5-0.8c-0.5-0.3-1.1-0.4-1.5-0.8
	c-5.6-5.1-11.1-10.3-16.9-15.3c-2.9-2.5-4.3-5.4-4.2-9.3c0.1-18.7,0.1-37.3,0.1-56c0-1,0-1.9,0-2.8c-12.5,0-24.7,0-37,0
	c0,4.5,0.1,8.8,0,13.1c-0.1,4.2-2.7,7.3-6.4,7.8c-2.9,0.4-5.1-0.8-7.2-2.7c-11.2-10.2-22.4-20.4-33.6-30.6c-0.9-0.8-1.8-1.6-2.8-2.5
	C99.9,60.4,63.6,93.5,26.7,127.1c6.6,0,12.5,0.2,18.3,0c6.7-0.3,10.2,2.9,10.2,10c-0.2,33.1-0.1,66.2-0.1,99.2c0,1,0,2,0,3
	c16.1,0,32,0,47.9,0c0-1.2,0-2.2,0-3.2c0-19.6,0-39.2,0-58.7c0-6.2,2.7-9,9-9c16.3,0,32.7,0,49,0c6.4,0,9.1,2.7,9.1,9.1
	c0,19.7,0,39.3,0,59c0,1,0,1.9,0,2.9C186.2,239.4,201.9,239.4,218,239.4z"></path>
    <g></g>
    <g></g>
    <g></g>
    <g></g>
    <g></g>
    <g></g>
    <g></g>
    <g></g>
    <g></g>
    <g></g>
    <g></g>
    <g></g>
    <g></g>
    <g></g>
    <g></g>
  </symbol>
</svg>