<svg width="0" height="0" class="hidden">
  <symbol version="1.1" id="home_icon" xmlns="http://www.w3.org/2000/svg" xmlns:xlink="http://www.w3.org/1999/xlink" x="0px" y="0px" enable-background="new 0 0 275 273" xml:space="preserve" viewBox="0 0 275 273">
    <g>
      <g>
        <path d="M156.5,189.8c-13,0-25.5,0-38.4,0c0,1.1,0,2,0,3c0,21,0,42.2,0,63.3c0,6.6-2.8,9.6-9.3,9.6
			c-20.8,0-41.5,0-62.3,0c-6.6,0-9.3-2.9-9.3-9.8c0-35.5,0-71.1,0-106.5c0-1.1,0-2.1,0-3.5c-1-0.1-2-0.1-2.8-0.1c-5,0-10.1,0-15,0
			c-7-0.1-11.7-3.2-13.9-9.1c-2.2-5.8-0.7-11.3,4.4-16.1C49,83.6,88.2,46.9,127.4,10.2c6.4-6.1,13.6-6,20.1,0.1
			c8,7.4,15.9,14.9,23.8,22.3c0.6,0.5,1.2,1.2,2.4,2.1c0-1.7,0-2.9,0-4.1c0.1-4.9,3.2-8.2,8-8.2c17.8-0.1,35.6-0.1,53.4,0
			c5.2,0,8.2,3.3,8.2,8.9c0,20.9,0.1,41.9-0.1,62.7c0,4.4,0.9,7.4,4.4,10.3c6.3,5.3,12.3,11.2,18.3,17c7.8,7.7,4.8,20.7-5.4,23.7
			c-1.9,0.5-3.9,0.6-5.9,0.6c-5.5,0.1-11.1,0-16.9,0c0,1.2,0,2.2,0,3.2c0,35.3,0,70.5,0,105.8c0,0.7,0,1.6,0,2.4
			c-0.1,5.2-3.1,8.5-8.2,8.5c-21.5,0-42.9,0-64.3,0c-5.4,0-8.4-3.2-8.4-9c0-21.2,0-42.4,0-63.6C156.5,192.1,156.5,191,156.5,189.8z
			 M221.9,249.5c0-1.4,0-2.4,0-3.4c0-35.7,0-71.4,0-107.1c0-6.3,2.9-9.4,9-9.4c5.7-0.1,11.4,0,17.1,0c0.8,0,1.7-0.1,2.5-0.1
			c0.2-0.3,0.3-0.5,0.5-0.9c-0.5-0.3-1.1-0.4-1.6-0.9c-5.8-5.4-11.5-11-17.5-16.3c-3-2.7-4.5-5.8-4.4-9.9c0.1-20,0.1-39.9,0.1-59.8
			c0-1.1,0-2,0-3c-13,0-25.6,0-38.4,0c0,4.8,0.1,9.4,0,14c-0.1,4.5-2.8,7.8-6.6,8.3c-3,0.4-5.3-0.9-7.5-2.9
			c-11.6-10.9-23.2-21.8-34.9-32.7c-0.9-0.9-1.9-1.7-2.9-2.7C99.4,58.2,61.7,93.6,23.4,129.5c6.8,0,13,0.2,19,0
			c7-0.3,10.6,3.1,10.6,10.7c-0.2,35.4-0.1,70.7-0.1,106c0,1.1,0,2.1,0,3.2c16.7,0,33.2,0,49.7,0c0-1.3,0-2.4,0-3.4
			c0-20.9,0-41.9,0-62.7c0-6.6,2.8-9.6,9.3-9.6c16.9,0,33.9,0,50.9,0c6.6,0,9.4,2.9,9.4,9.7c0,21,0,42,0,63c0,1.1,0,2,0,3.1
			C188.9,249.5,205.2,249.5,221.9,249.5z"></path>
        <path d="M108.8,266.8H46.5c-7.2,0-10.4-3.4-10.4-10.9V146.8c-0.6,0-1.2,0-1.8,0h-15c-7.4-0.1-12.5-3.5-14.9-9.8
			c-2.4-6.2-0.8-12.2,4.6-17.3C51,80.3,88.8,44.8,126.7,9.4c6.7-6.4,14.6-6.3,21.5,0.1c8,7.3,15.9,14.9,23.7,22.2l0.1,0.1
			c0.2,0.2,0.4,0.4,0.6,0.6v-1.7c0.1-5.6,3.7-9.3,9-9.3c17.7-0.1,35.7-0.1,53.5,0c5.7,0,9.2,3.8,9.2,9.9c0,5.2,0,10.5,0,15.7
			c0,15.4,0,31.4-0.1,47c0,4.5,1,6.9,4,9.4c6.3,5.3,12.4,11.2,18.2,16.9l0.1,0.1c4,3.9,5.6,9.5,4.3,14.8c-1.3,5.2-5,9.2-10.1,10.7
			c-2.1,0.6-4.4,0.7-6.2,0.7c-3.6,0.1-7.3,0-11.1,0c-1.6,0-3.2,0-4.8,0V257c-0.1,5.9-3.7,9.6-9.2,9.6h-64.3c-6,0-9.4-3.7-9.4-10
			v-63.5c-0.1-0.7-0.1-1.4-0.1-2.2h-36.3v65.2C119.2,263.4,115.9,266.8,108.8,266.8z M34.4,144.6c0.9,0,1.8,0,2.9,0.1l0.9,0.1v111
			c0,6.4,2.3,8.8,8.3,8.8h62.3c5.9,0,8.3-2.5,8.3-8.5v-67.3h40.5v1.1c0,1.2,0,2.2,0.1,3.1l0,0.1v63.6c0,5.2,2.5,7.9,7.4,7.9h64.3
			c4.5,0,7.1-2.7,7.2-7.5V144.6h1c2,0,3.9,0,5.8,0c3.8,0,7.5,0,11.1,0c1.7,0,3.8-0.1,5.7-0.6c4.3-1.3,7.6-4.7,8.7-9.2
			c1.1-4.6-0.3-9.4-3.7-12.8L265,122c-5.8-5.7-11.8-11.5-18.1-16.8c-3.9-3.3-4.7-6.8-4.7-11.1c0.2-15.6,0.1-31.6,0.1-47
			c0-5.2,0-10.5,0-15.7c0-5-2.5-7.8-7.2-7.8c-17.7-0.1-35.7-0.1-53.4,0c-4.1,0-6.9,2.8-7,7.2v6.3l-1.7-1.4c-0.7-0.6-1.2-1.1-1.6-1.5
			c-0.3-0.3-0.5-0.5-0.7-0.7l-0.1-0.1c-7.7-7.3-15.7-14.9-23.6-22.2c-6.2-5.8-12.7-5.8-18.7-0.1C90.2,46.4,52.4,81.9,10.5,121.3
			c-4.8,4.5-6.1,9.5-4.1,15c2,5.5,6.4,8.3,13,8.4H34.4z M223,250.5h-51.8v-67.2c0-6.2-2.4-8.7-8.4-8.7h-50.9c-5.9,0-8.3,2.5-8.3,8.5
			v67.2H51.8v-4.3c0-8.8,0-17.6,0-26.4c0-26.1,0-53,0.1-79.6c0-3.4-0.8-6-2.4-7.5c-1.5-1.5-3.9-2.2-7.1-2.1c-4,0.1-8,0.1-12.2,0.1
			c-2.2,0-4.5,0-6.8,0h-2.7l19.1-17.9c31.7-29.7,64.5-60.5,96.9-90.7l0.7-0.6l0.7,0.6c1,1,2,1.8,2.9,2.7l34.9,32.7
			c2.3,2.2,4.3,2.9,6.6,2.6c3.3-0.5,5.7-3.4,5.7-7.3c0.1-3,0-6,0-9.2c0-1.6,0-3.2,0-4.8v-1.1h40.5v4.1c0,19.6,0,39.9-0.1,59.8
			c-0.1,3.8,1.1,6.6,4,9.1c4.3,3.8,8.5,7.8,12.6,11.7c1.7,1.6,3.3,3.1,5,4.7c0.1,0.1,0.4,0.2,0.6,0.4c0.3,0.1,0.5,0.2,0.8,0.4
			l0.9,0.6l-0.6,0.9c-0.1,0.1-0.2,0.3-0.2,0.4c-0.1,0.1-0.2,0.3-0.3,0.5l-0.3,0.5h-0.6c-0.4,0-0.8,0-1.2,0.1c-0.4,0-0.9,0.1-1.3,0.1
			c-1.9,0-3.8,0-5.7,0c-3.7,0-7.6,0-11.4,0c-5.5,0-8,2.6-8,8.3V250.5z M173.3,248.4h47.6V139c0-6.9,3.4-10.5,10.1-10.5
			c3.8-0.1,7.7,0,11.4,0c1.9,0,3.8,0,5.7,0c0.2,0,0.5,0,0.7,0c-1.6-1.5-3.3-3.1-4.9-4.6c-4.1-3.8-8.2-7.8-12.5-11.6
			c-3.3-3-4.8-6.4-4.7-10.8c0.1-20,0.1-40.2,0.1-59.8v-1.9h-36.3c0,1.3,0,2.5,0,3.7c0,3.2,0,6.2,0,9.2c-0.1,5-3.1,8.8-7.5,9.4
			c-3.8,0.5-6.4-1.4-8.3-3.2l-34.9-32.7c-0.7-0.7-1.4-1.3-2.2-2c-32.2,30-64.7,60.5-96.2,90l-15.2,14.2c1.4,0,2.8,0,4.1,0
			c4.2,0,8.2,0.1,12.1,0c3.8-0.2,6.7,0.7,8.6,2.7c2,2,3,5,3,9.1c-0.2,26.5-0.1,53.5-0.1,79.5c0,8.8,0,17.6,0,26.4v2.1h47.6v-65.1
			c0-7.3,3.3-10.7,10.4-10.7h50.9c7.2,0,10.5,3.3,10.5,10.8V248.4z"></path>
      </g>
      <g>
        <path d="M108.8,266.2H46.5c-6.9,0-9.9-3.1-9.9-10.4V146.3c-0.8-0.1-1.6-0.1-2.3-0.1h-15
			c-7.2-0.1-12.1-3.4-14.4-9.4c-2.3-6-0.7-11.8,4.5-16.7C51.4,80.7,89.2,45.2,127,9.8c6.6-6.3,14-6.2,20.8,0.1
			c8,7.3,15.9,14.9,23.7,22.2l0.1,0.1c0.2,0.2,0.5,0.4,0.8,0.7c0.2,0.2,0.5,0.4,0.7,0.7v-2.9c0.1-5.2,3.5-8.8,8.5-8.8
			c17.7-0.1,35.7-0.1,53.4,0c5.5,0,8.7,3.5,8.7,9.4c0,5.2,0,10.5,0,15.7c0,15.4,0,31.4-0.1,47c0,3.9,0.7,6.9,4.2,9.8
			c6.3,5.3,12.3,11.2,18.2,16.9l0.1,0.1c3.8,3.8,5.4,9.1,4.1,14.3c-1.2,5-4.9,8.9-9.8,10.3c-2.1,0.6-4.3,0.7-6.1,0.7
			c-3.6,0.1-7.3,0-11.1,0c-1.7,0-3.5,0-5.3,0V257c-0.1,5.6-3.5,9.1-8.7,9.1h-64.3c-5.7,0-8.9-3.5-8.9-9.5V193
			c-0.1-0.8-0.1-1.7-0.1-2.7h-37.4v65.7C118.7,263.1,115.6,266.2,108.8,266.2z M34.4,145.2c0.8,0,1.8,0,2.9,0.1l0.5,0v110.5
			c0,6.7,2.5,9.3,8.8,9.3h62.3c6.2,0,8.8-2.7,8.8-9.1v-66.8h39.4v0.5c0,1.1,0,2.2,0.1,3.1l0,63.6c0,5.4,2.8,8.4,7.9,8.4h64.3
			c4.7,0,7.6-3,7.7-8V145.2h0.5c2,0,3.9,0,5.8,0c3.8,0,7.5,0,11.1,0c1.7,0,3.9-0.1,5.8-0.6c4.5-1.3,7.9-4.9,9-9.5
			c1.2-4.8-0.3-9.7-3.9-13.3l-0.1-0.1c-5.8-5.7-11.8-11.5-18.1-16.8c-3.8-3.2-4.5-6.6-4.5-10.7c0.2-15.6,0.1-31.6,0.1-47
			c0-5.2,0-10.5,0-15.7c0-5.3-2.8-8.3-7.7-8.3c-17.7-0.1-35.7-0.1-53.4,0c-4.4,0-7.4,3-7.5,7.7v5.2l-0.8-0.7
			c-0.7-0.6-1.2-1.1-1.6-1.4c-0.3-0.3-0.5-0.5-0.8-0.7l-0.1-0.1c-7.7-7.3-15.7-14.9-23.7-22.2c-6.4-5.9-13.3-6-19.4-0.1
			C89.9,46,52.1,81.5,10.2,120.9c-4.9,4.6-6.3,10-4.2,15.5c2.1,5.7,6.6,8.6,13.4,8.7H34.4z M222.4,250h-50.7v-66.7
			c0-6.5-2.6-9.2-8.9-9.2h-50.9c-6.2,0-8.8,2.7-8.8,9.1v66.7H52.4v-3.7c0-8.8,0-17.6,0-26.4c0-26.1,0-53,0.1-79.5
			c0-3.6-0.9-6.3-2.5-7.9c-1.6-1.6-4.2-2.4-7.5-2.2c-4,0.1-8,0.1-12.2,0c-2.2,0-4.5,0-6.8,0h-1.3l18.1-17
			c31.7-29.7,64.5-60.5,96.9-90.7l0.3-0.3l0.3,0.3c1,1,2,1.8,2.9,2.7l34.9,32.7c2.4,2.3,4.6,3.1,7.1,2.8c3.6-0.5,6.1-3.6,6.2-7.8
			c0.1-3,0-6,0-9.2c0-1.6,0-3.2,0-4.8v-0.5h39.4v3.5c0,19.6,0,39.9-0.1,59.8c-0.1,3.9,1.2,6.9,4.2,9.5c4.3,3.8,8.5,7.8,12.6,11.7
			c1.7,1.6,3.3,3.1,5,4.7c0.2,0.2,0.5,0.3,0.8,0.4c0.2,0.1,0.5,0.2,0.7,0.3l0.5,0.3l-0.3,0.5c-0.1,0.2-0.2,0.3-0.2,0.4
			c-0.1,0.1-0.2,0.3-0.3,0.5l-0.2,0.2h-0.3c-0.4,0-0.8,0-1.2,0.1c-0.4,0-0.9,0.1-1.3,0.1c-1.9,0-3.8,0-5.7,0c-3.7,0-7.6,0-11.4,0
			c-5.8,0-8.5,2.8-8.5,8.9V250z M172.7,248.9h48.7V139c0-6.6,3.2-9.9,9.5-9.9c3.8-0.1,7.7,0,11.4,0c1.9,0,3.8,0,5.7,0
			c0.4,0,0.8,0,1.2-0.1c0.3,0,0.7,0,1-0.1c0,0,0-0.1,0.1-0.1c0,0-0.1,0-0.1,0c-0.4-0.2-0.8-0.3-1.1-0.7c-1.6-1.5-3.3-3.1-5-4.7
			c-4.1-3.8-8.3-7.8-12.5-11.6c-3.2-2.8-4.6-6.1-4.5-10.4c0.1-20,0.1-40.2,0.1-59.8v-2.5h-37.4c0,1.4,0,2.9,0,4.3c0,3.2,0,6.2,0,9.2
			c-0.1,4.7-3,8.3-7.1,8.9c-3.6,0.5-6.1-1.3-7.9-3L140,25.8c-0.8-0.8-1.7-1.5-2.6-2.3c-32.3,30.1-65,60.7-96.6,90.4l-16.1,15.1
			c1.9,0,3.7,0,5.5,0c4.2,0,8.2,0.1,12.2,0c3.6-0.2,6.4,0.7,8.3,2.5c1.9,1.9,2.9,4.8,2.9,8.7c-0.2,26.5-0.1,53.5-0.1,79.5
			c0,8.8,0,17.6,0,26.4v2.7h48.7v-65.6c0-7,3-10.2,9.9-10.2h50.9c6.9,0,10,3.2,10,10.3V248.9z"></path>
        <path d="M108.8,267.3H46.5c-7.5,0-10.9-3.5-10.9-11.4V147.3c-0.4,0-0.9,0-1.2,0h-15c-7.6-0.1-12.9-3.6-15.4-10.1
			c-2.4-6.4-0.8-12.6,4.8-17.9C50.7,79.9,88.5,44.4,126.3,9c7-6.6,15.1-6.6,22.2,0.1c7.9,7.3,15.9,14.8,23.6,22.1v-0.5
			c0.1-5.9,4-9.8,9.5-9.8c17.7-0.1,35.7-0.1,53.5,0c6,0,9.7,4,9.7,10.5c0,5.2,0,10.5,0,15.7c0,15.5,0,31.4-0.1,47
			c0,3.7,0.6,6.3,3.8,9c6.3,5.3,12.4,11.2,18.2,16.9l0.1,0.1c4.1,4.1,5.8,9.8,4.4,15.3c-1.3,5.4-5.2,9.5-10.5,11.1
			c-2.2,0.6-4.5,0.7-6.3,0.7c-3.7,0.1-7.5,0-11.1,0l-0.5,0c-1.2,0-2.5,0-3.8,0V257c-0.1,6.2-4,10.2-9.8,10.2h-64.3
			c-6.2,0-10-4-10-10.6v-63.5c-0.1-0.5-0.1-1.1-0.1-1.7h-35.3v64.6C119.7,263.7,116.2,267.3,108.8,267.3z M34.4,144.1
			c0.9,0,1.8,0,3,0.1l1.4,0.1v111.5c0,6.1,2,8.2,7.8,8.2h62.3c5.6,0,7.8-2.2,7.8-8v-67.8h41.5v1.6c0,1.1,0,2.2,0.1,3l0,0.1l0,63.6
			c0,4.8,2.4,7.4,6.8,7.4h64.3c4.1,0,6.6-2.5,6.6-7V144.1h1.6c1.8,0,3.6,0,5.4,0l0.4,0c3.6,0,7.4,0,11.1,0c1.6,0,3.7-0.1,5.5-0.6
			c4.2-1.2,7.3-4.5,8.3-8.8c1.1-4.4-0.3-9-3.6-12.2l-0.1-0.1c-5.8-5.7-11.8-11.5-18-16.8c-4.3-3.6-4.9-7.7-4.9-11.5
			c0.2-15.6,0.1-31.5,0.1-46.9c0-5.3,0-10.6,0-15.8c0-4.7-2.4-7.3-6.6-7.3c-17.7-0.1-35.7-0.1-53.4,0c-3.9,0-6.4,2.6-6.4,6.7v7.4
			l-2.5-2.1c-0.7-0.6-1.2-1.1-1.7-1.5c-0.3-0.3-0.5-0.5-0.7-0.7l-0.3-0.3c-7.7-7.3-15.6-14.8-23.5-22.1c-6-5.6-12.2-5.6-18-0.1
			C90.6,46.7,52.8,82.2,10.9,121.7c-4.5,4.3-5.9,9.2-4,14.4c1.9,5.3,6.1,8,12.5,8.1H34.4z M223.5,251.1h-52.8v-67.7
			c0-5.9-2.1-8.1-7.9-8.1h-50.9c-5.6,0-7.8,2.2-7.8,8v67.7H51.3v-4.8c0-8.8,0-17.6,0-26.4l0-0.4c0-25.9,0-52.8,0.1-79.2
			c0-3.3-0.7-5.7-2.2-7.2c-1.4-1.4-3.7-2.1-6.7-1.9c-4,0.1-8,0.1-12.3,0.1c-2.3,0-4.5,0-6.8,0h-4l20.1-18.8
			c31.8-29.8,64.5-60.5,96.9-90.7l1-1l1,1c1,1,2,1.8,2.9,2.7l34.9,32.7c2.2,2.1,4,2.8,6.2,2.5c3.1-0.4,5.2-3.2,5.3-6.8
			c0.1-3,0-6,0-9.1l0-0.4c0-1.5,0-3,0-4.5V37h41.5v4.6c0,19.6,0,39.9-0.1,59.8c-0.1,3.7,1.1,6.3,3.8,8.7c4.3,3.8,8.5,7.8,12.5,11.6
			c1.7,1.6,3.4,3.2,5,4.8c0.1,0.1,0.3,0.2,0.5,0.3c0.3,0.1,0.6,0.2,0.8,0.4l1.4,0.9l-0.9,1.4c-0.1,0.1-0.2,0.2-0.2,0.4
			c-0.1,0.2-0.2,0.3-0.3,0.5l-0.5,0.7h-0.8c-0.4,0-0.7,0-1.1,0c-0.5,0-0.9,0.1-1.4,0.1c-1.9,0-3.8,0-5.7,0c-3.8,0-7.6,0-11.4,0
			c-5.3,0-7.5,2.3-7.5,7.8V251.1z M173.8,247.8h46.6V139c0-7.2,3.7-11,10.6-11c3.7-0.1,7.6,0,11.3,0l0.2,0c1.7,0,3.4,0,5.1,0
			c-1.3-1.2-2.6-2.5-4-3.7c-4-3.8-8.2-7.8-12.5-11.6c-3.5-3.1-5-6.6-4.9-11.2c0.1-19.9,0.1-40.2,0.1-59.8v-1.4h-35.3
			c0,1.1,0,2.1,0,3.2c0,3.2,0,6.2,0,9.3c-0.1,5.3-3.3,9.2-8,9.9c-4,0.6-6.8-1.5-8.7-3.3l-34.9-32.7c-0.6-0.6-1.2-1.1-1.9-1.7
			c-32.1,29.9-64.5,60.3-95.9,89.7l-14.2,13.3c0.9,0,1.9,0,2.8,0c4.2,0,8.2,0.1,12.2,0c3.9-0.2,6.9,0.8,9,2.8
			c2.1,2.1,3.2,5.3,3.2,9.5c-0.2,26.4-0.1,53.2-0.1,79.2l0,0.4c0,8.8,0,17.6,0,26.4v1.6H101v-64.5c0-7.7,3.5-11.2,10.9-11.2h50.9
			c7.5,0,11,3.6,11,11.3V247.8z"></path>
      </g>
    </g>
  </symbol>
</svg>