<?xml version="1.0" encoding="utf-8"?>
<!-- Generator: Adobe Illustrator 26.5.0, SVG Export Plug-In . SVG Version: 6.00 Build 0)  -->
<svg version="1.1" id="Layer_1" xmlns="http://www.w3.org/2000/svg" xmlns:xlink="http://www.w3.org/1999/xlink" x="0px" y="0px"
	 viewBox="0 0 166.7 166.6" style="enable-background:new 0 0 166.7 166.6;" xml:space="preserve">
<style type="text/css">
	.st0{fill:#E45129;}
	.st1{fill:#E9662A;}
	.st2{fill:#E8E8E6;}
	.st3{fill:#FDFDFC;}
	.st4{fill:#FDFDFD;}
</style>
<path class="st0" d="M83.6,1.9c44.8-0.1,81.9,36.6,81.4,82.3c-0.5,43.8-36,80.4-81.5,80.5c-45.4,0-82.3-37-81.5-83
	C2.7,38.1,38.4,1.9,83.6,1.9z M83.6,13.9c-38.2-0.4-69.4,31.2-69.7,68.7c-0.3,37.9,30,70.2,69.5,70.2c39.6,0,68.8-31.7,69.7-67.8
	C154,45.2,121.3,13.4,83.6,13.9z"/>
<path class="st0" d="M42,51.1c27.6,0,55.1,0,82.8,0c-2.5,28.1-5,56.1-7.5,84.2c-10.9,3.1-21.9,6.1-32.8,9.2c-0.7,0.2-1.5,0.2-2.2,0
	c-10.9-3-21.7-6.1-32.7-9.1C47,107.2,44.5,79.2,42,51.1z M83.5,115.9c-3.9-0.6-7.6-1.9-11.1-2.9c-1.4-2.8-0.5-5.7-1.3-8.3
	c-3.6,0-7,0-10.4,0c0.5,5.5,0.9,10.7,1.4,16.2c7.1,2,14.3,4.1,21.4,6.1c0,3.3,0,6.6,0,10.4c9.4-2.6,18.5-4.8,27.3-7.7
	c2.1-24.2,4.2-47.9,6.3-71.5c-11.6,0-22.5,0-33.6,0c0,3.5,0,6.8,0,10.2c-8.6,0-17.2,0-26.1,0c1,10.6,1.9,20.8,2.8,31.2
	c7.8,0,15.5,0,23.3,0C83.5,105,83.5,110.4,83.5,115.9z"/>
<path class="st0" d="M96.8,28.4c1.8,0,3.6,0,5.5,0c0,5,0,10,0,15.2c-1.6,0.4-3.3,0.1-5.3,0.2c0-2.3,0-4.5,0-7.4
	c-1.4,2.1-2.4,3.5-3.6,5.2c-1.1-1.6-2.1-3.1-3.4-5c0,2.6,0,4.7,0,6.9c-1.9,0.6-3.6,0.2-5.4,0.3c0-5.2,0-10.3,0-15.4
	c1.9,0,3.7,0,5.6,0c1,1.6,2.1,3.3,3.2,5.1C94.6,31.7,95.7,30.1,96.8,28.4z"/>
<path class="st0" d="M64.4,43.7c-1.7,0-3.2,0-4.9,0c-0.8-1.6,0-3.3-0.5-5c-1.3-0.4-2.7-0.1-4.2-0.2c-0.6,1.6,0,3.3-0.4,5
	c-1.6,0.5-3.3,0.2-5.2,0.2c0-5.1,0-10.1,0-15.2c1.7,0,3.4,0,5.2,0c0,1.5,0,3.1,0,4.7c1.6,0,3.1,0,4.7,0c0-1.6,0-3.1,0-4.8
	c1.8,0,3.4,0,5.2,0C64.4,33.5,64.4,38.6,64.4,43.7z"/>
<path class="st0" d="M105.2,28.5c1.8,0,3.5,0,5.3,0c0,3.4,0,6.7,0,10.2c2.5,0,4.8,0,7.2,0c0,1.7,0,3.3,0,5c-4.1,0-8.3,0-12.5,0
	C105.2,38.6,105.2,33.6,105.2,28.5z"/>
<path class="st0" d="M72.1,33.4c-1.7,0-3.1,0-4.6,0c0-1.7,0-3.2,0-4.9c4.8,0,9.5,0,14.3,0c0,1.6,0,3.1,0,4.9c-1.5,0-2.9,0-4.7,0
	c0,3.5,0,6.9,0,10.4c-1.8,0-3.4,0-5.1,0C72.1,40.3,72.1,37,72.1,33.4z"/>
<path class="st1" d="M83.5,68.3c0-3.3,0-6.6,0-10.2c11.1,0,22.1,0,33.6,0c-2.1,23.7-4.2,47.3-6.3,71.5c-8.8,2.9-17.9,5.1-27.3,7.7
	c0-3.7,0-7,0-10.4c0-0.1,0-0.2,0-0.3c7-1.9,13.9-3.8,21.1-5.8c0.9-10.6,1.8-21.1,2.7-31.5c0-0.3-0.1-0.4-0.4-0.3
	c-7.9,0-15.7,0-23.6,0c0-0.1,0-0.2,0-0.2c0-3.3,0-6.6,0-10c0-0.1,0-0.2,0-0.3c8.2,0.3,16.4,0.3,24.6,0c0.2,0.2,0.3,0,0.3-0.2
	c0.3-3.3,0.8-6.5,0.8-9.9c-8.6,0-17.1,0-25.6,0L83.5,68.3z"/>
<path class="st2" d="M83.5,99.5c-7.7,0-15.4,0-23.3,0c-1-10.5-1.9-20.6-2.8-31.2c8.9,0,17.5,0,26.1,0c0,0,0,0.2,0,0.2
	c0,3.4,0,6.7,0,10.1c0,0.1,0,0.2,0,0.3c-4.8,0-9.6,0-14.6,0c0.3,3.5,0.6,6.7,0.9,10c4.7,0,9.2,0,13.7,0c0,0.1,0,0.2,0,0.2
	c0,3.4,0,6.8,0,10.2L83.5,99.5z"/>
<path class="st2" d="M83.5,126.7c0,0.1,0,0.2,0,0.3c-7.1-2-14.3-4.1-21.4-6.1c-0.5-5.5-0.9-10.7-1.4-16.2c3.4,0,6.8,0,10.4,0
	c0.8,2.6-0.1,5.5,1.3,8.3c3.5,0.9,7.2,2.3,11.1,2.9l0,0.2C83.5,119.6,83.5,123.2,83.5,126.7z"/>
<path class="st1" d="M83.5,115.9c0-5.4,0-10.9,0-16.3c0,0,0-0.2,0-0.2c4.1,0,8.2,0,12.6,0c-0.4,4.7-0.8,9.1-1.2,13.6
	c-3.8,1.1-7.6,2.1-11.4,3.1L83.5,115.9z"/>
<path class="st3" d="M83.5,116c3.8-1,7.6-2.1,11.4-3.1c0.4-4.5,0.8-8.8,1.2-13.6c-4.4,0-8.5,0-12.6,0c0-3.4,0-6.8,0-10.2
	c7.9,0,15.7,0,23.6,0c0.1,0.1,0.2,0.2,0.4,0.3c-0.9,10.4-1.8,20.9-2.7,31.5c-7.2,2-14.1,3.9-21.1,5.8
	C83.5,123.2,83.5,119.6,83.5,116z"/>
<path class="st4" d="M83.5,78.6c0-3.4,0-6.7,0-10.1c8.5,0,17.1,0,25.6,0c0.1,3.4-0.4,6.7-0.8,9.9c-0.1,0-0.2,0.1-0.3,0.2
	C99.8,78.9,91.7,78.9,83.5,78.6z"/>
<path class="st0" d="M83.5,88.9c-4.5,0-8.9,0-13.7,0c-0.3-3.3-0.6-6.5-0.9-10c5,0,9.8,0,14.6,0C83.5,82.3,83.5,85.6,83.5,88.9z"/>
<path class="st2" d="M107.4,89.4c-0.1-0.1-0.2-0.2-0.4-0.3C107.3,89,107.4,89.2,107.4,89.4z"/>
<path class="st2" d="M108,78.6c0.1-0.1,0.2-0.1,0.3-0.2C108.3,78.6,108.3,78.8,108,78.6z"/>
</svg>
