<?xml version="1.0" encoding="utf-8"?>
<!-- Generator: Adobe Illustrator 26.5.0, SVG Export Plug-In . SVG Version: 6.00 Build 0)  -->
<svg version="1.1" id="Layer_1" xmlns="http://www.w3.org/2000/svg" xmlns:xlink="http://www.w3.org/1999/xlink" x="0px" y="0px"
	 viewBox="0 0 166.7 166.6" style="enable-background:new 0 0 166.7 166.6;" xml:space="preserve">
<style type="text/css">
	.st0{fill:#64A830;}
	.st1{fill:#8CBC28;}
	.st2{fill:#E8E8E6;}
	.st3{fill:#FDFDFC;}
</style>
<path class="st0" d="M83.5,2c44.7-0.2,82.3,36.3,81.6,82.7c-0.6,43.8-36.1,80.1-81.6,80.2C38,164.8,1,127.5,2.1,81.3
	C3.1,38.2,38.4,2,83.5,2z M14.1,83.2c-0.4,37.3,29.7,69.5,69.3,69.6c39.5,0.1,68.9-31.4,69.8-67.6c1.1-39.9-31.7-71.4-69.5-71.4
	C45.6,13.9,13.7,45.2,14.1,83.2z"/>
<path class="st0" d="M42.2,51.1c27.6,0,55,0,82.8,0c-2.5,28-5,56-7.5,84.2c-6.7,1.9-13.4,3.8-20.1,5.7c-1.7,0.5-3.4,0.8-5,1.4
	c-5.7,2.2-11.2,2.1-17.1,0.2c-8.4-2.8-17-4.8-25.5-7.2C47.2,107.3,44.7,79.3,42.2,51.1z M83.6,115.9c-3.9-0.4-7.5-1.9-11.1-2.7
	c-1.3-2.7-0.5-5.5-1.2-8.1c-3.5,0-6.8,0-10.2,0c-0.2,5.5,1,10.7,1.1,16c7.3,2,14.3,4,21.4,6c0,3.4,0,6.8,0,10.4
	c9.4-2.6,18.5-5.1,27.3-7.6c2.2-24.2,4.3-48,6.4-71.7c-11.7,0-22.6,0-33.7,0c0,3.5,0,6.9,0,10.2c-8.6,0-17.3,0-26.2,0
	c0.9,3.7,0.3,7.2,1.5,10.7c8.3,0,16.5,0,24.7,0C83.6,91.3,83.6,103.6,83.6,115.9z"/>
<path class="st0" d="M90.4,38.4c-1.9-1.4-3.8-2.9-5.7-4.4c0-1.8,0-3.6,0-5.5c4.9,0,9.8,0,14.8,0c0,1.6,0,3.1,0,4.8
	c-2.1,0-4.1,0-6.9,0c2.7,2.1,4.8,3.8,6.9,5.5c0,1.7,0,3.2,0,4.9c-4.9,0-9.8,0-14.8,0c0-1.6,0-3.1,0-4.8c1.9,0,3.7,0,5.6,0
	C90.3,38.8,90.4,38.6,90.4,38.4z"/>
<path class="st0" d="M81.9,43.8c-4.7,0-9.4,0-14.2,0c0-1.7,0-3.5,0-5.4c2.7,0,5.3,0,8.2,0c0-3.3,0-6.5,0-9.9c2.1,0,4,0,5.9,0
	C81.9,33.7,81.9,38.7,81.9,43.8z"/>
<path class="st1" d="M83.6,68.4c0-3.3,0-6.6,0-10.2c11.1,0,22.1,0,33.7,0c-2.1,23.7-4.2,47.5-6.4,71.7c-8.8,2.5-17.9,5-27.3,7.6
	c0-3.7,0-7.1,0-10.4c0,0,0-0.2,0-0.2c7-1.9,14-3.8,21.2-5.7c1.6-17.6,3.1-35,4.7-52.6c-8.8,0-17.3,0-25.9,0L83.6,68.4z"/>
<path class="st1" d="M83.6,115.9c0-12.3,0-24.6,0-36.9l0-0.2c4.5,0,9,0,13.5,0l0.2,0.1l0.2-0.1c0.6,0.4,0.4,1,0.4,1.6
	c-0.5,5.4-0.9,10.7-1.4,16.1c-0.5,5.5-1,11-1.6,16.6c-3.8,1-7.3,2-10.9,3C83.9,116,83.7,116,83.6,115.9z"/>
<path class="st2" d="M83.6,115.9c0.2,0,0.3,0.1,0.5,0.1c-1.1,3.6-0.2,7.2-0.5,10.8c0,0,0,0.2,0,0.2c-7.1-2-14.1-3.9-21.4-6
	c-0.1-5.3-1.3-10.5-1.1-16c3.4,0,6.7,0,10.2,0c0.7,2.6-0.2,5.4,1.2,8.1C76.1,114.1,79.7,115.5,83.6,115.9z"/>
<path class="st2" d="M83.6,79c-8.2,0-16.4,0-24.7,0c-1.2-3.5-0.6-6.9-1.5-10.7c8.9,0,17.6,0,26.2,0c0,0,0,0.2,0,0.2
	c0,3.4,0,6.8,0,10.2L83.6,79z"/>
<path class="st3" d="M83.6,78.8c0-3.4,0-6.8,0-10.2c8.6,0,17.1,0,25.9,0c-1.6,17.6-3.1,35-4.7,52.6c-7.2,1.9-14.2,3.8-21.2,5.7
	c0.3-3.6-0.6-7.2,0.5-10.8c3.6-1,7.2-1.9,10.9-3c0.5-5.6,1.1-11.1,1.6-16.6c0.5-5.4,0.9-10.7,1.4-16.1c0.1-0.6,0.2-1.2-0.4-1.6
	c-0.1-0.2-0.3-0.2-0.5,0C92.6,78.8,88.1,78.8,83.6,78.8z"/>
<path class="st2" d="M97.1,78.8c0.2-0.2,0.3-0.2,0.5,0c0,0-0.2,0.1-0.2,0.1L97.1,78.8z"/>
</svg>
