<svg width="0" height="0" class="hidden">
  <symbol version="1.1" id="left_arrow" xmlns="http://www.w3.org/2000/svg" xmlns:xlink="http://www.w3.org/1999/xlink" x="0px" y="0px" enable-background="new 0 0 634.8 634.8" xml:space="preserve" viewBox="0 0 634.8 634.8">
    <path  d="M317,631C144.8,630.8,4.2,489.9,4.2,317.5C4.1,144.1,145.7,3.3,319.4,4c172.1,0.7,311.9,142,311.5,314.8
	C630.5,491.2,489.7,631.2,317,631z M599.6,320.5c3.6-153.1-122.9-282.5-279-285.4C167,32.3,38.5,158.3,35.4,314.6
	c-3.1,153.7,121.9,281.3,279.2,285.1C467.7,603.4,595.9,477.8,599.6,320.5z"></path>
    <path  d="M263.2,317.5c31.6,27.7,61.4,53.9,91.2,80.1c6.1,5.4,14.1,9.8,17.7,16.5c3.5,6.5,2.5,15.4,3.5,23.3
	c-8-0.2-18.2,2.5-23.7-1.3c-15.9-11.2-29.9-25.1-44.6-37.9c-24.5-21.4-48.9-43-73.5-64.3c-12.7-11-12.8-21.5-0.1-32.5
	c38.7-33.7,76.8-68,116.2-100.7c5.5-4.6,16.9-2.1,25.6-2.9c-2.1,9-1.3,21.1-6.9,26.3C334.9,255.5,299.7,285.4,263.2,317.5z"></path>
  </symbol>
</svg>