<svg width="0" height="0" class="hidden">
  <symbol version="1.1" id="light_icon" xmlns="http://www.w3.org/2000/svg" xmlns:xlink="http://www.w3.org/1999/xlink" x="0px" y="0px" enable-background="new 0 0 38 36" xml:space="preserve" viewBox="0 0 38 36">
    <g>
      <path d="M19,27.3c-3.4,0.8-5.2-0.3-6.2-3.8c-0.7-2.4-2.5-4.5-3.7-6.9C5.4,9.3,9.8,1.2,18,0.3c8.2-0.9,14.6,7.5,11.4,15.1
		c-0.7,1.8-1.9,3.4-2.7,5.2c-0.9,1.8-1.5,3.7-2.4,5.5c-0.3,0.6-1,1.2-1.6,1.2C21.5,27.5,20.2,27.3,19,27.3z"></path>
      <path d="M14.6,29.5c2.9,0,5.7,0,8.8,0c-0.2,1.5,0.8,3.4-0.9,4.3c-1.4,0.7-2.5,2.9-4.5,1.7C14.2,33.3,14,32.9,14.6,29.5z"></path>
    </g>
  </symbol>
</svg>