<svg width="0" height="0" class="hidden">
  <symbol id="linked_in_logo" xmlns="http://www.w3.org/2000/svg" viewBox="0 0 634.79 634.81">
    <path d="M317.42,634.81C142.39,634.81,0,492.42,0,317.4S142.39,0,317.4,0s317.39,142.38,317.39,317.38v.04c0,175.01-142.38,317.38-317.38,317.38h0Zm0-613.42c-163.24,0-296.04,132.8-296.04,296.02s132.8,296.02,296.02,296.02,296.01-132.78,296.01-296v-.04c0-163.22-132.78-296-296-296h0Z" fill="#8ab9f1"></path>
    <path id="b" d="M171.03,263.79h66.28v213.23h-66.28v-213.23h0Zm33.15-105.99c21.18,0,38.4,17.23,38.4,38.45s-17.22,38.39-38.4,38.39-38.41-17.19-38.41-38.39,17.17-38.45,38.41-38.45" fill="#8ab9f1"></path>
    <path id="c" d="M278.87,263.79h63.58v29.17h.91c8.84-16.78,30.46-34.44,62.7-34.44,67.11,0,79.51,44.15,79.51,101.54v116.95h-66.25v-103.69c0-24.73-.43-56.55-34.45-56.55s-39.74,26.97-39.74,54.78v105.46h-66.25v-213.23h-.01Z" fill="#8ab9f1"></path>
  </symbol>
</svg>