<?xml version="1.0" encoding="utf-8"?>
<!-- Generator: Adobe Illustrator 26.5.0, SVG Export Plug-In . SVG Version: 6.00 Build 0)  -->
<svg version="1.1" id="a" xmlns="http://www.w3.org/2000/svg" xmlns:xlink="http://www.w3.org/1999/xlink" x="0px" y="0px"
	 width="543px" height="495px" viewBox="0 0 543 495" enable-background="new 0 0 543 495" xml:space="preserve">
<path fill="#8AB9F1" d="M114,407.8c-13.1,0-22.5,0.3-32-0.1c-40.2-1.7-71.9-31.2-72.4-71.3C8.5,251,8.6,165.5,9.6,80
	C10.1,39,42,8.5,83.6,8.3c125.5-0.6,251.1-0.6,376.6,0.1c41.2,0.2,72.6,31.4,73.1,72.6c0.9,84.8,1,169.7,0,254.5
	c-0.5,41.9-32.6,71.9-75.5,72.4c-66.2,0.6-132.4-0.3-198.5,0.7c-10.5,0.2-22.4,4.6-31.1,10.8c-27.8,19.6-54,41.5-81.6,61.3
	c-6.3,4.5-16.9,7.9-23.5,5.7c-4.8-1.6-8.2-13.1-8.7-20.4C113.2,447.6,114,429.3,114,407.8z M144.9,441.8
	c25.7-19.6,46.3-37.1,68.9-51.8c11.2-7.3,25.7-13.1,38.9-13.4c65.5-1.3,131-0.4,196.5-0.7c36.8-0.1,52-15.5,52.1-52.1
	c0.2-76.7,0.1-153.3,0-230c-0.1-39.2-14.7-53.7-54.7-53.7c-74.4-0.1-148.7,0-223.1,0c-45,0-90.1-0.4-135.1,0.2
	C60.2,40.5,42.3,55.2,42.1,81c-0.9,84.8-0.8,169.6,0,254.4c0.2,23.6,16.8,38.3,40.8,40c13.6,1,27.3,0.4,40.9,0.6
	c14,0.2,21.6,6.5,21.2,21.2C144.7,410.1,144.9,423,144.9,441.8z"/>
</svg>
