<?xml version="1.0" encoding="utf-8"?>
<!-- Generator: Adobe Illustrator 27.5.0, SVG Export Plug-In . SVG Version: 6.00 Build 0)  -->
<svg version="1.1" id="Layer_1" xmlns="http://www.w3.org/2000/svg" xmlns:xlink="http://www.w3.org/1999/xlink" x="0px" y="0px"
	 width="800px" height="800px" viewBox="0 0 800 800" style="enable-background:new 0 0 800 800;" xml:space="preserve">
<style type="text/css">
	.st0{fill:#8C094B;}
</style>
<g>
	<path class="st0" d="M373.8,0.2c-1.7,0.2-7.2,0.7-12.1,1.1C248.1,11.6,141.6,72.9,74.2,167.1C36.7,219.5,12.7,278.9,3.6,341.8
		c-3.2,22-3.6,28.5-3.6,58.3s0.4,36.3,3.6,58.3c21.7,150.2,128.6,276.4,273.6,323.2c26,8.4,53.3,14.1,84.5,17.5
		c12.1,1.3,64.5,1.3,76.6,0c53.7-5.9,99.2-19.2,144.1-42.1c6.9-3.5,8.2-4.5,7.3-5.2c-0.6-0.5-30-39.8-65.1-87.3l-64-86.4
		l-80.2-118.6c-44.1-65.2-80.4-118.5-80.7-118.5c-0.3-0.1-0.6,52.6-0.8,117c-0.2,112.7-0.3,117.2-1.7,119.9c-2,3.8-3.6,5.4-6.9,7.1
		c-2.5,1.3-4.7,1.5-16.5,1.5h-13.5l-3.6-2.3c-2.3-1.5-4.1-3.4-5.2-5.7l-1.6-3.5l0.2-156.8l0.2-156.8l2.4-3c1.3-1.6,3.9-3.8,5.8-4.8
		c3.2-1.6,4.5-1.7,18-1.7c16,0,18.6,0.6,22.8,5.2c1.2,1.3,44.6,66.6,96.5,145.4s122.9,186.2,157.8,239l63.3,95.9l3.2-2.1
		c28.4-18.5,58.4-44.7,82.2-72.1c50.6-58.1,83.2-128.9,94.2-204.5c3.2-22,3.6-28.5,3.6-58.3s-0.4-36.3-3.6-58.3
		C774.7,191.6,667.8,65.4,522.8,18.7c-25.6-8.3-52.8-14-83.3-17.4C432,0.4,380.3-0.4,373.8,0.2L373.8,0.2z M537.6,242.1
		c3.8,1.9,6.8,5.5,7.9,9.2c0.6,2,0.8,45.5,0.6,143.5l-0.2,140.6l-24.8-38l-24.9-38V357.2c0-66.1,0.3-103.2,0.8-105
		c1.3-4.4,4-7.8,7.7-9.9c3.2-1.6,4.4-1.8,16.7-1.8C532.9,240.6,535,240.7,537.6,242.1z"/>
</g>
</svg>
