<?xml version="1.0" encoding="utf-8"?>
<!-- Generator: Adobe Illustrator 27.8.0, SVG Export Plug-In . SVG Version: 6.00 Build 0)  -->
<svg version="1.1" id="Layer_1" xmlns="http://www.w3.org/2000/svg" xmlns:xlink="http://www.w3.org/1999/xlink" x="0px" y="0px"
	 width="800px" height="800px" viewBox="0 0 800 800" style="enable-background:new 0 0 800 800;" xml:space="preserve">
<style type="text/css">
	.st0{fill:#FFFFFF;}
</style>
<g>
	<path class="st0" d="M374.2,6.9c-1.7,0.2-7.1,0.7-11.9,1.1C250.6,18.2,145.9,78.4,79.7,171c-36.9,51.5-60.5,109.9-69.4,171.7
		c-3.1,21.6-3.5,28-3.5,57.3s0.4,35.7,3.5,57.3c21.3,147.7,126.4,271.7,269,317.7c25.6,8.3,52.4,13.9,83.1,17.2
		c11.9,1.3,63.4,1.3,75.3,0c52.8-5.8,97.5-18.9,141.7-41.4c6.8-3.4,8.1-4.4,7.2-5.1c-0.6-0.5-29.5-39.1-64-85.8L459.5,575
		l-78.8-116.6c-43.4-64.1-79-116.5-79.3-116.5c-0.3-0.1-0.6,51.7-0.8,115c-0.2,110.8-0.3,115.2-1.7,117.9c-2,3.7-3.5,5.3-6.8,7
		c-2.5,1.3-4.6,1.5-16.2,1.5h-13.3l-3.5-2.3c-2.3-1.5-4-3.3-5.1-5.6l-1.6-3.4l0.2-154.1l0.2-154.1l2.4-2.9c1.3-1.6,3.8-3.7,5.7-4.7
		c3.1-1.6,4.4-1.7,17.7-1.7c15.7,0,18.3,0.6,22.4,5.1c1.2,1.3,43.8,65.5,94.9,142.9s120.8,183,155.1,234.9l62.2,94.3l3.1-2.1
		c27.9-18.2,57.4-43.9,80.8-70.9c49.7-57.1,81.8-126.7,92.6-201c3.1-21.6,3.5-28,3.5-57.3s-0.4-35.7-3.5-57.3
		C768.3,195.1,663.2,71,520.7,25.1C495.5,17,468.8,11.4,438.8,8C431.4,7.1,380.6,6.4,374.2,6.9L374.2,6.9z M535.2,244.7
		c3.7,1.9,6.7,5.4,7.8,9c0.6,2,0.8,44.7,0.6,141.1l-0.2,138.2L519,495.7l-24.5-37.4V357.9c0-65,0.3-101.5,0.8-103.2
		c1.3-4.3,3.9-7.7,7.6-9.7c3.1-1.6,4.3-1.8,16.4-1.8C530.6,243.3,532.7,243.4,535.2,244.7z"/>
</g>
</svg>
