<?xml version="1.0" encoding="utf-8"?>
<!-- Generator: Adobe Illustrator 26.5.0, SVG Export Plug-In . SVG Version: 6.00 Build 0)  -->
<svg version="1.1" id="Layer_1" xmlns="http://www.w3.org/2000/svg" xmlns:xlink="http://www.w3.org/1999/xlink" x="0px" y="0px"
	 viewBox="0 0 166.7 166.6" style="enable-background:new 0 0 166.7 166.6;" xml:space="preserve">
<style type="text/css">
	.st0{fill:#539E43;}
	.st1{fill:#333333;stroke:#FFFFFF;stroke-width:3;stroke-miterlimit:10;}
	.st2{fill:url(#a_00000036242252590496374670000010631304319830358924_);}
	.st3{filter:url(#Adobe_OpacityMaskFilter);}
	.st4{fill:#FFFFFF;}
	.st5{mask:url(#c_00000000936893163290753080000014922909320516495521_);}
	.st6{fill:none;}
	.st7{fill:url(#SVGID_1_);}
	.st8{filter:url(#Adobe_OpacityMaskFilter_00000183927856514410551490000012581769464662160828_);}
	.st9{mask:url(#c_00000029742901854773264870000009223771231860565686_);}
	.st10{fill-rule:evenodd;clip-rule:evenodd;fill:url(#SVGID_00000061435931092213939700000009561858458249859736_);}
	.st11{fill-rule:evenodd;clip-rule:evenodd;fill:url(#SVGID_00000069370934489760941490000010803606900766294682_);}
	.st12{fill-rule:evenodd;clip-rule:evenodd;fill:url(#SVGID_00000131325892832311960430000016943479140185432511_);}
	.st13{fill-rule:evenodd;clip-rule:evenodd;fill:url(#SVGID_00000097461382237081505310000007601042523542733240_);}
	.st14{fill-rule:evenodd;clip-rule:evenodd;fill:url(#SVGID_00000098911701584069522370000005892102507925380271_);}
</style>
<path class="st0" d="M83,132.8c-0.5,0-1-0.1-1.5-0.4l-4.7-2.8c-0.7-0.4-0.4-0.5-0.1-0.6c1-0.3,1.1-0.4,2.1-1c0.1-0.1,0.2,0,0.4,0
	l3.6,2.2c0.1,0.1,0.3,0.1,0.4,0l14.1-8.2c0.1-0.1,0.2-0.2,0.2-0.4v-16.3c0-0.2-0.1-0.3-0.2-0.4l-14.1-8.1c-0.1-0.1-0.3-0.1-0.4,0
	L68.7,105c-0.1,0.1-0.2,0.2-0.2,0.4v16.3c0,0.1,0.1,0.3,0.2,0.4l3.8,2.2c2.1,1.1,3.4-0.2,3.4-1.4v-16.1c0-0.2,0.2-0.4,0.4-0.4h1.8
	c0.2,0,0.4,0.2,0.4,0.4v16.1c0,2.8-1.5,4.4-4.2,4.4c-0.8,0-1.4,0-3.2-0.9l-3.7-2.1c-0.9-0.5-1.5-1.5-1.5-2.6v-16.3
	c0-1.1,0.6-2,1.5-2.6l14.1-8.2c0.9-0.5,2.1-0.5,3,0l14.1,8.2c0.9,0.5,1.5,1.5,1.5,2.6v16.3c0,1.1-0.6,2-1.5,2.6l-14.1,8.2
	C84,132.7,83.5,132.8,83,132.8L83,132.8z M87.4,121.6c-6.2,0-7.4-2.8-7.4-5.2c0-0.2,0.2-0.4,0.4-0.4h1.8c0.2,0,0.4,0.1,0.4,0.4
	c0.3,1.9,1.1,2.8,4.8,2.8c3,0,4.2-0.7,4.2-2.3c0-0.9-0.4-1.6-5-2c-3.8-0.4-6.2-1.2-6.2-4.3c0-2.9,2.4-4.6,6.4-4.6
	c4.5,0,6.7,1.6,7,4.9c0,0.1,0,0.2-0.1,0.3c-0.1,0.1-0.2,0.1-0.3,0.1h-1.8c-0.2,0-0.4-0.1-0.4-0.3c-0.4-1.9-1.5-2.6-4.4-2.6
	c-3.2,0-3.6,1.1-3.6,2c0,1,0.5,1.3,4.8,1.9c4.3,0.6,6.4,1.4,6.4,4.4C94.4,119.8,91.8,121.6,87.4,121.6z"/>
<path class="st1" d="M39.3,69.2c0-0.6-0.4-1.2-0.9-1.6l-15-8.6c-0.2-0.1-0.5-0.2-0.8-0.2h-0.1c-0.3,0-0.6,0.1-0.8,0.2l-15,8.6
	c-0.6,0.3-0.9,0.9-0.9,1.6l0,23.1c0,0.3,0.2,0.6,0.5,0.8c0.3,0.2,0.6,0.2,0.9,0l8.9-5.1c0.6-0.3,0.9-0.9,0.9-1.6V75.6
	c0-0.6,0.4-1.2,0.9-1.6l3.8-2.2c0.3-0.2,0.6-0.2,0.9-0.2s0.6,0.1,0.9,0.2l3.8,2.2c0.6,0.3,0.9,0.9,0.9,1.6v10.8
	c0,0.6,0.4,1.2,0.9,1.6l8.9,5.1c0.3,0.2,0.6,0.2,0.9,0c0.3-0.1,0.5-0.5,0.5-0.8L39.3,69.2L39.3,69.2z M111.2,37.3
	c-0.3-0.1-0.6-0.1-0.9,0c-0.3,0.2-0.5,0.5-0.5,0.8V61c0,0.2-0.1,0.4-0.3,0.6c-0.2,0.1-0.4,0.1-0.6,0l-3.7-2.2
	c-0.6-0.3-1.2-0.3-1.8,0l-15,8.6c-0.6,0.3-0.9,0.9-0.9,1.6v17.3c0,0.6,0.4,1.2,0.9,1.6l15,8.6c0.6,0.3,1.2,0.3,1.8,0l15-8.6
	c0.6-0.3,0.9-0.9,0.9-1.6v-43c0-0.7-0.4-1.3-0.9-1.6L111.2,37.3L111.2,37.3z M109.9,81.2c0,0.2-0.1,0.3-0.2,0.4l-5.1,3
	c-0.1,0.1-0.3,0.1-0.5,0l-5.1-3c-0.1-0.1-0.2-0.2-0.2-0.4v-5.9c0-0.2,0.1-0.3,0.2-0.4l5.1-3c0.1-0.1,0.3-0.1,0.5,0l5.1,3
	c0.1,0.1,0.2,0.2,0.2,0.4V81.2L109.9,81.2z M161,75.1c0.6-0.3,0.9-0.9,0.9-1.6v-4.2c0-0.6-0.4-1.2-0.9-1.6l-14.9-8.6
	c-0.6-0.3-1.2-0.3-1.8,0l-15,8.6c-0.6,0.3-0.9,0.9-0.9,1.6v17.3c0,0.6,0.4,1.2,0.9,1.6l14.9,8.5c0.6,0.3,1.2,0.3,1.8,0l9-5
	c0.3-0.1,0.5-0.5,0.5-0.8c0-0.3-0.2-0.6-0.5-0.8l-15-8.6c-0.3-0.2-0.5-0.5-0.5-0.8v-5.4c0-0.3,0.2-0.6,0.5-0.8l4.7-2.7
	c0.3-0.2,0.6-0.2,0.9,0l4.7,2.7c0.3,0.2,0.5,0.5,0.5,0.8v4.2c0,0.3,0.2,0.6,0.5,0.8c0.3,0.2,0.6,0.2,0.9,0L161,75.1L161,75.1z"/>
<path class="st0" d="M145.1,74.3c0.1-0.1,0.2-0.1,0.4,0l2.9,1.7c0.1,0.1,0.2,0.2,0.2,0.3v3.3c0,0.1-0.1,0.2-0.2,0.3l-2.9,1.7
	c-0.1,0.1-0.2,0.1-0.4,0l-2.9-1.7c-0.1-0.1-0.2-0.2-0.2-0.3v-3.3c0-0.1,0.1-0.2,0.2-0.3L145.1,74.3z"/>
<g transform="translate(134.068 70.501)">
	<g>
		
			<linearGradient id="a_00000107557981055122009920000007196170728403810476_" gradientUnits="userSpaceOnUse" x1="-295.8695" y1="173.8417" x2="-295.8947" y2="173.7965" gradientTransform="matrix(532.1024 0 0 -606.2871 157368.2656 105393.1328)">
			<stop  offset="0" style="stop-color:#41873F"/>
			<stop  offset="0.3288" style="stop-color:#418B3D"/>
			<stop  offset="0.6352" style="stop-color:#419637"/>
			<stop  offset="0.9319" style="stop-color:#3FA92D"/>
			<stop  offset="1" style="stop-color:#3FAE2A"/>
		</linearGradient>
		
			<path id="a_00000042738004648486537610000001603927250784204472_" style="fill:url(#a_00000107557981055122009920000007196170728403810476_);" d="
			M-69.7-11.2c-0.6-0.3-1.2-0.3-1.8,0l-14.9,8.6c-0.6,0.3-0.9,0.9-0.9,1.6v17.2c0,0.6,0.4,1.2,0.9,1.6l14.9,8.6
			c0.6,0.3,1.2,0.3,1.8,0l14.9-8.6c0.6-0.3,0.9-0.9,0.9-1.6V-1.1c0-0.6-0.4-1.2-0.9-1.6L-69.7-11.2z"/>
	</g>
	<defs>
		<filter id="Adobe_OpacityMaskFilter" filterUnits="userSpaceOnUse" x="-87.4" y="-11.5" width="33.5" height="38">
			<feColorMatrix  type="matrix" values="1 0 0 0 0  0 1 0 0 0  0 0 1 0 0  0 0 0 1 0"/>
		</filter>
	</defs>
	
		<mask maskUnits="userSpaceOnUse" x="-87.4" y="-11.5" width="33.5" height="38" id="c_00000000936893163290753080000014922909320516495521_">
		<g class="st3">
			<path id="a_00000034076974682702896230000007572526648446214540_" class="st4" d="M-69.7-11.2c-0.6-0.3-1.2-0.3-1.8,0l-14.9,8.6
				c-0.6,0.3-0.9,0.9-0.9,1.6v17.2c0,0.6,0.4,1.2,0.9,1.6l14.9,8.6c0.6,0.3,1.2,0.3,1.8,0l14.9-8.6c0.6-0.3,0.9-0.9,0.9-1.6V-1.1
				c0-0.6-0.4-1.2-0.9-1.6L-69.7-11.2z"/>
		</g>
	</mask>
	<g class="st5">
		<path class="st6" d="M-71.6-11.2l-14.9,8.6c-0.6,0.3-1,0.9-1,1.6v17.2c0,0.4,0.2,0.8,0.5,1.1l16.7-28.7
			C-70.6-11.5-71.1-11.5-71.6-11.2L-71.6-11.2z M-70.1,26.4c0.1,0,0.3-0.1,0.4-0.2l14.9-8.6c0.6-0.3,0.9-0.9,0.9-1.6V-1.1
			c0-0.5-0.2-0.9-0.5-1.2L-70.1,26.4L-70.1,26.4z"/>
		
			<linearGradient id="SVGID_1_" gradientUnits="userSpaceOnUse" x1="-295.9144" y1="173.8198" x2="-295.8418" y2="173.8657" gradientTransform="matrix(519.687 0 0 -606.0386 153709.9688 105351.0078)">
			<stop  offset="0.1376" style="stop-color:#41873F"/>
			<stop  offset="0.4032" style="stop-color:#54A044"/>
			<stop  offset="0.7136" style="stop-color:#66B848"/>
			<stop  offset="0.9081" style="stop-color:#6CC04A"/>
		</linearGradient>
		<path class="st7" d="M-54.8-2.7l-14.9-8.6c-0.1-0.1-0.3-0.1-0.5-0.2l-16.7,28.7c0.1,0.2,0.3,0.3,0.5,0.4l14.9,8.6
			c0.4,0.2,0.9,0.3,1.4,0.2l15.7-28.7C-54.5-2.4-54.7-2.5-54.8-2.7L-54.8-2.7z"/>
	</g>
	<defs>
		
			<filter id="Adobe_OpacityMaskFilter_00000091737776557478934940000012240509245152682922_" filterUnits="userSpaceOnUse" x="-87.4" y="-14.4" width="34" height="41.3">
			<feColorMatrix  type="matrix" values="1 0 0 0 0  0 1 0 0 0  0 0 1 0 0  0 0 0 1 0"/>
		</filter>
	</defs>
	
		<mask maskUnits="userSpaceOnUse" x="-87.4" y="-14.4" width="34" height="41.3" id="c_00000029742901854773264870000009223771231860565686_">
		<g style="filter:url(#Adobe_OpacityMaskFilter_00000091737776557478934940000012240509245152682922_);">
			<path id="a_00000139259061632165857720000017608060149565890434_" class="st4" d="M-69.7-11.2c-0.6-0.3-1.2-0.3-1.8,0l-14.9,8.6
				c-0.6,0.3-0.9,0.9-0.9,1.6v17.2c0,0.6,0.4,1.2,0.9,1.6l14.9,8.6c0.6,0.3,1.2,0.3,1.8,0l14.9-8.6c0.6-0.3,0.9-0.9,0.9-1.6V-1.1
				c0-0.6-0.4-1.2-0.9-1.6L-69.7-11.2z"/>
		</g>
	</mask>
	<g class="st9">
		<path class="st6" d="M-53.9,16.1V-1.1c0-0.6-0.4-1.2-1-1.6l-14.9-8.6c-0.2-0.1-0.4-0.2-0.6-0.2L-54,16.5
			C-53.9,16.4-53.9,16.2-53.9,16.1L-53.9,16.1z M-86.4-2.7c-0.6,0.3-1,0.9-1,1.6v17.2c0,0.6,0.4,1.2,1,1.6l14.9,8.6
			c0.4,0.2,0.7,0.3,1.2,0.2l-16-29.1L-86.4-2.7L-86.4-2.7z"/>
		
			<linearGradient id="SVGID_00000039116337188912270350000003668248465410963129_" gradientUnits="userSpaceOnUse" x1="-447.3471" y1="274.3318" x2="-441.2548" y2="274.3318" gradientTransform="matrix(4.5111 0 0 -1.6941 1933.3607 450.4323)">
			<stop  offset="9.192000e-02" style="stop-color:#6CC04A"/>
			<stop  offset="0.2864" style="stop-color:#66B848"/>
			<stop  offset="0.5968" style="stop-color:#54A044"/>
			<stop  offset="0.8624" style="stop-color:#41873F"/>
		</linearGradient>
		<path style="fill-rule:evenodd;clip-rule:evenodd;fill:url(#SVGID_00000039116337188912270350000003668248465410963129_);" d="
			M-72-14.4l-0.2,0.1h0.3L-72-14.4z"/>
		
			<linearGradient id="SVGID_00000090273029570031425480000012515585210310476429_" gradientUnits="userSpaceOnUse" x1="-295.9614" y1="173.8211" x2="-295.8952" y2="173.8211" gradientTransform="matrix(519.1255 0 0 -606.527 153553.3281 105434.6484)">
			<stop  offset="9.192000e-02" style="stop-color:#6CC04A"/>
			<stop  offset="0.2864" style="stop-color:#66B848"/>
			<stop  offset="0.5968" style="stop-color:#54A044"/>
			<stop  offset="0.8624" style="stop-color:#41873F"/>
		</linearGradient>
		<path style="fill-rule:evenodd;clip-rule:evenodd;fill:url(#SVGID_00000090273029570031425480000012515585210310476429_);" d="
			M-54.8,17.6c0.4-0.2,0.7-0.7,0.9-1.1l-16.4-27.9c-0.4-0.1-0.9,0-1.3,0.2l-14.8,8.5l16,29.1c0.2,0,0.5-0.1,0.7-0.2L-54.8,17.6
			L-54.8,17.6z"/>
		
			<linearGradient id="SVGID_00000159438819169244828940000001541694839655964576_" gradientUnits="userSpaceOnUse" x1="-864.7724" y1="336.4632" x2="-858.6801" y2="336.4632" gradientTransform="matrix(1.6941 0 0 -3.9497 1401.2089 1346.2179)">
			<stop  offset="9.192000e-02" style="stop-color:#6CC04A"/>
			<stop  offset="0.2864" style="stop-color:#66B848"/>
			<stop  offset="0.5968" style="stop-color:#54A044"/>
			<stop  offset="0.8624" style="stop-color:#41873F"/>
		</linearGradient>
		<path style="fill-rule:evenodd;clip-rule:evenodd;fill:url(#SVGID_00000159438819169244828940000001541694839655964576_);" d="
			M-53.4,17.4l-0.1-0.2v0.2L-53.4,17.4L-53.4,17.4z"/>
		
			<linearGradient id="SVGID_00000101089263288974201670000017283890637865568896_" gradientUnits="userSpaceOnUse" x1="-297.7486" y1="177.2461" x2="-297.6206" y2="177.2461" gradientTransform="matrix(268.5875 0 0 -167.5852 79883.7422 29725.5312)">
			<stop  offset="9.192000e-02" style="stop-color:#6CC04A"/>
			<stop  offset="0.2864" style="stop-color:#66B848"/>
			<stop  offset="0.5968" style="stop-color:#54A044"/>
			<stop  offset="0.8624" style="stop-color:#41873F"/>
		</linearGradient>
		<path style="fill-rule:evenodd;clip-rule:evenodd;fill:url(#SVGID_00000101089263288974201670000017283890637865568896_);" d="
			M-54.8,17.6l-14.9,8.6c-0.2,0.1-0.4,0.2-0.7,0.2l0.3,0.5l16.5-9.6v-0.2l-0.4-0.7C-54.1,17-54.4,17.4-54.8,17.6L-54.8,17.6z"/>
		
			<linearGradient id="SVGID_00000100372353879397796680000004054658658114859651_" gradientUnits="userSpaceOnUse" x1="-297.6021" y1="177.4094" x2="-297.681" y2="177.1513" gradientTransform="matrix(268.5875 0 0 -167.5852 79883.7422 29725.5312)">
			<stop  offset="0" style="stop-color:#41873F"/>
			<stop  offset="0.3288" style="stop-color:#418B3D"/>
			<stop  offset="0.6352" style="stop-color:#419637"/>
			<stop  offset="0.9319" style="stop-color:#3FA92D"/>
			<stop  offset="1" style="stop-color:#3FAE2A"/>
		</linearGradient>
		<path style="fill-rule:evenodd;clip-rule:evenodd;fill:url(#SVGID_00000100372353879397796680000004054658658114859651_);" d="
			M-54.8,17.6l-14.9,8.6c-0.2,0.1-0.4,0.2-0.7,0.2l0.3,0.5l16.5-9.6v-0.2l-0.4-0.7C-54.1,17-54.4,17.4-54.8,17.6L-54.8,17.6z"/>
	</g>
</g>
</svg>
