<svg width="0" height="0" class="hidden">
  <symbol version="1.1" id="person_icon" xmlns="http://www.w3.org/2000/svg" xmlns:xlink="http://www.w3.org/1999/xlink" x="0px" y="0px" enable-background="new 0 0 275 273" xml:space="preserve" viewBox="0 0 275 273">
    <g>
      <path  d="M265.8,264.3c-7.2,0-13.7,0-20.3,0c-1.1-37.4-16.7-67.3-47.4-89c-19.9-14-42.3-19.9-66.5-18.8
		c-54.7,2.6-102.2,48.6-102.4,107.7c-6.5,0-13.1,0-19.9,0c0.3-27.1,7.9-51.8,23.6-73.9c15.7-22,36.5-37.6,62.3-46.9
		C73.3,126.8,62,105.2,63.6,77.7c1.2-21,10.3-38.5,26.4-51.9c30.5-25.7,76.8-23,104,9.2c26.7,31.6,23,81.5-14.2,108.1
		C233.6,165.6,262.5,205.6,265.8,264.3z M191.3,82.6c0.1-29.6-24-53.9-53.7-54.1C108,28.3,83.5,52.6,83.4,82.4
		c-0.1,29.6,24,53.9,53.7,54.1C166.7,136.7,191.2,112.3,191.3,82.6z"></path>
      <path d="M266.3,264.8H245l0-0.5c-1.1-37.4-17-67.3-47.2-88.6c-19.2-13.5-41.5-19.8-66.2-18.7
		c-26.8,1.3-52.1,12.8-71.3,32.5c-19.7,20.1-30.5,46.7-30.6,74.7l0,0.5H8.8l0-0.5c0.3-27.5,8.3-52.5,23.7-74.2
		c15.5-21.7,36.2-37.4,61.7-46.8C72,126.1,61.6,104.1,63.1,77.7c1.2-21,10.1-38.6,26.6-52.3c15-12.7,34.1-18.8,53.6-17.2
		c19.9,1.6,38,11,51.1,26.5c13.3,15.7,19.4,36.6,16.9,57.1c-2.6,20.5-13.4,38.7-30.4,51.2c26.6,11.3,47.2,27,61.3,46.9
		c14.4,20.2,22.5,45.2,24.2,74.4L266.3,264.8z M246,263.8h19.3c-1.7-28.8-9.8-53.5-23.9-73.4c-14.2-19.9-34.9-35.7-61.7-46.9
		l-0.8-0.3l0.7-0.5c17.3-12.3,28.2-30.5,30.8-51c2.5-20.3-3.5-40.9-16.6-56.4C180.7,20,162.8,10.7,143.2,9.2
		c-19.3-1.5-38.1,4.5-52.9,17C74.1,39.7,65.3,57,64.1,77.7c-1.5,26.4,9,48.3,31.4,65.3l0.7,0.6l-0.9,0.3
		c-25.7,9.2-46.5,25-62.1,46.7c-15.2,21.4-23.1,46-23.5,73.1h18.9c0.2-28.1,11.2-54.7,30.9-74.9c19.4-19.9,44.9-31.5,72-32.8
		c24.9-1.1,47.4,5.2,66.8,18.9C228.7,196.3,244.8,226.3,246,263.8z M137.5,137c-0.1,0-0.2,0-0.4,0c-30-0.2-54.3-24.7-54.2-54.6
		c0-14.6,5.8-28.3,16.3-38.6c10.4-10.3,24.1-15.9,38.4-15.8c30,0.2,54.3,24.7,54.2,54.6c0,14.6-5.8,28.3-16.3,38.6
		C165.2,131.4,151.7,137,137.5,137z M137.2,29c-14,0-27.3,5.5-37.4,15.5c-10.2,10.1-15.9,23.6-16,37.9
		c-0.1,29.4,23.8,53.4,53.2,53.6c0.1,0,0.2,0,0.4,0c14,0,27.2-5.5,37.3-15.5c10.3-10.2,15.9-23.6,16-37.9l0,0
		c0.1-29.4-23.8-53.4-53.2-53.6C137.5,29,137.4,29,137.2,29z"></path>
    </g>
  </symbol>
</svg>