<?xml version="1.0" encoding="utf-8"?>
<!-- Generator: Adobe Illustrator 27.8.0, SVG Export Plug-In . SVG Version: 6.00 Build 0)  -->
<svg version="1.1" id="Layer_1" xmlns="http://www.w3.org/2000/svg" xmlns:xlink="http://www.w3.org/1999/xlink" x="0px" y="0px"
	 width="166.7px" height="166.6px" viewBox="0 0 166.7 166.6" style="enable-background:new 0 0 166.7 166.6;" xml:space="preserve"
	>
<style type="text/css">
	.st0{fill:#2D4552;}
	.st1{fill:#E2574C;}
	.st2{fill:#2EAD33;}
	.st3{fill:#D65348;}
	.st4{fill:#1D8D22;}
	.st5{fill:#C04B41;}
</style>
<path class="st0" d="M55.4,90.9c-6,1.7-9.9,4.7-12.5,7.7c2.5-2.2,5.8-4.2,10.3-5.4c4.6-1.3,8.5-1.3,11.7-0.7v-2.5
	C62.1,89.7,59,89.9,55.4,90.9z M42.6,69.6l-22.3,5.9c0,0,0.4,0.6,1.2,1.3l18.9-5c0,0-0.3,3.4-2.6,6.5C42.2,75.1,42.6,69.6,42.6,69.6
	z M61.2,121.9c-31.3,8.4-47.9-27.9-52.9-46.7C6,66.5,5,60,4.7,55.7c0-0.4,0-0.8,0-1.2c-1.6,0.1-2.4,0.9-2.2,3.4
	c0.3,4.2,1.3,10.8,3.6,19.5c5,18.8,21.6,55.1,52.9,46.7c6.8-1.8,11.9-5.2,15.8-9.4C71.3,117.9,66.8,120.4,61.2,121.9z M67.1,47.4
	v2.2h12.3c-0.3-0.8-0.5-1.5-0.8-2.2H67.1z"/>
<path class="st0" d="M82.2,65.8c5.5,1.6,8.4,5.4,10,8.9l6.2,1.7c0,0-0.8-12-11.7-15.1c-10.1-2.9-16.4,5.6-17.2,6.7
	C72.4,66,76.7,64.2,82.2,65.8z M131.2,74.7c-10.2-2.9-16.4,5.6-17.2,6.7c3-2.1,7.3-3.8,12.7-2.3c5.5,1.6,8.4,5.4,10,8.9l6.2,1.8
	C142.9,89.8,142,77.8,131.2,74.7z M125.1,106.3L73.8,92c0,0,0.6,2.8,2.7,6.5l43.1,12.1C123.2,108.5,125.1,106.3,125.1,106.3z
	 M89.5,137.2C49,126.3,53.9,74.6,60.4,50.1c2.7-10.1,5.5-17.6,7.8-22.6c-1.4-0.3-2.5,0.4-3.6,2.7c-2.4,5-5.6,13-8.6,24.4
	c-6.6,24.5-11.5,76.2,29.1,87.1c19.1,5.1,34-2.7,45.1-14.9C119.7,136.3,106.2,141.6,89.5,137.2z"/>
<path class="st1" d="M67.1,109.8V99.4l-29,8.2c0,0,2.1-12.4,17.3-16.7c4.6-1.3,8.5-1.3,11.7-0.7V47.4h14.5
	c-1.6-4.9-3.1-8.6-4.4-11.3c-2.1-4.3-4.3-1.5-9.2,2.7c-3.5,2.9-12.3,9.1-25.5,12.7c-13.2,3.6-23.9,2.6-28.4,1.8
	c-6.3-1.1-9.6-2.5-9.3,2.3C5,60,6,66.5,8.3,75.2c5,18.8,21.6,55.1,52.9,46.7c8.2-2.2,14-6.6,18-12.1L67.1,109.8L67.1,109.8z
	 M20.4,75.5l22.3-5.9c0,0-0.6,8.6-9,10.8C25.3,82.6,20.4,75.5,20.4,75.5z"/>
<path class="st2" d="M150.9,47.9c-5.8,1-19.7,2.3-36.8-2.3C96.9,41,85.5,33,81,29.2c-6.4-5.4-9.2-9.1-12-3.4c-2.4,5-5.6,13-8.6,24.4
	c-6.6,24.5-11.5,76.2,29.1,87.1c40.6,10.9,62.1-36.3,68.7-60.8c3-11.3,4.4-19.9,4.7-25.4C163.4,44.7,159.1,46.5,150.9,47.9z
	 M69.4,68.2c0,0,6.4-9.9,17.2-6.9c10.8,3.1,11.7,15.1,11.7,15.1L69.4,68.2z M95.8,112.8c-19.1-5.6-22-20.8-22-20.8l51.2,14.3
	C125.1,106.3,114.7,118.3,95.8,112.8z M114,81.5c0,0,6.4-9.9,17.2-6.8c10.8,3.1,11.7,15.1,11.7,15.1S114,81.5,114,81.5z"/>
<path class="st3" d="M57,102.3l-18.9,5.3c0,0,2-11.7,15.9-16.3L43.4,51.2l-0.9,0.3c-13.2,3.6-23.9,2.6-28.4,1.8
	c-6.3-1.1-9.6-2.5-9.3,2.3C5,60,6,66.5,8.3,75.2c5,18.8,21.6,55.1,52.9,46.7l0.9-0.3C62.2,121.6,57,102.3,57,102.3z M20.4,75.5
	l22.3-5.9c0,0-0.6,8.6-9,10.8C25.3,82.6,20.4,75.5,20.4,75.5z"/>
<path class="st4" d="M96.7,113l-0.9-0.2c-19.1-5.6-22-20.8-22-20.8l26.4,7.4l14-53.7l-0.2,0C96.9,41,85.5,33,81,29.2
	c-6.4-5.4-9.2-9.1-12-3.4c-2.4,5-5.6,13-8.6,24.4c-6.6,24.5-11.5,76.2,29.1,87.1l0.8,0.2C90.4,137.3,96.7,113,96.7,113z M69.4,68.2
	c0,0,6.4-9.9,17.2-6.9c10.8,3.1,11.7,15.1,11.7,15.1L69.4,68.2z"/>
<path class="st5" d="M58,102l-5.1,1.4c1.2,6.7,3.3,13.2,6.6,18.9c0.6-0.1,1.1-0.2,1.7-0.4c1.5-0.4,3-0.9,4.3-1.5
	C61.9,115,59.4,108.6,58,102z M56,54.6c-2.6,9.7-4.9,23.7-4.3,37.7c1.1-0.5,2.4-1,3.7-1.3l0.9-0.2c-1.1-15,1.3-30.2,4.1-40.6
	c0.7-2.6,1.4-5.1,2.1-7.3c-1.1,0.7-2.4,1.5-3.7,2.2C57.9,47.9,56.9,51,56,54.6z"/>
</svg>
