<?xml version="1.0" encoding="utf-8"?>
<!-- Generator: Adobe Illustrator 26.5.0, SVG Export Plug-In . SVG Version: 6.00 Build 0)  -->
<svg version="1.1" id="Layer_1" xmlns="http://www.w3.org/2000/svg" xmlns:xlink="http://www.w3.org/1999/xlink" x="0px" y="0px"
	 viewBox="0 0 166.7 166.6" style="enable-background:new 0 0 166.7 166.6;" xml:space="preserve">
<style type="text/css">
	.st0{fill:#01D8FF;}
</style>
<path class="st0" d="M83.5,135.8c-0.3,0.2-0.5,0.5-0.8,0.7c-3.7,3.5-7.8,6.7-12.1,9.5c-3.3,2.1-6.7,3.8-10.4,5.1
	c-1.9,0.6-3.8,1.1-5.8,1.4c-2.5,0.3-4.9,0.3-7.3-0.4c-3.2-0.9-5.6-2.9-7.5-5.6c-1.3-1.9-2.2-4-2.8-6.3c-0.6-2-0.9-4.1-1.2-6.2
	c-0.3-2.4-0.3-4.9-0.2-7.3c0.1-2.6,0.4-5.3,0.8-7.9c0.4-2.9,1-5.7,1.7-8.6c0.1-0.6,0.1-0.5-0.3-0.6c-5.1-1.5-10-3.4-14.7-5.9
	c-3.4-1.8-6.6-3.8-9.6-6.4c-2.2-1.9-4.2-4-5.7-6.6c-1-1.6-1.7-3.4-2.1-5.2c-0.5-2.4-0.2-4.8,0.6-7.2c0.8-2.2,2.1-4.2,3.7-6
	c2.2-2.6,4.9-4.6,7.7-6.5c3.8-2.5,8-4.4,12.2-6c2.6-1,5.3-1.9,8-2.7c0.4-0.1,0.4-0.1,0.3-0.5c-0.6-2.4-1.1-4.8-1.5-7.2
	c-0.3-1.7-0.5-3.4-0.7-5.2c-0.3-2.6-0.4-5.1-0.4-7.7c0.1-3.4,0.4-6.8,1.3-10.1c0.7-2.4,1.6-4.7,3-6.7c1.8-2.6,4.1-4.5,7.2-5.4
	c1.8-0.5,3.6-0.7,5.4-0.6c3.7,0.2,7.1,1.2,10.5,2.7c3.8,1.6,7.4,3.8,10.8,6.2c3.4,2.4,6.6,5.1,9.6,7.9c0.3,0.3,0.3,0.3,0.5,0
	c3.5-3.4,7.2-6.5,11.3-9.2c3.3-2.2,6.8-4.2,10.5-5.7c2.1-0.8,4.3-1.5,6.6-1.8c2.4-0.3,4.8-0.3,7.2,0.3c2.9,0.8,5.2,2.5,7,4.9
	c1.5,2.1,2.5,4.4,3.2,6.8c0.5,1.8,0.9,3.7,1.2,5.6c0.3,2.7,0.4,5.4,0.4,8.1c-0.1,2-0.2,4.1-0.4,6.1c-0.4,3.7-1.1,7.3-2,10.9
	c0,0,0,0.1,0,0.1c-0.1,0.3-0.1,0.3,0.2,0.4c0.2,0.1,0.3,0.1,0.5,0.2c5,1.5,9.9,3.3,14.5,5.7c3.2,1.6,6.3,3.5,9.1,5.8
	c2.2,1.8,4.2,3.8,5.7,6.1c1.1,1.7,1.9,3.4,2.3,5.4c0.5,2.4,0.3,4.8-0.5,7.1c-0.8,2.1-2,4-3.4,5.8c-2,2.4-4.3,4.4-6.9,6.2
	c-3.6,2.5-7.5,4.5-11.5,6.2c-3.1,1.3-6.2,2.4-9.4,3.4c-0.1,0-0.2,0.1-0.2,0.1c-0.2,0-0.2,0.1-0.2,0.3c0.3,1.3,0.6,2.6,0.9,3.9
	c0.3,1.8,0.6,3.5,0.9,5.3c0.3,2.4,0.5,4.7,0.6,7.1c0.1,2,0,4-0.1,5.9c-0.1,2-0.4,4-0.8,6c-0.6,2.6-1.4,5.1-2.8,7.5
	c-1.2,2-2.6,3.8-4.5,5.1c-1.6,1.1-3.4,1.8-5.3,2.1c-2.6,0.4-5.2,0.2-7.8-0.4c-3-0.7-5.9-1.8-8.6-3.3c-4-2.1-7.8-4.6-11.3-7.5
	c-2.1-1.7-4.1-3.4-6-5.3C83.8,136,83.7,135.9,83.5,135.8z M82.9,108.4c3,0,5.9,0,8.9-0.1c1.4-0.1,2.7-0.1,4.1-0.2
	c0.5,0,0.9-0.1,1.4-0.1c0.2,0,0.4-0.1,0.5-0.3c0.1-0.1,0.1-0.2,0.2-0.3c2.9-4.3,5.5-8.7,8.1-13.3c1.9-3.4,3.8-6.9,5.5-10.5
	c0.1-0.2,0.2-0.4,0-0.6c-0.1-0.1-0.1-0.2-0.1-0.3c-3-6-6.3-11.9-9.8-17.6c-1.3-2.1-2.6-4.1-4-6.1c-0.1-0.2-0.2-0.3-0.4-0.3
	c-2.3-0.2-4.6-0.3-6.9-0.4c-2.1-0.1-4.1-0.1-6.2-0.1c-2.6,0-5.2,0-7.8,0.1c-2.3,0.1-4.5,0.2-6.8,0.4c-0.3,0-0.5,0.1-0.7,0.4
	c-2.7,3.9-5.2,8-7.6,12.1C59,75,57,79,55,82.9c-0.1,0.3-0.2,0.5,0,0.8c2.9,5.9,6,11.6,9.5,17.2c1.4,2.3,2.9,4.6,4.4,6.8
	c0.1,0.2,0.3,0.3,0.5,0.3c0.6,0,1.2,0.1,1.9,0.1c2.2,0.1,4.4,0.2,6.6,0.2C79.6,108.4,81.3,108.4,82.9,108.4z M11.9,83.2
	c0,0.4,0.1,0.8,0.1,1.1c0.2,1.2,0.7,2.2,1.3,3.3c1.2,2,2.8,3.6,4.5,5.1c2.5,2.1,5.2,3.8,8.1,5.3c3,1.6,6.1,2.8,9.2,4
	c1.4,0.5,2.8,0.9,4.3,1.4c0.3,0.1,0.3,0.1,0.4-0.2c0.1-0.5,0.3-0.9,0.4-1.4c2-6.1,4.3-12,7-17.9c0.1-0.3,0.1-0.5,0-0.8
	c-1-2.2-2-4.4-2.9-6.6c-1.7-4.1-3.1-8.2-4.4-12.3c-0.1-0.4-0.1-0.4-0.5-0.3c-1.4,0.4-2.8,0.8-4.2,1.3c-4.1,1.4-8.1,3.1-11.9,5.2
	c-2.5,1.4-4.8,3-6.9,4.9c-1.4,1.3-2.6,2.7-3.5,4.4C12.3,80.7,11.9,81.9,11.9,83.2z M78.8,131c0-0.1-0.1-0.2-0.2-0.3
	c-3.6-3.9-7.1-8.1-10.3-12.3c-0.9-1.2-1.8-2.4-2.7-3.7c-0.1-0.2-0.3-0.3-0.5-0.3c-0.5,0-1-0.1-1.5-0.1c-1.5-0.1-2.9-0.3-4.4-0.4
	c-1.9-0.2-3.8-0.5-5.8-0.8c-2.9-0.4-5.8-1-8.7-1.6c-0.4-0.1-0.4-0.1-0.5,0.3c-0.7,2.8-1.2,5.6-1.7,8.5c-0.3,2.1-0.5,4.2-0.6,6.3
	c-0.1,2.4-0.1,4.8,0.2,7.2c0.2,1.8,0.5,3.5,1.1,5.2c0.5,1.5,1.1,3,2.1,4.3c0.9,1.2,2,2,3.4,2.4c0.7,0.2,1.5,0.3,2.3,0.3
	c2.1,0.1,4.1-0.3,6-0.9c3.1-0.9,6-2.3,8.7-4c4.6-2.8,8.8-6.1,12.7-9.8C78.7,131.2,78.8,131.1,78.8,131z M124.6,127.8
	c0-1-0.1-2.2-0.1-3.4c-0.1-1.5-0.2-3-0.4-4.5c-0.4-2.8-0.9-5.6-1.6-8.4c-0.1-0.3-0.1-0.3-0.4-0.3c-2.3,0.5-4.7,1-7,1.4
	c-2.4,0.4-4.9,0.8-7.4,1.1c-2,0.2-3.9,0.5-5.9,0.6c-0.3,0-0.6,0.1-0.8,0.4c-3.9,5.6-8,10.9-12.6,16c-0.2,0.3-0.3,0.2,0,0.5
	c0,0,0.1,0.1,0.1,0.1c1.6,1.5,3.2,3,4.9,4.4c3.1,2.5,6.3,4.8,9.7,6.7c2.5,1.4,5.1,2.5,7.9,3.2c1.8,0.4,3.7,0.7,5.5,0.4
	c1.4-0.2,2.6-0.8,3.5-1.7c0.6-0.6,1.1-1.2,1.5-2c1.2-2,1.8-4.1,2.3-6.4C124.4,133.2,124.6,130.6,124.6,127.8z M42.1,37.9
	c0,1.1,0.1,2.3,0.1,3.5c0.1,1.7,0.3,3.4,0.5,5.1c0.3,2.1,0.7,4.1,1.1,6.1c0.2,0.9,0.4,1.7,0.6,2.6c0.1,0.3,0.1,0.3,0.4,0.3
	c0,0,0,0,0,0c2.5-0.6,5.1-1.1,7.6-1.5c2.3-0.4,4.6-0.7,6.9-1c1.8-0.2,3.7-0.4,5.5-0.6c0.3,0,0.5-0.1,0.6-0.4
	c3.6-5,7.4-9.9,11.6-14.5c0.4-0.5,0.9-1,1.3-1.4c0.1-0.1,0.1-0.2,0-0.3c-0.1-0.1-0.1-0.1-0.2-0.2c-1.4-1.3-2.8-2.6-4.3-3.8
	c-3.4-2.9-7.1-5.4-11-7.5c-2.5-1.3-5.1-2.4-7.9-3.1c-1.8-0.4-3.6-0.6-5.4-0.4c-1.2,0.2-2.2,0.6-3.1,1.3C45.6,23,45,24,44.4,25.1
	c-0.9,1.7-1.4,3.4-1.7,5.3C42.2,32.8,42.1,35.3,42.1,37.9z M124.3,38.9c0-1.2,0-2-0.1-2.9c-0.1-2-0.3-4.1-0.8-6
	c-0.4-1.8-0.9-3.5-1.8-5.1c-0.5-1-1.2-1.9-2-2.6c-1.2-1-2.6-1.5-4.1-1.5c-1.9-0.1-3.7,0.2-5.5,0.8c-2.8,0.8-5.4,2.1-8,3.5
	c-5.1,3-9.6,6.7-13.9,10.7c-0.3,0.2-0.2,0.2,0,0.5c3,3.3,5.8,6.7,8.5,10.2c1.4,1.9,2.8,3.7,4.1,5.6c0.2,0.2,0.3,0.3,0.6,0.4
	c0.9,0.1,1.8,0.2,2.7,0.3c2.4,0.2,4.7,0.6,7.1,0.9c3,0.5,6,1,9,1.7c0.4,0.1,0.9,0.2,1.3,0.3c0.3,0.1,0.3,0.1,0.4-0.3
	c0,0,0-0.1,0-0.1c0.8-3.4,1.4-6.8,1.8-10.2C124.2,42.8,124.3,40.6,124.3,38.9z M154.6,83.2c0-0.2,0-0.4,0-0.6
	c-0.1-1.3-0.6-2.4-1.3-3.4c-0.9-1.5-2.1-2.8-3.4-4c-2.3-2.1-4.9-3.8-7.6-5.2c-4.8-2.6-9.9-4.6-15.2-6.1c-0.3-0.1-0.3-0.1-0.4,0.3
	c-0.3,1-0.7,2.1-1,3.1c-1.8,5.3-3.9,10.5-6.3,15.6c-0.1,0.3-0.2,0.6,0,0.9c2.1,4.4,4,8.8,5.7,13.4c0.7,1.9,1.3,3.8,1.9,5.6
	c0.1,0.3,0.1,0.3,0.4,0.2c0.1,0,0.1,0,0.2,0c2.5-0.7,4.9-1.6,7.3-2.6c3.8-1.5,7.4-3.3,10.8-5.6c2.2-1.5,4.3-3.2,6.1-5.3
	c0.9-1,1.7-2.2,2.2-3.4C154.3,85.1,154.6,84.2,154.6,83.2z M115.4,91C115.3,91,115.3,91,115.4,91c-2.9,5.4-6,10.7-9.2,15.9
	c0,0,0,0.1,0,0.1c0.2,0,0.3,0,0.4,0c1.8-0.2,3.6-0.5,5.4-0.8c2.7-0.4,5.4-0.9,8.1-1.5c0.6-0.1,0.5-0.1,0.3-0.6
	c-1.1-3.3-2.3-6.5-3.6-9.7C116.3,93.3,115.8,92.2,115.4,91z M83.5,126.2c1.5-1.4,8.8-10.4,9.1-11.3c-3.1,0.1-6.1,0.2-9.2,0.2
	c-3.1,0-6.1,0-9.3-0.2C77.1,118.9,80.2,122.6,83.5,126.2z M60.6,107.3c-3.4-5.3-6.4-10.6-9.3-16.1c-0.3,0.8-0.6,1.6-0.9,2.3
	c-1.5,3.6-2.8,7.3-4,11c-0.1,0.4-0.1,0.4,0.3,0.5c2.4,0.5,4.8,1,7.2,1.3c1.5,0.2,3,0.4,4.5,0.6C59,107.1,59.8,107.2,60.6,107.3z
	 M115.3,75.5c1.9-4.4,3.5-8.8,5-13.4c-4.7-1.1-9.4-1.9-14.2-2.5c3.3,5.2,6.3,10.4,9.2,15.8C115.2,75.4,115.2,75.4,115.3,75.5z
	 M92.4,51.7c-0.1-0.2-0.2-0.3-0.3-0.4c-0.8-1.1-1.6-2.1-2.4-3.1c-1.9-2.5-4-4.8-6.1-7.2c-0.4-0.4-0.3-0.4-0.6,0
	c-0.9,0.9-1.7,1.9-2.5,2.9c-2.1,2.4-4.2,5-6.1,7.5c-0.1,0.1-0.2,0.2-0.1,0.3c3-0.1,6-0.2,9.1-0.2C86.3,51.5,89.3,51.6,92.4,51.7z
	 M60.4,59.7c-0.1-0.1-0.2,0-0.3,0c-1.8,0.2-3.6,0.5-5.3,0.8c-2.7,0.4-5.3,0.9-8,1.5c-0.5,0.1-0.5,0.1-0.3,0.6
	c1.4,4.3,2.9,8.5,4.7,12.7c0,0.1,0,0.2,0.2,0.3C54.1,70.1,57.2,64.8,60.4,59.7z"/>
<path class="st0" d="M83.2,69.3c7.7,0,13.9,6.3,13.9,13.9c0,7.7-6.3,13.9-14,13.9c-7.7,0-13.9-6.3-13.9-14
	C69.3,75.5,75.6,69.2,83.2,69.3z"/>
</svg>
