<?xml version="1.0" encoding="utf-8"?>
<!-- Generator: Adobe Illustrator 26.5.0, SVG Export Plug-In . SVG Version: 6.00 Build 0)  -->
<svg version="1.1" id="Layer_1" xmlns="http://www.w3.org/2000/svg" xmlns:xlink="http://www.w3.org/1999/xlink" x="0px" y="0px"
	 viewBox="0 0 100 100" style="enable-background:new 0 0 100 100;" xml:space="preserve">
<style type="text/css">
	.st0{fill:#764ABC;}
</style>
<g>
	<path class="st0" d="M68.9,68.1c3.6-0.4,6.4-3.5,6.3-7.3c-0.1-3.8-3.3-6.8-7-6.8h-0.3c-3.9,0.1-6.9,3.4-6.8,7.3
		c0.1,1.9,0.9,3.5,2,4.6c-4.3,8.4-10.8,14.5-20.5,19.6c-6.6,3.5-13.5,4.8-20.4,3.9c-5.6-0.8-10-3.3-12.8-7.4c-4-6.1-4.4-12.8-1-19.4
		c2.4-4.8,6.1-8.3,8.5-10c-0.5-1.6-1.3-4.4-1.6-6.4C-2.7,59.5-0.8,77.2,4.7,85.6c4.1,6.3,12.5,10.1,21.8,10.1c2.5,0,5-0.3,7.5-0.9
		C49.9,91.7,62.1,82.2,68.9,68.1z"/>
	<path class="st0" d="M90.9,52.6c-9.5-11.1-23.5-17.3-39.5-17.3h-2c-1.1-2.3-3.5-3.8-6.1-3.8H43c-3.9,0.1-6.9,3.4-6.8,7.3
		c0.1,3.8,3.3,6.8,7,6.8h0.3c2.8-0.1,5.1-1.9,6.1-4.3h2.3c9.5,0,18.5,2.8,26.6,8.1c6.3,4.1,10.8,9.5,13.3,16
		c2.1,5.3,2,10.4-0.3,14.8c-3.5,6.6-9.4,10.3-17.1,10.3c-5,0-9.8-1.5-12.3-2.6c-1.4,1.3-3.9,3.3-5.6,4.5c5.4,2.5,10.9,3.9,16.1,3.9
		c12,0,20.9-6.6,24.3-13.3C100.6,75.7,100.3,63.2,90.9,52.6z"/>
	<path class="st0" d="M27.4,70.2c0.1,3.8,3.3,6.8,7,6.8h0.3c3.9-0.1,6.9-3.4,6.8-7.3c-0.1-3.8-3.3-6.8-7-6.8h-0.3
		c-0.3,0-0.6,0-0.9,0.1c-5.1-8.5-7.3-17.8-6.5-27.8c0.5-7.5,3-14,7.4-19.4c3.6-4.6,10.6-6.9,15.4-7c13.3-0.3,18.9,16.3,19.3,22.9
		c1.6,0.4,4.4,1.3,6.3,1.9C73.6,13.5,61.1,3,49,3c-11.3,0-21.6,8.1-25.8,20.1c-5.8,16-2,31.4,5,43.5C27.7,67.5,27.3,68.9,27.4,70.2z
		"/>
</g>
</svg>
