<?xml version="1.0" encoding="utf-8"?>
<!-- Generator: Adobe Illustrator 26.5.0, SVG Export Plug-In . SVG Version: 6.00 Build 0)  -->
<svg version="1.1" id="a" xmlns="http://www.w3.org/2000/svg" xmlns:xlink="http://www.w3.org/1999/xlink" x="0px" y="0px"
	 width="634.8px" height="634.8px" viewBox="0 0 634.8 634.8" enable-background="new 0 0 634.8 634.8" xml:space="preserve">
<path fill="#8AB9F1" d="M318.1,4c172.2,0.2,312.8,141.1,312.8,313.5c0,173.4-141.5,314.2-315.2,313.5C143.6,630.3,3.8,489,4.2,316.2
	C4.6,143.8,145.4,3.8,318.1,4z M35.5,314.5c-3.6,153.1,122.9,282.5,279,285.4c153.5,2.9,282.1-123.1,285.2-279.5
	c3.1-153.7-121.9-281.3-279.2-285.1C167.4,31.6,39.2,157.2,35.5,314.5z"/>
<path fill="#8AB9F1" d="M371.8,317.5c-31.6-27.7-61.4-53.9-91.2-80.1c-6.1-5.4-14.1-9.8-17.7-16.5c-3.5-6.5-2.5-15.4-3.5-23.3
	c8,0.2,18.2-2.5,23.7,1.3c15.9,11.2,29.9,25.1,44.6,37.9c24.5,21.4,48.9,43,73.5,64.3c12.7,11,12.8,21.5,0.1,32.5
	c-38.7,33.7-76.8,68-116.2,100.7c-5.5,4.6-16.9,2.1-25.6,2.9c2.1-9,1.3-21.1,6.9-26.3C300.1,379.5,335.3,349.6,371.8,317.5z"/>
</svg>
