<svg width="0" height="0" class="hidden">
  <symbol version="1.1" id="swipe_genture_icon" xmlns="http://www.w3.org/2000/svg" xmlns:xlink="http://www.w3.org/1999/xlink" x="0px" y="0px" enable-background="new 0 0 38 36" xml:space="preserve" viewBox="0 0 38 36">
    <path  d="M14.3,22.7c0-1.4,0-2.6,0-3.9c0-2.1,0-4.2,0-6.3c0-1.6,1-2.9,2.5-3.2c2-0.4,3.8,1,3.8,3.1c0,1.8,0,3.6,0,5.4
	c0,0.3,0.1,0.4,0.4,0.4c1.9,0.5,3.9,1,5.8,1.4c1.6,0.4,2.6,1.6,2.6,3.3c0,1.5,0,2.9,0,4.4c-0.1,1.8-0.8,3.4-1.9,4.7
	c-0.2,0.2-0.2,0.4-0.2,0.7c0,0.4,0,0.9,0,1.3c0,0.7-0.4,1.1-1.1,1.1c-3.5,0-7.1,0-10.6,0c-0.7,0-1.1-0.4-1.1-1.1c0-0.4,0-0.9,0-1.3
	c0-0.2-0.1-0.4-0.2-0.5c-1.9-1.9-3.8-3.8-5.7-5.7c-0.5-0.5-0.6-1-0.5-1.6c0.4-2.4,3-3.7,5.1-2.7C13.4,22.2,13.8,22.4,14.3,22.7z
	 M25.1,33c0-0.3,0-0.5,0-0.8c0-0.5,0.1-0.9,0.5-1.3c1-1.1,1.6-2.3,1.6-3.8c0.1-1.4,0-2.8,0-4.2c0-0.8-0.3-1.2-1.1-1.4
	c-2.2-0.6-4.4-1.1-6.7-1.7c-0.6-0.2-0.9-0.5-0.9-1.1c0-0.3,0-0.5,0-0.8c0-1.8,0-3.7,0-5.5c0-0.6-0.3-1-0.8-1.2
	c-0.8-0.2-1.5,0.3-1.5,1.2c0,3.9,0,7.8,0,11.6c0,1-0.7,1.5-1.7,1c-0.8-0.4-1.6-0.8-2.4-1.2c-0.9-0.4-1.8-0.1-2.2,0.8
	c-0.1,0.2-0.1,0.4,0.1,0.6c1.9,1.9,3.9,3.9,5.8,5.8c0.3,0.3,0.5,0.6,0.4,1.1c0,0.3,0,0.6,0,0.9C19.3,33,22.2,33,25.1,33z"></path>
    <path  d="M33.6,8.1c-7.6-7.3-20.1-7.5-28,0c0.1,0,0.3,0,0.4,0c0.6,0,1.1,0,1.7,0c0.6,0,0.9,0.4,1,0.9
	c0.1,0.5-0.2,1-0.7,1.1c-0.1,0-0.3,0-0.5,0c-1.3,0-2.7,0-4,0c-0.8,0-1.1-0.4-1.1-1.1c0-1.4,0-2.8,0-4.1c0-0.8,0.7-1.2,1.4-1
	c0.4,0.1,0.7,0.5,0.7,1c0,0.5,0,1,0,1.6c4.4-3.9,9.4-5.9,15.3-5.9c5.8,0,10.9,2,15.2,5.9c0-0.6,0-1,0-1.5c0-0.7,0.4-1.2,1-1.2
	c0.6,0,1,0.5,1,1.2c0,1.3,0,2.7,0,4c0,0.7-0.4,1.1-1.1,1.1c-1.4,0-2.8,0-4.2,0c-0.8,0-1.3-0.8-0.9-1.5c0.2-0.4,0.6-0.5,1-0.5
	C32.2,8.1,32.9,8.1,33.6,8.1z"></path>
  </symbol>
</svg>