<?xml version="1.0" encoding="utf-8"?>
<!-- Generator: Adobe Illustrator 26.5.0, SVG Export Plug-In . SVG Version: 6.00 Build 0)  -->
<svg version="1.1" id="Layer_1" xmlns="http://www.w3.org/2000/svg" xmlns:xlink="http://www.w3.org/1999/xlink" x="0px" y="0px"
	 viewBox="0 0 100 100" style="enable-background:new 0 0 100 100;" xml:space="preserve">
<style type="text/css">
	.st0{fill:#3178C6;}
	.st1{fill-rule:evenodd;clip-rule:evenodd;fill:#FFFFFF;}
</style>
<path class="st0" d="M13,3.8h73.5c4.9,0,8.9,4,8.9,8.9v73.5c0,4.9-4,8.9-8.9,8.9H13c-4.9,0-8.9-4-8.9-8.9V12.7
	C4.1,7.8,8.1,3.8,13,3.8z"/>
<path class="st0" d="M13,4.3h73.5c4.9,0,8.9,4,8.9,8.9v73.5c0,4.9-4,8.9-8.9,8.9H13c-4.9,0-8.9-4-8.9-8.9V13.3
	C4.1,8.3,8.1,4.3,13,4.3z"/>
<path class="st1" d="M60.6,76.5v8.9c1.5,0.7,3.2,1.3,5.2,1.7c2,0.4,4.1,0.6,6.3,0.6c2.1,0,4.2-0.2,6.1-0.6c1.9-0.4,3.6-1.1,5.1-2
	c1.5-0.9,2.6-2.2,3.4-3.7c0.8-1.5,1.3-3.4,1.3-5.6c0-1.6-0.2-3-0.7-4.3s-1.2-2.3-2.1-3.3c-0.9-0.9-2-1.8-3.3-2.6
	c-1.3-0.8-2.7-1.5-4.3-2.1c-1.2-0.5-2.2-1-3.2-1.4c-0.9-0.5-1.7-0.9-2.4-1.4c-0.7-0.5-1.2-1-1.5-1.5C70.1,58.6,70,58,70,57.4
	c0-0.6,0.2-1.2,0.5-1.7c0.3-0.5,0.8-0.9,1.3-1.3c0.6-0.4,1.3-0.6,2.1-0.8c0.8-0.2,1.8-0.3,2.8-0.3c0.7,0,1.5,0.1,2.4,0.2
	c0.8,0.1,1.7,0.3,2.5,0.5c0.8,0.2,1.7,0.5,2.4,0.9c0.8,0.4,1.5,0.8,2.2,1.2v-8.3c-1.4-0.5-2.8-0.9-4.5-1.2c-1.6-0.3-3.5-0.4-5.5-0.4
	c-2.1,0-4.1,0.2-6,0.7s-3.6,1.2-5,2.1c-1.4,1-2.6,2.2-3.4,3.7c-0.8,1.5-1.3,3.3-1.3,5.4c0,2.7,0.8,4.9,2.3,6.8
	c1.5,1.9,3.9,3.5,7,4.8c1.2,0.5,2.4,1,3.4,1.5c1.1,0.5,2,1,2.7,1.5c0.8,0.5,1.4,1.1,1.8,1.7c0.4,0.6,0.7,1.3,0.7,2.1
	c0,0.6-0.1,1.1-0.4,1.6c-0.3,0.5-0.7,0.9-1.3,1.3c-0.6,0.4-1.3,0.6-2.1,0.9c-0.8,0.2-1.8,0.3-3,0.3c-1.9,0-3.9-0.3-5.8-1
	C64,78.8,62.3,77.8,60.6,76.5L60.6,76.5z M45.6,54.5h11.5v-7.3H25.2v7.3h11.4v32.6h9.1V54.5z"/>
</svg>
