<?xml version="1.0" encoding="utf-8"?>
<!-- Generator: Adobe Illustrator 26.5.0, SVG Export Plug-In . SVG Version: 6.00 Build 0)  -->
<svg version="1.1" id="Layer_1" xmlns="http://www.w3.org/2000/svg" xmlns:xlink="http://www.w3.org/1999/xlink" x="0px" y="0px"
	 width="489px" height="320px" viewBox="0 0 489 320" enable-background="new 0 0 489 320" xml:space="preserve">
<rect x="-5.8" y="-7" fill="#FFFFFF" width="500" height="334"/>
<g id="HTMIIo_00000061451677621138461910000004961593250397434010_">
	<g>
		<path d="M285.7,119.5c-0.7,0.9-1.4,0.3-2.2-0.1c-13.2-7.7-26.6-15.3-39.8-23c-4.5-2.6-9-5.3-13.6-7.8c-1.6-0.9-2-1.8-1-3.4
			c10.3-17.7,20.5-35.4,30.7-53.2c1.2-2.1,2.3-1.3,3.7-0.5c14.4,8.3,28.8,16.6,43.2,25c3.1,1.8,6.2,3.7,9.4,5.4
			c1.7,0.9,1.9,1.7,1,3.4c-7.8,13.5-15.7,27.1-23.5,40.6c-2.4,4.1-4.8,8.3-7.2,12.4C286.2,118.6,285.9,119,285.7,119.5z M272.6,75.2
			c-0.3-0.3-0.7-0.5-1.1-0.7c-8.3-4.8-16.6-9.5-24.8-14.4c-1.3-0.7-1.9-0.4-2.5,0.8c-4.7,8.2-9.4,16.4-14.2,24.6
			c-0.8,1.3-0.4,1.8,0.8,2.4c8.3,4.7,16.6,9.5,24.8,14.4c1.3,0.8,2.4,0.9,3.9,0.4c12.9-3.5,25.9-6.9,38.8-10.4c0.7-0.2,2.1,0,1.8-1
			c-0.2-0.9-1.4-0.5-2.3-0.3c-0.2,0-0.5,0.1-0.7,0.2c-7.1,1.9-14.3,3.8-21.4,5.7c-5.3,1.4-10.6,2.8-15.9,4.2c-0.4,0.1-1.1,0.4-1.3,0
			c-0.2-0.7,0.6-0.7,1-0.9c0.4-0.2,0.9-0.3,1.3-0.4c11.3-3,22.6-6.1,34-9.1c0.9-0.2,2.7-0.3,2.5-1c-0.5-1.4-2-0.5-3-0.3
			c-10.8,2.8-21.4,5.7-32.2,8.6c-0.7,0.2-1.8,1-2.1,0c-0.2-0.6,1.2-0.7,1.9-0.8c10.4-2.8,20.7-5.6,31-8.4c0.6-0.2,1.7-0.1,1.6-0.9
			c-0.2-0.9-1.2-0.6-2-0.4c-0.6,0.1-1.2,0.3-1.8,0.5c-8.7,2.4-17.4,4.7-26.2,7c-0.7,0.2-1.3,0.4-2,0.5c-0.3,0.1-0.8,0.3-0.9-0.2
			c0-0.1,0.3-0.4,0.6-0.5c0.5-0.2,1-0.3,1.6-0.4c8.7-2.3,17.2-4.6,25.9-6.9c0.7-0.2,2.2-0.2,2-0.9c-0.3-1.3-1.7-0.6-2.6-0.4
			c-0.3,0.1-0.7,0.2-1.1,0.3c-7.7,2.1-15.5,4.2-23.2,6.2c-0.5,0.1-1.3,0.6-1.5,0.1c-0.2-0.8,0.8-0.7,1.3-0.8c7.5-2,15-4,22.6-6.1
			c0.7-0.2,2-0.2,1.9-0.8c-0.3-1-1.5-0.8-2.4-0.5c-0.3,0.1-0.7,0.2-1.1,0.3c-6.3,1.7-12.6,3.4-19,5c-0.6,0.2-1.5,0.8-1.7,0
			c-0.2-0.6,1-0.6,1.7-0.8c5.8-1.6,11.6-3.1,17.4-4.7c0.8-0.2,2.5-0.3,2.3-1c-0.4-1.3-1.8-0.6-2.8-0.3c-5.2,1.4-10.4,2.8-15.7,4.2
			c-0.4,0.1-1.1,0.5-1.3,0c-0.2-0.7,0.6-0.7,1.1-0.8c4.8-1.3,9.7-2.6,14.5-3.9c0.5-0.2,1.5,0,1.3-0.9c-0.1-0.7-1-0.7-1.6-0.5
			c-0.6,0.1-1.2,0.3-1.8,0.5c-3.5,1-7,1.9-10.5,2.8c-0.4,0.1-1.2,0.4-1.3,0c-0.2-0.7,0.6-0.7,1.1-0.8c3.3-0.9,6.5-1.7,9.8-2.7
			c0.5-0.2,1.5-0.1,1.4-0.9c-0.2-0.8-1.1-0.7-1.8-0.5c-1.5,0.4-3,0.9-4.5,1.2c-1.5,0.3-2.9,1.4-4.5,0.7c1.2-1,2.8-0.9,4.3-1.5
			c1.2-0.5,3.7-0.7,3.5-1.4c-0.8-1.7-2.5,0-3.8,0c-0.8,0-2.3,0.8-2.3,0.3c0-1.1,1.4-0.7,2.2-1.1c0.5-0.3,1.5-0.1,1.5-0.7
			c0-0.7-0.8-0.8-1.4-0.8C273,76.2,272.7,75.9,272.6,75.2z M259,104.1c1.1,1,2.1,0.5,3,0.3c11.8-3.1,23.5-6.3,35.2-9.4
			c0.6-0.2,1.2-0.3,1.7-0.7c0.3-0.2,0.6-0.7,0.6-0.9c-0.1-0.5-0.6-0.3-0.9-0.3c-0.4,0-0.7,0.2-1.1,0.3c-9.4,2.5-18.8,5-28.1,7.5
			c-3.1,0.8-6.2,1.7-9.4,2.6C259.6,103.6,259,103.6,259,104.1z M261.9,105.8c1,0.8,1.9,0.4,2.8,0.2c6.7-1.8,13.5-3.6,20.2-5.4
			c3.7-1,7.3-2,10.9-2.9c0.9-0.3,2.2-0.4,2-1.5c-0.3-1-1.4-0.1-2.1,0c-6.6,1.7-13.2,3.5-19.9,5.3c-4.3,1.2-8.6,2.3-12.9,3.5
			C262.6,105.1,261.8,105.1,261.9,105.8z M296,100c0.1-0.4,0.4-0.8,0.3-1.1c-0.1-0.5-0.7-0.2-1-0.1c-2.8,0.7-5.7,1.5-8.5,2.2
			c-6.9,1.8-13.7,3.6-20.5,5.5c-0.5,0.2-1.7,0-1.4,1c0.2,0.7,1.2,0.6,1.9,0.4c0.3,0,0.6-0.2,0.9-0.2c8.9-2.4,17.8-4.8,26.8-7.2
			C295,100.3,295.5,100.1,296,100z M268.1,109.5c0.5,0.3,1.1,0.1,1.7,0c7.9-2.1,15.8-4.2,23.6-6.3c0.7-0.2,1.6-0.6,1.3-1.3
			c-0.3-1-1.2-0.2-1.7-0.1c-7.8,2-15.6,4.2-23.4,6.3c-0.5,0.2-1,0.3-1.5,0.5C267.5,108.7,267.6,109,268.1,109.5z M292.9,105.1
			c0-0.1,0.3-0.4,0.2-0.6c-0.3-0.5-0.8-0.2-1.2-0.1c-6.9,1.8-13.7,3.7-20.5,5.5c-0.4,0.1-1.1,0-1,0.7c0,0.3,0.7,0.6,1.1,0.6
			c0.4,0.1,0.9-0.1,1.3-0.2c6.1-1.7,12.2-3.3,18.3-4.9C291.7,105.9,292.4,105.8,292.9,105.1z M291.2,108.2c0.2-0.3,0.4-0.7,0.4-0.9
			c-0.2-0.5-0.7-0.3-1-0.2c-5.5,1.5-11,2.9-16.5,4.4c-0.4,0.1-1.1,0.1-0.9,0.7c0.1,0.3,0.7,0.5,1.2,0.6c0.3,0.1,0.7-0.1,1.1-0.2
			c4.7-1.2,9.4-2.5,14.1-3.8C290.1,108.7,290.7,108.5,291.2,108.2z M276.1,114c0.7,0.5,1.3,0.4,2,0.2c3.4-0.9,6.7-1.8,10-2.7
			c0.5-0.1,1-0.4,1.4-0.7c0.2-0.1,0.3-0.6,0.3-0.8c-0.1-0.3-0.5-0.3-0.8-0.2c-4.1,1.1-8.3,2.2-12.5,3.3
			C276.3,113.3,275.6,113.4,276.1,114z M288.1,112.6c-0.2,0-0.5,0-0.7,0.1c-2.6,0.7-5.2,1.3-7.8,2c-0.3,0.1-0.9,0.1-0.7,0.7
			c0,0.4,0.5,0.6,0.9,0.6c2.7-0.3,5.4-1.2,8-2C288.1,113.9,288.5,113.2,288.1,112.6z M282.1,117.6c1.4,0.3,2.8-0.3,4.2-1
			c0.3-0.2,0.7-0.7,0.4-1.1c0-0.1-0.7,0-1,0.1c-1.1,0.3-2.2,0.6-3.4,0.9C281.8,116.6,281.4,116.8,282.1,117.6z"/>
		<path d="M287.1,179.4c-12.9,12.9-33.8,12.9-46.7,0.1c-13-12.9-12.9-34,0.1-47c12.8-12.8,33.9-12.7,46.7,0.2
			C300.1,145.5,300,166.5,287.1,179.4z M241,133.4c-4,4-6.7,8.6-8.2,14c-2.1,7.7-1.4,15.1,1.8,22.4c0.8,1.9,1.7,2.2,3.4,1
			c3.9-2.4,7.8-4.6,11.8-6.9c1.3-0.7,1.7-2.8,3.8-2.3c0.1,0,0.4-0.3,0.5-0.4c0.1-0.4-0.3-0.5-0.6-0.5c-0.9-0.3-1.8-0.5-2.7-0.7
			c-0.3-0.1-0.7-0.2-0.5-0.6c0-0.1,0.6-0.2,0.8-0.1c1.5,0.3,3,0.7,4.5,1.1c0.5,0.1,1.2-0.2,1.3-0.7c0.1-0.5-0.6-0.5-1-0.6
			c-1.7-0.5-3.4-0.9-5.1-1.4c-0.3-0.1-0.8-0.2-0.7-0.7c0-0.1,0.5-0.2,0.8-0.1c0.7,0.1,1.3,0.3,2,0.5c1.7,0.5,3.4,0.9,5.2,1.3
			c0.7,0.2,1.6,0,1.7-0.7c0.1-0.6-0.8-0.5-1.3-0.7c-2.4-0.7-4.7-1.3-7.1-2c-0.5-0.1-1.3,0-1.2-0.7c0.2-0.7,0.9-0.2,1.4-0.1
			c3,0.8,6.1,1.6,9.1,2.4c0.6,0.2,1.4,0.3,1.6-0.4c0.3-0.9-0.7-0.8-1.3-0.9c-3.2-0.9-6.4-1.7-9.6-2.6c-0.4-0.1-1.1-0.1-1-0.7
			c0.2-0.6,0.8-0.2,1.2-0.1c3.5,0.9,7,1.9,10.5,2.8c0.6,0.2,1.2,0.3,1.8,0.4c0.5,0.1,1.2,0,1.3-0.6c0-0.6-0.6-0.6-1-0.7
			c-1.7-0.5-3.4-0.9-5.1-1.4c-2.4-0.7-4.7-1.3-7.1-1.9c-0.3-0.1-0.7-0.2-0.6-0.5c0-0.4,0.5-0.3,0.8-0.3c0.7,0.1,1.3,0.3,2,0.5
			c4,1.1,8.1,2.1,12.1,3.3c0.7,0.2,1.7,0.3,1.9-0.4c0.3-1-0.9-0.8-1.4-1c-4.3-1.2-8.6-2.4-12.9-3.5c-0.5-0.1-1.4-0.1-1.3-0.7
			c0.2-0.6,1-0.2,1.4,0c4.7,1.3,9.5,2.6,14.3,3.8c0.6,0.2,1.2,0.3,1.8,0.3c0.4,0,1-0.2,1-0.7c0-0.5-0.5-0.4-0.9-0.5
			c-2.7-0.7-5.4-1.4-8-2.2c-2.5-0.7-4.9-1.3-7.4-2c-0.3-0.1-0.9-0.1-0.7-0.7c0-0.1,0.6-0.1,0.8-0.1c1.4,0.3,2.8,0.7,4.2,1.1
			c4.1,1.1,8.2,2.2,12.3,3.3c0.8,0.2,1.9,0.5,2.2-0.5c0.2-0.6-1-0.7-1.6-0.8c-4.8-1.3-9.7-2.6-14.5-3.9c-0.5-0.1-1.4-0.1-1.2-0.7
			s0.9-0.2,1.4-0.1c5.4,1.4,10.8,2.8,16.1,4.3c1.2,0.3,2.2,0.2,3.3-0.4c4.2-2.5,8.5-5,12.8-7.4c1.6-0.9,1.4-1.7,0.5-3
			C278.9,121.2,255.2,119,241,133.4z"/>
		<path d="M209,172.1c-1.1,1.1-1.6-0.1-2-0.8c-2.3-3.9-4.6-7.9-6.8-11.8c-8-13.8-15.9-27.6-23.9-41.4c-1.2-2-1.1-2.2,1.3-2.4
			c23-1.4,46-2.7,69-4.1c0.6,0,1.3-0.3,1.7,0.3c0.4,0.7-0.3,1.1-0.7,1.6c-12.8,19.4-25.6,38.7-38.3,58
			C209.2,171.7,209.1,171.9,209,172.1z M227.9,141.7c0.1-0.1,0.2-0.3,0.3-0.3c6.1-9.2,12.1-18.4,18.2-27.6c1-1.5-0.1-1.3-1-1.2
			c-10.5,0.6-21.1,1.3-31.6,1.9c-1.2,0.1-1.7,0.5-2,1.7c-1.1,4.3-2.3,8.7-3.4,12.9c-1.2,4.4-2.4,8.8-3.5,13.2
			c-0.1,0.4-0.4,1,0.2,1.2c0.6,0.3,1-0.1,1.2-0.7c0.2-0.5,0.3-1,0.4-1.6c2.1-7.7,4.1-15.3,6.2-23c0.1-0.4,0.1-1.1,0.6-1
			c0.6,0.1,0.2,0.7,0.2,1.1c-0.1,0.5-0.3,1-0.4,1.6c-1.9,7.1-3.8,14.3-5.7,21.5c-0.2,0.6-0.9,1.7,0.1,2c1.2,0.3,1-1,1.3-1.7
			c0.2-0.4,0.3-0.9,0.4-1.3c1.7-6.3,3.4-12.5,5-18.7c0.1-0.6,0.2-1.7,0.7-1.5c0.9,0.3,0.2,1.2,0,1.8c-1.7,6.6-3.5,13.1-5.2,19.7
			c-0.1,0.6-0.8,1.4,0.2,1.7c1,0.3,1-0.7,1.2-1.3c0.1-0.3,0.1-0.6,0.2-0.9c1.5-5.6,3-11.2,4.5-16.7c0.1-0.5,0.1-1.4,0.7-1.3
			c0.7,0.2,0.1,1,0.1,1.6c0,0.4-0.2,0.7-0.3,1.1c-1.4,5.3-2.8,10.6-4.2,15.9c-0.2,0.5-0.7,1.3,0.1,1.6c1,0.3,1-0.6,1.3-1.3
			c0.2-0.6,0.3-1.2,0.5-1.8c1.2-4.5,2.4-8.9,3.6-13.4c0.1-0.4,0.1-1.2,0.6-1.1c0.8,0.2,0.3,0.9,0.2,1.3c-0.7,2.7-1.4,5.4-2.1,8.1
			c-0.7,2.3-1.2,4.6-1.8,7c-0.1,0.3-0.3,0.8,0.2,1c0.5,0.3,0.9-0.1,1.1-0.6c0.3-0.7,0.5-1.4,0.7-2.2c1-3.6,1.9-7.1,2.9-10.7
			c0.1-0.4,0.1-1.1,0.7-1c0.5,0.2,0.2,0.8,0.1,1.2c-1,3.8-2,7.6-3,11.4c-0.1,0.6-0.8,1.4,0.2,1.7c1,0.3,1-0.7,1.2-1.3
			c0.8-3,1.6-6,2.4-8.9c0.1-0.5,0.1-1.4,0.7-1.3c0.8,0.2,0.2,1,0.1,1.6c-0.7,2.8-1.5,5.5-2.2,8.3c-0.1,0.5-0.8,1.3,0.1,1.6
			c0.9,0.3,1.1-0.6,1.3-1.3c0.6-2.2,1.2-4.3,1.8-6.5c0.1-0.3,0.1-0.9,0.6-0.8c0.4,0.1,0.3,0.6,0.2,1c-0.5,2.1-1.1,4.2-1.7,6.3
			c-0.1,0.4-0.4,1,0.2,1.2s1-0.1,1.2-0.7c0.3-1,0.5-2.1,0.9-3.1c0.2-0.7,0-1.9,1-1.7c0.5,0.1,0,1.2-0.1,1.9
			c-0.2,0.9-0.5,1.8-0.7,2.7c-0.1,0.3-0.3,0.8,0.3,0.9c0.4,0.1,0.8-0.1,1-0.4c0.2-0.4,0.3-0.9,0.4-1.3c0.1-0.4,0.1-1.2,0.6-1.1
			c0.8,0.1,0.2,0.8,0.2,1.3c0,0.5-0.5,1.1,0.2,1.4C227.2,142.4,227.6,142.2,227.9,141.7z M210.8,116.6c-1.2,1.1-2.1,2.3-2.5,3.8
			c-1.9,7.1-3.8,14.3-5.7,21.5c-0.1,0.6-0.8,1.4,0.2,1.7c0.9,0.3,1-0.7,1.2-1.3c0.9-3.3,1.7-6.5,2.7-9.8
			C208,127.2,209.4,121.9,210.8,116.6z M206.9,122.5c-0.1,0-0.3-0.1-0.4-0.2c-0.7,1.1-1.5,2.1-1.9,3.4c-1.6,5.5-3,11.1-4.5,16.7
			c-0.1,0.4-0.6,1.1,0.2,1.3c0.8,0.2,1-0.4,1.2-1.1c0.5-1.9,1-3.7,1.5-5.6C204.3,132.3,205.6,127.4,206.9,122.5z M203.1,127.9
			c-1.4,1.7-2.3,2.9-2.7,4.4c-0.9,3.4-1.8,6.7-2.7,10.1c-0.1,0.5-0.7,1.3,0.2,1.6c0.7,0.2,1-0.5,1.1-1.1
			C200.3,138,201.6,133.3,203.1,127.9z M199.1,134.1c-2.6,2.6-3,5.7-3.7,8.6c-0.1,0.5-0.5,1.1,0.3,1.3s1-0.5,1.1-1.1
			C197.5,140.1,198.2,137.3,199.1,134.1z"/>
		<path d="M274.1,147.1c-0.3,0-0.6,0-0.9-0.1c-4.4-1.2-8.8-2.3-13.1-3.5c-0.3-0.1-0.9-0.1-0.8-0.6c0.1-0.7,0.7-0.3,1.1-0.3
			c4.4,1.2,8.8,2.3,13.1,3.5c0.3,0.1,0.5,0.3,0.7,0.5C274.3,146.7,274.2,146.9,274.1,147.1z"/>
	</g>
</g>
<g id="HTMIIo_00000087412481691816441380000010508917369610063748_">
	<g>
		<path d="M235.9-6.6c-0.6,0.8-1.2,0.3-1.9-0.1c-11.3-6.5-22.6-13-33.8-19.5c-3.8-2.2-7.7-4.5-11.6-6.6c-1.4-0.8-1.7-1.5-0.9-2.9
			c8.8-15.1,17.5-30.1,26.1-45.2c1-1.8,1.9-1.1,3.1-0.4c12.3,7.1,24.5,14.1,36.7,21.2c2.7,1.6,5.3,3.1,8,4.6
			c1.4,0.8,1.6,1.5,0.8,2.9c-6.7,11.5-13.3,23-20,34.5c-2,3.5-4.1,7-6.1,10.5C236.4-7.3,236.1-7,235.9-6.6z M224.8-44.2
			c-0.3-0.2-0.6-0.4-1-0.6c-7-4.1-14.1-8.1-21.1-12.2c-1.1-0.6-1.6-0.3-2.1,0.7c-4,7-8,14-12.1,20.9c-0.7,1.1-0.3,1.5,0.7,2.1
			c7.1,4,14.1,8.1,21.1,12.2c1.1,0.7,2.1,0.7,3.3,0.4c11-3,22-5.9,33-8.9c0.6-0.1,1.8,0,1.6-0.9c-0.2-0.8-1.2-0.4-1.9-0.2
			c-0.2,0-0.4,0.1-0.6,0.1c-6.1,1.6-12.1,3.3-18.2,4.9c-4.5,1.2-9,2.4-13.5,3.6c-0.4,0.1-1,0.4-1.1,0c-0.2-0.6,0.5-0.6,0.9-0.7
			c0.4-0.1,0.7-0.2,1.1-0.3c9.6-2.6,19.2-5.2,28.9-7.8c0.8-0.2,2.3-0.3,2.1-0.9c-0.4-1.2-1.7-0.4-2.6-0.2
			c-9.1,2.4-18.2,4.9-27.4,7.3c-0.6,0.1-1.6,0.8-1.8,0c-0.2-0.5,1-0.6,1.6-0.7c8.8-2.4,17.6-4.7,26.4-7.1c0.5-0.1,1.5-0.1,1.3-0.7
			c-0.2-0.8-1-0.5-1.7-0.4c-0.5,0.1-1,0.3-1.5,0.4c-7.4,2-14.8,4-22.2,6c-0.6,0.1-1.1,0.3-1.7,0.4c-0.3,0.1-0.7,0.2-0.8-0.2
			c0-0.1,0.3-0.4,0.5-0.4c0.4-0.2,0.9-0.3,1.3-0.4c7.4-2,14.7-3.9,22-5.9c0.6-0.2,1.9-0.2,1.7-0.8c-0.3-1.1-1.4-0.5-2.2-0.3
			c-0.3,0.1-0.6,0.2-1,0.2c-6.6,1.8-13.2,3.6-19.7,5.3c-0.4,0.1-1.1,0.5-1.3,0.1c-0.2-0.7,0.7-0.6,1.1-0.7
			c6.4-1.7,12.8-3.4,19.2-5.2c0.6-0.1,1.7-0.2,1.6-0.7c-0.2-0.9-1.3-0.7-2-0.4c-0.3,0.1-0.6,0.2-0.9,0.3c-5.4,1.4-10.7,2.9-16.1,4.3
			c-0.5,0.1-1.3,0.7-1.5,0c-0.1-0.5,0.9-0.5,1.4-0.7c5-1.3,9.9-2.6,14.8-4c0.7-0.2,2.1-0.3,2-0.9c-0.3-1.1-1.6-0.5-2.4-0.3
			c-4.4,1.2-8.9,2.4-13.3,3.6c-0.3,0.1-0.9,0.4-1.1,0c-0.2-0.6,0.5-0.6,0.9-0.7c4.1-1.1,8.2-2.2,12.4-3.3c0.4-0.1,1.3,0,1.1-0.7
			c-0.1-0.6-0.9-0.6-1.3-0.4c-0.5,0.1-1,0.3-1.5,0.4c-3,0.8-6,1.6-8.9,2.4c-0.4,0.1-1,0.3-1.1,0c-0.2-0.6,0.5-0.6,0.9-0.7
			c2.8-0.8,5.6-1.5,8.3-2.3c0.4-0.1,1.3-0.1,1.2-0.7c-0.1-0.7-0.9-0.6-1.5-0.4c-1.3,0.3-2.5,0.7-3.8,1c-1.3,0.2-2.4,1.2-3.8,0.6
			c1-0.9,2.4-0.8,3.6-1.3c1-0.4,3.2-0.6,3-1.2c-0.7-1.5-2.1,0-3.3,0c-0.7,0-1.9,0.7-1.9,0.2c0-0.9,1.2-0.6,1.9-1
			c0.4-0.2,1.3-0.1,1.3-0.6c0-0.6-0.7-0.7-1.2-0.7C225.1-43.4,224.9-43.7,224.8-44.2z M213.2-19.6c0.9,0.9,1.8,0.4,2.6,0.2
			c10-2.7,20-5.3,29.9-8c0.5-0.1,1-0.3,1.4-0.6c0.2-0.1,0.5-0.6,0.5-0.8c-0.1-0.4-0.5-0.3-0.8-0.3c-0.3,0-0.6,0.2-0.9,0.3
			c-8,2.1-16,4.3-23.9,6.4c-2.6,0.7-5.3,1.4-8,2.2C213.7-20.1,213.2-20.1,213.2-19.6z M215.7-18.2c0.9,0.7,1.6,0.4,2.4,0.2
			c5.7-1.5,11.5-3.1,17.2-4.6c3.1-0.8,6.2-1.7,9.3-2.5c0.7-0.2,1.9-0.3,1.7-1.3c-0.2-0.8-1.2-0.1-1.8,0c-5.6,1.5-11.3,3-16.9,4.5
			c-3.7,1-7.3,2-11,3C216.3-18.8,215.6-18.8,215.7-18.2z M244.7-23.2c0.1-0.3,0.3-0.7,0.3-0.9c-0.1-0.4-0.6-0.2-0.8-0.1
			c-2.4,0.6-4.8,1.3-7.2,1.9c-5.8,1.6-11.7,3.1-17.5,4.7c-0.4,0.1-1.4,0-1.2,0.8c0.2,0.6,1,0.5,1.6,0.3c0.3,0,0.5-0.1,0.8-0.2
			c7.6-2,15.2-4.1,22.8-6.1C243.8-22.9,244.2-23.1,244.7-23.2z M220.9-15.1c0.4,0.3,0.9,0.1,1.4,0c6.7-1.8,13.4-3.6,20.1-5.4
			c0.6-0.2,1.3-0.5,1.1-1.1c-0.3-0.9-1-0.2-1.4-0.1c-6.6,1.7-13.3,3.6-19.9,5.3c-0.4,0.1-0.9,0.2-1.3,0.4
			C220.5-15.8,220.5-15.5,220.9-15.1z M242-18.8c0-0.1,0.2-0.4,0.1-0.5c-0.3-0.4-0.7-0.2-1-0.1c-5.8,1.6-11.6,3.1-17.5,4.7
			c-0.3,0.1-1,0-0.8,0.6c0,0.3,0.6,0.5,1,0.5c0.4,0.1,0.8-0.1,1.1-0.2c5.2-1.4,10.4-2.8,15.6-4.2C241-18.1,241.6-18.2,242-18.8z
			 M240.6-16.2c0.1-0.3,0.4-0.6,0.3-0.8c-0.1-0.4-0.6-0.3-0.8-0.1c-4.7,1.3-9.4,2.5-14.1,3.8c-0.3,0.1-1,0.1-0.8,0.6
			c0.1,0.2,0.6,0.4,1,0.5c0.3,0.1,0.6-0.1,1-0.1c4-1,8-2.1,12-3.2C239.7-15.7,240.1-16,240.6-16.2z M227.8-11.2
			c0.6,0.4,1.1,0.3,1.7,0.2c2.9-0.8,5.7-1.5,8.5-2.3c0.4-0.1,0.9-0.3,1.2-0.6c0.2-0.1,0.3-0.5,0.2-0.7c-0.1-0.3-0.4-0.2-0.7-0.1
			c-3.5,0.9-7.1,1.9-10.6,2.8C227.9-11.9,227.3-11.7,227.8-11.2z M237.9-12.4c-0.2,0-0.4,0-0.6,0.1c-2.2,0.6-4.4,1.1-6.6,1.7
			c-0.3,0.1-0.7,0.1-0.6,0.6c0,0.3,0.4,0.5,0.7,0.5c2.3-0.3,4.6-1,6.8-1.7C238-11.4,238.3-11.9,237.9-12.4z M232.9-8.2
			c1.2,0.2,2.4-0.3,3.6-0.8c0.3-0.1,0.6-0.6,0.4-1c0-0.1-0.6,0-0.9,0.1c-1,0.2-1.9,0.5-2.9,0.8C232.6-9,232.3-8.9,232.9-8.2z"/>
		<path d="M237.1,44.3c-11,11-28.7,11-39.7,0.1c-11.1-11-11-28.9,0.1-39.9c10.9-10.8,28.8-10.8,39.7,0.1
			C248.1,15.6,248.1,33.4,237.1,44.3z M197.9,5.2c-3.4,3.4-5.7,7.3-7,11.9c-1.8,6.5-1.2,12.8,1.6,19c0.7,1.6,1.4,1.9,2.9,0.9
			c3.3-2,6.7-3.9,10-5.8c1.1-0.6,1.5-2.4,3.3-1.9c0.1,0,0.4-0.2,0.4-0.3c0.1-0.4-0.3-0.4-0.5-0.4c-0.7-0.2-1.5-0.4-2.3-0.6
			c-0.2-0.1-0.6-0.2-0.4-0.5c0-0.1,0.5-0.2,0.7-0.1c1.3,0.3,2.6,0.6,3.8,0.9c0.4,0.1,1-0.1,1.1-0.6c0.1-0.4-0.5-0.4-0.9-0.5
			c-1.4-0.4-2.9-0.8-4.4-1.2c-0.3-0.1-0.7-0.1-0.6-0.6c0-0.1,0.4-0.1,0.7-0.1c0.6,0.1,1.1,0.3,1.7,0.4c1.4,0.4,2.9,0.8,4.4,1.1
			c0.6,0.1,1.4,0,1.5-0.6c0.1-0.5-0.7-0.4-1.1-0.6c-2-0.6-4-1.1-6-1.7c-0.4-0.1-1.1,0-1-0.6c0.1-0.6,0.8-0.2,1.2-0.1
			c2.6,0.7,5.2,1.4,7.8,2.1c0.5,0.1,1.2,0.3,1.4-0.3c0.2-0.7-0.6-0.7-1.1-0.8c-2.7-0.8-5.4-1.4-8.1-2.2c-0.3-0.1-1-0.1-0.8-0.6
			c0.1-0.5,0.7-0.1,1-0.1c3,0.8,6,1.6,8.9,2.4c0.5,0.1,1,0.3,1.5,0.3c0.4,0.1,1,0,1.1-0.5c0-0.5-0.5-0.5-0.9-0.6
			c-1.4-0.4-2.9-0.8-4.4-1.2c-2-0.6-4-1.1-6.1-1.6c-0.2-0.1-0.6-0.1-0.5-0.4c0-0.3,0.4-0.3,0.7-0.2c0.6,0.1,1.1,0.3,1.7,0.4
			c3.4,0.9,6.8,1.8,10.3,2.8c0.6,0.1,1.4,0.2,1.6-0.3c0.3-0.9-0.7-0.7-1.2-0.8c-3.7-1-7.3-2-11-3c-0.4-0.1-1.2-0.1-1.1-0.6
			c0.1-0.5,0.8-0.1,1.2,0c4,1.1,8.1,2.2,12.2,3.2c0.5,0.1,1,0.3,1.5,0.3c0.3,0,0.9-0.2,0.9-0.6s-0.4-0.4-0.7-0.4
			c-2.3-0.6-4.6-1.2-6.8-1.9c-2.1-0.6-4.2-1.1-6.3-1.7c-0.2-0.1-0.7-0.1-0.6-0.6c0-0.1,0.5-0.1,0.7-0.1c1.2,0.3,2.4,0.6,3.6,0.9
			c3.5,1,7,1.9,10.4,2.8c0.7,0.2,1.6,0.4,1.9-0.4c0.1-0.5-0.9-0.6-1.4-0.7c-4.1-1.1-8.2-2.2-12.4-3.3c-0.4-0.1-1.2-0.1-1-0.6
			c0.1-0.5,0.8-0.2,1.2-0.1c4.6,1.2,9.1,2.4,13.7,3.7c1,0.3,1.9,0.2,2.8-0.3c3.6-2.1,7.2-4.3,10.9-6.3c1.4-0.8,1.2-1.4,0.4-2.6
			C230.1-5.2,210-7,197.9,5.2z"/>
		<path d="M170.7,38.2c-1,1-1.3-0.1-1.7-0.7c-2-3.3-3.9-6.7-5.8-10C156.4,15.8,149.6,4,142.9-7.7c-1-1.7-1-1.9,1.1-2
			c19.5-1.2,39.1-2.3,58.7-3.5c0.5,0,1.1-0.3,1.5,0.2c0.3,0.6-0.3,0.9-0.6,1.4C192.7,4.8,181.8,21.2,171,37.7
			C170.9,37.8,170.8,38,170.7,38.2z M186.8,12.3c0.1-0.1,0.1-0.2,0.2-0.3c5.1-7.8,10.3-15.6,15.5-23.4c0.9-1.3-0.1-1.1-0.8-1
			c-9,0.5-17.9,1.1-26.9,1.6c-1,0.1-1.5,0.4-1.7,1.4c-0.9,3.7-2,7.4-2.9,11c-1,3.7-2,7.5-3,11.2c-0.1,0.3-0.4,0.8,0.1,1
			c0.5,0.2,0.9-0.1,1-0.6c0.1-0.4,0.2-0.9,0.4-1.3c1.8-6.5,3.5-13,5.3-19.5c0.1-0.3,0.1-1,0.5-0.9c0.5,0.1,0.2,0.6,0.1,1
			c-0.1,0.4-0.2,0.9-0.4,1.3c-1.6,6.1-3.3,12.1-4.8,18.2c-0.1,0.5-0.8,1.4,0.1,1.7c1,0.3,0.9-0.9,1.1-1.5c0.1-0.4,0.2-0.7,0.3-1.1
			c1.4-5.3,2.9-10.6,4.3-15.9c0.1-0.5,0.1-1.4,0.6-1.3c0.7,0.2,0.1,1,0,1.5c-1.4,5.6-3,11.1-4.4,16.7c-0.1,0.5-0.7,1.2,0.1,1.5
			c0.8,0.2,0.9-0.6,1-1.1c0.1-0.2,0.1-0.5,0.2-0.8c1.3-4.7,2.6-9.5,3.8-14.2c0.1-0.4,0.1-1.2,0.6-1.1c0.6,0.2,0.1,0.9,0.1,1.3
			c0,0.3-0.2,0.6-0.3,0.9c-1.2,4.5-2.4,9-3.6,13.5c-0.1,0.4-0.6,1.1,0.1,1.4c0.8,0.3,0.9-0.5,1.1-1.1c0.1-0.5,0.3-1,0.4-1.5
			c1-3.8,2-7.6,3-11.4c0.1-0.4,0.1-1,0.5-0.9c0.7,0.1,0.3,0.8,0.1,1.1c-0.6,2.3-1.2,4.6-1.8,6.8c-0.6,2-1,3.9-1.6,5.9
			c-0.1,0.3-0.2,0.7,0.2,0.9c0.4,0.2,0.8-0.1,0.9-0.5c0.2-0.6,0.4-1.2,0.6-1.9c0.8-3,1.6-6.1,2.4-9.1c0.1-0.3,0.1-1,0.6-0.8
			c0.4,0.1,0.2,0.7,0.1,1c-0.9,3.2-1.7,6.5-2.6,9.7c-0.1,0.5-0.7,1.2,0.1,1.5s0.9-0.6,1-1.1c0.7-2.6,1.4-5.1,2-7.6
			c0.1-0.4,0.1-1.2,0.6-1.1c0.7,0.2,0.1,0.9,0.1,1.3c-0.6,2.4-1.3,4.7-1.9,7c-0.1,0.4-0.7,1.1,0.1,1.3c0.7,0.2,0.9-0.5,1.1-1.1
			c0.5-1.9,1-3.7,1.5-5.5c0.1-0.3,0.1-0.8,0.5-0.7c0.4,0.1,0.2,0.5,0.1,0.8c-0.4,1.8-1,3.6-1.4,5.3c-0.1,0.3-0.4,0.8,0.1,1
			c0.5,0.2,0.9-0.1,1-0.6c0.2-0.9,0.4-1.8,0.7-2.7c0.2-0.6,0-1.6,0.8-1.5c0.4,0.1,0,1-0.1,1.6c-0.2,0.8-0.4,1.5-0.6,2.3
			c-0.1,0.3-0.2,0.7,0.3,0.8c0.4,0.1,0.7-0.1,0.8-0.4c0.1-0.4,0.2-0.7,0.4-1.1c0.1-0.3,0.1-1,0.5-0.9c0.7,0.1,0.2,0.7,0.2,1.1
			c0,0.4-0.4,0.9,0.2,1.2C186.2,12.9,186.5,12.7,186.8,12.3z M172.2-9c-1,0.9-1.8,1.9-2.1,3.2c-1.6,6.1-3.3,12.1-4.8,18.2
			c-0.1,0.5-0.7,1.2,0.1,1.5c0.8,0.3,0.9-0.6,1-1.1c0.8-2.8,1.5-5.6,2.3-8.3C169.9,0,171-4.5,172.2-9z M168.9-4
			c-0.1,0-0.2-0.1-0.4-0.1c-0.6,0.9-1.3,1.8-1.6,2.9c-1.4,4.7-2.6,9.4-3.8,14.2c-0.1,0.4-0.5,1,0.2,1.1c0.7,0.2,0.9-0.4,1-0.9
			c0.4-1.6,0.9-3.1,1.3-4.7C166.7,4.3,167.8,0.1,168.9-4z M165.7,0.5c-1.2,1.5-2,2.5-2.3,3.8c-0.8,2.9-1.6,5.7-2.3,8.6
			c-0.1,0.4-0.6,1.1,0.1,1.3c0.6,0.2,0.8-0.4,1-1C163.3,9.2,164.4,5.2,165.7,0.5z M162.3,5.8c-2.2,2.2-2.5,4.9-3.2,7.3
			c-0.1,0.4-0.4,1,0.3,1.1c0.7,0.2,0.8-0.4,1-1C160.9,10.9,161.5,8.6,162.3,5.8z"/>
		<path d="M226,16.9c-0.3,0-0.5,0-0.7-0.1c-3.7-1-7.4-2-11.1-3c-0.3-0.1-0.8-0.1-0.7-0.5c0.1-0.6,0.6-0.3,1-0.2c3.7,1,7.4,2,11.1,3
			c0.2,0.1,0.4,0.2,0.6,0.4C226.2,16.6,226.1,16.7,226,16.9z"/>
	</g>
</g>
<g id="HTMIIo_00000160898763262484009580000016866510415453992578_">
	<g>
		<path d="M361.4-22.4c0.1,0.8-0.5,0.8-1.1,1c-9.7,2.6-19.5,5.2-29.2,7.8c-3.3,0.9-6.6,1.7-9.9,2.7c-1.2,0.3-1.7,0.1-2.1-1.1
			c-3.4-13-6.9-26-10.4-39c-0.4-1.5,0.4-1.7,1.5-1.9c10.6-2.8,21.1-5.7,31.7-8.5c2.3-0.6,4.6-1.2,6.9-1.9c1.2-0.4,1.7-0.1,2,1.1
			c2.6,9.9,5.3,19.9,8,29.8c0.8,3,1.6,6.1,2.4,9.1C361.3-23.1,361.3-22.8,361.4-22.4z M334.8-37c-0.3,0-0.6,0.1-0.8,0.2
			c-6.1,1.6-12.1,3.3-18.2,4.9c-0.9,0.2-1.1,0.7-0.8,1.5c1.6,6,3.2,12,4.8,18c0.2,1,0.6,1,1.5,0.8c6.1-1.7,12.1-3.3,18.2-4.9
			c1-0.2,1.5-0.7,2-1.6c4.4-7.6,8.8-15.2,13.2-22.9c0.2-0.4,1-1,0.4-1.3c-0.5-0.3-0.9,0.4-1.2,0.9c-0.1,0.1-0.2,0.3-0.2,0.4
			c-2.4,4.2-4.9,8.4-7.3,12.6c-1.8,3.1-3.6,6.2-5.4,9.3c-0.2,0.2-0.3,0.7-0.6,0.6c-0.4-0.2,0-0.6,0.1-0.9c0.1-0.3,0.3-0.5,0.4-0.8
			c3.8-6.7,7.7-13.3,11.5-20c0.3-0.5,1.1-1.4,0.7-1.6c-0.9-0.4-1.2,0.7-1.5,1.3c-3.7,6.3-7.3,12.6-11,18.9c-0.2,0.4-0.4,1.3-1,1
			c-0.4-0.2,0.2-0.8,0.5-1.3c3.5-6.1,7-12.2,10.5-18.3c0.2-0.4,0.8-0.8,0.3-1.1c-0.5-0.3-0.8,0.3-1.1,0.7c-0.2,0.3-0.4,0.7-0.6,1.1
			c-3,5.1-5.9,10.3-8.9,15.4c-0.2,0.4-0.4,0.8-0.7,1.2c-0.1,0.2-0.2,0.5-0.5,0.3c-0.1,0,0-0.4,0-0.5c0.1-0.3,0.3-0.6,0.5-0.9
			c3-5.1,5.9-10.2,8.8-15.2c0.2-0.4,0.9-1.1,0.5-1.4c-0.7-0.4-1.1,0.5-1.4,1c-0.1,0.2-0.2,0.4-0.4,0.6c-2.6,4.6-5.3,9.1-7.9,13.7
			c-0.2,0.3-0.4,0.9-0.6,0.7c-0.5-0.3,0-0.7,0.2-1c2.5-4.4,5.1-8.9,7.6-13.3c0.2-0.4,0.8-1.1,0.5-1.3c-0.6-0.4-1.1,0.3-1.3,0.9
			c-0.1,0.2-0.2,0.4-0.4,0.6c-2.1,3.7-4.3,7.4-6.5,11.2c-0.2,0.4-0.3,1.1-0.8,0.8c-0.4-0.2,0.2-0.8,0.4-1.1c2-3.4,4-6.8,5.9-10.3
			c0.3-0.5,1-1.3,0.6-1.5c-0.8-0.4-1.1,0.6-1.5,1.2c-1.8,3.1-3.6,6.1-5.3,9.2c-0.1,0.2-0.3,0.7-0.6,0.6c-0.4-0.2,0-0.6,0.1-0.9
			c1.6-2.9,3.3-5.7,4.9-8.6c0.2-0.3,0.7-0.7,0.2-1c-0.4-0.2-0.8,0.2-1,0.5c-0.2,0.3-0.4,0.7-0.6,1.1c-1.2,2.1-2.4,4.1-3.6,6.2
			c-0.2,0.2-0.4,0.7-0.6,0.6c-0.4-0.2,0-0.6,0.1-0.9c1.1-1.9,2.2-3.8,3.3-5.8c0.2-0.3,0.6-0.8,0.2-1.1c-0.4-0.3-0.8,0.2-1.1,0.6
			c-0.5,0.9-1,1.8-1.5,2.6c-0.6,0.8-0.7,2-1.8,2.4c0.1-1.1,0.9-1.7,1.3-2.7c0.3-0.8,1.4-2.1,1-2.3c-1.2-0.4-1.2,1.1-1.8,1.8
			c-0.4,0.4-0.7,1.4-0.9,1.2c-0.5-0.5,0.3-1,0.5-1.5c0.1-0.4,0.6-0.7,0.4-1.1c-0.3-0.3-0.8,0-1,0.3C335.4-36.7,335.1-36.7,334.8-37z
			 M341.9-17.2c1,0,1.2-0.7,1.5-1.3c4-6.9,8-13.8,12-20.7c0.2-0.4,0.4-0.7,0.5-1.1c0-0.2,0-0.6-0.2-0.7c-0.3-0.2-0.4,0.1-0.6,0.3
			c-0.2,0.2-0.2,0.4-0.4,0.6c-3.2,5.5-6.4,11-9.5,16.5c-1.1,1.8-2.1,3.7-3.2,5.5C341.9-17.7,341.6-17.4,341.9-17.2z M344-17.8
			c0.8-0.1,1.1-0.7,1.4-1.2c2.3-4,4.6-8,6.9-11.9c1.3-2.1,2.5-4.3,3.7-6.4c0.3-0.5,0.8-1.2,0.2-1.6c-0.6-0.3-0.7,0.6-1,1
			c-2.3,3.9-4.5,7.8-6.8,11.7c-1.5,2.5-2.9,5.1-4.4,7.6C344-18.4,343.6-18,344-17.8z M357.1-36.3c-0.1-0.2-0.2-0.6-0.4-0.6
			c-0.3-0.2-0.4,0.2-0.5,0.4c-1,1.7-1.9,3.3-2.9,5c-2.3,4-4.7,8-7,12.1c-0.2,0.3-0.8,0.8-0.2,1.1c0.4,0.2,0.8-0.3,1.1-0.7
			c0.1-0.2,0.2-0.4,0.3-0.5c3-5.3,6.1-10.5,9.1-15.8C356.8-35.7,356.9-36,357.1-36.3z M348.6-18.9c0.4-0.1,0.6-0.4,0.8-0.8
			c2.7-4.7,5.4-9.3,8-13.9c0.2-0.4,0.4-1,0-1.2c-0.6-0.3-0.6,0.4-0.8,0.7c-2.7,4.6-5.3,9.2-8,13.8c-0.2,0.3-0.4,0.6-0.5,0.9
			C347.9-19,348.1-18.9,348.6-18.9z M358.1-32.5c0,0-0.1-0.3-0.2-0.4c-0.4-0.1-0.5,0.3-0.6,0.5c-2.3,4-4.7,8-7,12.1
			c-0.1,0.2-0.5,0.5-0.1,0.8c0.2,0.1,0.6-0.1,0.8-0.2c0.2-0.2,0.4-0.5,0.5-0.7c2.1-3.6,4.2-7.2,6.2-10.8
			C357.9-31.5,358.1-31.9,358.1-32.5z M358.7-30.2c-0.1-0.2-0.1-0.5-0.2-0.6c-0.3-0.2-0.4,0.2-0.5,0.4c-1.9,3.2-3.8,6.5-5.6,9.7
			c-0.1,0.2-0.5,0.6-0.1,0.8c0.2,0.1,0.6-0.1,0.8-0.3c0.2-0.1,0.3-0.4,0.4-0.6c1.6-2.8,3.2-5.5,4.8-8.3
			C358.5-29.5,358.6-29.9,358.7-30.2z M354.4-20.5c0.5-0.1,0.8-0.4,1.1-0.8c1.1-2,2.3-3.9,3.4-5.9c0.2-0.3,0.3-0.6,0.3-1
			c0-0.2-0.1-0.4-0.2-0.5c-0.2-0.1-0.4,0.1-0.4,0.3c-1.4,2.4-2.8,4.9-4.2,7.3C354.1-20.9,353.9-20.6,354.4-20.5z M359.3-26.7
			c-0.1,0.1-0.2,0.2-0.3,0.4c-0.9,1.5-1.8,3-2.7,4.6c-0.1,0.2-0.4,0.4,0,0.6c0.2,0.2,0.5,0,0.7-0.1c1.1-1.4,1.9-3.1,2.8-4.7
			C359.9-26.2,359.8-26.6,359.3-26.7z M358.9-21.7c0.8-0.5,1.2-1.5,1.5-2.4c0.1-0.2,0-0.6-0.3-0.7c-0.1,0-0.3,0.3-0.4,0.5
			c-0.4,0.6-0.8,1.3-1.1,2C358.3-22,358.2-21.7,358.9-21.7z"/>
		<path d="M389.9,4.7c0,12-9.7,21.7-21.6,21.7c-12.1,0-21.8-9.8-21.8-21.9c0-11.9,9.9-21.6,21.8-21.6C380.2-17,389.9-7.2,389.9,4.7z
			 M347.1,4.8c0,3.7,0.9,7.1,2.7,10.3c2.6,4.5,6.3,7.7,11.2,9.5c1.3,0.5,1.8,0.2,2.1-1.1c0.7-2.9,1.5-5.8,2.3-8.7
			c0.2-0.9-0.5-2.1,0.7-2.8c0.1,0,0.1-0.3,0-0.4c-0.2-0.2-0.4-0.1-0.5,0c-0.5,0.3-1.1,0.6-1.6,0.9c-0.2,0.1-0.4,0.2-0.5,0
			c0-0.1,0.2-0.4,0.3-0.4c0.8-0.5,1.7-1.1,2.6-1.6c0.3-0.2,0.5-0.6,0.3-0.9c-0.2-0.3-0.5,0-0.8,0.2c-1,0.6-2,1.2-3,1.7
			c-0.2,0.1-0.4,0.3-0.6,0c0,0,0.2-0.3,0.3-0.4c0.4-0.2,0.8-0.4,1.2-0.7c1-0.6,2-1.2,3-1.8c0.4-0.2,0.8-0.7,0.5-1.1
			c-0.2-0.3-0.6,0.2-0.9,0.3c-1.4,0.8-2.8,1.6-4.2,2.4c-0.3,0.2-0.6,0.6-0.9,0.2c-0.2-0.4,0.3-0.5,0.6-0.7c1.8-1.1,3.6-2.1,5.4-3.1
			c0.4-0.2,0.8-0.5,0.6-0.9c-0.3-0.5-0.7,0-1,0.2c-1.9,1.1-3.8,2.2-5.7,3.2c-0.2,0.1-0.6,0.5-0.8,0.1c-0.2-0.4,0.3-0.4,0.5-0.6
			c2.1-1.2,4.1-2.4,6.2-3.6c0.4-0.2,0.7-0.4,1-0.6c0.3-0.2,0.6-0.6,0.3-0.9c-0.2-0.3-0.6,0-0.8,0.2c-1,0.6-2,1.2-3,1.7
			c-1.4,0.8-2.8,1.6-4.2,2.4c-0.2,0.1-0.4,0.2-0.5,0c-0.2-0.2,0.1-0.4,0.2-0.5c0.4-0.2,0.8-0.5,1.2-0.7c2.4-1.4,4.7-2.8,7.1-4.1
			c0.4-0.2,0.9-0.6,0.7-1.1c-0.3-0.6-0.8,0-1.1,0.2c-2.5,1.5-5.1,2.9-7.6,4.4c-0.3,0.2-0.7,0.6-0.9,0.2c-0.2-0.4,0.4-0.5,0.6-0.7
			c2.8-1.6,5.6-3.2,8.4-4.9c0.4-0.2,0.7-0.4,1-0.7c0.2-0.2,0.4-0.6,0.2-0.8c-0.2-0.2-0.4,0-0.6,0.2c-1.6,0.9-3.2,1.8-4.7,2.7
			c-1.5,0.8-2.9,1.7-4.4,2.5c-0.2,0.1-0.4,0.4-0.6,0c0-0.1,0.2-0.3,0.3-0.4c0.8-0.5,1.7-1,2.5-1.5c2.4-1.4,4.8-2.8,7.2-4.2
			c0.5-0.3,1.1-0.6,0.8-1.3c-0.2-0.4-0.8,0.2-1.1,0.4c-2.9,1.6-5.7,3.3-8.6,4.9c-0.3,0.2-0.7,0.6-0.9,0.2c-0.2-0.4,0.3-0.5,0.6-0.7
			c3.2-1.8,6.3-3.7,9.5-5.5c0.7-0.4,1.1-0.9,1.3-1.7c0.8-3.1,1.6-6.3,2.5-9.4c0.3-1.2-0.1-1.5-1.2-1.7C359-18.5,347-8.5,347.1,4.8z"
			/>
		<path d="M350.2,37.7c0,1.1-0.8,0.7-1.3,0.6c-2.9-0.7-5.8-1.5-8.7-2.3c-10.1-2.7-20.2-5.4-30.3-8.2c-1.5-0.4-1.5-0.5-0.5-1.7
			c10-11.3,20.1-22.6,30.1-34c0.2-0.3,0.4-0.8,0.9-0.7c0.5,0.1,0.4,0.6,0.4,1.1c3.1,14.9,6.1,29.8,9.2,44.7
			C350.1,37.3,350.2,37.5,350.2,37.7z M344.9,14.7c0-0.1,0-0.2,0-0.3c-1.5-7.1-2.9-14.2-4.3-21.3c-0.2-1.2-0.6-0.5-1-0.1
			c-4.6,5.2-9.2,10.4-13.8,15.6c-0.5,0.6-0.6,1.1-0.2,1.7c1.5,2.5,3,5.1,4.4,7.6c1.5,2.6,3,5.2,4.5,7.8c0.1,0.2,0.2,0.6,0.6,0.5
			c0.4-0.2,0.4-0.5,0.2-0.9c-0.2-0.3-0.4-0.6-0.5-0.9c-2.6-4.5-5.2-9-7.8-13.5c-0.1-0.2-0.5-0.6-0.2-0.8c0.3-0.2,0.4,0.2,0.6,0.4
			c0.2,0.3,0.4,0.6,0.5,0.9c2.4,4.2,4.9,8.4,7.3,12.6c0.2,0.4,0.4,1.2,1,0.9c0.7-0.4,0-1-0.2-1.4c-0.1-0.3-0.3-0.5-0.4-0.8
			c-2.1-3.7-4.2-7.4-6.3-11c-0.2-0.3-0.7-0.8-0.4-1c0.5-0.3,0.6,0.5,0.8,0.8c2.3,3.8,4.4,7.7,6.7,11.6c0.2,0.3,0.3,1.1,0.9,0.7
			c0.6-0.3,0.1-0.8-0.1-1.2c-0.1-0.2-0.2-0.3-0.3-0.5c-1.9-3.3-3.8-6.6-5.7-9.9c-0.2-0.3-0.6-0.7-0.3-0.9c0.4-0.2,0.5,0.4,0.8,0.7
			c0.2,0.2,0.2,0.4,0.4,0.6c1.8,3.1,3.6,6.2,5.4,9.3c0.2,0.3,0.3,0.9,0.8,0.7c0.6-0.3,0.2-0.8,0-1.2c-0.2-0.4-0.4-0.7-0.6-1.1
			c-1.5-2.6-3-5.3-4.6-7.9c-0.2-0.2-0.5-0.6-0.2-0.8c0.4-0.3,0.6,0.3,0.7,0.5c0.9,1.6,1.8,3.2,2.8,4.7c0.8,1.4,1.6,2.7,2.4,4.1
			c0.1,0.2,0.2,0.5,0.6,0.4c0.4-0.1,0.4-0.5,0.2-0.8c-0.2-0.4-0.4-0.9-0.7-1.3c-1.2-2.1-2.4-4.2-3.6-6.3c-0.1-0.2-0.5-0.6-0.1-0.8
			c0.3-0.2,0.5,0.3,0.6,0.5c1.3,2.2,2.6,4.5,3.9,6.7c0.2,0.3,0.3,1.1,0.9,0.7c0.6-0.3,0.1-0.8-0.1-1.2c-1-1.8-2-3.5-3-5.3
			c-0.2-0.3-0.6-0.7-0.3-0.9c0.5-0.3,0.6,0.4,0.8,0.7c1,1.6,1.9,3.2,2.8,4.9c0.2,0.3,0.2,1,0.8,0.7c0.5-0.3,0.2-0.8,0-1.2
			c-0.7-1.3-1.5-2.5-2.2-3.8c-0.1-0.2-0.4-0.5-0.1-0.6c0.2-0.2,0.4,0.2,0.5,0.4c0.7,1.2,1.4,2.5,2.1,3.7c0.1,0.2,0.2,0.6,0.6,0.5
			c0.4-0.2,0.4-0.5,0.2-0.9c-0.4-0.6-0.7-1.2-1.1-1.9c-0.2-0.4-0.8-0.9-0.4-1.3c0.3-0.2,0.6,0.6,0.8,0.9c0.3,0.5,0.6,1.1,0.9,1.6
			c0.1,0.2,0.2,0.5,0.6,0.3c0.2-0.2,0.3-0.4,0.2-0.6c-0.1-0.3-0.3-0.5-0.4-0.8c-0.1-0.2-0.5-0.6-0.2-0.8c0.4-0.3,0.5,0.3,0.7,0.5
			c0.2,0.2,0.3,0.7,0.8,0.6C344.9,15.3,345,15,344.9,14.7z M325.3,11c0,1.1,0.1,2,0.6,2.9c2.4,4.2,4.9,8.4,7.3,12.6
			c0.2,0.3,0.3,1.1,0.9,0.7c0.6-0.3,0.2-0.8-0.1-1.2c-1.1-1.9-2.2-3.8-3.3-5.8C328.9,17.2,327.1,14.1,325.3,11z M326.2,15.6
			c-0.1,0-0.2,0.1-0.3,0.1c0.2,0.8,0.3,1.7,0.7,2.4c1.8,3.3,3.8,6.6,5.7,9.8c0.2,0.2,0.2,0.8,0.7,0.5c0.5-0.3,0.3-0.7,0-1.1
			c-0.6-1.1-1.3-2.2-1.9-3.3C329.5,21.3,327.8,18.4,326.2,15.6z M326.9,19.8c0.2,1.5,0.3,2.4,0.8,3.3c1.1,2,2.3,4,3.4,5.9
			c0.2,0.3,0.2,0.9,0.8,0.6c0.4-0.2,0.2-0.7,0-1.1C330.4,25.8,328.8,23,326.9,19.8z M327.9,24.6c0,2.4,1.3,4,2.3,5.7
			c0.2,0.3,0.3,0.8,0.8,0.5c0.5-0.3,0.2-0.7,0-1.1C330,28.1,329,26.5,327.9,24.6z"/>
		<path d="M368.8-4.2c-0.2,0.1-0.3,0.2-0.4,0.4c-2.6,1.5-5.1,3-7.7,4.4c-0.2,0.1-0.5,0.4-0.6,0.1c-0.2-0.4,0.2-0.5,0.4-0.6
			c2.6-1.5,5.1-3,7.7-4.4c0.2-0.1,0.4-0.1,0.6-0.1C368.7-4.5,368.8-4.4,368.8-4.2z"/>
	</g>
</g>
<g id="HTMIIo_00000093165995063810227960000015951067578828652941_">
	<g>
		<path d="M66.5,248.8c-0.3,1.5-1.4,1.2-2.6,1.2c-19.8-0.8-39.7-1.6-59.5-2.4c-6.8-0.3-13.5-0.6-20.3-0.7c-2.4-0.1-3.3-0.9-3.2-3.3
			C-18,217-17,190.5-16,164c0.1-3.1,1.8-2.9,3.9-2.8c21.6,0.8,43.1,1.7,64.6,2.6c4.7,0.2,9.4,0.5,14,0.5c2.5,0,3.2,0.8,3.1,3.3
			c-0.8,20.2-1.6,40.5-2.4,60.8c-0.3,6.2-0.5,12.4-0.8,18.6C66.7,247.5,66.5,248.1,66.5,248.8z M24.8,205.8
			c-0.6-0.1-1.1-0.1-1.7-0.1c-12.4-0.5-24.8-0.9-37.1-1.5c-1.9-0.1-2.4,0.7-2.4,2.4c-0.5,12.2-0.9,24.5-1.5,36.8
			c-0.1,2,0.6,2.3,2.4,2.3c12.4,0.4,24.8,0.9,37.1,1.5c2,0.1,3.3-0.5,4.8-1.9C39,233.5,51.9,221.8,64.6,210c0.7-0.6,2.4-1.3,1.5-2.3
			c-0.8-0.9-1.9,0.3-2.8,1.1c-0.2,0.2-0.5,0.4-0.7,0.6c-7,6.5-14.1,13-21.1,19.5c-5.2,4.8-10.4,9.6-15.7,14.4
			c-0.4,0.4-1,1.2-1.4,0.8c-0.7-0.7,0.3-1.2,0.7-1.6s0.8-0.8,1.3-1.3c11.1-10.3,22.3-20.7,33.4-31c0.9-0.8,2.9-2,2.2-2.6
			c-1.4-1.4-2.6,0.6-3.7,1.5c-10.6,9.7-21.1,19.5-31.7,29.3c-0.7,0.6-1.5,2.2-2.4,1.3c-0.6-0.5,1-1.5,1.6-2.1
			c10.2-9.5,20.4-18.9,30.5-28.4c0.6-0.6,1.9-1.2,1.3-1.9c-0.8-0.9-1.8,0-2.6,0.7c-0.6,0.5-1.2,1.1-1.8,1.6
			c-8.6,8-17.1,15.9-25.8,23.8c-0.7,0.6-1.3,1.3-2,1.8c-0.3,0.3-0.7,0.8-1.2,0.3c-0.1-0.1,0.1-0.7,0.4-1c0.4-0.5,1-1,1.5-1.4
			c8.5-7.9,17-15.7,25.5-23.6c0.7-0.7,2.4-1.6,1.8-2.3c-1.1-1.3-2.3,0.3-3.2,1.1c-0.3,0.3-0.7,0.7-1.1,1
			c-7.6,7.1-15.3,14.2-22.9,21.2c-0.5,0.4-1.2,1.5-1.6,1c-0.7-0.8,0.5-1.3,0.9-1.7c7.4-6.9,14.8-13.7,22.2-20.6
			c0.7-0.6,2.2-1.5,1.6-2.1c-0.9-1-2.2,0-3,0.9c-0.3,0.3-0.7,0.7-1.1,1c-6.2,5.8-12.4,11.5-18.7,17.3c-0.6,0.6-1.2,1.9-2,1.1
			c-0.6-0.6,0.8-1.3,1.4-1.9c5.7-5.3,11.5-10.6,17.1-15.9c0.8-0.7,2.7-1.8,2-2.5c-1.2-1.2-2.5,0.4-3.4,1.4
			c-5.2,4.8-10.3,9.5-15.5,14.3c-0.4,0.4-1,1.2-1.4,0.8c-0.7-0.7,0.3-1.2,0.7-1.6c4.7-4.5,9.5-8.8,14.3-13.3c0.5-0.5,1.7-1,1-1.8
			c-0.5-0.7-1.5-0.1-2.1,0.3c-0.6,0.5-1.2,1.1-1.8,1.6c-3.4,3.2-6.9,6.4-10.3,9.6c-0.4,0.4-1.1,1.2-1.4,0.8
			c-0.7-0.7,0.3-1.2,0.7-1.6c3.2-3,6.4-5.9,9.6-9c0.5-0.5,1.7-1.1,1.1-1.8c-0.7-0.8-1.6-0.1-2.3,0.5c-1.5,1.4-2.9,2.8-4.4,4.1
			c-1.5,1.2-2.5,3.3-4.8,3.5c0.8-1.9,2.7-2.8,4-4.3c1.1-1.3,3.9-3.1,3.2-3.7c-2-1.5-2.9,1.4-4.4,2.3c-0.9,0.5-2.1,2.3-2.4,1.7
			c-0.7-1.2,1.2-1.6,1.8-2.6c0.4-0.6,1.6-1,1.3-1.8c-0.3-0.8-1.4-0.4-2.1-0.1C25.9,206.7,25.4,206.6,24.8,205.8z M26.7,247.3
			c1.9,0.5,2.7-0.7,3.7-1.5C41.9,235,53.5,224.3,65,213.6c0.6-0.6,1.2-1.1,1.6-1.8c0.2-0.4,0.3-1.1,0.1-1.4c-0.4-0.5-0.9,0-1.2,0.2
			c-0.4,0.3-0.7,0.7-1.1,1c-9.2,8.5-18.5,17.1-27.7,25.6c-3,2.8-6.1,5.7-9.2,8.6C27,246.3,26.3,246.6,26.7,247.3z M31.1,247.4
			c1.6,0.3,2.5-0.7,3.4-1.5c6.7-6.1,13.4-12.3,19.9-18.5c3.6-3.3,7.2-6.6,10.8-9.9c0.8-0.8,2.3-1.8,1.4-2.9
			c-0.9-0.9-1.7,0.7-2.4,1.3c-6.5,6-13.1,12-19.6,18.1c-4.2,4-8.4,7.8-12.7,11.8C31.4,246.2,30.5,246.7,31.1,247.4z M66.6,220.1
			c-0.1-0.5,0-1.2-0.3-1.4c-0.4-0.5-0.9,0.1-1.2,0.5c-2.8,2.6-5.6,5.1-8.4,7.7c-6.8,6.3-13.6,12.4-20.3,18.7c-0.5,0.5-1.9,1-1,1.9
			c0.7,0.7,1.7-0.1,2.4-0.7c0.3-0.2,0.6-0.6,0.9-0.8c8.8-8.1,17.6-16.3,26.4-24.4C65.6,221.1,66,220.6,66.6,220.1z M40.3,247.9
			c0.7,0.1,1.3-0.5,1.9-1c7.8-7.2,15.6-14.3,23.3-21.5c0.7-0.7,1.4-1.6,0.8-2.3c-1-1-1.5,0.5-2,0.9c-7.7,7.1-15.4,14.2-23.1,21.3
			c-0.5,0.5-1,0.9-1.5,1.5C39.2,247.3,39.4,247.6,40.3,247.9z M66.1,227.9c-0.1-0.1,0-0.7-0.2-0.8c-0.7-0.4-1.1,0.2-1.5,0.6
			c-6.8,6.3-13.5,12.4-20.3,18.7c-0.4,0.4-1.3,0.7-0.7,1.4c0.2,0.3,1.2,0.2,1.7,0c0.6-0.2,1-0.7,1.4-1.1c6-5.6,12.1-11.1,18.1-16.7
			C65.3,229.6,65.9,229,66.1,227.9z M66,232.5c0-0.5,0.1-1.1-0.1-1.3c-0.5-0.5-0.9,0-1.2,0.4c-5.4,5-10.9,10-16.3,15.1
			c-0.4,0.4-1.2,0.8-0.6,1.4c0.3,0.2,1.1,0.1,1.7-0.1c0.5-0.1,0.8-0.6,1.2-0.9c4.7-4.2,9.2-8.5,13.8-12.8
			C65.2,233.7,65.6,233.1,66,232.5z M52.3,248.3c1,0.2,1.8-0.4,2.5-1c3.3-3.1,6.6-6.1,9.9-9.1c0.5-0.4,0.9-1.1,1.2-1.6
			c0.2-0.3,0-0.8-0.2-1.1c-0.3-0.3-0.8,0-1,0.3c-4.1,3.7-8.2,7.6-12.3,11.3C52,247.3,51.3,247.9,52.3,248.3z M65.1,239.5
			c-0.2,0.2-0.5,0.3-0.7,0.5c-2.6,2.4-5.1,4.7-7.7,7.1c-0.3,0.3-0.9,0.6-0.5,1.2c0.3,0.4,1,0.4,1.4,0.2c3-2,5.5-4.7,7.9-7.2
			C66,240.8,66,239.9,65.1,239.5z M61.3,248.7c1.8-0.5,3.1-2.1,4.2-3.6c0.3-0.4,0.3-1.2-0.2-1.6c-0.1-0.1-0.8,0.4-1.1,0.7
			c-1.1,1-2.2,2-3.3,3.1C60.4,247.8,60.1,248.3,61.3,248.7z"/>
		<path d="M104.4,316.6c-7,22.6-31,35.2-53.5,28.3c-22.7-7-35.4-31.2-28.2-54c7-22.4,31.3-35,53.7-28
			C98.8,270,111.3,294.1,104.4,316.6z M23.7,291.7c-2.2,6.9-2.5,13.9-0.9,21c2.2,10.1,7.5,18.2,15.6,24.6c2.1,1.6,3.2,1.5,4.5-0.9
			c3-5.1,6.2-10,9.3-15c1-1.6,0.3-4.2,3-4.9c0.2,0,0.3-0.6,0.3-0.7c-0.2-0.6-0.6-0.4-1-0.2c-1.2,0.2-2.3,0.5-3.5,0.8
			c-0.4,0.1-0.9,0.1-1-0.4c0-0.2,0.5-0.6,0.9-0.6c1.9-0.5,3.9-1,5.8-1.5c0.7-0.2,1.3-0.9,1.1-1.6c-0.2-0.7-1-0.2-1.6-0.1
			c-2.2,0.5-4.5,1-6.7,1.5c-0.5,0.1-1,0.3-1.2-0.4c-0.1-0.1,0.5-0.5,0.9-0.6c0.8-0.2,1.7-0.4,2.6-0.6c2.2-0.5,4.5-1,6.8-1.6
			c0.9-0.2,1.9-0.9,1.6-1.9c-0.2-0.7-1.2-0.1-1.8,0c-3.1,0.6-6.2,1.4-9.3,2c-0.6,0.1-1.6,0.8-1.8-0.1c-0.2-0.9,0.9-0.8,1.5-0.9
			c4-0.9,8-1.9,12-2.7c0.8-0.2,1.8-0.5,1.6-1.4c-0.2-1.2-1.3-0.5-2-0.3c-4.2,0.9-8.4,1.9-12.6,2.8c-0.5,0.1-1.4,0.6-1.5-0.2
			c-0.2-0.8,0.8-0.7,1.3-0.9c4.6-1.1,9.2-2.1,13.7-3.1c0.8-0.2,1.5-0.4,2.3-0.6c0.7-0.2,1.4-0.7,1.1-1.5c-0.3-0.7-1.1-0.3-1.6-0.2
			c-2.2,0.5-4.5,1-6.7,1.5c-3.1,0.7-6.2,1.4-9.3,2.1c-0.4,0.1-0.9,0.2-1-0.2c-0.2-0.5,0.4-0.6,0.7-0.8c0.8-0.2,1.7-0.5,2.6-0.6
			c5.3-1.2,10.5-2.4,15.8-3.5c0.9-0.2,2.1-0.7,1.9-1.6c-0.3-1.3-1.5-0.4-2.2-0.3c-5.7,1.3-11.3,2.5-17,3.8c-0.6,0.1-1.7,0.7-1.9-0.1
			c-0.2-0.8,1-0.8,1.6-0.9c6.2-1.4,12.5-2.8,18.7-4.3c0.8-0.2,1.6-0.3,2.2-0.7c0.4-0.3,1-0.9,0.8-1.4c-0.2-0.6-0.9-0.2-1.3-0.1
			c-3.5,0.8-7,1.6-10.5,2.3c-3.2,0.7-6.5,1.4-9.7,2.2c-0.4,0.1-1.1,0.4-1.1-0.4c0-0.2,0.6-0.5,0.9-0.6c1.8-0.4,3.7-0.9,5.5-1.3
			c5.4-1.2,10.7-2.4,16.1-3.6c1.1-0.2,2.5-0.6,2.2-1.9c-0.2-0.8-1.5-0.1-2.3,0c-6.4,1.4-12.7,2.8-19,4.3c-0.6,0.1-1.7,0.7-1.8-0.1
			c-0.2-0.8,0.9-0.8,1.5-0.9c7-1.6,14-3.2,21-4.8c1.6-0.3,2.7-1.1,3.5-2.4c3.3-5.4,6.7-10.9,10.3-16.2c1.3-2,0.6-2.8-1.2-3.8
			C59.8,254.8,31.3,266.6,23.7,291.7z"/>
		<path d="M10.3,355.5c-0.6,2-1.9,0.8-2.8,0.3c-5-3.1-10-6.3-15-9.4c-17.5-11-34.9-22.1-52.4-33.2c-2.6-1.6-2.6-1.8,0.1-3.5
			c25.5-15.5,51.1-30.9,76.7-46.4c0.6-0.4,1.3-1.2,2.2-0.8c0.8,0.5,0.3,1.4,0.2,2.2c-2.9,29.9-6,59.8-8.9,89.7
			C10.3,354.8,10.3,355.2,10.3,355.5z M13.7,309.1c0-0.2,0-0.4,0.1-0.6c1.4-14.2,2.8-28.4,4.3-42.6c0.2-2.4-0.9-1.4-1.8-0.8
			C4.5,272.1-7.2,279.3-19,286.3c-1.3,0.8-1.7,1.7-1.3,3.1c1.4,5.6,2.6,11.3,3.9,16.9c1.3,5.8,2.6,11.5,3.9,17.3
			c0.1,0.5,0.1,1.4,0.9,1.3c0.9-0.1,1.1-0.8,0.9-1.6c-0.1-0.7-0.3-1.4-0.4-2.1c-2.2-10.1-4.6-20.1-6.8-30.1
			c-0.1-0.5-0.6-1.4,0.1-1.6c0.8-0.3,0.7,0.7,0.9,1.2c0.2,0.7,0.3,1.4,0.4,2.1c2.1,9.3,4.2,18.7,6.4,28.1c0.2,0.8,0,2.5,1.3,2.2
			c1.6-0.3,0.6-1.8,0.4-2.8c-0.1-0.6-0.2-1.2-0.4-1.8c-1.9-8.2-3.7-16.4-5.5-24.5c-0.2-0.7-0.8-2-0.1-2.1c1.2-0.2,0.9,1.3,1.1,2
			c2,8.6,3.9,17.2,5.9,25.7c0.2,0.7-0.1,2.1,1.3,1.9c1.3-0.3,0.7-1.5,0.5-2.3c-0.1-0.4-0.2-0.7-0.3-1.2c-1.7-7.3-3.3-14.7-4.9-21.9
			c-0.1-0.6-0.7-1.7,0-1.8c1-0.2,0.8,1.1,1,1.7c0.2,0.5,0.2,1,0.3,1.4c1.6,6.9,3.1,13.8,4.7,20.8c0.1,0.7,0,1.9,1.1,1.8
			c1.3-0.2,0.8-1.3,0.7-2.2c-0.2-0.8-0.4-1.5-0.5-2.3c-1.4-5.9-2.6-11.7-4-17.5c-0.2-0.6-0.6-1.4,0-1.6c1-0.3,0.9,0.9,1,1.4
			c0.8,3.5,1.6,7,2.4,10.5c0.6,3,1.4,6,2.1,9.1c0.1,0.5,0.2,1.1,0.9,1c0.8,0,1-0.7,0.9-1.3c-0.1-1-0.3-1.9-0.6-2.9
			c-1.1-4.7-2.1-9.3-3.2-14c-0.1-0.5-0.6-1.4,0.2-1.5c0.7-0.1,0.7,0.8,0.8,1.3c1.1,5,2.3,10,3.4,14.9c0.2,0.7-0.1,2.1,1.3,1.9
			c1.3-0.3,0.7-1.5,0.5-2.3c-0.9-3.9-1.8-7.8-2.6-11.7c-0.1-0.6-0.7-1.7,0-1.8c1.1-0.2,0.8,1.1,1,1.7c0.9,3.6,1.6,7.2,2.5,10.8
			c0.1,0.6-0.1,2,1,1.7c1.2-0.2,0.9-1.3,0.7-2.2c-0.6-2.9-1.3-5.7-1.9-8.5c-0.1-0.5-0.4-1.1,0.2-1.3c0.6-0.2,0.7,0.5,0.8,1
			c0.7,2.7,1.2,5.5,1.9,8.2c0.1,0.5,0.1,1.4,0.9,1.3c0.9-0.1,1.1-0.8,0.9-1.6c-0.3-1.4-0.7-2.7-0.9-4.1c-0.1-0.9-1.1-2.2,0-2.6
			c0.7-0.2,0.7,1.4,1,2.2c0.3,1.2,0.5,2.3,0.8,3.5c0.1,0.5,0.2,1.1,0.9,0.9c0.6-0.2,0.8-0.6,0.8-1.1c-0.1-0.6-0.2-1.2-0.3-1.8
			c-0.1-0.5-0.6-1.4,0-1.6c1-0.3,0.7,0.8,1.1,1.4c0.3,0.5,0.1,1.5,1.1,1.5C13.3,310.3,13.6,309.8,13.7,309.1z M-21.1,290.7
			c-0.7,2-1,3.9-0.6,5.8c2.1,9.3,4.2,18.7,6.4,28.1c0.2,0.7-0.1,2.1,1.3,1.9c1.2-0.2,0.8-1.4,0.5-2.3c-0.9-4.3-1.9-8.5-2.9-12.8
			C-17.9,304.5-19.5,297.6-21.1,290.7z M-22.1,299.8c-0.2,0-0.4,0.1-0.6,0.1c-0.1,1.6-0.5,3.4-0.1,5c1.5,7.3,3.3,14.6,4.9,21.8
			c0.2,0.6,0,1.7,1.1,1.4c1.1-0.2,0.9-1.1,0.7-2c-0.6-2.4-1.1-4.9-1.7-7.3C-19.2,312.6-20.6,306.2-22.1,299.8z M-23.2,308.2
			c-0.5,2.8-0.9,4.7-0.4,6.7c1,4.4,1.9,8.8,3,13.1c0.1,0.6-0.1,1.9,1.1,1.7c1-0.2,0.8-1.2,0.6-2C-20.2,321.5-21.5,315.4-23.2,308.2z
			 M-24,317.8c-1.4,4.6,0.1,8.4,0.9,12.2c0.1,0.6,0.1,1.6,1.2,1.4c1.1-0.2,0.8-1.2,0.6-2C-22.2,325.7-23.1,322.1-24,317.8z"/>
		<path d="M69.9,287.4c-0.4,0.1-0.7,0.3-1.1,0.4c-5.8,1.3-11.4,2.6-17.2,3.9c-0.5,0.1-1.1,0.4-1.3-0.2c-0.2-0.8,0.7-0.8,1.1-1
			c5.8-1.3,11.4-2.6,17.2-3.9c0.4-0.1,0.8,0,1.1,0.1C69.9,286.9,69.9,287.2,69.9,287.4z"/>
	</g>
</g>
<g id="HTMIIo_00000047060752407244285970000002176051836180874118_">
	<g>
		<path d="M95.1,36.6c0.1,1.3-0.8,1.4-1.8,1.7c-16.8,4.5-33.6,9-50.4,13.5c-5.7,1.5-11.5,3-17.2,4.7c-2,0.6-3,0.1-3.6-2
			c-5.9-22.5-12-45-18-67.4c-0.7-2.7,0.8-2.9,2.5-3.4c18.3-4.9,36.5-9.8,54.8-14.6c4-1,8-2,11.9-3.2c2.1-0.6,2.9-0.1,3.5,2
			c4.5,17.1,9.2,34.3,13.8,51.5c1.4,5.2,2.8,10.5,4.2,15.7C94.9,35.4,94.9,36,95.1,36.6z M49.1,11.5c-0.5,0.1-1,0.2-1.5,0.3
			c-10.5,2.8-21,5.7-31.5,8.4c-1.6,0.4-1.8,1.2-1.4,2.7C17.5,33.2,20.3,43.6,23,54c0.4,1.7,1.1,1.7,2.6,1.3
			c10.5-2.9,21-5.7,31.5-8.4c1.7-0.4,2.7-1.3,3.5-2.8C68.2,31,75.8,17.8,83.4,4.6c0.4-0.7,1.7-1.7,0.6-2.3c-0.9-0.6-1.5,0.8-2,1.6
			c-0.1,0.2-0.3,0.5-0.4,0.7c-4.2,7.3-8.4,14.5-12.6,21.8c-3.1,5.4-6.2,10.8-9.4,16.2c-0.3,0.4-0.6,1.3-1,1c-0.8-0.4-0.1-1,0.1-1.5
			c0.2-0.5,0.5-0.9,0.8-1.4c6.6-11.5,13.3-23.1,19.9-34.6c0.6-0.9,1.9-2.4,1.2-2.8c-1.5-0.8-2,1.2-2.7,2.2
			c-6.4,10.9-12.6,21.8-19,32.7c-0.4,0.7-0.7,2.2-1.7,1.7c-0.6-0.3,0.4-1.5,0.8-2.2c6.1-10.6,12.2-21.1,18.2-31.7
			c0.3-0.6,1.3-1.5,0.6-2c-0.9-0.6-1.5,0.5-2,1.3c-0.3,0.6-0.7,1.2-1,1.8C68.9,16.1,63.7,25,58.6,33.9c-0.4,0.7-0.8,1.4-1.2,2
			c-0.2,0.3-0.4,0.8-0.9,0.6c-0.1-0.1-0.1-0.6,0.1-0.9c0.2-0.6,0.6-1,0.9-1.6c5.1-8.8,10.1-17.6,15.2-26.4c0.4-0.8,1.6-2,0.9-2.4
			c-1.3-0.8-1.8,0.8-2.4,1.7c-0.2,0.3-0.4,0.8-0.7,1.1C66,16,61.4,23.9,56.9,31.7c-0.3,0.5-0.6,1.5-1.1,1.3
			c-0.8-0.5,0.1-1.2,0.3-1.7c4.4-7.7,8.8-15.3,13.2-23c0.4-0.7,1.5-1.8,0.8-2.2c-1-0.6-1.8,0.6-2.3,1.5c-0.2,0.3-0.4,0.8-0.6,1.1
			c-3.7,6.4-7.4,12.9-11.2,19.3c-0.3,0.6-0.6,1.9-1.4,1.4c-0.6-0.3,0.3-1.3,0.7-2c3.4-5.9,6.9-11.8,10.2-17.8c0.5-0.8,1.7-2.2,1-2.7
			c-1.3-0.7-2,1-2.5,2c-3.1,5.3-6.2,10.6-9.2,15.9c-0.2,0.4-0.5,1.3-1,1c-0.8-0.4-0.1-1,0.2-1.5c2.8-5,5.7-9.9,8.5-14.8
			C62.9,9.2,63.8,8.5,63,8c-0.6-0.4-1.3,0.3-1.7,0.8c-0.4,0.6-0.7,1.2-1,1.8c-2,3.6-4.1,7.1-6.2,10.7c-0.3,0.4-0.6,1.3-1,1
			c-0.8-0.4-0.1-1,0.2-1.5c1.9-3.4,3.8-6.6,5.7-10c0.3-0.6,1.1-1.3,0.4-1.8c-0.8-0.5-1.4,0.3-1.8,1c-0.9,1.5-1.7,3.1-2.7,4.5
			c-1,1.4-1.2,3.4-3.1,4.2c0.1-1.8,1.5-3,2.2-4.6c0.6-1.4,2.4-3.6,1.7-3.9c-2-0.8-2,2-3.1,3.1c-0.6,0.7-1.2,2.4-1.6,2
			c-0.9-0.8,0.6-1.7,0.8-2.7c0.2-0.6,1.1-1.3,0.6-1.8c-0.5-0.6-1.3,0-1.7,0.5C50.2,11.9,49.7,11.9,49.1,11.5z M61.4,45.7
			c1.7-0.1,2.1-1.3,2.7-2.2c6.9-12,13.8-23.9,20.7-35.9c0.3-0.6,0.7-1.3,0.8-1.9c0.1-0.3-0.1-1-0.3-1.2c-0.5-0.3-0.8,0.2-1,0.5
			c-0.3,0.3-0.4,0.8-0.6,1.1c-5.5,9.5-11.1,19.1-16.5,28.6c-1.8,3.1-3.6,6.4-5.5,9.6C61.4,44.7,60.9,45.2,61.4,45.7z M65.1,44.7
			c1.5-0.1,1.9-1.2,2.4-2.1c4-6.9,8-13.8,11.9-20.6c2.2-3.7,4.3-7.4,6.4-11.1c0.5-0.9,1.5-2.1,0.4-2.8c-1-0.6-1.3,1-1.7,1.7
			c-3.9,6.7-7.8,13.4-11.7,20.2c-2.5,4.4-5,8.7-7.6,13.1C65.1,43.6,64.4,44.2,65.1,44.7z M87.7,12.6c-0.2-0.4-0.3-1-0.6-1.1
			c-0.5-0.3-0.7,0.3-0.8,0.7c-1.7,2.9-3.4,5.7-5,8.6c-4.1,7-8.1,13.9-12.1,20.9c-0.3,0.6-1.3,1.3-0.3,1.9c0.8,0.4,1.4-0.5,1.8-1.2
			c0.2-0.3,0.3-0.6,0.6-0.9c5.2-9.1,10.5-18.2,15.7-27.3C87.2,13.7,87.4,13.1,87.7,12.6z M72.9,42.6c0.6-0.1,1-0.8,1.3-1.3
			c4.6-8,9.3-16,13.9-24.1c0.4-0.8,0.8-1.7,0.1-2.1c-1-0.6-1.1,0.8-1.5,1.3c-4.6,7.9-9.2,15.9-13.8,23.9c-0.3,0.6-0.6,1-0.8,1.6
			C71.9,42.4,72.1,42.6,72.9,42.6z M89.3,19.2c-0.1-0.1-0.1-0.6-0.3-0.6c-0.7-0.1-0.8,0.5-1,0.9c-4.1,7-8,13.9-12.1,20.9
			c-0.2,0.4-0.9,0.9-0.2,1.3c0.3,0.2,1-0.1,1.4-0.4c0.4-0.3,0.6-0.8,0.9-1.3c3.6-6.2,7.2-12.5,10.8-18.7
			C89.1,20.8,89.5,20.2,89.3,19.2z M90.5,23.1c-0.1-0.4-0.2-0.9-0.4-1c-0.6-0.3-0.8,0.3-0.9,0.6c-3.2,5.6-6.5,11.2-9.7,16.9
			c-0.2,0.4-0.8,1-0.1,1.3c0.3,0.1,1-0.2,1.4-0.5c0.3-0.2,0.5-0.7,0.8-1c2.8-4.8,5.5-9.5,8.3-14.3C90,24.3,90.3,23.7,90.5,23.1z
			 M83.1,39.8c0.9-0.1,1.4-0.8,1.8-1.5c2-3.4,3.9-6.8,5.9-10.2c0.3-0.5,0.5-1.1,0.6-1.7c0.1-0.3-0.2-0.7-0.4-0.8
			c-0.3-0.2-0.6,0.2-0.8,0.5c-2.4,4.2-4.9,8.5-7.3,12.7C82.6,39.1,82.1,39.8,83.1,39.8z M91.5,29.1c-0.1,0.2-0.3,0.4-0.5,0.6
			c-1.5,2.7-3.1,5.2-4.6,7.9c-0.2,0.3-0.6,0.8-0.1,1.1c0.3,0.3,0.9,0.1,1.2-0.2c2-2.4,3.4-5.3,4.8-8C92.6,30.1,92.4,29.3,91.5,29.1z
			 M90.7,37.9c1.3-0.9,2-2.5,2.6-4.1c0.1-0.4-0.1-1.1-0.6-1.3c-0.1-0.1-0.6,0.6-0.8,0.9c-0.7,1.1-1.3,2.2-2,3.4
			C89.7,37.3,89.6,37.8,90.7,37.9z"/>
		<path d="M144.4,83.5c0,20.7-16.8,37.5-37.4,37.6c-20.8,0.1-37.7-16.9-37.6-37.8c0.1-20.6,17.1-37.4,37.6-37.4
			C127.6,45.9,144.4,62.9,144.4,83.5z M70.4,83.6c0,6.4,1.5,12.3,4.7,17.8c4.5,7.8,11,13.3,19.4,16.5c2.2,0.8,3.1,0.4,3.6-1.9
			c1.2-5,2.6-10,3.9-15c0.4-1.6-0.8-3.6,1.3-4.9c0.1-0.1,0.1-0.6,0.1-0.7c-0.3-0.4-0.6-0.1-0.9,0.1c-0.9,0.5-1.8,1-2.7,1.5
			c-0.3,0.1-0.7,0.3-0.9-0.1c-0.1-0.1,0.3-0.6,0.6-0.8c1.5-0.9,3-1.8,4.5-2.7c0.5-0.3,0.8-1.1,0.5-1.6c-0.3-0.5-0.9,0.1-1.3,0.3
			c-1.7,1-3.5,2-5.2,3c-0.3,0.2-0.8,0.5-1.1,0c-0.1-0.1,0.3-0.6,0.6-0.8c0.6-0.4,1.3-0.8,2-1.2c1.7-1,3.5-2,5.2-3.1
			c0.7-0.4,1.3-1.3,0.8-2c-0.3-0.6-1,0.3-1.5,0.5c-2.4,1.3-4.8,2.8-7.3,4.1c-0.5,0.3-1.1,1-1.5,0.4c-0.4-0.7,0.6-0.9,1-1.2
			c3.1-1.8,6.2-3.6,9.3-5.4c0.6-0.3,1.4-0.9,1-1.6c-0.5-0.9-1.2-0.1-1.7,0.3c-3.3,1.8-6.5,3.8-9.8,5.6c-0.4,0.2-1,0.8-1.3,0.2
			c-0.3-0.6,0.5-0.8,0.8-1c3.6-2.1,7.1-4.1,10.7-6.2c0.6-0.3,1.2-0.7,1.7-1.1c0.5-0.3,1-1,0.6-1.5c-0.4-0.5-1,0-1.4,0.3
			c-1.7,1-3.5,2-5.2,3c-2.4,1.4-4.8,2.8-7.3,4.2c-0.3,0.1-0.7,0.4-0.9,0.1c-0.3-0.3,0.1-0.6,0.4-0.8c0.6-0.4,1.3-0.8,2-1.2
			c4.1-2.4,8.2-4.8,12.3-7.1c0.7-0.4,1.5-1.1,1.2-1.8c-0.6-1-1.3,0.1-1.9,0.3c-4.4,2.5-8.8,5-13.2,7.6c-0.5,0.3-1.2,1-1.6,0.4
			c-0.3-0.6,0.6-0.9,1.1-1.2c4.8-2.8,9.7-5.6,14.5-8.5c0.6-0.3,1.3-0.7,1.7-1.2c0.3-0.3,0.6-1,0.3-1.4c-0.3-0.4-0.8,0.1-1.1,0.3
			c-2.7,1.5-5.5,3.1-8.2,4.7c-2.5,1.5-5,2.9-7.6,4.3c-0.3,0.1-0.8,0.6-1,0c-0.1-0.1,0.3-0.6,0.6-0.8c1.4-0.8,2.9-1.7,4.3-2.5
			c4.2-2.4,8.3-4.8,12.5-7.2c0.8-0.5,2-1.1,1.3-2.2c-0.3-0.6-1.3,0.3-2,0.6c-5,2.8-9.9,5.7-14.8,8.5c-0.5,0.3-1.2,1-1.5,0.4
			c-0.3-0.6,0.6-0.9,1-1.2c5.5-3.1,10.9-6.4,16.4-9.4c1.3-0.7,2-1.6,2.3-2.9c1.4-5.4,2.8-10.8,4.4-16.2c0.6-2-0.2-2.5-2-2.9
			C91,43.3,70.3,60.7,70.4,83.6z"/>
		<path d="M75.8,140.5c0,1.8-1.3,1.2-2.2,1c-5-1.3-10-2.7-15-4c-17.5-4.7-35-9.4-52.5-14.1c-2.6-0.7-2.7-0.8-0.8-2.9
			C22.6,100.8,40,81.3,57.4,61.7c0.4-0.5,0.8-1.3,1.6-1.2c0.8,0.2,0.6,1.1,0.8,1.8c5.3,25.8,10.6,51.6,15.9,77.4
			C75.6,139.9,75.7,140.2,75.8,140.5z M66.5,100.8c0-0.1-0.1-0.3-0.1-0.5C64,88,61.4,75.8,59,63.5c-0.4-2-1.1-0.9-1.7-0.2
			c-8,9-15.9,18-23.9,26.9c-0.9,1-1,1.8-0.3,2.9c2.6,4.3,5.1,8.8,7.6,13.1c2.6,4.5,5.2,9,7.8,13.4c0.2,0.4,0.4,1.1,1.1,0.8
			c0.7-0.3,0.7-0.9,0.3-1.5c-0.3-0.6-0.6-1-0.9-1.6c-4.5-7.8-9-15.6-13.5-23.4c-0.2-0.4-0.8-1-0.3-1.3c0.6-0.4,0.8,0.4,1,0.8
			c0.3,0.5,0.6,1,0.9,1.6c4.2,7.3,8.4,14.5,12.7,21.8c0.3,0.6,0.6,2.1,1.7,1.5c1.3-0.7,0-1.7-0.3-2.4c-0.2-0.5-0.5-0.9-0.8-1.4
			c-3.7-6.4-7.3-12.7-11-19.1c-0.3-0.6-1.2-1.5-0.6-1.7c0.9-0.5,1.1,0.8,1.5,1.4c3.9,6.6,7.7,13.4,11.6,20c0.3,0.6,0.5,1.8,1.5,1.3
			c1-0.6,0.2-1.4-0.1-2c-0.1-0.3-0.3-0.6-0.6-0.9c-3.3-5.7-6.6-11.4-9.8-17.1c-0.3-0.5-1-1.3-0.5-1.5c0.8-0.4,0.9,0.7,1.3,1.2
			c0.3,0.3,0.4,0.8,0.6,1.1c3.1,5.4,6.2,10.8,9.4,16.2c0.3,0.6,0.5,1.6,1.4,1.2c1-0.5,0.3-1.3,0-2c-0.3-0.6-0.7-1.2-1-1.8
			c-2.7-4.5-5.2-9.1-7.9-13.6c-0.3-0.4-0.8-1-0.4-1.3c0.8-0.5,1,0.5,1.2,0.9c1.6,2.7,3.1,5.5,4.8,8.2c1.3,2.4,2.7,4.7,4.1,7.1
			c0.2,0.3,0.4,0.8,1,0.6c0.6-0.2,0.6-0.8,0.4-1.3c-0.3-0.8-0.8-1.5-1.3-2.3c-2.1-3.6-4.2-7.3-6.3-10.9c-0.2-0.4-0.8-1-0.2-1.3
			c0.6-0.3,0.8,0.5,1,0.9c2.2,3.8,4.5,7.8,6.7,11.5c0.3,0.6,0.5,1.8,1.5,1.3c1-0.6,0.2-1.4-0.1-2c-1.7-3.1-3.5-6.1-5.2-9.1
			c-0.3-0.5-1-1.3-0.5-1.5c0.8-0.5,1,0.7,1.3,1.2c1.7,2.8,3.2,5.6,4.9,8.4c0.3,0.5,0.4,1.7,1.3,1.2c0.9-0.5,0.4-1.3,0-2
			c-1.3-2.2-2.5-4.4-3.8-6.6c-0.2-0.3-0.6-0.8-0.1-1.1c0.4-0.3,0.7,0.3,0.9,0.6c1.3,2.1,2.4,4.3,3.7,6.4c0.2,0.4,0.4,1.1,1.1,0.8
			c0.7-0.3,0.7-0.9,0.3-1.5c-0.6-1-1.3-2.1-1.8-3.2c-0.3-0.7-1.5-1.5-0.6-2.2c0.5-0.3,1,1,1.4,1.6c0.6,0.9,1,1.8,1.6,2.7
			c0.2,0.3,0.4,0.8,1,0.5c0.4-0.3,0.6-0.7,0.4-1.1c-0.2-0.5-0.5-0.9-0.7-1.4c-0.2-0.4-0.8-1-0.4-1.3c0.8-0.6,0.8,0.5,1.3,0.9
			c0.4,0.3,0.5,1.3,1.3,1C66.5,101.9,66.7,101.4,66.5,100.8z M32.7,94.4c-0.1,1.8,0.1,3.5,1,5c4.2,7.3,8.4,14.5,12.7,21.8
			c0.3,0.6,0.5,1.8,1.5,1.3c1-0.5,0.3-1.4-0.1-2c-1.9-3.4-3.8-6.6-5.7-10C38.9,105.1,35.8,99.8,32.7,94.4z M34.2,102.3
			c-0.1,0.1-0.3,0.1-0.5,0.2c0.3,1.4,0.5,2.9,1.2,4.2c3.1,5.7,6.5,11.3,9.8,17c0.3,0.4,0.4,1.4,1.3,0.9c0.8-0.5,0.5-1.2,0.1-1.8
			c-1.1-1.9-2.2-3.8-3.3-5.7C40,112.2,37.1,107.3,34.2,102.3z M35.5,109.7c0.3,2.5,0.5,4.2,1.4,5.7c2,3.4,3.9,6.9,5.9,10.2
			c0.3,0.5,0.4,1.6,1.4,1.1c0.8-0.4,0.3-1.2,0-1.8C41.4,120,38.7,115.2,35.5,109.7z M37.2,117.8c0,4.2,2.2,7,3.9,9.9
			c0.3,0.5,0.5,1.3,1.3,0.8c0.8-0.5,0.3-1.2,0-1.8C40.8,124,39.1,121.2,37.2,117.8z"/>
		<path d="M108,68c-0.3,0.2-0.5,0.4-0.8,0.6c-4.5,2.6-8.9,5.2-13.4,7.7c-0.3,0.2-0.8,0.6-1.1,0.2c-0.4-0.6,0.3-0.8,0.7-1.1
			c4.5-2.6,8.9-5.2,13.4-7.7c0.3-0.1,0.6-0.2,1-0.2C107.8,67.6,107.9,67.8,108,68z"/>
	</g>
</g>
<g id="HTMIIo_00000160899965338375097660000008985560551297523346_">
	<g>
		<path d="M518.2,38.5c0.2,1.5-1,1.6-2.1,1.9c-19.2,5.1-38.4,10.3-57.6,15.4c-6.5,1.8-13.1,3.4-19.6,5.3c-2.3,0.6-3.4,0.2-4.1-2.2
			c-6.8-25.7-13.6-51.3-20.6-77c-0.8-3,0.9-3.3,2.9-3.8c20.8-5.6,41.7-11.2,62.5-16.7c4.5-1.2,9.1-2.3,13.6-3.7
			c2.4-0.7,3.4-0.2,4,2.2c5.2,19.6,10.5,39.2,15.7,58.8c1.6,6,3.2,12,4.8,18C517.9,37.2,518,37.9,518.2,38.5z M465.7,9.9
			c-0.6,0.1-1.1,0.2-1.7,0.4c-12,3.2-23.9,6.5-35.9,9.6c-1.8,0.5-2.1,1.4-1.6,3c3.2,11.8,6.4,23.7,9.5,35.6c0.5,1.9,1.3,2,3,1.5
			c12-3.3,23.9-6.5,35.9-9.6c1.9-0.5,3-1.4,4-3.2c8.6-15.1,17.4-30.1,26-45.2c0.5-0.8,1.9-1.9,0.7-2.6c-1-0.6-1.8,0.9-2.3,1.8
			c-0.2,0.2-0.3,0.6-0.5,0.8c-4.8,8.3-9.6,16.6-14.4,24.9c-3.5,6.1-7.1,12.3-10.7,18.4c-0.3,0.5-0.6,1.4-1.1,1.2
			c-0.9-0.5-0.1-1.2,0.2-1.8c0.2-0.6,0.6-1,0.9-1.6c7.6-13.2,15.2-26.3,22.8-39.5c0.6-1,2.2-2.8,1.4-3.2c-1.8-0.9-2.3,1.4-3,2.6
			c-7.3,12.5-14.4,24.9-21.6,37.4c-0.5,0.8-0.8,2.6-1.9,2c-0.7-0.3,0.5-1.7,1-2.5c6.9-12.1,13.9-24.1,20.8-36.2
			c0.4-0.7,1.5-1.7,0.6-2.2c-1-0.6-1.7,0.6-2.2,1.4c-0.4,0.6-0.8,1.4-1.2,2.1c-5.8,10.1-11.7,20.3-17.6,30.4
			c-0.5,0.8-0.9,1.6-1.4,2.3c-0.2,0.4-0.5,1-1,0.6c-0.2-0.1-0.1-0.7,0.1-1c0.2-0.6,0.6-1.2,1-1.8c5.8-10.1,11.6-20,17.4-30.1
			c0.5-0.9,1.8-2.2,1-2.7c-1.4-0.9-2.1,1-2.7,2c-0.2,0.4-0.5,0.9-0.8,1.3c-5.2,9-10.4,18-15.6,27c-0.3,0.6-0.7,1.8-1.3,1.4
			c-1-0.6,0.1-1.4,0.4-1.9c5-8.8,10.1-17.5,15.1-26.3c0.5-0.8,1.7-2.1,1-2.5c-1.2-0.7-2.1,0.6-2.6,1.8c-0.2,0.4-0.5,0.9-0.7,1.3
			c-4.2,7.3-8.5,14.7-12.8,22c-0.4,0.7-0.6,2.2-1.6,1.6c-0.7-0.4,0.4-1.5,0.8-2.2c3.9-6.8,7.8-13.5,11.7-20.3c0.6-1,2-2.6,1.2-3
			c-1.5-0.8-2.2,1.1-2.9,2.3c-3.5,6.1-7,12.1-10.5,18.2c-0.2,0.5-0.6,1.4-1.1,1.2c-0.9-0.5-0.1-1.2,0.2-1.8
			c3.2-5.7,6.5-11.3,9.7-16.9c0.3-0.6,1.4-1.4,0.4-2c-0.7-0.5-1.5,0.3-1.9,1c-0.5,0.6-0.8,1.4-1.2,2.1c-2.3,4.1-4.7,8.1-7,12.2
			c-0.3,0.5-0.7,1.4-1.1,1.2c-0.9-0.5-0.1-1.2,0.2-1.8c2.2-3.8,4.4-7.6,6.5-11.4c0.3-0.6,1.3-1.5,0.5-2.1c-0.9-0.6-1.6,0.4-2.1,1.2
			c-1,1.8-1.9,3.5-3,5.2c-1.1,1.6-1.4,3.9-3.5,4.8c0.2-2.1,1.8-3.4,2.6-5.3c0.6-1.6,2.8-4.1,1.9-4.5c-2.3-0.9-2.3,2.2-3.5,3.5
			c-0.7,0.8-1.4,2.8-1.8,2.3c-1-1,0.6-1.9,1-3c0.2-0.7,1.3-1.4,0.7-2.1c-0.6-0.6-1.5,0-2,0.6C466.9,10.4,466.4,10.4,465.7,9.9z
			 M479.7,48.9c1.9-0.1,2.4-1.4,3-2.6c7.9-13.6,15.8-27.3,23.6-40.9c0.4-0.7,0.8-1.4,1-2.2c0.1-0.4-0.1-1.1-0.3-1.4
			c-0.6-0.4-0.9,0.2-1.1,0.6c-0.3,0.4-0.5,0.9-0.7,1.3c-6.3,10.9-12.6,21.8-18.8,32.6c-2.1,3.6-4.2,7.3-6.2,10.9
			C479.7,47.9,479.1,48.4,479.7,48.9z M483.9,47.8c1.7-0.2,2.2-1.4,2.8-2.4c4.5-7.8,9.1-15.7,13.6-23.5c2.5-4.2,4.9-8.5,7.3-12.7
			c0.6-1,1.7-2.4,0.5-3.2c-1.1-0.6-1.4,1.2-1.9,2c-4.5,7.7-8.9,15.3-13.3,23.1c-2.9,5-5.7,10-8.6,15
			C483.9,46.5,483.1,47.2,483.9,47.8z M509.8,11.1c-0.2-0.5-0.4-1.1-0.7-1.3c-0.6-0.3-0.8,0.4-1,0.8c-1.9,3.3-3.8,6.5-5.7,9.8
			c-4.6,8-9.3,15.9-13.8,23.9c-0.3,0.6-1.5,1.5-0.4,2.2c0.9,0.5,1.6-0.6,2.1-1.4c0.2-0.3,0.4-0.7,0.6-1c6-10.4,12-20.8,18-31.1
			C509.2,12.4,509.4,11.8,509.8,11.1z M492.9,45.5c0.7-0.2,1.1-0.9,1.5-1.5c5.3-9.2,10.6-18.3,15.9-27.5c0.5-0.9,0.9-2,0.1-2.4
			c-1.2-0.6-1.3,0.9-1.7,1.4c-5.3,9-10.5,18.1-15.7,27.2c-0.3,0.6-0.7,1.2-1,1.8C491.7,45.2,492,45.5,492.9,45.5z M511.6,18.7
			c-0.1-0.1-0.2-0.6-0.4-0.7c-0.8-0.2-1,0.6-1.2,1c-4.6,8-9.2,15.9-13.8,23.9c-0.2,0.5-1,1-0.2,1.5c0.3,0.2,1.2-0.2,1.6-0.5
			c0.5-0.3,0.7-1,1-1.4c4.1-7.1,8.2-14.2,12.3-21.3C511.3,20.6,511.8,19.8,511.6,18.7z M512.9,23.1c-0.2-0.5-0.2-1-0.5-1.2
			c-0.6-0.3-0.9,0.3-1,0.7c-3.7,6.4-7.4,12.8-11.1,19.2c-0.2,0.5-1,1.1-0.2,1.5c0.3,0.2,1.1-0.2,1.6-0.6c0.4-0.2,0.6-0.8,0.9-1.2
			c3.2-5.4,6.3-10.9,9.4-16.4C512.4,24.6,512.7,23.8,512.9,23.1z M504.5,42.3c1-0.2,1.6-0.9,2.1-1.7c2.2-3.9,4.5-7.7,6.7-11.7
			c0.3-0.6,0.6-1.3,0.6-1.9c0.1-0.3-0.2-0.8-0.5-1c-0.4-0.2-0.7,0.2-0.9,0.6c-2.8,4.8-5.6,9.7-8.4,14.4
			C503.9,41.5,503.4,42.2,504.5,42.3z M514.1,30.1c-0.2,0.2-0.4,0.5-0.6,0.7c-1.8,3-3.5,6-5.3,9c-0.2,0.4-0.7,0.9-0.1,1.3
			c0.4,0.3,1,0.1,1.4-0.2c2.2-2.8,3.8-6.1,5.4-9.2C515.3,31.1,515.1,30.2,514.1,30.1z M513.2,40c1.5-1,2.3-2.9,3-4.7
			c0.2-0.5-0.1-1.3-0.6-1.4c-0.2-0.1-0.6,0.6-0.9,1c-0.8,1.3-1.5,2.6-2.2,3.9C512,39.4,511.9,40,513.2,40z"/>
		<path d="M574.5,92.1c0,23.6-19.2,42.8-42.7,42.9c-23.8,0.1-43-19.3-42.9-43.2c0.1-23.5,19.5-42.7,42.9-42.6
			C555.3,49.2,574.5,68.5,574.5,92.1z M490,92.2c0,7.3,1.8,14,5.3,20.4c5.1,8.9,12.5,15.2,22.2,18.8c2.5,1,3.5,0.5,4.1-2.2
			c1.4-5.7,3-11.4,4.5-17.1c0.5-1.8-1-4.2,1.4-5.6c0.2-0.1,0.2-0.6,0.1-0.8c-0.3-0.5-0.7-0.2-1,0.1c-1,0.6-2.1,1.2-3.1,1.8
			c-0.3,0.2-0.8,0.4-1-0.1c-0.1-0.2,0.3-0.7,0.6-0.9c1.7-1,3.4-2.1,5.1-3.1c0.6-0.4,1-1.3,0.6-1.8s-1,0.1-1.5,0.4
			c-2,1.1-4,2.3-6,3.4c-0.4,0.2-0.9,0.6-1.3,0c-0.1-0.1,0.3-0.6,0.6-0.9c0.7-0.5,1.5-0.9,2.3-1.4c2-1.1,4-2.3,6-3.5
			c0.8-0.5,1.5-1.4,1-2.2c-0.4-0.6-1.2,0.3-1.8,0.6c-2.8,1.5-5.5,3.2-8.3,4.7c-0.6,0.3-1.3,1.2-1.8,0.5c-0.5-0.8,0.6-1,1.2-1.4
			c3.5-2.1,7.1-4.2,10.6-6.1c0.7-0.4,1.6-1,1.1-1.8c-0.6-1-1.4-0.1-2,0.3c-3.8,2.1-7.4,4.3-11.2,6.4c-0.5,0.2-1.1,1-1.5,0.2
			c-0.4-0.7,0.6-0.9,1-1.2c4.1-2.4,8.1-4.7,12.2-7c0.7-0.4,1.4-0.8,2-1.3c0.6-0.4,1.1-1.1,0.6-1.8c-0.5-0.6-1.1,0-1.6,0.3
			c-2,1.1-4,2.3-6,3.4c-2.8,1.6-5.5,3.2-8.3,4.8c-0.3,0.2-0.8,0.5-1,0.1c-0.3-0.4,0.2-0.7,0.5-1c0.7-0.5,1.5-1,2.3-1.4
			c4.7-2.7,9.3-5.4,14-8.1c0.8-0.5,1.8-1.3,1.4-2.1c-0.6-1.2-1.5,0.1-2.2,0.4c-5,2.9-10.1,5.7-15.1,8.6c-0.6,0.3-1.4,1.2-1.8,0.5
			c-0.4-0.7,0.7-1,1.3-1.4c5.5-3.2,11.1-6.4,16.6-9.7c0.7-0.4,1.4-0.8,1.9-1.4c0.3-0.4,0.7-1.1,0.3-1.6c-0.4-0.5-0.9,0.1-1.3,0.3
			c-3.1,1.8-6.2,3.6-9.3,5.3c-2.9,1.7-5.7,3.3-8.6,4.9c-0.3,0.2-0.9,0.7-1.2,0c-0.1-0.2,0.4-0.6,0.6-0.9c1.6-1,3.3-1.9,4.9-2.9
			c4.8-2.7,9.5-5.5,14.3-8.2c1-0.6,2.2-1.3,1.5-2.5c-0.4-0.7-1.5,0.3-2.2,0.7c-5.7,3.2-11.3,6.5-16.9,9.7c-0.6,0.3-1.4,1.2-1.8,0.5
			s0.6-1,1.2-1.4c6.2-3.6,12.5-7.3,18.7-10.8c1.4-0.8,2.2-1.8,2.6-3.4c1.6-6.1,3.2-12.4,5-18.5c0.6-2.3-0.2-2.9-2.3-3.3
			C513.6,46.3,489.8,66.1,490,92.2z"/>
		<path d="M496.1,157.1c0,2.1-1.5,1.4-2.6,1.1c-5.7-1.4-11.4-3-17.1-4.6c-20-5.3-39.9-10.7-59.9-16.1c-3-0.8-3-1-1-3.4
			c19.8-22.4,39.7-44.7,59.5-67.1c0.5-0.6,0.9-1.5,1.8-1.4c1,0.2,0.7,1.3,0.9,2.1c6.1,29.5,12.1,58.9,18.1,88.3
			C496,156.5,496.1,156.8,496.1,157.1z M485.6,111.8c0-0.2-0.1-0.4-0.1-0.6c-2.9-14-5.7-27.9-8.5-42c-0.5-2.3-1.3-1-2-0.2
			c-9.1,10.2-18.1,20.5-27.3,30.7c-1,1.2-1.1,2.1-0.3,3.4c3,4.9,5.8,10.1,8.7,15c3,5.1,5.9,10.2,8.9,15.3c0.2,0.5,0.5,1.3,1.3,1
			c0.8-0.3,0.8-1,0.4-1.8c-0.3-0.6-0.7-1.2-1-1.8c-5.1-8.9-10.3-17.8-15.4-26.7c-0.2-0.5-1-1.1-0.4-1.5c0.6-0.5,0.9,0.5,1.2,0.9
			c0.4,0.6,0.7,1.2,1,1.8c4.8,8.3,9.6,16.6,14.4,24.9c0.4,0.7,0.7,2.4,1.9,1.8c1.4-0.8,0-1.9-0.4-2.8c-0.2-0.6-0.6-1-0.9-1.6
			c-4.2-7.3-8.4-14.5-12.5-21.8c-0.4-0.6-1.4-1.7-0.7-2c1-0.6,1.3,1,1.7,1.6c4.5,7.6,8.8,15.2,13.3,22.8c0.4,0.6,0.6,2.1,1.8,1.4
			c1.1-0.6,0.2-1.6-0.2-2.3c-0.2-0.3-0.4-0.6-0.6-1c-3.8-6.5-7.5-13-11.2-19.5c-0.3-0.6-1.2-1.4-0.6-1.8c0.9-0.5,1,0.8,1.5,1.4
			c0.3,0.4,0.5,0.9,0.7,1.3c3.6,6.1,7.1,12.3,10.7,18.4c0.3,0.6,0.6,1.8,1.6,1.4c1.2-0.6,0.4-1.5,0-2.3c-0.4-0.7-0.8-1.4-1.2-2.1
			c-3-5.2-6-10.4-9-15.6c-0.3-0.5-1-1.2-0.5-1.5c0.9-0.6,1.1,0.6,1.4,1c1.8,3.1,3.6,6.2,5.4,9.3c1.5,2.7,3.1,5.3,4.7,8.1
			c0.2,0.4,0.5,1,1.1,0.7c0.7-0.2,0.7-1,0.5-1.5c-0.4-0.9-0.9-1.8-1.4-2.6c-2.4-4.2-4.8-8.3-7.2-12.5c-0.2-0.5-1-1.1-0.2-1.5
			c0.6-0.3,1,0.6,1.2,1c2.6,4.4,5.1,8.9,7.7,13.2c0.4,0.6,0.6,2.1,1.8,1.4c1.2-0.6,0.2-1.6-0.2-2.3c-2-3.5-4-6.9-6-10.4
			c-0.3-0.6-1.2-1.4-0.6-1.8c1-0.6,1.1,0.8,1.5,1.4c1.9,3.2,3.7,6.4,5.6,9.6c0.3,0.6,0.5,1.9,1.5,1.4s0.5-1.5,0-2.3
			c-1.4-2.6-2.9-5-4.3-7.6c-0.2-0.4-0.7-1-0.2-1.3c0.5-0.3,0.8,0.3,1,0.7c1.4,2.4,2.8,4.9,4.2,7.3c0.2,0.5,0.5,1.3,1.3,1
			c0.8-0.3,0.8-1,0.4-1.8c-0.7-1.2-1.4-2.4-2.1-3.7c-0.4-0.8-1.7-1.8-0.7-2.5c0.6-0.4,1.1,1.1,1.6,1.8c0.6,1,1.2,2.1,1.8,3.1
			c0.2,0.4,0.5,1,1.1,0.6c0.5-0.3,0.6-0.8,0.5-1.3c-0.2-0.6-0.6-1-0.8-1.6c-0.2-0.5-1-1.2-0.5-1.5c0.9-0.6,1,0.6,1.4,1
			c0.5,0.4,0.6,1.4,1.5,1.1C485.6,113.1,485.8,112.5,485.6,111.8z M447,104.5c-0.1,2.1,0.2,4,1.2,5.7c4.8,8.3,9.6,16.6,14.4,24.9
			c0.4,0.6,0.6,2.1,1.8,1.4c1.1-0.6,0.3-1.6-0.2-2.3c-2.2-3.8-4.4-7.6-6.5-11.4C454.1,116.8,450.5,110.7,447,104.5z M448.7,113.6
			c-0.2,0.1-0.3,0.2-0.6,0.2c0.4,1.6,0.6,3.4,1.4,4.8c3.6,6.5,7.4,12.9,11.2,19.4c0.3,0.5,0.5,1.6,1.4,1c1-0.6,0.6-1.4,0.1-2.1
			c-1.3-2.2-2.5-4.3-3.8-6.5C455.3,124.9,452,119.2,448.7,113.6z M450.2,121.9c0.3,2.9,0.6,4.8,1.6,6.5c2.2,3.9,4.5,7.8,6.8,11.7
			c0.3,0.6,0.5,1.8,1.6,1.3c0.9-0.5,0.4-1.4,0-2.1C457,133.8,453.8,128.2,450.2,121.9z M452.2,131.3c0,4.8,2.6,8,4.5,11.3
			c0.3,0.6,0.6,1.5,1.5,1c1-0.6,0.4-1.4,0-2.1C456.2,138.3,454.3,135.1,452.2,131.3z"/>
		<path d="M532.9,74.4c-0.3,0.2-0.6,0.5-0.9,0.7c-5.1,3-10.1,5.9-15.2,8.8c-0.4,0.2-1,0.7-1.3,0.2c-0.5-0.7,0.4-1,0.8-1.3
			c5.1-3,10.1-5.9,15.2-8.8c0.3-0.2,0.7-0.2,1.1-0.2C532.7,74,532.8,74.2,532.9,74.4z"/>
	</g>
</g>
<g id="HTMIIo_00000001628343836199440070000001471954340126389695_">
	<g>
		<path d="M385.5,242.6c-0.8,1-1.6,0.4-2.4-0.1c-14.8-8.6-29.7-17.1-44.5-25.7c-5.1-2.9-10.1-5.9-15.2-8.7c-1.8-1-2.2-2-1.1-3.8
			c11.5-19.8,23-39.6,34.3-59.4c1.4-2.3,2.5-1.5,4.1-0.6c16.1,9.3,32.2,18.6,48.3,27.9c3.5,2,7,4.1,10.5,6c1.9,1,2.1,1.9,1.1,3.8
			c-8.8,15.1-17.5,30.3-26.2,45.4c-2.7,4.6-5.4,9.2-8,13.9C386.1,241.7,385.8,242.1,385.5,242.6z M370.9,193.1
			c-0.4-0.3-0.8-0.5-1.3-0.8c-9.2-5.4-18.5-10.7-27.7-16.1c-1.4-0.8-2.1-0.4-2.8,0.9c-5.3,9.1-10.6,18.3-15.9,27.5
			c-0.9,1.5-0.4,2,0.9,2.7c9.3,5.3,18.5,10.7,27.7,16.1c1.5,0.9,2.7,1,4.4,0.5c14.4-3.9,28.9-7.7,43.4-11.7c0.8-0.2,2.3,0,2-1.2
			c-0.2-1-1.6-0.5-2.5-0.3c-0.2,0-0.5,0.1-0.8,0.2c-8,2.1-16,4.3-23.9,6.4c-5.9,1.6-11.8,3.2-17.8,4.7c-0.5,0.1-1.3,0.5-1.4,0
			c-0.2-0.8,0.7-0.8,1.2-1c0.5-0.2,1-0.3,1.5-0.4c12.6-3.4,25.3-6.8,37.9-10.2c1-0.2,3-0.4,2.8-1.1c-0.5-1.6-2.2-0.6-3.4-0.3
			c-12,3.2-23.9,6.4-35.9,9.6c-0.8,0.2-2,1.1-2.4,0c-0.2-0.6,1.3-0.7,2.1-0.9c11.6-3.1,23.2-6.2,34.7-9.4c0.7-0.2,1.9-0.1,1.8-1
			c-0.2-1-1.4-0.7-2.2-0.5c-0.6,0.1-1.3,0.3-2,0.5c-9.7,2.6-19.5,5.3-29.2,7.8c-0.8,0.2-1.5,0.4-2.2,0.6c-0.4,0.1-0.9,0.3-1-0.2
			c0-0.1,0.4-0.5,0.7-0.6c0.5-0.2,1.1-0.3,1.8-0.5c9.7-2.6,19.3-5.2,28.9-7.7c0.8-0.2,2.5-0.2,2.3-1c-0.3-1.4-1.8-0.7-2.9-0.4
			c-0.4,0.1-0.8,0.2-1.3,0.3c-8.7,2.3-17.3,4.7-25.9,7c-0.5,0.1-1.5,0.6-1.7,0.1c-0.2-0.9,0.9-0.8,1.4-0.9
			c8.4-2.3,16.8-4.5,25.2-6.8c0.8-0.2,2.3-0.2,2.1-0.9c-0.3-1.2-1.7-0.9-2.7-0.5c-0.4,0.1-0.8,0.2-1.2,0.3
			c-7.1,1.9-14.1,3.8-21.2,5.6c-0.7,0.2-1.7,0.9-1.9,0c-0.2-0.7,1.2-0.7,1.8-0.9c6.5-1.8,13-3.5,19.5-5.3c0.9-0.2,2.8-0.3,2.6-1.1
			c-0.4-1.4-2-0.7-3.2-0.3c-5.8,1.6-11.7,3.1-17.5,4.7c-0.4,0.1-1.2,0.5-1.4,0c-0.2-0.8,0.7-0.8,1.2-0.9c5.4-1.5,10.8-2.9,16.2-4.4
			c0.6-0.2,1.7,0,1.5-1c-0.1-0.7-1.1-0.7-1.8-0.6c-0.7,0.1-1.3,0.3-2,0.5c-3.9,1.1-7.8,2.1-11.7,3.2c-0.5,0.1-1.3,0.4-1.4,0
			c-0.2-0.8,0.7-0.8,1.2-0.9c3.6-1,7.3-1.9,10.9-3c0.6-0.2,1.7-0.1,1.6-1c-0.2-0.9-1.2-0.7-2-0.5c-1.7,0.4-3.3,1-5,1.3
			c-1.7,0.3-3.2,1.6-5.1,0.8c1.4-1.2,3.2-1,4.8-1.7c1.4-0.6,4.2-0.8,3.9-1.6c-0.9-1.9-2.8,0-4.3,0c-0.9,0-2.5,0.9-2.5,0.3
			c0-1.2,1.6-0.8,2.4-1.3c0.6-0.3,1.7-0.1,1.7-0.8c0-0.7-0.9-0.9-1.6-0.9C371.4,194.2,371,193.9,370.9,193.1z M355.7,225.5
			c1.2,1.1,2.3,0.6,3.4,0.3c13.1-3.5,26.3-7,39.4-10.6c0.7-0.2,1.4-0.4,1.9-0.7c0.3-0.2,0.6-0.7,0.6-1c-0.1-0.6-0.7-0.4-1-0.3
			c-0.4,0-0.8,0.2-1.2,0.3c-10.5,2.8-21,5.6-31.4,8.4c-3.5,0.9-7,1.9-10.5,2.9C356.3,224.8,355.7,224.8,355.7,225.5z M359,227.4
			c1.1,0.9,2.1,0.5,3.2,0.2c7.5-2,15.1-4,22.6-6.1c4.1-1.1,8.1-2.2,12.2-3.3c1-0.3,2.5-0.4,2.2-1.7c-0.3-1.1-1.6-0.1-2.4,0
			c-7.4,1.9-14.8,3.9-22.2,5.9c-4.8,1.3-9.6,2.6-14.4,3.9C359.7,226.6,358.8,226.5,359,227.4z M397.1,220.8c0.1-0.4,0.4-0.9,0.3-1.2
			c-0.1-0.5-0.7-0.2-1.1-0.1c-3.2,0.8-6.3,1.7-9.5,2.5c-7.7,2-15.3,4-23,6.1c-0.6,0.2-1.8,0-1.6,1.1c0.2,0.8,1.3,0.6,2.1,0.4
			c0.3,0,0.7-0.2,1-0.2c10-2.7,19.9-5.4,29.9-8C395.9,221.2,396.4,220.9,397.1,220.8z M365.8,231.4c0.5,0.3,1.2,0.1,1.8,0
			c8.8-2.4,17.6-4.7,26.4-7.1c0.8-0.2,1.8-0.7,1.5-1.4c-0.3-1.1-1.3-0.2-1.9-0.1c-8.7,2.3-17.4,4.7-26.2,7c-0.6,0.2-1.2,0.3-1.7,0.5
			C365.2,230.5,365.3,230.9,365.8,231.4z M393.5,226.5c0-0.1,0.3-0.5,0.2-0.7c-0.4-0.6-0.9-0.2-1.4-0.1c-7.7,2-15.3,4.1-23,6.1
			c-0.4,0.1-1.3,0-1.1,0.8c0,0.3,0.8,0.6,1.3,0.7c0.5,0.1,1-0.1,1.5-0.2c6.8-1.8,13.7-3.6,20.5-5.5
			C392.2,227.4,393,227.3,393.5,226.5z M391.7,230c0.2-0.4,0.5-0.8,0.4-1c-0.2-0.6-0.7-0.3-1.1-0.2c-6.1,1.7-12.3,3.3-18.5,5
			c-0.4,0.1-1.3,0.1-1,0.8c0.1,0.3,0.8,0.5,1.3,0.6c0.4,0.1,0.8-0.1,1.3-0.2c5.3-1.4,10.5-2.8,15.7-4.2
			C390.5,230.6,391.1,230.3,391.7,230z M374.8,236.5c0.7,0.5,1.5,0.4,2.3,0.2c3.7-1,7.4-2,11.2-3c0.5-0.1,1.1-0.4,1.6-0.8
			c0.2-0.1,0.3-0.6,0.3-0.9c-0.1-0.4-0.6-0.3-0.9-0.2c-4.6,1.2-9.3,2.5-13.9,3.7C375,235.7,374.2,235.8,374.8,236.5z M388.1,234.9
			c-0.2,0-0.5,0-0.8,0.1c-2.9,0.8-5.8,1.5-8.7,2.3c-0.4,0.1-1,0.1-0.8,0.7c0,0.4,0.6,0.7,1,0.7c3.1-0.3,6-1.4,8.9-2.3
			C388.2,236.3,388.6,235.6,388.1,234.9z M381.5,240.5c1.6,0.3,3.2-0.3,4.7-1.1c0.4-0.2,0.7-0.8,0.5-1.3c0-0.1-0.8,0-1.2,0.1
			c-1.3,0.3-2.5,0.6-3.7,1C381.2,239.4,380.8,239.6,381.5,240.5z"/>
		<path d="M387.1,309.5c-14.4,14.4-37.7,14.4-52.1,0.1c-14.5-14.4-14.4-38,0.1-52.5c14.4-14.3,37.9-14.2,52.1,0.2
			C401.6,271.7,401.5,295.2,387.1,309.5z M335.6,258.1c-4.4,4.4-7.5,9.6-9.1,15.7c-2.3,8.6-1.6,16.9,2,25c0.9,2.1,1.8,2.4,3.8,1.2
			c4.3-2.7,8.8-5.2,13.1-7.7c1.4-0.8,1.9-3.1,4.3-2.5c0.1,0,0.5-0.3,0.5-0.4c0.1-0.5-0.3-0.5-0.7-0.6c-1-0.3-2-0.5-3-0.8
			c-0.3-0.1-0.7-0.2-0.6-0.7c0-0.1,0.6-0.2,0.9-0.1c1.7,0.4,3.4,0.8,5,1.2c0.6,0.1,1.4-0.2,1.5-0.8s-0.7-0.6-1.2-0.7
			c-1.9-0.5-3.8-1-5.7-1.6c-0.4-0.1-0.9-0.2-0.8-0.8c0-0.1,0.6-0.2,0.9-0.1c0.7,0.1,1.5,0.4,2.2,0.6c1.9,0.5,3.8,1,5.8,1.5
			c0.8,0.2,1.8,0,1.9-0.8c0.1-0.6-0.9-0.5-1.4-0.7c-2.6-0.8-5.3-1.4-7.9-2.2c-0.5-0.1-1.5,0-1.4-0.8c0.2-0.8,1-0.2,1.6-0.1
			c3.4,0.9,6.9,1.8,10.2,2.7c0.7,0.2,1.6,0.3,1.8-0.4c0.3-1-0.8-0.9-1.4-1c-3.6-1-7.2-1.9-10.7-2.9c-0.4-0.1-1.3-0.1-1.1-0.8
			s0.9-0.2,1.3-0.1c3.9,1,7.8,2.1,11.7,3.2c0.7,0.2,1.3,0.3,2,0.4c0.6,0.1,1.4,0,1.5-0.7c0-0.6-0.7-0.7-1.2-0.8
			c-1.9-0.5-3.8-1-5.7-1.6c-2.7-0.7-5.3-1.4-8-2.1c-0.3-0.1-0.8-0.2-0.7-0.6c0-0.4,0.5-0.3,0.9-0.3c0.7,0.1,1.5,0.3,2.2,0.6
			c4.5,1.2,9,2.4,13.5,3.6c0.8,0.2,1.8,0.3,2.1-0.4c0.3-1.1-1-0.9-1.6-1.1c-4.8-1.3-9.6-2.6-14.4-3.9c-0.5-0.1-1.6-0.1-1.4-0.8
			c0.2-0.7,1.1-0.2,1.6,0c5.3,1.4,10.7,2.9,16,4.2c0.7,0.2,1.4,0.4,2,0.3c0.4,0,1.1-0.2,1.2-0.8c0-0.5-0.6-0.5-1-0.6
			c-3-0.8-6-1.6-9-2.4c-2.8-0.7-5.5-1.5-8.3-2.2c-0.3-0.1-1-0.1-0.7-0.7c0-0.1,0.6-0.1,0.9-0.1c1.6,0.4,3.2,0.8,4.7,1.2
			c4.6,1.3,9.1,2.4,13.7,3.7c0.9,0.2,2.1,0.6,2.4-0.6c0.2-0.7-1.1-0.7-1.8-0.9c-5.4-1.5-10.8-2.9-16.2-4.4c-0.5-0.1-1.6-0.1-1.4-0.8
			c0.2-0.7,1-0.2,1.6-0.1c6,1.6,12,3.2,17.9,4.8c1.4,0.4,2.5,0.2,3.6-0.4c4.7-2.8,9.5-5.6,14.4-8.2c1.8-1,1.6-1.9,0.6-3.4
			C377.9,244.5,351.4,242.1,335.6,258.1z"/>
		<path d="M299.8,301.4c-1.3,1.3-1.8-0.1-2.2-0.9c-2.6-4.3-5.1-8.8-7.6-13.2c-8.9-15.4-17.8-30.8-26.7-46.3
			c-1.3-2.3-1.3-2.4,1.5-2.6c25.7-1.6,51.4-3.1,77.1-4.6c0.6,0,1.5-0.4,1.9,0.3c0.4,0.7-0.3,1.2-0.7,1.8
			c-14.3,21.6-28.6,43.2-42.8,64.8C300.1,301,299.9,301.2,299.8,301.4z M321,267.4c0.1-0.1,0.2-0.3,0.3-0.4
			c6.8-10.3,13.5-20.5,20.4-30.8c1.1-1.7-0.1-1.4-1.1-1.4c-11.8,0.7-23.5,1.5-35.4,2.1c-1.4,0.1-1.9,0.6-2.2,1.8
			c-1.2,4.8-2.6,9.7-3.8,14.4c-1.3,4.9-2.6,9.8-3.9,14.7c-0.1,0.4-0.5,1.1,0.2,1.4s1.1-0.1,1.3-0.8c0.2-0.6,0.3-1.2,0.5-1.8
			c2.3-8.6,4.6-17.1,6.9-25.7c0.1-0.4,0.1-1.3,0.7-1.2c0.7,0.1,0.2,0.8,0.2,1.3c-0.1,0.6-0.3,1.2-0.5,1.8c-2.1,8-4.3,16-6.4,24
			c-0.2,0.7-1,1.9,0.1,2.2c1.4,0.4,1.2-1.2,1.5-1.9c0.2-0.5,0.3-1,0.4-1.5c1.8-7,3.7-14,5.6-20.9c0.1-0.6,0.2-1.8,0.8-1.7
			c1,0.3,0.2,1.4,0,2c-1.9,7.3-3.9,14.6-5.8,22c-0.1,0.6-0.9,1.6,0.2,1.9c1.1,0.3,1.1-0.8,1.3-1.5c0.1-0.3,0.1-0.6,0.2-1
			c1.7-6.2,3.4-12.5,5.1-18.7c0.1-0.5,0.1-1.6,0.7-1.4c0.8,0.2,0.1,1.1,0.1,1.8c0,0.4-0.2,0.8-0.3,1.2c-1.6,5.9-3.2,11.8-4.7,17.8
			c-0.2,0.6-0.8,1.5,0.1,1.8c1.1,0.4,1.2-0.7,1.4-1.4c0.2-0.7,0.3-1.3,0.5-2c1.3-5,2.7-10,4-15c0.1-0.5,0.1-1.3,0.6-1.2
			c0.9,0.2,0.3,1,0.2,1.5c-0.8,3-1.6,6-2.4,9c-0.7,2.6-1.4,5.2-2,7.8c-0.1,0.4-0.3,0.9,0.2,1.1c0.6,0.3,1-0.1,1.2-0.6
			c0.3-0.8,0.5-1.6,0.7-2.5c1.1-4,2.1-8,3.2-12c0.1-0.4,0.1-1.3,0.8-1.1c0.6,0.2,0.2,0.9,0.1,1.4c-1.1,4.2-2.3,8.5-3.4,12.7
			c-0.1,0.6-0.9,1.6,0.2,1.9s1.1-0.8,1.3-1.5c0.9-3.4,1.8-6.7,2.7-10c0.1-0.5,0.1-1.6,0.7-1.4c0.9,0.2,0.2,1.2,0.1,1.8
			c-0.8,3.1-1.7,6.1-2.4,9.2c-0.1,0.5-0.9,1.5,0.1,1.8c1,0.3,1.2-0.6,1.4-1.4c0.7-2.4,1.3-4.8,2-7.2c0.1-0.4,0.1-1,0.7-0.9
			c0.5,0.1,0.3,0.7,0.2,1.1c-0.6,2.3-1.3,4.7-1.8,7c-0.1,0.4-0.5,1.1,0.2,1.4c0.7,0.3,1.1-0.1,1.3-0.8c0.3-1.2,0.6-2.3,1-3.5
			c0.2-0.7,0-2.1,1.1-1.9c0.6,0.1,0,1.4-0.1,2.1c-0.2,1-0.5,2-0.8,3c-0.1,0.4-0.3,0.9,0.3,1c0.5,0.1,0.9-0.1,1.1-0.5
			c0.2-0.5,0.3-1,0.5-1.5c0.1-0.4,0.1-1.3,0.6-1.2c0.9,0.1,0.2,0.9,0.2,1.5c0,0.5-0.5,1.2,0.2,1.6
			C320.2,268.2,320.6,267.9,321,267.4z M301.9,239.4c-1.3,1.2-2.3,2.5-2.8,4.2c-2.1,8-4.3,16-6.4,24c-0.1,0.6-0.9,1.6,0.2,1.9
			c1,0.3,1.2-0.8,1.3-1.5c1-3.6,1.9-7.3,3-10.9C298.7,251.2,300.2,245.3,301.9,239.4z M297.4,246c-0.1,0-0.3-0.1-0.5-0.2
			c-0.7,1.2-1.7,2.4-2.1,3.7c-1.8,6.2-3.4,12.4-5,18.6c-0.1,0.5-0.7,1.3,0.2,1.5c0.9,0.2,1.2-0.5,1.3-1.2c0.5-2.1,1.1-4.1,1.7-6.2
			C294.5,256.9,296,251.4,297.4,246z M293.2,252c-1.6,1.9-2.6,3.3-3,5c-1,3.7-2,7.5-3,11.2c-0.1,0.5-0.8,1.4,0.2,1.8
			c0.8,0.2,1.1-0.6,1.3-1.3C290.1,263.3,291.6,258,293.2,252z M288.7,258.9c-2.9,2.9-3.3,6.4-4.2,9.6c-0.1,0.5-0.6,1.3,0.3,1.5
			s1.1-0.6,1.3-1.3C286.9,265.6,287.7,262.5,288.7,258.9z"/>
		<path d="M372.5,273.4c-0.3,0-0.6,0-1-0.1c-4.9-1.3-9.8-2.6-14.6-3.9c-0.4-0.1-1-0.1-0.9-0.6c0.1-0.7,0.8-0.3,1.3-0.3
			c4.9,1.3,9.8,2.6,14.6,3.9c0.3,0.1,0.6,0.3,0.8,0.5C372.7,273,372.6,273.2,372.5,273.4z"/>
	</g>
</g>
<g id="HTMIIo_00000040555872375348560150000010493749056963540359_">
	<g>
		<path d="M525.3,267.2c0.2,1.5-1,1.6-2.1,1.9c-19.2,5.1-38.4,10.3-57.6,15.4c-6.5,1.8-13.1,3.4-19.6,5.3c-2.3,0.6-3.4,0.2-4.1-2.2
			c-6.8-25.7-13.6-51.3-20.6-77c-0.8-3,0.9-3.3,2.9-3.8c20.8-5.6,41.7-11.2,62.5-16.7c4.6-1.2,9.1-2.3,13.6-3.7
			c2.4-0.7,3.4-0.2,4,2.2c5.2,19.6,10.5,39.2,15.7,58.8c1.6,6,3.2,12,4.8,18C525,265.9,525.1,266.5,525.3,267.2z M472.7,238.5
			c-0.6,0.1-1.1,0.2-1.7,0.4c-12,3.2-23.9,6.5-35.9,9.6c-1.8,0.5-2.1,1.4-1.6,3c3.2,11.8,6.4,23.7,9.5,35.6c0.5,1.9,1.3,2,3,1.5
			c12-3.3,23.9-6.5,35.9-9.6c1.9-0.5,3-1.4,4-3.2c8.6-15.1,17.4-30.1,26-45.2c0.5-0.8,1.9-1.9,0.7-2.6c-1-0.6-1.8,0.9-2.3,1.8
			c-0.2,0.2-0.3,0.6-0.5,0.8c-4.8,8.3-9.6,16.6-14.4,24.9c-3.5,6.1-7.1,12.3-10.7,18.4c-0.3,0.5-0.6,1.4-1.1,1.2
			c-0.9-0.5-0.1-1.2,0.2-1.8s0.6-1,0.9-1.6c7.6-13.2,15.2-26.3,22.7-39.5c0.6-1,2.2-2.8,1.4-3.2c-1.8-0.9-2.3,1.4-3,2.6
			c-7.3,12.5-14.4,24.9-21.6,37.4c-0.5,0.8-0.8,2.6-1.9,2c-0.7-0.3,0.5-1.7,1-2.5c6.9-12.1,13.9-24.1,20.8-36.2
			c0.4-0.7,1.5-1.7,0.6-2.2c-1-0.6-1.7,0.6-2.2,1.4c-0.4,0.6-0.8,1.4-1.2,2.1c-5.8,10.1-11.7,20.3-17.6,30.4
			c-0.5,0.8-0.9,1.6-1.4,2.3c-0.2,0.4-0.5,1-1,0.6c-0.2-0.1-0.1-0.7,0.1-1c0.2-0.6,0.6-1.2,1-1.8c5.8-10.1,11.6-20,17.4-30.1
			c0.5-0.9,1.8-2.2,1-2.7c-1.4-0.9-2.1,1-2.7,2c-0.2,0.4-0.5,0.9-0.8,1.3c-5.2,9-10.4,18-15.6,27c-0.3,0.6-0.7,1.8-1.3,1.4
			c-1-0.6,0.1-1.4,0.4-1.9c5-8.8,10.1-17.5,15.1-26.3c0.5-0.8,1.7-2.1,1-2.5c-1.2-0.7-2.1,0.6-2.6,1.8c-0.2,0.4-0.5,0.9-0.7,1.3
			c-4.2,7.3-8.5,14.7-12.8,22c-0.4,0.7-0.6,2.2-1.6,1.6c-0.7-0.4,0.4-1.5,0.8-2.2c3.9-6.8,7.8-13.5,11.7-20.3c0.6-1,2-2.6,1.2-3
			c-1.5-0.8-2.2,1.1-2.9,2.3c-3.5,6.1-7,12.1-10.5,18.2c-0.2,0.5-0.6,1.4-1.1,1.2c-0.9-0.5-0.1-1.2,0.2-1.8
			c3.2-5.7,6.5-11.3,9.7-16.9c0.3-0.6,1.4-1.4,0.4-2c-0.7-0.5-1.5,0.3-1.9,1c-0.5,0.6-0.8,1.4-1.2,2.1c-2.3,4.1-4.7,8.1-7,12.2
			c-0.3,0.5-0.7,1.4-1.1,1.2c-0.9-0.5-0.1-1.2,0.2-1.8c2.2-3.8,4.4-7.6,6.5-11.4c0.3-0.6,1.3-1.5,0.5-2.1c-0.9-0.6-1.6,0.4-2.1,1.2
			c-1,1.8-1.9,3.5-3,5.2c-1.1,1.6-1.4,3.9-3.5,4.8c0.2-2.1,1.8-3.4,2.6-5.3c0.6-1.6,2.8-4.1,1.9-4.5c-2.3-0.9-2.3,2.2-3.5,3.5
			c-0.7,0.8-1.4,2.8-1.8,2.3c-1-1,0.6-1.9,1-3c0.2-0.7,1.3-1.4,0.7-2.1s-1.5,0-2,0.6C474,239.1,473.5,239.1,472.7,238.5z
			 M486.8,277.5c1.9-0.1,2.4-1.4,3-2.6c7.9-13.6,15.8-27.3,23.6-40.9c0.4-0.7,0.8-1.4,1-2.2c0.1-0.4-0.1-1.1-0.3-1.4
			c-0.6-0.4-0.9,0.2-1.1,0.6c-0.3,0.4-0.5,0.9-0.7,1.3c-6.3,10.9-12.6,21.8-18.8,32.6c-2.1,3.6-4.2,7.3-6.2,10.9
			C486.8,276.5,486.2,277,486.8,277.5z M491,276.4c1.7-0.2,2.2-1.4,2.8-2.4c4.6-7.8,9.1-15.7,13.6-23.5c2.5-4.2,4.9-8.5,7.3-12.7
			c0.6-1,1.7-2.4,0.5-3.2c-1.1-0.6-1.4,1.2-1.9,2c-4.5,7.7-8.9,15.3-13.3,23.1c-2.9,5-5.7,10-8.6,15
			C491,275.1,490.2,275.9,491,276.4z M516.9,239.8c-0.2-0.5-0.4-1.1-0.7-1.3c-0.6-0.3-0.8,0.4-1,0.8c-1.9,3.3-3.8,6.5-5.7,9.8
			c-4.6,8-9.3,15.9-13.8,23.9c-0.3,0.6-1.5,1.5-0.4,2.2c0.9,0.5,1.6-0.6,2.1-1.4c0.2-0.3,0.4-0.7,0.6-1c6-10.4,12-20.8,18-31.1
			C516.3,241,516.5,240.4,516.9,239.8z M500,274.1c0.7-0.2,1.1-0.9,1.5-1.5c5.3-9.2,10.6-18.3,15.9-27.5c0.5-0.9,0.9-2,0.1-2.4
			c-1.2-0.6-1.3,0.9-1.7,1.4c-5.3,9-10.5,18.1-15.7,27.2c-0.3,0.6-0.7,1.2-1,1.8C498.8,273.9,499.1,274.1,500,274.1z M518.7,247.4
			c-0.1-0.1-0.2-0.6-0.4-0.7c-0.8-0.2-1,0.6-1.2,1c-4.6,8-9.2,15.9-13.8,23.9c-0.2,0.5-1,1-0.2,1.5c0.3,0.2,1.2-0.2,1.6-0.5
			c0.5-0.3,0.7-1,1-1.4c4.1-7.1,8.2-14.2,12.3-21.3C518.4,249.2,518.9,248.5,518.7,247.4z M520,251.7c-0.2-0.5-0.2-1-0.5-1.2
			c-0.6-0.3-0.9,0.3-1,0.7c-3.7,6.4-7.4,12.8-11.1,19.2c-0.2,0.5-1,1.1-0.2,1.5c0.3,0.2,1.1-0.2,1.6-0.6c0.4-0.2,0.6-0.8,0.9-1.2
			c3.2-5.4,6.3-10.9,9.4-16.4C519.5,253.2,519.8,252.5,520,251.7z M511.5,270.9c1-0.2,1.6-0.9,2.1-1.7c2.2-3.9,4.5-7.7,6.7-11.7
			c0.3-0.6,0.6-1.3,0.6-1.9c0.1-0.3-0.2-0.8-0.5-1c-0.4-0.2-0.7,0.2-0.9,0.6c-2.8,4.8-5.6,9.7-8.4,14.4
			C511,270.1,510.5,270.8,511.5,270.9z M521.2,258.7c-0.2,0.2-0.4,0.5-0.6,0.7c-1.8,3-3.5,6-5.3,9c-0.2,0.4-0.7,0.9-0.1,1.3
			c0.4,0.3,1,0.1,1.4-0.2c2.2-2.8,3.8-6.1,5.4-9.2C522.4,259.7,522.2,258.8,521.2,258.7z M520.3,268.7c1.5-1,2.3-2.9,3-4.7
			c0.2-0.5-0.1-1.3-0.6-1.4c-0.2-0.1-0.6,0.6-0.9,1c-0.8,1.3-1.5,2.6-2.2,3.9C519.1,268,519,268.6,520.3,268.7z"/>
		<path d="M581.6,320.7c0,23.6-19.2,42.8-42.7,42.9c-23.8,0.1-43-19.3-42.9-43.2c0.1-23.5,19.5-42.7,42.9-42.6
			C562.4,277.8,581.6,297.2,581.6,320.7z M497.1,320.9c0,7.3,1.8,14,5.3,20.4c5.1,8.9,12.5,15.2,22.2,18.8c2.5,1,3.5,0.5,4.1-2.2
			c1.4-5.7,3-11.4,4.5-17.1c0.5-1.8-1-4.2,1.4-5.6c0.2-0.1,0.2-0.6,0.1-0.8c-0.3-0.5-0.7-0.2-1,0.1c-1,0.6-2.1,1.2-3.1,1.8
			c-0.3,0.2-0.8,0.4-1-0.1c-0.1-0.2,0.3-0.7,0.6-0.9c1.7-1,3.4-2.1,5.1-3.1c0.6-0.4,1-1.3,0.6-1.8c-0.4-0.6-1,0.1-1.5,0.4
			c-2,1.1-4,2.3-6,3.4c-0.4,0.2-0.9,0.6-1.3,0c-0.1-0.1,0.3-0.6,0.6-0.9c0.7-0.5,1.5-0.9,2.3-1.4c2-1.1,4-2.3,6-3.5
			c0.8-0.5,1.5-1.4,1-2.2c-0.4-0.6-1.2,0.3-1.8,0.6c-2.8,1.5-5.5,3.2-8.3,4.7c-0.6,0.3-1.3,1.2-1.8,0.5c-0.5-0.8,0.6-1,1.2-1.4
			c3.5-2.1,7.1-4.2,10.6-6.1c0.7-0.4,1.6-1,1.1-1.8c-0.6-1-1.4-0.1-2,0.3c-3.8,2.1-7.4,4.3-11.2,6.4c-0.5,0.2-1.1,1-1.5,0.2
			c-0.4-0.7,0.6-0.9,1-1.2c4.1-2.4,8.1-4.7,12.2-7c0.7-0.4,1.4-0.8,2-1.3c0.6-0.4,1.1-1.1,0.6-1.8c-0.5-0.6-1.1,0-1.6,0.3
			c-2,1.1-4,2.3-6,3.4c-2.8,1.6-5.5,3.2-8.3,4.8c-0.3,0.2-0.8,0.5-1,0.1c-0.3-0.4,0.2-0.7,0.5-1c0.7-0.5,1.5-1,2.3-1.4
			c4.7-2.7,9.3-5.4,14-8.1c0.8-0.5,1.8-1.3,1.4-2.1c-0.6-1.2-1.5,0.1-2.2,0.4c-5,2.9-10.1,5.7-15.1,8.6c-0.6,0.3-1.4,1.2-1.8,0.5
			c-0.4-0.7,0.7-1,1.3-1.4c5.5-3.2,11.1-6.4,16.6-9.7c0.7-0.4,1.4-0.8,1.9-1.4c0.3-0.4,0.7-1.1,0.3-1.6c-0.4-0.5-0.9,0.1-1.3,0.3
			c-3.1,1.8-6.2,3.6-9.3,5.3c-2.9,1.7-5.7,3.3-8.6,4.9c-0.3,0.2-0.9,0.7-1.2,0c-0.1-0.2,0.4-0.6,0.6-0.9c1.6-1,3.3-1.9,4.9-2.9
			c4.8-2.7,9.5-5.5,14.3-8.2c1-0.6,2.2-1.3,1.5-2.5c-0.4-0.7-1.5,0.3-2.2,0.7c-5.7,3.2-11.3,6.5-16.9,9.7c-0.6,0.3-1.4,1.2-1.8,0.5
			s0.6-1,1.2-1.4c6.2-3.6,12.5-7.3,18.7-10.8c1.4-0.8,2.2-1.8,2.6-3.4c1.6-6.1,3.2-12.4,5-18.5c0.6-2.3-0.2-2.9-2.3-3.3
			C520.6,274.9,496.9,294.7,497.1,320.9z"/>
		<path d="M503.2,385.8c0,2.1-1.5,1.4-2.6,1.1c-5.7-1.4-11.4-3-17.1-4.6c-20-5.3-39.9-10.7-59.9-16.1c-3-0.8-3-1-1-3.4
			c19.8-22.4,39.7-44.7,59.5-67.1c0.5-0.6,0.9-1.5,1.8-1.4c1,0.2,0.7,1.3,0.9,2.1c6.1,29.5,12.1,58.9,18.1,88.3
			C503.1,385.1,503.2,385.5,503.2,385.8z M492.7,340.4c0-0.2-0.1-0.4-0.1-0.6c-2.9-14-5.7-27.9-8.5-42c-0.5-2.3-1.3-1-2-0.2
			c-9.1,10.2-18.1,20.5-27.3,30.7c-1,1.2-1.1,2.1-0.3,3.4c3,4.9,5.8,10.1,8.7,15c3,5.1,5.9,10.2,8.9,15.3c0.2,0.5,0.5,1.3,1.3,1
			c0.8-0.3,0.8-1,0.4-1.8c-0.3-0.6-0.7-1.2-1-1.8c-5.1-8.9-10.3-17.8-15.4-26.7c-0.2-0.5-1-1.1-0.4-1.5c0.6-0.5,0.9,0.5,1.2,0.9
			c0.4,0.6,0.7,1.2,1,1.8c4.8,8.3,9.6,16.6,14.4,24.9c0.4,0.7,0.7,2.4,1.9,1.8c1.4-0.8,0-1.9-0.4-2.8c-0.2-0.6-0.6-1-0.9-1.6
			c-4.2-7.3-8.4-14.5-12.5-21.8c-0.4-0.6-1.4-1.7-0.7-2c1-0.6,1.3,1,1.7,1.6c4.5,7.6,8.8,15.2,13.3,22.8c0.4,0.6,0.6,2.1,1.8,1.4
			c1.1-0.6,0.2-1.6-0.2-2.3c-0.2-0.3-0.4-0.6-0.6-1c-3.8-6.5-7.5-13-11.2-19.5c-0.3-0.6-1.2-1.4-0.6-1.8c0.9-0.5,1,0.8,1.5,1.4
			c0.3,0.4,0.5,0.9,0.7,1.3c3.6,6.1,7.1,12.3,10.7,18.4c0.3,0.6,0.6,1.8,1.6,1.4c1.2-0.6,0.4-1.5,0-2.3c-0.4-0.7-0.8-1.4-1.2-2.1
			c-3-5.2-6-10.4-9-15.6c-0.3-0.5-1-1.2-0.5-1.5c0.9-0.6,1.1,0.6,1.4,1c1.8,3.1,3.6,6.2,5.4,9.3c1.5,2.7,3.1,5.3,4.7,8.1
			c0.2,0.4,0.5,1,1.1,0.7c0.7-0.2,0.7-1,0.5-1.5c-0.4-0.9-0.9-1.8-1.4-2.6c-2.4-4.2-4.8-8.3-7.2-12.5c-0.2-0.5-1-1.1-0.2-1.5
			c0.6-0.3,1,0.6,1.2,1c2.6,4.4,5.1,8.9,7.7,13.2c0.4,0.6,0.6,2.1,1.8,1.4c1.2-0.6,0.2-1.6-0.2-2.3c-2-3.5-4-6.9-6-10.4
			c-0.3-0.6-1.2-1.4-0.6-1.8c1-0.6,1.1,0.8,1.5,1.4c1.9,3.2,3.7,6.4,5.6,9.6c0.3,0.6,0.5,1.9,1.5,1.4c1-0.6,0.5-1.5,0-2.3
			c-1.4-2.6-2.9-5-4.3-7.6c-0.2-0.4-0.7-1-0.2-1.3c0.5-0.3,0.8,0.3,1,0.7c1.4,2.4,2.8,4.9,4.2,7.3c0.2,0.5,0.5,1.3,1.3,1
			c0.8-0.3,0.8-1,0.4-1.8c-0.7-1.2-1.4-2.4-2.1-3.7c-0.4-0.8-1.7-1.8-0.7-2.5c0.6-0.4,1.1,1.1,1.6,1.8c0.6,1,1.2,2.1,1.8,3.1
			c0.2,0.4,0.5,1,1.1,0.6c0.5-0.3,0.6-0.8,0.5-1.3c-0.2-0.6-0.6-1-0.8-1.6c-0.2-0.5-1-1.2-0.5-1.5c0.9-0.6,1,0.6,1.4,1
			c0.5,0.4,0.6,1.4,1.5,1.1C492.7,341.7,492.9,341.1,492.7,340.4z M454.1,333.2c-0.1,2.1,0.2,4,1.2,5.7c4.8,8.3,9.6,16.6,14.4,24.9
			c0.4,0.6,0.6,2.1,1.8,1.4c1.1-0.6,0.3-1.6-0.2-2.3c-2.2-3.8-4.4-7.6-6.5-11.4C461.2,345.4,457.6,339.3,454.1,333.2z M455.8,342.2
			c-0.2,0.1-0.3,0.2-0.6,0.2c0.4,1.6,0.6,3.4,1.4,4.8c3.6,6.5,7.4,12.9,11.2,19.4c0.3,0.5,0.5,1.6,1.4,1s0.6-1.4,0.1-2.1
			c-1.3-2.2-2.5-4.3-3.8-6.5C462.4,353.5,459.1,347.9,455.8,342.2z M457.3,350.6c0.3,2.9,0.6,4.8,1.6,6.5c2.2,3.9,4.5,7.8,6.8,11.7
			c0.3,0.6,0.5,1.8,1.6,1.3c0.9-0.5,0.4-1.4,0-2.1C464,362.4,460.9,356.9,457.3,350.6z M459.3,359.9c0,4.8,2.6,8,4.5,11.3
			c0.3,0.6,0.6,1.5,1.5,1c1-0.6,0.4-1.4,0-2.1C463.3,366.9,461.4,363.7,459.3,359.9z"/>
		<path d="M540,303.1c-0.3,0.2-0.6,0.5-0.9,0.7c-5.1,3-10.1,5.9-15.2,8.8c-0.4,0.2-1,0.7-1.3,0.2c-0.5-0.7,0.4-1,0.8-1.3
			c5.1-3,10.1-5.9,15.2-8.8c0.3-0.2,0.7-0.2,1.1-0.2C539.8,302.6,539.9,302.8,540,303.1z"/>
	</g>
</g>
<g id="HTMIIo_00000079476907148352767820000007318874523853240449_">
	<g>
		<path d="M390.5,79.5c0.1,0.8-0.5,0.8-1.1,1c-9.7,2.6-19.5,5.2-29.3,7.8c-3.3,0.9-6.7,1.7-10,2.7c-1.2,0.3-1.7,0.1-2.1-1.1
			c-3.4-13.1-6.9-26.1-10.5-39.1c-0.4-1.5,0.4-1.7,1.5-1.9c10.6-2.8,21.2-5.7,31.8-8.5c2.3-0.6,4.6-1.2,6.9-1.9
			c1.2-0.4,1.7-0.1,2,1.1c2.6,9.9,5.3,19.9,8,29.9c0.8,3,1.6,6.1,2.4,9.1C390.4,78.8,390.4,79.1,390.5,79.5z M363.8,64.9
			c-0.3,0-0.6,0.1-0.9,0.2c-6.1,1.6-12.2,3.3-18.3,4.9c-0.9,0.2-1.1,0.7-0.8,1.5c1.6,6,3.2,12.1,4.8,18.1c0.2,1,0.6,1,1.5,0.8
			c6.1-1.7,12.2-3.3,18.3-4.9c1-0.2,1.5-0.7,2-1.6c4.4-7.7,8.8-15.3,13.2-23c0.2-0.4,1-1,0.4-1.3c-0.5-0.3-0.9,0.4-1.2,0.9
			c-0.1,0.1-0.2,0.3-0.2,0.4c-2.4,4.2-4.9,8.4-7.3,12.7c-1.8,3.1-3.6,6.2-5.4,9.4c-0.2,0.2-0.3,0.7-0.6,0.6c-0.4-0.2,0-0.6,0.1-0.9
			s0.3-0.5,0.4-0.8c3.9-6.7,7.7-13.4,11.6-20.1c0.3-0.5,1.1-1.4,0.7-1.6c-0.9-0.4-1.2,0.7-1.5,1.3c-3.7,6.3-7.3,12.7-11,19
			c-0.2,0.4-0.4,1.3-1,1c-0.4-0.2,0.2-0.9,0.5-1.3c3.5-6.1,7.1-12.3,10.6-18.4c0.2-0.4,0.8-0.9,0.3-1.1c-0.5-0.3-0.9,0.3-1.1,0.7
			c-0.2,0.3-0.4,0.7-0.6,1.1c-3,5.2-5.9,10.3-8.9,15.5c-0.2,0.4-0.4,0.8-0.7,1.2c-0.1,0.2-0.2,0.5-0.5,0.3c-0.1,0,0-0.4,0-0.5
			c0.1-0.3,0.3-0.6,0.5-0.9c3-5.1,5.9-10.2,8.8-15.3c0.2-0.4,0.9-1.1,0.5-1.4c-0.7-0.4-1.1,0.5-1.4,1c-0.1,0.2-0.2,0.4-0.4,0.6
			c-2.6,4.6-5.3,9.2-7.9,13.7c-0.2,0.3-0.4,0.9-0.6,0.7c-0.5-0.3,0-0.7,0.2-1c2.6-4.5,5.1-8.9,7.7-13.4c0.2-0.4,0.9-1.1,0.5-1.3
			c-0.6-0.4-1.1,0.3-1.3,0.9c-0.1,0.2-0.2,0.4-0.4,0.6c-2.2,3.7-4.3,7.5-6.5,11.2c-0.2,0.4-0.3,1.1-0.8,0.8
			c-0.4-0.2,0.2-0.8,0.4-1.1c2-3.4,4-6.9,5.9-10.3c0.3-0.5,1-1.3,0.6-1.5c-0.8-0.4-1.1,0.6-1.5,1.2c-1.8,3.1-3.6,6.2-5.4,9.3
			c-0.1,0.2-0.3,0.7-0.6,0.6c-0.4-0.2,0-0.6,0.1-0.9c1.6-2.9,3.3-5.7,5-8.6c0.2-0.3,0.7-0.7,0.2-1c-0.4-0.2-0.8,0.2-1,0.5
			c-0.2,0.3-0.4,0.7-0.6,1.1c-1.2,2.1-2.4,4.1-3.6,6.2c-0.2,0.2-0.4,0.7-0.6,0.6c-0.4-0.2,0-0.6,0.1-0.9c1.1-1.9,2.2-3.9,3.3-5.8
			c0.2-0.3,0.6-0.8,0.2-1.1c-0.4-0.3-0.8,0.2-1.1,0.6c-0.5,0.9-1,1.8-1.5,2.6c-0.6,0.8-0.7,2-1.8,2.4c0.1-1.1,0.9-1.7,1.3-2.7
			c0.3-0.8,1.4-2.1,1-2.3c-1.2-0.4-1.2,1.1-1.8,1.8c-0.4,0.4-0.7,1.4-0.9,1.2c-0.5-0.5,0.3-1,0.5-1.5c0.1-0.4,0.6-0.7,0.4-1.1
			s-0.8,0-1,0.3C364.5,65.2,364.2,65.2,363.8,64.9z M371,84.7c1,0,1.2-0.7,1.5-1.3c4-6.9,8-13.9,12-20.8c0.2-0.4,0.4-0.7,0.5-1.1
			c0-0.2,0-0.6-0.2-0.7c-0.3-0.2-0.4,0.1-0.6,0.3c-0.2,0.2-0.2,0.4-0.4,0.6c-3.2,5.5-6.4,11.1-9.6,16.6c-1.1,1.8-2.1,3.7-3.2,5.6
			C371,84.2,370.7,84.5,371,84.7z M373.1,84.2c0.9-0.1,1.1-0.7,1.4-1.2c2.3-4,4.6-8,6.9-12c1.3-2.2,2.5-4.3,3.7-6.5
			c0.3-0.5,0.9-1.2,0.2-1.6c-0.6-0.3-0.7,0.6-1,1c-2.3,3.9-4.5,7.8-6.8,11.7c-1.5,2.6-2.9,5.1-4.4,7.6
			C373.1,83.5,372.7,83.9,373.1,84.2z M386.2,65.5c-0.1-0.2-0.2-0.6-0.4-0.6c-0.3-0.2-0.4,0.2-0.5,0.4c-1,1.7-1.9,3.3-2.9,5
			c-2.4,4.1-4.7,8.1-7,12.1c-0.2,0.3-0.8,0.8-0.2,1.1c0.4,0.2,0.8-0.3,1.1-0.7c0.1-0.2,0.2-0.4,0.3-0.5c3-5.3,6.1-10.6,9.1-15.8
			C385.9,66.2,386,65.9,386.2,65.5z M377.6,83c0.4-0.1,0.6-0.4,0.8-0.8c2.7-4.7,5.4-9.3,8.1-14c0.2-0.4,0.4-1,0-1.2
			c-0.6-0.3-0.6,0.4-0.9,0.7c-2.7,4.6-5.3,9.2-8,13.8c-0.2,0.3-0.4,0.6-0.5,0.9C377,82.9,377.2,83,377.6,83z M387.2,69.4
			c0,0-0.1-0.3-0.2-0.4c-0.4-0.1-0.5,0.3-0.6,0.5c-2.4,4.1-4.7,8.1-7,12.1c-0.1,0.2-0.5,0.5-0.1,0.8c0.2,0.1,0.6-0.1,0.8-0.2
			c0.2-0.2,0.4-0.5,0.5-0.7c2.1-3.6,4.2-7.2,6.2-10.8C387,70.3,387.3,70,387.2,69.4z M387.8,71.6c-0.1-0.2-0.1-0.5-0.2-0.6
			c-0.3-0.2-0.4,0.2-0.5,0.4c-1.9,3.2-3.8,6.5-5.6,9.8c-0.1,0.2-0.5,0.6-0.1,0.8c0.2,0.1,0.6-0.1,0.8-0.3c0.2-0.1,0.3-0.4,0.4-0.6
			c1.6-2.8,3.2-5.5,4.8-8.3C387.6,72.4,387.7,72,387.8,71.6z M383.5,81.4c0.5-0.1,0.8-0.4,1.1-0.9c1.1-2,2.3-3.9,3.4-5.9
			c0.2-0.3,0.3-0.6,0.3-1c0-0.2-0.1-0.4-0.2-0.5c-0.2-0.1-0.4,0.1-0.4,0.3c-1.4,2.4-2.8,4.9-4.3,7.3C383.2,81,383,81.3,383.5,81.4z
			 M388.4,75.2c-0.1,0.1-0.2,0.2-0.3,0.4c-0.9,1.5-1.8,3-2.7,4.6c-0.1,0.2-0.4,0.4,0,0.6c0.2,0.2,0.5,0,0.7-0.1
			c1.1-1.4,1.9-3.1,2.8-4.7C389,75.7,388.9,75.2,388.4,75.2z M388,80.2c0.8-0.5,1.2-1.5,1.5-2.4c0.1-0.2,0-0.6-0.3-0.7
			c-0.1,0-0.3,0.3-0.4,0.5c-0.4,0.6-0.8,1.3-1.1,2C387.4,79.9,387.3,80.2,388,80.2z"/>
		<path d="M419.1,106.7c0,12-9.7,21.8-21.7,21.8c-12.1,0-21.9-9.8-21.8-22c0-11.9,9.9-21.7,21.8-21.7
			C409.4,84.9,419.1,94.7,419.1,106.7z M376.2,106.8c0,3.7,0.9,7.1,2.7,10.3c2.6,4.5,6.4,7.7,11.3,9.6c1.3,0.5,1.8,0.2,2.1-1.1
			c0.7-2.9,1.5-5.8,2.3-8.7c0.2-0.9-0.5-2.1,0.7-2.8c0.1,0,0.1-0.3,0-0.4c-0.2-0.2-0.4-0.1-0.5,0c-0.5,0.3-1.1,0.6-1.6,0.9
			c-0.2,0.1-0.4,0.2-0.5,0c0-0.1,0.2-0.4,0.3-0.4c0.9-0.5,1.7-1.1,2.6-1.6c0.3-0.2,0.5-0.6,0.3-0.9c-0.2-0.3-0.5,0-0.8,0.2
			c-1,0.6-2,1.2-3,1.7c-0.2,0.1-0.4,0.3-0.6,0c0,0,0.2-0.3,0.3-0.4c0.4-0.2,0.8-0.4,1.2-0.7c1-0.6,2-1.2,3-1.8
			c0.4-0.2,0.8-0.7,0.5-1.1c-0.2-0.3-0.6,0.2-0.9,0.3c-1.4,0.8-2.8,1.6-4.2,2.4c-0.3,0.2-0.6,0.6-0.9,0.2c-0.2-0.4,0.3-0.5,0.6-0.7
			c1.8-1.1,3.6-2.1,5.4-3.1c0.4-0.2,0.8-0.5,0.6-0.9c-0.3-0.5-0.7,0-1,0.2c-1.9,1.1-3.8,2.2-5.7,3.2c-0.2,0.1-0.6,0.5-0.8,0.1
			c-0.2-0.4,0.3-0.4,0.5-0.6c2.1-1.2,4.1-2.4,6.2-3.6c0.4-0.2,0.7-0.4,1-0.6c0.3-0.2,0.6-0.6,0.3-0.9c-0.2-0.3-0.6,0-0.8,0.2
			c-1,0.6-2,1.2-3,1.7c-1.4,0.8-2.8,1.6-4.2,2.4c-0.2,0.1-0.4,0.2-0.5,0c-0.2-0.2,0.1-0.4,0.2-0.5c0.4-0.2,0.8-0.5,1.2-0.7
			c2.4-1.4,4.7-2.8,7.1-4.1c0.4-0.2,0.9-0.6,0.7-1.1c-0.3-0.6-0.8,0-1.1,0.2c-2.6,1.5-5.1,2.9-7.7,4.4c-0.3,0.2-0.7,0.6-0.9,0.2
			c-0.2-0.4,0.4-0.5,0.6-0.7c2.8-1.6,5.6-3.2,8.4-4.9c0.4-0.2,0.7-0.4,1-0.7c0.2-0.2,0.4-0.6,0.2-0.8c-0.2-0.2-0.4,0-0.6,0.2
			c-1.6,0.9-3.2,1.8-4.7,2.7c-1.5,0.9-2.9,1.7-4.4,2.5c-0.2,0.1-0.4,0.4-0.6,0c0-0.1,0.2-0.3,0.3-0.4c0.8-0.5,1.7-1,2.5-1.5
			c2.4-1.4,4.8-2.8,7.3-4.2c0.5-0.3,1.1-0.6,0.8-1.3c-0.2-0.4-0.8,0.2-1.1,0.4c-2.9,1.6-5.7,3.3-8.6,5c-0.3,0.2-0.7,0.6-0.9,0.2
			c-0.2-0.4,0.3-0.5,0.6-0.7c3.2-1.8,6.3-3.7,9.5-5.5c0.7-0.4,1.1-0.9,1.3-1.7c0.8-3.1,1.6-6.3,2.6-9.4c0.3-1.2-0.1-1.5-1.2-1.7
			C388.2,83.4,376.1,93.5,376.2,106.8z"/>
		<path d="M379.3,139.8c0,1.1-0.8,0.7-1.3,0.6c-2.9-0.7-5.8-1.5-8.7-2.3c-10.1-2.7-20.3-5.4-30.4-8.2c-1.5-0.4-1.5-0.5-0.5-1.7
			c10.1-11.4,20.2-22.7,30.2-34.1c0.2-0.3,0.4-0.8,0.9-0.7c0.5,0.1,0.4,0.6,0.4,1.1c3.1,15,6.1,29.9,9.2,44.9
			C379.2,139.4,379.3,139.6,379.3,139.8z M374,116.7c0-0.1,0-0.2,0-0.3c-1.5-7.1-2.9-14.2-4.3-21.3c-0.2-1.2-0.6-0.5-1-0.1
			c-4.6,5.2-9.2,10.4-13.9,15.6c-0.5,0.6-0.6,1.1-0.2,1.7c1.5,2.5,3,5.1,4.4,7.6c1.5,2.6,3,5.2,4.5,7.8c0.1,0.2,0.2,0.6,0.6,0.5
			c0.4-0.2,0.4-0.5,0.2-0.9c-0.2-0.3-0.4-0.6-0.5-0.9c-2.6-4.5-5.2-9-7.8-13.6c-0.1-0.2-0.5-0.6-0.2-0.8c0.3-0.2,0.4,0.2,0.6,0.4
			c0.2,0.3,0.4,0.6,0.5,0.9c2.4,4.2,4.9,8.4,7.3,12.7c0.2,0.4,0.4,1.2,1,0.9c0.7-0.4,0-1-0.2-1.4c-0.1-0.3-0.3-0.5-0.4-0.8
			c-2.2-3.7-4.3-7.4-6.4-11.1c-0.2-0.3-0.7-0.9-0.4-1c0.5-0.3,0.6,0.5,0.9,0.8c2.3,3.9,4.5,7.8,6.7,11.6c0.2,0.3,0.3,1.1,0.9,0.7
			c0.6-0.3,0.1-0.8-0.1-1.2c-0.1-0.2-0.2-0.3-0.3-0.5c-1.9-3.3-3.8-6.6-5.7-9.9c-0.2-0.3-0.6-0.7-0.3-0.9c0.4-0.2,0.5,0.4,0.8,0.7
			c0.2,0.2,0.2,0.4,0.4,0.6c1.8,3.1,3.6,6.2,5.4,9.4c0.2,0.3,0.3,0.9,0.8,0.7c0.6-0.3,0.2-0.8,0-1.2c-0.2-0.4-0.4-0.7-0.6-1.1
			c-1.5-2.6-3-5.3-4.6-7.9c-0.2-0.2-0.5-0.6-0.2-0.8c0.4-0.3,0.6,0.3,0.7,0.5c0.9,1.6,1.8,3.2,2.8,4.7c0.8,1.4,1.6,2.7,2.4,4.1
			c0.1,0.2,0.2,0.5,0.6,0.4c0.4-0.1,0.4-0.5,0.2-0.8c-0.2-0.4-0.4-0.9-0.7-1.3c-1.2-2.1-2.4-4.2-3.7-6.3c-0.1-0.2-0.5-0.6-0.1-0.8
			c0.3-0.2,0.5,0.3,0.6,0.5c1.3,2.2,2.6,4.5,3.9,6.7c0.2,0.3,0.3,1.1,0.9,0.7c0.6-0.3,0.1-0.8-0.1-1.2c-1-1.8-2-3.5-3-5.3
			c-0.2-0.3-0.6-0.7-0.3-0.9c0.5-0.3,0.6,0.4,0.8,0.7c1,1.6,1.9,3.2,2.8,4.9c0.2,0.3,0.2,1,0.8,0.7c0.5-0.3,0.2-0.8,0-1.2
			c-0.7-1.3-1.5-2.6-2.2-3.9c-0.1-0.2-0.4-0.5-0.1-0.6c0.2-0.2,0.4,0.2,0.5,0.4c0.7,1.2,1.4,2.5,2.2,3.7c0.1,0.2,0.2,0.6,0.6,0.5
			c0.4-0.2,0.4-0.5,0.2-0.9c-0.4-0.6-0.7-1.2-1.1-1.9c-0.2-0.4-0.9-0.9-0.4-1.3c0.3-0.2,0.6,0.6,0.8,0.9c0.3,0.5,0.6,1.1,0.9,1.6
			c0.1,0.2,0.2,0.5,0.6,0.3c0.2-0.2,0.3-0.4,0.2-0.6c-0.1-0.3-0.3-0.5-0.4-0.8c-0.1-0.2-0.5-0.6-0.2-0.8c0.4-0.3,0.5,0.3,0.7,0.5
			c0.2,0.2,0.3,0.7,0.8,0.6C374,117.4,374,117.1,374,116.7z M354.3,113c0,1.1,0.1,2,0.6,2.9c2.4,4.2,4.9,8.4,7.3,12.7
			c0.2,0.3,0.3,1.1,0.9,0.7c0.6-0.3,0.2-0.8-0.1-1.2c-1.1-1.9-2.2-3.9-3.3-5.8C357.9,119.2,356.1,116.1,354.3,113z M355.2,117.6
			c-0.1,0-0.2,0.1-0.3,0.1c0.2,0.8,0.3,1.7,0.7,2.4c1.8,3.3,3.8,6.6,5.7,9.9c0.2,0.2,0.2,0.8,0.7,0.5s0.3-0.7,0-1.1
			c-0.6-1.1-1.3-2.2-1.9-3.3C358.5,123.4,356.9,120.5,355.2,117.6z M355.9,121.9c0.2,1.5,0.3,2.4,0.8,3.3c1.1,2,2.3,4,3.4,5.9
			c0.2,0.3,0.2,0.9,0.8,0.6c0.4-0.2,0.2-0.7,0-1.1C359.4,127.9,357.8,125.1,355.9,121.9z M357,126.6c0,2.4,1.3,4.1,2.3,5.8
			c0.2,0.3,0.3,0.8,0.8,0.5c0.5-0.3,0.2-0.7,0-1.1C359,130.2,358,128.6,357,126.6z"/>
		<path d="M398,97.7c-0.2,0.1-0.3,0.2-0.4,0.4c-2.6,1.5-5.2,3-7.8,4.5c-0.2,0.1-0.5,0.4-0.6,0.1c-0.2-0.4,0.2-0.5,0.4-0.6
			c2.6-1.5,5.2-3,7.8-4.5c0.2-0.1,0.4-0.1,0.6-0.1C397.9,97.5,397.9,97.6,398,97.7z"/>
	</g>
</g>
<g id="HTMIIo_00000078737036713732183280000001180180146234414768_">
	<g>
		<path d="M182.8,203.2c0.1,1-0.6,1.1-1.4,1.3c-12.6,3.4-25.3,6.8-37.9,10.1c-4.3,1.2-8.6,2.3-12.9,3.5c-1.5,0.4-2.3,0.1-2.7-1.5
			c-4.5-16.9-9-33.8-13.6-50.6c-0.5-2,0.6-2.2,1.9-2.5c13.7-3.7,27.4-7.4,41.1-11c3-0.8,6-1.5,8.9-2.4c1.6-0.5,2.2-0.1,2.6,1.5
			c3.4,12.9,6.9,25.8,10.3,38.7c1.1,3.9,2.1,7.9,3.2,11.8C182.6,202.4,182.7,202.8,182.8,203.2z M148.2,184.4
			c-0.4,0.1-0.7,0.2-1.1,0.3c-7.9,2.1-15.8,4.3-23.6,6.3c-1.2,0.3-1.4,0.9-1.1,2c2.1,7.8,4.2,15.6,6.3,23.4c0.3,1.3,0.8,1.3,1.9,1
			c7.9-2.2,15.8-4.3,23.6-6.3c1.3-0.3,2-0.9,2.6-2.1c5.7-9.9,11.4-19.8,17.1-29.7c0.3-0.5,1.3-1.3,0.5-1.7c-0.7-0.4-1.2,0.6-1.5,1.2
			c-0.1,0.2-0.2,0.4-0.3,0.5c-3.2,5.5-6.3,10.9-9.5,16.4c-2.3,4-4.7,8.1-7,12.1c-0.2,0.3-0.4,0.9-0.7,0.8c-0.6-0.3-0.1-0.8,0.1-1.2
			c0.2-0.4,0.4-0.7,0.6-1.1c5-8.7,10-17.3,15-26c0.4-0.7,1.4-1.8,0.9-2.1c-1.2-0.6-1.5,0.9-2,1.7c-4.8,8.2-9.5,16.4-14.2,24.6
			c-0.3,0.5-0.5,1.7-1.3,1.3c-0.5-0.2,0.3-1.1,0.6-1.6c4.6-7.9,9.1-15.9,13.7-23.8c0.3-0.5,1-1.1,0.4-1.5c-0.7-0.4-1.1,0.4-1.5,0.9
			c-0.3,0.4-0.5,0.9-0.8,1.4c-3.8,6.7-7.7,13.3-11.6,20c-0.3,0.5-0.6,1.1-0.9,1.5c-0.2,0.3-0.3,0.6-0.7,0.4
			c-0.1-0.1-0.1-0.5,0.1-0.7c0.2-0.4,0.4-0.8,0.7-1.2c3.8-6.6,7.6-13.2,11.4-19.8c0.3-0.6,1.2-1.5,0.7-1.8c-0.9-0.6-1.4,0.6-1.8,1.3
			c-0.2,0.3-0.3,0.6-0.5,0.8c-3.4,5.9-6.8,11.9-10.2,17.8c-0.2,0.4-0.5,1.2-0.8,0.9c-0.6-0.4,0.1-0.9,0.3-1.3
			c3.3-5.8,6.6-11.5,9.9-17.3c0.3-0.5,1.1-1.4,0.6-1.6c-0.8-0.5-1.4,0.4-1.7,1.2c-0.2,0.3-0.3,0.6-0.5,0.8
			c-2.8,4.8-5.6,9.7-8.4,14.5c-0.3,0.5-0.4,1.4-1.1,1.1c-0.5-0.3,0.3-1,0.5-1.5c2.6-4.5,5.1-8.9,7.7-13.3c0.4-0.6,1.3-1.7,0.8-2
			c-1-0.5-1.5,0.7-1.9,1.5c-2.3,4-4.6,8-6.9,12c-0.2,0.3-0.4,0.9-0.7,0.8c-0.6-0.3-0.1-0.8,0.2-1.2c2.1-3.7,4.3-7.4,6.4-11.1
			c0.2-0.4,0.9-0.9,0.3-1.3c-0.5-0.3-1,0.2-1.3,0.6c-0.3,0.4-0.5,0.9-0.8,1.4c-1.5,2.7-3.1,5.4-4.6,8c-0.2,0.3-0.5,0.9-0.7,0.8
			c-0.6-0.3-0.1-0.8,0.2-1.2c1.4-2.5,2.9-5,4.3-7.5c0.2-0.4,0.8-1,0.3-1.4c-0.6-0.4-1.1,0.3-1.4,0.8c-0.7,1.2-1.3,2.3-2,3.4
			c-0.7,1.1-0.9,2.6-2.3,3.2c0.1-1.4,1.2-2.3,1.7-3.5c0.4-1.1,1.8-2.7,1.3-2.9c-1.5-0.6-1.5,1.5-2.3,2.3c-0.5,0.5-0.9,1.8-1.2,1.5
			c-0.7-0.6,0.4-1.3,0.6-2c0.2-0.5,0.8-0.9,0.5-1.4s-1,0-1.3,0.4C149,184.8,148.7,184.8,148.2,184.4z M157.4,210.1
			c1.3-0.1,1.6-0.9,2-1.7c5.2-9,10.4-18,15.5-26.9c0.3-0.5,0.5-0.9,0.6-1.4c0.1-0.3-0.1-0.7-0.2-0.9c-0.4-0.3-0.6,0.2-0.7,0.4
			c-0.2,0.3-0.3,0.6-0.5,0.8c-4.1,7.1-8.3,14.3-12.4,21.5c-1.4,2.4-2.7,4.8-4.1,7.2C157.4,209.4,157.1,209.8,157.4,210.1z
			 M160.2,209.3c1.1-0.1,1.4-0.9,1.8-1.6c3-5.1,6-10.3,8.9-15.5c1.6-2.8,3.2-5.6,4.8-8.4c0.4-0.7,1.1-1.6,0.3-2.1
			c-0.7-0.4-0.9,0.8-1.3,1.3c-2.9,5-5.9,10.1-8.8,15.2c-1.9,3.3-3.8,6.6-5.7,9.9C160.2,208.5,159.7,209,160.2,209.3z M177.2,185.2
			c-0.2-0.3-0.3-0.7-0.5-0.8c-0.4-0.2-0.5,0.3-0.6,0.5c-1.3,2.2-2.5,4.3-3.8,6.5c-3,5.3-6.1,10.5-9.1,15.7c-0.2,0.4-1,1-0.3,1.4
			c0.6,0.3,1.1-0.4,1.4-0.9c0.2-0.2,0.3-0.5,0.4-0.7c3.9-6.8,7.9-13.7,11.8-20.5C176.8,186.1,177,185.6,177.2,185.2z M166.1,207.8
			c0.5-0.1,0.7-0.6,1-1c3.5-6,7-12,10.5-18.1c0.3-0.6,0.6-1.3,0.1-1.6c-0.8-0.4-0.8,0.6-1.1,0.9c-3.5,5.9-6.9,11.9-10.3,17.9
			c-0.2,0.4-0.5,0.8-0.6,1.2C165.3,207.7,165.5,207.8,166.1,207.8z M178.5,190.2c-0.1-0.1-0.1-0.4-0.3-0.5c-0.5-0.1-0.6,0.4-0.8,0.7
			c-3,5.3-6,10.5-9.1,15.7c-0.2,0.3-0.7,0.7-0.2,1c0.2,0.2,0.8-0.1,1.1-0.3c0.3-0.2,0.5-0.6,0.7-0.9c2.7-4.7,5.4-9.3,8.1-14
			C178.2,191.4,178.6,191,178.5,190.2z M179.3,193.1c-0.1-0.3-0.2-0.7-0.3-0.8c-0.4-0.2-0.6,0.2-0.7,0.5c-2.4,4.2-4.9,8.4-7.3,12.7
			c-0.2,0.3-0.6,0.7-0.1,1c0.2,0.1,0.7-0.2,1.1-0.4c0.3-0.2,0.4-0.5,0.6-0.8c2.1-3.6,4.1-7.1,6.2-10.8
			C179,194.1,179.1,193.6,179.3,193.1z M173.7,205.7c0.7-0.1,1.1-0.6,1.4-1.1c1.5-2.6,2.9-5.1,4.4-7.7c0.2-0.4,0.4-0.8,0.4-1.3
			c0.1-0.2-0.2-0.5-0.3-0.6c-0.3-0.2-0.5,0.2-0.6,0.4c-1.8,3.2-3.7,6.4-5.5,9.5C173.4,205.2,173,205.7,173.7,205.7z M180.1,197.7
			c-0.1,0.2-0.3,0.3-0.4,0.5c-1.2,2-2.3,3.9-3.5,5.9c-0.2,0.3-0.5,0.6-0.1,0.8c0.3,0.2,0.7,0.1,0.9-0.2c1.5-1.8,2.5-4,3.6-6
			C180.9,198.4,180.7,197.8,180.1,197.7z M179.5,204.2c1-0.7,1.5-1.9,1.9-3.1c0.1-0.3-0.1-0.8-0.4-0.9c-0.1-0.1-0.4,0.4-0.6,0.7
			c-0.5,0.8-1,1.7-1.5,2.6C178.7,203.8,178.6,204.2,179.5,204.2z"/>
		<path d="M219.8,238.5c0,15.5-12.6,28.2-28.1,28.2c-15.7,0.1-28.3-12.7-28.3-28.4c0.1-15.4,12.8-28.1,28.3-28
			C207.2,210.3,219.8,223,219.8,238.5z M164.2,238.6c0,4.8,1.2,9.2,3.5,13.4c3.4,5.9,8.2,10,14.6,12.4c1.6,0.6,2.3,0.3,2.7-1.4
			c0.9-3.8,1.9-7.5,2.9-11.2c0.3-1.2-0.6-2.7,0.9-3.7c0.1-0.1,0.1-0.4,0.1-0.5c-0.2-0.3-0.5-0.1-0.7,0.1c-0.7,0.4-1.4,0.8-2,1.2
			c-0.2,0.1-0.5,0.3-0.7-0.1c-0.1-0.1,0.2-0.5,0.4-0.6c1.1-0.7,2.3-1.4,3.4-2c0.4-0.3,0.6-0.8,0.4-1.2c-0.3-0.4-0.7,0.1-1,0.3
			c-1.3,0.7-2.6,1.5-3.9,2.3c-0.3,0.2-0.6,0.4-0.8,0c-0.1-0.1,0.2-0.4,0.4-0.6c0.5-0.3,1-0.6,1.5-0.9c1.3-0.7,2.6-1.5,3.9-2.3
			c0.5-0.3,1-0.9,0.6-1.5c-0.3-0.4-0.8,0.2-1.2,0.4c-1.8,1-3.6,2.1-5.5,3.1c-0.4,0.2-0.8,0.8-1.2,0.3c-0.3-0.5,0.4-0.7,0.8-0.9
			c2.3-1.4,4.7-2.7,7-4c0.5-0.3,1.1-0.7,0.7-1.2c-0.4-0.7-0.9-0.1-1.3,0.2c-2.5,1.4-4.9,2.8-7.4,4.2c-0.3,0.2-0.7,0.6-1,0.2
			c-0.3-0.5,0.4-0.6,0.6-0.8c2.7-1.6,5.4-3.1,8-4.6c0.5-0.3,0.9-0.5,1.3-0.8c0.4-0.3,0.7-0.7,0.4-1.2c-0.3-0.4-0.7,0-1.1,0.2
			c-1.3,0.7-2.6,1.5-3.9,2.3c-1.8,1.1-3.6,2.1-5.5,3.2c-0.2,0.1-0.5,0.3-0.7,0.1c-0.2-0.3,0.1-0.5,0.3-0.6c0.5-0.3,1-0.6,1.5-0.9
			c3.1-1.8,6.1-3.6,9.2-5.3c0.5-0.3,1.2-0.8,0.9-1.4c-0.4-0.8-1,0.1-1.4,0.3c-3.3,1.9-6.6,3.8-9.9,5.7c-0.4,0.2-0.9,0.8-1.2,0.3
			c-0.3-0.5,0.5-0.7,0.8-0.9c3.6-2.1,7.3-4.2,10.9-6.4c0.5-0.3,0.9-0.5,1.3-0.9c0.2-0.3,0.5-0.7,0.2-1.1c-0.3-0.3-0.6,0.1-0.8,0.2
			c-2,1.2-4.1,2.4-6.1,3.5c-1.9,1.1-3.8,2.2-5.7,3.3c-0.2,0.1-0.6,0.5-0.8,0c-0.1-0.1,0.3-0.4,0.4-0.6c1.1-0.6,2.2-1.3,3.2-1.9
			c3.2-1.8,6.3-3.6,9.4-5.4c0.6-0.4,1.5-0.8,1-1.6c-0.3-0.5-1,0.2-1.5,0.5c-3.7,2.1-7.4,4.3-11.1,6.4c-0.4,0.2-0.9,0.8-1.2,0.3
			c-0.3-0.5,0.4-0.7,0.8-0.9c4.1-2.4,8.2-4.8,12.3-7.1c0.9-0.5,1.5-1.2,1.7-2.2c1.1-4,2.1-8.1,3.3-12.2c0.4-1.5-0.2-1.9-1.5-2.2
			C179.7,208.3,164.1,221.4,164.2,238.6z"/>
		<path d="M168.3,281.3c0,1.4-1,0.9-1.7,0.7c-3.7-0.9-7.5-2-11.2-3c-13.1-3.5-26.3-7-39.4-10.6c-1.9-0.5-2-0.6-0.6-2.2
			c13-14.7,26.1-29.4,39.1-44.1c0.3-0.4,0.6-1,1.2-0.9c0.6,0.2,0.5,0.8,0.6,1.4c4,19.4,7.9,38.8,11.9,58.1
			C168.2,280.9,168.2,281.1,168.3,281.3z M161.3,251.5c0-0.1-0.1-0.3-0.1-0.4c-1.9-9.2-3.8-18.4-5.6-27.6c-0.3-1.5-0.8-0.7-1.3-0.2
			c-6,6.7-11.9,13.5-18,20.2c-0.7,0.8-0.7,1.4-0.2,2.2c1.9,3.3,3.8,6.6,5.7,9.9c1.9,3.4,3.9,6.7,5.8,10.1c0.2,0.3,0.3,0.8,0.8,0.6
			s0.5-0.7,0.3-1.2c-0.2-0.4-0.5-0.8-0.7-1.2c-3.4-5.9-6.8-11.7-10.1-17.6c-0.2-0.3-0.6-0.7-0.3-1c0.4-0.3,0.6,0.3,0.8,0.6
			c0.3,0.4,0.5,0.8,0.7,1.2c3.2,5.5,6.3,10.9,9.5,16.4c0.3,0.5,0.5,1.6,1.3,1.2c0.9-0.5,0-1.3-0.3-1.8c-0.2-0.4-0.4-0.7-0.6-1.1
			c-2.8-4.8-5.5-9.6-8.2-14.3c-0.3-0.4-0.9-1.1-0.5-1.3c0.7-0.4,0.8,0.6,1.1,1.1c2.9,5,5.8,10,8.7,15c0.3,0.4,0.4,1.4,1.2,0.9
			c0.7-0.4,0.2-1.1-0.1-1.5c-0.1-0.2-0.3-0.4-0.4-0.7c-2.5-4.3-4.9-8.6-7.4-12.8c-0.2-0.4-0.8-0.9-0.4-1.2c0.6-0.3,0.7,0.5,1,0.9
			c0.2,0.3,0.3,0.6,0.5,0.8c2.4,4,4.7,8.1,7,12.1c0.2,0.4,0.4,1.2,1.1,0.9c0.8-0.4,0.3-1,0-1.5c-0.3-0.5-0.5-0.9-0.8-1.4
			c-2-3.4-3.9-6.8-5.9-10.2c-0.2-0.3-0.6-0.8-0.3-1c0.6-0.4,0.7,0.4,0.9,0.7c1.2,2,2.4,4.1,3.6,6.1c1,1.8,2,3.5,3.1,5.3
			c0.2,0.3,0.3,0.6,0.7,0.5c0.5-0.2,0.5-0.6,0.3-1c-0.3-0.6-0.6-1.2-0.9-1.7c-1.6-2.7-3.2-5.5-4.7-8.2c-0.2-0.3-0.6-0.7-0.2-1
			c0.4-0.2,0.6,0.4,0.8,0.7c1.7,2.9,3.4,5.8,5,8.7c0.3,0.4,0.4,1.4,1.2,0.9c0.8-0.4,0.2-1.1-0.1-1.5c-1.3-2.3-2.6-4.6-3.9-6.8
			c-0.2-0.4-0.8-0.9-0.4-1.2c0.6-0.4,0.7,0.5,1,0.9c1.3,2.1,2.4,4.2,3.7,6.3c0.2,0.4,0.3,1.3,1,0.9c0.7-0.4,0.3-1,0-1.5
			c-0.9-1.7-1.9-3.3-2.8-5c-0.2-0.3-0.5-0.6-0.1-0.8c0.3-0.2,0.5,0.2,0.7,0.5c0.9,1.6,1.8,3.2,2.8,4.8c0.2,0.3,0.3,0.8,0.8,0.6
			c0.5-0.2,0.5-0.7,0.3-1.2c-0.5-0.8-0.9-1.6-1.4-2.4c-0.3-0.5-1.1-1.2-0.5-1.6c0.4-0.3,0.7,0.7,1.1,1.2c0.4,0.7,0.8,1.4,1.2,2
			c0.2,0.3,0.3,0.6,0.7,0.4c0.3-0.2,0.4-0.5,0.3-0.8c-0.2-0.4-0.4-0.7-0.5-1.1c-0.2-0.3-0.6-0.8-0.3-1c0.6-0.4,0.6,0.4,0.9,0.7
			c0.3,0.3,0.4,0.9,1,0.7C161.3,252.3,161.4,251.9,161.3,251.5z M135.9,246.7c-0.1,1.4,0.1,2.6,0.8,3.8c3.2,5.5,6.3,10.9,9.5,16.4
			c0.3,0.4,0.4,1.4,1.2,0.9c0.7-0.4,0.2-1.1-0.1-1.5c-1.4-2.5-2.9-5-4.3-7.5C140.6,254.7,138.2,250.7,135.9,246.7z M137.1,252.6
			c-0.1,0.1-0.2,0.1-0.4,0.2c0.3,1.1,0.4,2.2,0.9,3.2c2.4,4.3,4.9,8.5,7.4,12.8c0.2,0.3,0.3,1.1,0.9,0.7c0.6-0.4,0.4-0.9,0.1-1.4
			c-0.8-1.4-1.6-2.8-2.5-4.3C141.4,260.1,139.2,256.3,137.1,252.6z M138,258.1c0.2,1.9,0.4,3.2,1.1,4.3c1.5,2.6,2.9,5.1,4.5,7.7
			c0.2,0.4,0.3,1.2,1.1,0.8c0.6-0.3,0.3-0.9,0-1.4C142.5,265.9,140.4,262.3,138,258.1z M139.3,264.3c0,3.2,1.7,5.3,2.9,7.5
			c0.2,0.4,0.4,1,1,0.6c0.6-0.4,0.3-0.9,0-1.4C142,268.9,140.7,266.8,139.3,264.3z"/>
		<path d="M192.4,226.9c-0.2,0.2-0.4,0.3-0.6,0.5c-3.4,1.9-6.7,3.9-10,5.8c-0.3,0.2-0.6,0.5-0.8,0.2c-0.3-0.5,0.3-0.6,0.5-0.8
			c3.4-1.9,6.7-3.9,10-5.8c0.2-0.1,0.5-0.2,0.7-0.2C192.3,226.6,192.4,226.7,192.4,226.9z"/>
	</g>
</g>
<g id="HTMIIo_00000181775176382969761420000000975742448530972805_">
	<g>
		<path d="M266.4,370.7c0.2,1.5-1,1.6-2.1,1.9c-19.2,5.1-38.4,10.3-57.6,15.4c-6.5,1.8-13.1,3.4-19.6,5.3c-2.3,0.6-3.4,0.2-4.1-2.2
			c-6.8-25.7-13.6-51.3-20.6-77c-0.8-3,0.9-3.3,2.9-3.8c20.8-5.6,41.7-11.2,62.5-16.7c4.5-1.2,9.1-2.3,13.6-3.7
			c2.4-0.7,3.4-0.2,4,2.2c5.2,19.6,10.5,39.2,15.7,58.8c1.6,6,3.2,12,4.8,18C266.1,369.4,266.2,370.1,266.4,370.7z M213.9,342
			c-0.6,0.1-1.1,0.2-1.7,0.4c-12,3.2-23.9,6.5-35.9,9.6c-1.8,0.5-2.1,1.4-1.6,3c3.2,11.8,6.4,23.7,9.5,35.6c0.5,1.9,1.3,2,3,1.5
			c12-3.3,23.9-6.5,35.9-9.6c1.9-0.5,3-1.4,4-3.2c8.6-15.1,17.4-30.1,26-45.2c0.5-0.8,1.9-1.9,0.7-2.6c-1-0.6-1.8,0.9-2.3,1.8
			c-0.2,0.2-0.3,0.6-0.5,0.8c-4.8,8.3-9.6,16.6-14.4,24.9c-3.5,6.1-7.1,12.3-10.7,18.4c-0.3,0.5-0.6,1.4-1.1,1.2
			c-0.9-0.5-0.1-1.2,0.2-1.8c0.2-0.6,0.6-1,0.9-1.6c7.6-13.2,15.2-26.3,22.8-39.5c0.6-1,2.2-2.8,1.4-3.2c-1.8-0.9-2.3,1.4-3,2.6
			c-7.3,12.5-14.4,24.9-21.6,37.4c-0.5,0.8-0.8,2.6-1.9,2c-0.7-0.3,0.5-1.7,1-2.5c6.9-12.1,13.9-24.1,20.8-36.2
			c0.4-0.7,1.5-1.7,0.6-2.2c-1-0.6-1.7,0.6-2.2,1.4c-0.4,0.6-0.8,1.4-1.2,2.1c-5.8,10.1-11.7,20.3-17.6,30.4
			c-0.5,0.8-0.9,1.6-1.4,2.3c-0.2,0.4-0.5,1-1,0.6c-0.2-0.1-0.1-0.7,0.1-1c0.2-0.6,0.6-1.2,1-1.8c5.8-10.1,11.6-20,17.4-30.1
			c0.5-0.9,1.8-2.2,1-2.7c-1.4-0.9-2.1,1-2.7,2c-0.2,0.4-0.5,0.9-0.8,1.3c-5.2,9-10.4,18-15.6,27c-0.3,0.6-0.7,1.8-1.3,1.4
			c-1-0.6,0.1-1.4,0.4-1.9c5-8.8,10.1-17.5,15.1-26.3c0.5-0.8,1.7-2.1,1-2.5c-1.2-0.7-2.1,0.6-2.6,1.8c-0.2,0.4-0.5,0.9-0.7,1.3
			c-4.2,7.3-8.5,14.7-12.8,22c-0.4,0.7-0.6,2.2-1.6,1.6c-0.7-0.4,0.4-1.5,0.8-2.2c3.9-6.8,7.8-13.5,11.7-20.3c0.6-1,2-2.6,1.2-3
			c-1.5-0.8-2.2,1.1-2.9,2.3c-3.5,6.1-7,12.1-10.5,18.2c-0.2,0.5-0.6,1.4-1.1,1.2c-0.9-0.5-0.1-1.2,0.2-1.8
			c3.2-5.7,6.5-11.3,9.7-16.9c0.3-0.6,1.4-1.4,0.4-2c-0.7-0.5-1.5,0.3-1.9,1c-0.5,0.6-0.8,1.4-1.2,2.1c-2.3,4.1-4.7,8.1-7,12.2
			c-0.3,0.5-0.7,1.4-1.1,1.2c-0.9-0.5-0.1-1.2,0.2-1.8c2.2-3.8,4.4-7.6,6.5-11.4c0.3-0.6,1.3-1.5,0.5-2.1c-0.9-0.6-1.6,0.4-2.1,1.2
			c-1,1.8-1.9,3.5-3,5.2c-1.1,1.6-1.4,3.9-3.5,4.8c0.2-2.1,1.8-3.4,2.6-5.3c0.6-1.6,2.8-4.1,1.9-4.5c-2.3-0.9-2.3,2.2-3.5,3.5
			c-0.7,0.8-1.4,2.8-1.8,2.3c-1-1,0.6-1.9,1-3c0.2-0.7,1.3-1.4,0.7-2.1c-0.6-0.6-1.5,0-2,0.6C215.1,342.6,214.6,342.6,213.9,342z
			 M227.9,381.1c1.9-0.1,2.4-1.4,3-2.6c7.9-13.6,15.8-27.3,23.6-40.9c0.4-0.7,0.8-1.4,1-2.2c0.1-0.4-0.1-1.1-0.3-1.4
			c-0.6-0.4-0.9,0.2-1.1,0.6c-0.3,0.4-0.5,0.9-0.7,1.3c-6.3,10.9-12.6,21.8-18.8,32.6c-2.1,3.6-4.2,7.3-6.2,10.9
			C227.9,380,227.3,380.6,227.9,381.1z M232.1,380c1.7-0.2,2.2-1.4,2.8-2.4c4.5-7.8,9.1-15.7,13.6-23.5c2.5-4.2,4.9-8.5,7.3-12.7
			c0.6-1,1.7-2.4,0.5-3.2c-1.1-0.6-1.4,1.2-1.9,2c-4.5,7.7-8.9,15.3-13.3,23.1c-2.9,5-5.7,10-8.6,15
			C232.1,378.7,231.3,379.4,232.1,380z M258,343.3c-0.2-0.5-0.4-1.1-0.7-1.3c-0.6-0.3-0.8,0.4-1,0.8c-1.9,3.3-3.8,6.5-5.7,9.8
			c-4.6,8-9.3,15.9-13.8,23.9c-0.3,0.6-1.5,1.5-0.4,2.2c0.9,0.5,1.6-0.6,2.1-1.4c0.2-0.3,0.4-0.7,0.6-1c6-10.4,12-20.8,18-31.1
			C257.4,344.6,257.6,344,258,343.3z M241.1,377.6c0.7-0.2,1.1-0.9,1.5-1.5c5.3-9.2,10.6-18.3,15.9-27.5c0.5-0.9,0.9-2,0.1-2.4
			c-1.2-0.6-1.3,0.9-1.7,1.4c-5.3,9-10.5,18.1-15.7,27.2c-0.3,0.6-0.7,1.2-1,1.8C239.9,377.4,240.2,377.6,241.1,377.6z M259.8,350.9
			c-0.1-0.1-0.2-0.6-0.4-0.7c-0.8-0.2-1,0.6-1.2,1c-4.6,8-9.2,15.9-13.8,23.9c-0.2,0.5-1,1-0.2,1.5c0.3,0.2,1.2-0.2,1.6-0.5
			c0.5-0.3,0.7-1,1-1.4c4.1-7.1,8.2-14.2,12.3-21.3C259.5,352.7,260,352,259.8,350.9z M261.1,355.3c-0.2-0.5-0.2-1-0.5-1.2
			c-0.6-0.3-0.9,0.3-1,0.7c-3.7,6.4-7.4,12.8-11.1,19.2c-0.2,0.5-1,1.1-0.2,1.5c0.3,0.2,1.1-0.2,1.6-0.6c0.4-0.2,0.6-0.8,0.9-1.2
			c3.2-5.4,6.3-10.9,9.4-16.4C260.6,356.7,260.9,356,261.1,355.3z M252.7,374.4c1-0.2,1.6-0.9,2.1-1.7c2.2-3.9,4.5-7.7,6.7-11.7
			c0.3-0.6,0.6-1.3,0.6-1.9c0.1-0.3-0.2-0.8-0.5-1c-0.4-0.2-0.7,0.2-0.9,0.6c-2.8,4.8-5.6,9.7-8.4,14.4
			C252.1,373.6,251.6,374.4,252.7,374.4z M262.3,362.2c-0.2,0.2-0.4,0.5-0.6,0.7c-1.8,3-3.5,6-5.3,9c-0.2,0.4-0.7,0.9-0.1,1.3
			c0.4,0.3,1,0.1,1.4-0.2c2.2-2.8,3.8-6.1,5.4-9.2C263.5,363.3,263.3,362.4,262.3,362.2z M261.4,372.2c1.5-1,2.3-2.9,3-4.7
			c0.2-0.5-0.1-1.3-0.6-1.4c-0.2-0.1-0.6,0.6-0.9,1c-0.8,1.3-1.5,2.6-2.2,3.9C260.2,371.6,260.1,372.1,261.4,372.2z"/>
		<path d="M322.7,424.3c0,23.6-19.2,42.8-42.7,42.9c-23.8,0.1-43-19.3-42.9-43.2c0.1-23.5,19.5-42.7,42.9-42.6
			C303.5,381.4,322.7,400.7,322.7,424.3z M238.2,424.4c0,7.3,1.8,14,5.3,20.4c5.1,8.9,12.5,15.2,22.2,18.8c2.5,1,3.5,0.5,4.1-2.2
			c1.4-5.7,3-11.4,4.5-17.1c0.5-1.8-1-4.2,1.4-5.6c0.2-0.1,0.2-0.6,0.1-0.8c-0.3-0.5-0.7-0.2-1,0.1c-1,0.6-2.1,1.2-3.1,1.8
			c-0.3,0.2-0.8,0.4-1-0.1c-0.1-0.2,0.3-0.7,0.6-0.9c1.7-1,3.4-2.1,5.1-3.1c0.6-0.4,1-1.3,0.6-1.8c-0.4-0.6-1,0.1-1.5,0.4
			c-2,1.1-4,2.3-6,3.4c-0.4,0.2-0.9,0.6-1.3,0c-0.1-0.1,0.3-0.6,0.6-0.9c0.7-0.5,1.5-0.9,2.3-1.4c2-1.1,4-2.3,6-3.5
			c0.8-0.5,1.5-1.4,1-2.2c-0.4-0.6-1.2,0.3-1.8,0.6c-2.8,1.5-5.5,3.2-8.3,4.7c-0.6,0.3-1.3,1.2-1.8,0.5c-0.5-0.8,0.6-1,1.2-1.4
			c3.5-2.1,7.1-4.2,10.6-6.1c0.7-0.4,1.6-1,1.1-1.8c-0.6-1-1.4-0.1-2,0.3c-3.8,2.1-7.4,4.3-11.2,6.4c-0.5,0.2-1.1,1-1.5,0.2
			c-0.4-0.7,0.6-0.9,1-1.2c4.1-2.4,8.1-4.7,12.2-7c0.7-0.4,1.4-0.8,2-1.3c0.6-0.4,1.1-1.1,0.6-1.8c-0.5-0.6-1.1,0-1.6,0.3
			c-2,1.1-4,2.3-6,3.4c-2.8,1.6-5.5,3.2-8.3,4.8c-0.3,0.2-0.8,0.5-1,0.1c-0.3-0.4,0.2-0.7,0.5-1c0.7-0.5,1.5-1,2.3-1.4
			c4.7-2.7,9.3-5.4,14-8.1c0.8-0.5,1.8-1.3,1.4-2.1c-0.6-1.2-1.5,0.1-2.2,0.4c-5,2.9-10.1,5.7-15.1,8.6c-0.6,0.3-1.4,1.2-1.8,0.5
			c-0.4-0.7,0.7-1,1.3-1.4c5.5-3.2,11.1-6.4,16.6-9.7c0.7-0.4,1.4-0.8,1.9-1.4c0.3-0.4,0.7-1.1,0.3-1.6c-0.4-0.5-0.9,0.1-1.3,0.3
			c-3.1,1.8-6.2,3.6-9.3,5.3c-2.9,1.7-5.7,3.3-8.6,4.9c-0.3,0.2-0.9,0.7-1.2,0c-0.1-0.2,0.4-0.6,0.6-0.9c1.6-1,3.3-1.9,4.9-2.9
			c4.8-2.7,9.5-5.5,14.3-8.2c1-0.6,2.2-1.3,1.5-2.5c-0.4-0.7-1.5,0.3-2.2,0.7c-5.7,3.2-11.3,6.5-16.9,9.7c-0.6,0.3-1.4,1.2-1.8,0.5
			c-0.4-0.7,0.6-1,1.2-1.4c6.2-3.6,12.5-7.3,18.7-10.8c1.4-0.8,2.2-1.8,2.6-3.4c1.6-6.1,3.2-12.4,5-18.5c0.6-2.3-0.2-2.9-2.3-3.3
			C261.8,378.4,238,398.2,238.2,424.4z"/>
		<path d="M244.4,489.3c0,2.1-1.5,1.4-2.6,1.1c-5.7-1.4-11.4-3-17.1-4.6c-20-5.3-39.9-10.7-59.9-16.1c-3-0.8-3-1-1-3.4
			c19.8-22.4,39.7-44.7,59.5-67.1c0.5-0.6,0.9-1.5,1.8-1.4c1,0.2,0.7,1.3,0.9,2.1c6.1,29.5,12.1,58.9,18.1,88.3
			C244.2,488.7,244.3,489,244.4,489.3z M233.8,444c0-0.2-0.1-0.4-0.1-0.6c-2.9-14-5.7-27.9-8.5-42c-0.5-2.3-1.3-1-2-0.2
			c-9.1,10.2-18.1,20.5-27.3,30.7c-1,1.2-1.1,2.1-0.3,3.4c3,4.9,5.8,10.1,8.7,15c3,5.1,5.9,10.2,8.9,15.3c0.2,0.5,0.5,1.3,1.3,1
			c0.8-0.3,0.8-1,0.4-1.8c-0.3-0.6-0.7-1.2-1-1.8c-5.1-8.9-10.3-17.8-15.4-26.7c-0.2-0.5-1-1.1-0.4-1.5c0.6-0.5,0.9,0.5,1.2,0.9
			c0.4,0.6,0.7,1.2,1,1.8c4.8,8.3,9.6,16.6,14.4,24.9c0.4,0.7,0.7,2.4,1.9,1.8c1.4-0.8,0-1.9-0.4-2.8c-0.2-0.6-0.6-1-0.9-1.6
			c-4.2-7.3-8.4-14.5-12.5-21.8c-0.4-0.6-1.4-1.7-0.7-2c1-0.6,1.3,1,1.7,1.6c4.5,7.6,8.8,15.2,13.3,22.8c0.4,0.6,0.6,2.1,1.8,1.4
			c1.1-0.6,0.2-1.6-0.2-2.3c-0.2-0.3-0.4-0.6-0.6-1c-3.8-6.5-7.5-13-11.2-19.5c-0.3-0.6-1.2-1.4-0.6-1.8c0.9-0.5,1,0.8,1.5,1.4
			c0.3,0.4,0.5,0.9,0.7,1.3c3.6,6.1,7.1,12.3,10.7,18.4c0.3,0.6,0.6,1.8,1.6,1.4c1.2-0.6,0.4-1.5,0-2.3c-0.4-0.7-0.8-1.4-1.2-2.1
			c-3-5.2-6-10.4-9-15.6c-0.3-0.5-1-1.2-0.5-1.5c0.9-0.6,1.1,0.6,1.4,1c1.8,3.1,3.6,6.2,5.4,9.3c1.5,2.7,3.1,5.3,4.7,8.1
			c0.2,0.4,0.5,1,1.1,0.7c0.7-0.2,0.7-1,0.5-1.5c-0.4-0.9-0.9-1.8-1.4-2.6c-2.4-4.2-4.8-8.3-7.2-12.5c-0.2-0.5-1-1.1-0.2-1.5
			c0.6-0.3,1,0.6,1.2,1c2.6,4.4,5.1,8.9,7.7,13.2c0.4,0.6,0.6,2.1,1.8,1.4s0.2-1.6-0.2-2.3c-2-3.5-4-6.9-6-10.4
			c-0.3-0.6-1.2-1.4-0.6-1.8c1-0.6,1.1,0.8,1.5,1.4c1.9,3.2,3.7,6.4,5.6,9.6c0.3,0.6,0.5,1.9,1.5,1.4c1-0.6,0.5-1.5,0-2.3
			c-1.4-2.6-2.9-5-4.3-7.6c-0.2-0.4-0.7-1-0.2-1.3c0.5-0.3,0.8,0.3,1,0.7c1.4,2.4,2.8,4.9,4.2,7.3c0.2,0.5,0.5,1.3,1.3,1
			c0.8-0.3,0.8-1,0.4-1.8c-0.7-1.2-1.4-2.4-2.1-3.7c-0.4-0.8-1.7-1.8-0.7-2.5c0.6-0.4,1.1,1.1,1.6,1.8c0.6,1,1.2,2.1,1.8,3.1
			c0.2,0.4,0.5,1,1.1,0.6c0.5-0.3,0.6-0.8,0.5-1.3c-0.2-0.6-0.6-1-0.8-1.6c-0.2-0.5-1-1.2-0.5-1.5c0.9-0.6,1,0.6,1.4,1
			c0.5,0.4,0.6,1.4,1.5,1.1C233.8,445.2,234,444.7,233.8,444z M195.2,436.7c-0.1,2.1,0.2,4,1.2,5.7c4.8,8.3,9.6,16.6,14.4,24.9
			c0.4,0.6,0.6,2.1,1.8,1.4c1.1-0.6,0.3-1.6-0.2-2.3c-2.2-3.8-4.4-7.6-6.5-11.4C202.3,448.9,198.7,442.9,195.2,436.7z M196.9,445.7
			c-0.2,0.1-0.3,0.2-0.6,0.2c0.4,1.6,0.6,3.4,1.4,4.8c3.6,6.5,7.4,12.9,11.2,19.4c0.3,0.5,0.5,1.6,1.4,1s0.6-1.4,0.1-2.1
			c-1.3-2.2-2.5-4.3-3.8-6.5C203.5,457.1,200.2,451.4,196.9,445.7z M198.4,454.1c0.3,2.9,0.6,4.8,1.6,6.5c2.2,3.9,4.5,7.8,6.8,11.7
			c0.3,0.6,0.5,1.8,1.6,1.3c0.9-0.5,0.4-1.4,0-2.1C205.2,465.9,202,460.4,198.4,454.1z M200.4,463.4c0,4.8,2.6,8,4.5,11.3
			c0.3,0.6,0.6,1.5,1.5,1c1-0.6,0.4-1.4,0-2.1C204.4,470.5,202.5,467.3,200.4,463.4z"/>
		<path d="M281.1,406.6c-0.3,0.2-0.6,0.5-0.9,0.7c-5.1,3-10.1,5.9-15.2,8.8c-0.4,0.2-1,0.7-1.3,0.2c-0.5-0.7,0.4-1,0.8-1.3
			c5.1-3,10.1-5.9,15.2-8.8c0.3-0.2,0.7-0.2,1.1-0.2C280.9,406.1,281,406.4,281.1,406.6z"/>
	</g>
</g>
</svg>
