<?xml version="1.0" encoding="utf-8"?>
<!-- Generator: Adobe Illustrator 26.5.0, SVG Export Plug-In . SVG Version: 6.00 Build 0)  -->
<svg version="1.1" id="Layer_1" xmlns="http://www.w3.org/2000/svg" xmlns:xlink="http://www.w3.org/1999/xlink" x="0px" y="0px"
	 viewBox="0 0 489 320" enable-background="new 0 0 489 320" xml:space="preserve">
<rect x="-5" y="-6" fill="#FFFFFF" width="500" height="334"/>
<g id="HTMIIo_00000061451677621138461910000004961593250397434010_">
	<g>
		<path d="M287.5,133.4c0.2,1.9-1.2,2-2.6,2.4c-24,6.4-48.1,12.9-72.1,19.3c-8.2,2.2-16.4,4.3-24.6,6.7c-2.9,0.8-4.3,0.2-5.1-2.8
			c-8.5-32.2-17.1-64.3-25.8-96.4c-1-3.8,1.1-4.1,3.6-4.8c26.1-7,52.2-14,78.3-20.9c5.7-1.5,11.4-2.9,17-4.6c3-0.9,4.2-0.2,5,2.8
			c6.5,24.5,13.1,49.1,19.7,73.6c2,7.5,4,15,6,22.5C287.2,131.8,287.3,132.6,287.5,133.4z M221.7,97.5c-0.7,0.1-1.4,0.3-2.1,0.5
			c-15,4-30,8.1-45,12c-2.3,0.6-2.6,1.7-2,3.8c4,14.8,8,29.7,11.9,44.6c0.6,2.4,1.6,2.5,3.7,1.9c15-4.1,30-8.1,45-12
			c2.4-0.6,3.8-1.8,5-4c10.8-18.9,21.8-37.7,32.6-56.6c0.6-1,2.4-2.4,0.9-3.3c-1.3-0.8-2.2,1.1-2.9,2.3c-0.2,0.3-0.4,0.7-0.6,1
			c-6,10.4-12,20.8-18,31.2c-4.4,7.7-8.9,15.4-13.4,23.1c-0.4,0.6-0.8,1.8-1.4,1.5c-1.1-0.6-0.1-1.5,0.2-2.2c0.3-0.7,0.7-1.3,1.1-2
			c9.5-16.5,19-33,28.5-49.5c0.8-1.3,2.7-3.5,1.7-4c-2.2-1.1-2.9,1.7-3.8,3.2c-9.1,15.6-18,31.2-27.1,46.8c-0.6,1-1,3.2-2.4,2.5
			c-0.9-0.4,0.6-2.1,1.2-3.1c8.7-15.1,17.4-30.2,26-45.3c0.5-0.9,1.9-2.1,0.8-2.8c-1.3-0.8-2.1,0.7-2.8,1.8c-0.5,0.8-1,1.7-1.5,2.6
			c-7.3,12.7-14.6,25.4-22,38.1c-0.6,1-1.1,2-1.7,2.9c-0.3,0.5-0.6,1.2-1.3,0.8c-0.2-0.1-0.1-0.9,0.1-1.3c0.3-0.8,0.8-1.5,1.3-2.3
			c7.3-12.6,14.5-25.1,21.8-37.7c0.6-1.1,2.3-2.8,1.3-3.4c-1.8-1.1-2.6,1.2-3.4,2.5c-0.3,0.5-0.6,1.1-1,1.6
			c-6.5,11.3-13,22.6-19.5,33.8c-0.4,0.7-0.9,2.2-1.6,1.8c-1.2-0.7,0.1-1.7,0.5-2.4c6.3-11,12.6-21.9,18.9-32.9
			c0.6-1,2.1-2.6,1.2-3.1c-1.5-0.9-2.6,0.8-3.3,2.2c-0.3,0.5-0.6,1.1-0.9,1.6c-5.3,9.2-10.6,18.4-16,27.6c-0.5,0.9-0.8,2.7-2,2
			c-0.9-0.5,0.5-1.9,1-2.8c4.9-8.5,9.8-16.9,14.6-25.4c0.7-1.2,2.5-3.2,1.5-3.8c-1.9-1-2.8,1.4-3.6,2.9c-4.4,7.6-8.8,15.2-13.2,22.8
			c-0.3,0.6-0.7,1.8-1.4,1.5c-1.1-0.6-0.1-1.5,0.3-2.2c4-7.1,8.1-14.1,12.2-21.2c0.4-0.8,1.7-1.8,0.5-2.5c-0.9-0.6-1.9,0.4-2.4,1.2
			c-0.6,0.8-1,1.7-1.5,2.6c-2.9,5.1-5.9,10.2-8.8,15.3c-0.4,0.6-0.9,1.8-1.4,1.5c-1.1-0.6-0.1-1.5,0.3-2.2c2.7-4.8,5.5-9.5,8.2-14.3
			c0.4-0.8,1.6-1.9,0.6-2.6c-1.1-0.7-2,0.5-2.6,1.5c-1.3,2.2-2.4,4.4-3.8,6.5c-1.4,2-1.7,4.9-4.4,6c0.2-2.6,2.2-4.3,3.2-6.6
			c0.8-2,3.5-5.1,2.4-5.6c-2.9-1.1-2.9,2.8-4.4,4.4c-0.9,1-1.7,3.5-2.3,2.9c-1.3-1.2,0.8-2.4,1.2-3.8c0.3-0.9,1.6-1.8,0.9-2.6
			c-0.7-0.8-1.9,0-2.5,0.7C223.3,98.2,222.6,98.2,221.7,97.5z M239.3,146.4c2.4-0.1,3-1.8,3.8-3.2c9.9-17.1,19.8-34.2,29.6-51.3
			c0.5-0.9,1-1.8,1.2-2.7c0.1-0.5-0.1-1.4-0.4-1.7c-0.7-0.5-1.1,0.3-1.4,0.7c-0.4,0.5-0.6,1.1-0.9,1.6
			c-7.9,13.6-15.8,27.3-23.6,40.9c-2.6,4.5-5.2,9.1-7.8,13.7C239.3,145.1,238.6,145.8,239.3,146.4z M244.6,145
			c2.1-0.2,2.7-1.7,3.5-3c5.7-9.8,11.4-19.7,17-29.5c3.1-5.3,6.1-10.6,9.2-15.9c0.7-1.3,2.1-3,0.6-4c-1.4-0.8-1.8,1.5-2.4,2.5
			c-5.6,9.6-11.2,19.2-16.7,28.9c-3.6,6.3-7.2,12.5-10.8,18.8C244.6,143.4,243.6,144.3,244.6,145z M277,99.1
			c-0.3-0.6-0.5-1.4-0.9-1.6c-0.7-0.4-1,0.5-1.2,1c-2.4,4.1-4.8,8.2-7.2,12.3c-5.8,10-11.6,19.9-17.3,29.9c-0.4,0.8-1.9,1.9-0.5,2.7
			c1.1,0.6,2-0.7,2.6-1.7c0.3-0.4,0.5-0.9,0.8-1.3c7.5-13,15-26,22.5-39C276.2,100.7,276.5,99.9,277,99.1z M255.8,142.1
			c0.9-0.2,1.4-1.1,1.9-1.9c6.6-11.5,13.3-22.9,19.9-34.4c0.6-1.1,1.1-2.5,0.1-3c-1.5-0.8-1.6,1.1-2.1,1.8
			c-6.6,11.3-13.1,22.7-19.7,34.1c-0.4,0.8-0.9,1.5-1.2,2.3C254.3,141.8,254.7,142.1,255.8,142.1z M279.3,108.6
			c-0.1-0.1-0.2-0.8-0.5-0.9c-1-0.2-1.2,0.7-1.5,1.3c-5.8,10-11.5,19.9-17.3,29.9c-0.3,0.6-1.3,1.3-0.3,1.9c0.4,0.3,1.5-0.2,2-0.6
			c0.6-0.4,0.9-1.2,1.3-1.8c5.1-8.9,10.3-17.8,15.4-26.7C278.9,110.9,279.5,110,279.3,108.6z M280.9,114.1c-0.2-0.6-0.3-1.3-0.6-1.5
			c-0.8-0.4-1.1,0.4-1.3,0.9c-4.6,8-9.3,16-13.9,24.1c-0.3,0.6-1.2,1.4-0.2,1.9c0.4,0.2,1.4-0.3,2-0.7c0.5-0.3,0.7-1,1.1-1.5
			c4-6.8,7.9-13.6,11.8-20.5C280.3,115.9,280.6,115,280.9,114.1z M270.3,138.1c1.3-0.2,2-1.1,2.6-2.1c2.8-4.9,5.6-9.7,8.4-14.6
			c0.4-0.7,0.7-1.6,0.8-2.4c0.1-0.4-0.3-1-0.6-1.2c-0.5-0.3-0.9,0.3-1.1,0.7c-3.5,6-7,12.1-10.5,18.1
			C269.6,137.1,269,138,270.3,138.1z M282.4,122.8c-0.2,0.3-0.5,0.6-0.7,0.9c-2.2,3.8-4.4,7.5-6.6,11.3c-0.3,0.5-0.9,1.1-0.1,1.6
			c0.5,0.4,1.3,0.1,1.7-0.3c2.8-3.5,4.8-7.6,6.8-11.5C283.9,124.1,283.6,123,282.4,122.8z M281.3,135.3c1.9-1.3,2.9-3.6,3.7-5.9
			c0.2-0.6-0.1-1.6-0.8-1.8c-0.2-0.1-0.8,0.8-1.1,1.3c-1,1.6-1.9,3.2-2.8,4.9C279.8,134.5,279.6,135.2,281.3,135.3z"/>
		<path d="M358,200.5c0,29.6-24,53.6-53.5,53.7c-29.8,0.1-53.9-24.2-53.8-54.1c0.1-29.4,24.4-53.5,53.8-53.4
			C334,146.8,358,171,358,200.5z M252.2,200.7c0,9.1,2.2,17.6,6.7,25.5c6.4,11.2,15.7,19,27.8,23.6c3.1,1.2,4.4,0.6,5.1-2.7
			c1.7-7.2,3.7-14.3,5.6-21.4c0.6-2.3-1.2-5.2,1.8-7c0.2-0.1,0.2-0.8,0.1-1c-0.4-0.6-0.9-0.2-1.3,0.1c-1.3,0.7-2.6,1.5-3.9,2.2
			c-0.4,0.2-1,0.5-1.3-0.1c-0.1-0.2,0.4-0.9,0.8-1.1c2.1-1.3,4.3-2.6,6.4-3.9c0.7-0.5,1.2-1.6,0.7-2.3c-0.5-0.7-1.3,0.1-1.9,0.5
			c-2.5,1.4-5,2.9-7.5,4.3c-0.5,0.3-1.1,0.7-1.6,0c-0.1-0.1,0.4-0.8,0.8-1.1c0.9-0.6,1.9-1.1,2.9-1.7c2.5-1.4,5-2.9,7.5-4.4
			c1-0.6,1.9-1.8,1.2-2.8c-0.5-0.8-1.5,0.4-2.2,0.7c-3.5,1.9-6.9,4-10.4,5.9c-0.7,0.4-1.6,1.5-2.2,0.6c-0.6-1,0.8-1.3,1.5-1.7
			c4.4-2.6,8.9-5.2,13.3-7.7c0.9-0.5,2-1.3,1.4-2.3c-0.7-1.3-1.7-0.1-2.5,0.4c-4.7,2.6-9.3,5.4-14,8c-0.6,0.3-1.4,1.2-1.9,0.3
			c-0.5-0.9,0.7-1.1,1.2-1.5c5.1-3,10.2-5.9,15.3-8.8c0.9-0.5,1.7-1,2.5-1.6c0.7-0.5,1.4-1.4,0.8-2.2c-0.6-0.7-1.4,0-2,0.4
			c-2.5,1.4-5,2.9-7.5,4.3c-3.5,2-6.9,4-10.4,6c-0.4,0.2-1,0.6-1.3,0.1c-0.4-0.5,0.2-0.9,0.6-1.2c0.9-0.6,1.9-1.2,2.9-1.7
			c5.9-3.4,11.7-6.8,17.6-10.1c1-0.6,2.2-1.6,1.7-2.6c-0.8-1.5-1.9,0.1-2.7,0.5c-6.3,3.6-12.6,7.2-18.9,10.8
			c-0.7,0.4-1.7,1.5-2.3,0.6c-0.5-0.9,0.9-1.3,1.6-1.7c6.9-4,13.9-8,20.8-12.1c0.9-0.5,1.8-1,2.4-1.7c0.4-0.5,0.9-1.4,0.4-2
			c-0.5-0.6-1.1,0.1-1.6,0.4c-3.9,2.2-7.8,4.5-11.7,6.7c-3.6,2.1-7.2,4.1-10.8,6.2c-0.4,0.2-1.1,0.9-1.5,0c-0.1-0.2,0.5-0.8,0.8-1.1
			c2-1.2,4.1-2.4,6.1-3.6c6-3.4,11.9-6.9,17.9-10.3c1.2-0.7,2.8-1.6,1.9-3.1c-0.5-0.9-1.9,0.4-2.8,0.9c-7.1,4-14.1,8.1-21.2,12.2
			c-0.7,0.4-1.7,1.5-2.2,0.6c-0.5-0.9,0.8-1.3,1.5-1.7c7.8-4.5,15.6-9.1,23.4-13.5c1.8-1,2.8-2.3,3.3-4.2c2-7.7,4-15.5,6.3-23.2
			c0.8-2.9-0.3-3.6-2.9-4.1C281.7,143.1,252,167.9,252.2,200.7z"/>
		<path d="M259.9,282c0,2.6-1.9,1.7-3.2,1.4c-7.1-1.8-14.3-3.8-21.4-5.7c-25-6.7-50-13.4-75-20.2c-3.7-1-3.8-1.2-1.2-4.2
			c24.8-28,49.7-56,74.5-84c0.6-0.7,1.1-1.9,2.3-1.7c1.2,0.3,0.9,1.6,1.1,2.6c7.6,36.9,15.1,73.8,22.7,110.6
			C259.7,281.2,259.8,281.6,259.9,282z M246.7,225.2c0-0.2-0.1-0.5-0.1-0.7c-3.6-17.5-7.2-35-10.7-52.6c-0.6-2.9-1.6-1.3-2.5-0.3
			c-11.4,12.8-22.7,25.7-34.2,38.5c-1.3,1.5-1.4,2.6-0.4,4.2c3.7,6.2,7.3,12.6,10.9,18.8c3.7,6.4,7.4,12.8,11.1,19.2
			c0.3,0.6,0.6,1.6,1.6,1.2c1-0.4,1-1.3,0.5-2.2c-0.4-0.8-0.9-1.5-1.3-2.3c-6.4-11.2-12.9-22.3-19.3-33.5c-0.3-0.6-1.2-1.4-0.5-1.9
			c0.8-0.6,1.1,0.6,1.5,1.1c0.5,0.7,0.9,1.5,1.3,2.3c6,10.4,12,20.8,18.1,31.2c0.5,0.9,0.9,3,2.4,2.2c1.8-1,0-2.4-0.5-3.5
			c-0.3-0.7-0.7-1.3-1.1-2c-5.3-9.1-10.5-18.2-15.7-27.3c-0.5-0.8-1.7-2.1-0.9-2.5c1.3-0.7,1.6,1.2,2.1,2c5.6,9.5,11,19.1,16.6,28.6
			c0.5,0.8,0.7,2.6,2.2,1.8c1.4-0.8,0.3-2-0.2-2.9c-0.2-0.4-0.5-0.8-0.8-1.3c-4.7-8.1-9.4-16.3-14-24.4c-0.4-0.7-1.5-1.8-0.7-2.2
			c1.1-0.6,1.3,1,1.9,1.7c0.4,0.5,0.6,1.1,0.9,1.6c4.5,7.7,8.9,15.4,13.4,23.1c0.4,0.8,0.7,2.3,2,1.7c1.5-0.7,0.5-1.9,0-2.9
			c-0.5-0.9-1-1.7-1.5-2.6c-3.8-6.5-7.5-13-11.3-19.5c-0.4-0.6-1.2-1.5-0.6-1.9c1.1-0.7,1.4,0.7,1.7,1.3c2.3,3.9,4.5,7.8,6.8,11.7
			c1.9,3.4,3.9,6.7,5.9,10.1c0.3,0.5,0.6,1.2,1.4,0.9c0.9-0.3,0.9-1.2,0.6-1.9c-0.5-1.1-1.1-2.2-1.8-3.3c-3-5.2-6-10.4-9-15.6
			c-0.3-0.6-1.2-1.4-0.3-1.9c0.8-0.4,1.2,0.7,1.5,1.3c3.2,5.5,6.4,11.1,9.6,16.5c0.5,0.8,0.7,2.6,2.2,1.8c1.5-0.8,0.3-2-0.2-2.9
			c-2.5-4.4-5-8.7-7.5-13c-0.4-0.7-1.5-1.8-0.7-2.2c1.2-0.7,1.4,1,1.9,1.7c2.4,4,4.6,8,7,12c0.4,0.7,0.6,2.4,1.9,1.7
			c1.3-0.7,0.6-1.9,0-2.9c-1.8-3.2-3.6-6.3-5.4-9.5c-0.3-0.5-0.9-1.2-0.2-1.6c0.6-0.4,1,0.4,1.3,0.9c1.8,3,3.5,6.1,5.3,9.1
			c0.3,0.6,0.6,1.6,1.6,1.2c1-0.4,1-1.3,0.5-2.2c-0.9-1.5-1.8-3-2.6-4.6c-0.5-1-2.1-2.2-0.9-3.1c0.7-0.5,1.4,1.4,2,2.3
			c0.8,1.3,1.5,2.6,2.3,3.9c0.3,0.5,0.6,1.2,1.4,0.7c0.6-0.4,0.8-1,0.6-1.6c-0.3-0.7-0.7-1.3-1-2c-0.3-0.6-1.2-1.5-0.6-1.9
			c1.1-0.8,1.2,0.7,1.8,1.3c0.6,0.5,0.7,1.8,1.9,1.4C246.7,226.8,246.9,226.1,246.7,225.2z M198.3,216.1c-0.1,2.6,0.2,5,1.5,7.2
			c6,10.4,12,20.8,18.1,31.2c0.5,0.8,0.7,2.6,2.2,1.8c1.4-0.7,0.4-2-0.2-2.9c-2.7-4.8-5.5-9.5-8.2-14.3
			C207.2,231.4,202.7,223.8,198.3,216.1z M200.5,227.4c-0.2,0.1-0.4,0.2-0.7,0.3c0.5,2,0.7,4.2,1.7,6c4.5,8.2,9.3,16.2,14,24.3
			c0.4,0.6,0.6,2,1.8,1.3c1.2-0.7,0.7-1.7,0.1-2.6c-1.6-2.7-3.1-5.4-4.7-8.1C208.7,241.6,204.6,234.5,200.5,227.4z M202.3,237.9
			c0.4,3.6,0.7,6,2,8.2c2.8,4.9,5.6,9.8,8.5,14.6c0.4,0.7,0.6,2.3,2,1.6c1.1-0.6,0.5-1.7,0-2.6C210.8,252.7,206.9,245.8,202.3,237.9
			z M204.8,249.6c0,6,3.2,10,5.6,14.2c0.4,0.7,0.7,1.9,1.9,1.2c1.2-0.7,0.5-1.7,0-2.6C209.9,258.4,207.5,254.4,204.8,249.6z"/>
		<path d="M305.9,178.4c-0.4,0.3-0.7,0.6-1.1,0.9c-6.4,3.7-12.7,7.4-19.1,11c-0.5,0.3-1.2,0.9-1.6,0.3c-0.6-0.9,0.5-1.2,1-1.6
			c6.4-3.7,12.7-7.4,19.1-11c0.4-0.2,0.9-0.3,1.4-0.3C305.7,177.8,305.8,178.1,305.9,178.4z"/>
	</g>
</g>
<g>
</g>
<g>
</g>
<g>
</g>
<g>
</g>
<g>
</g>
<g>
</g>
<g>
</g>
<g>
</g>
<g>
</g>
<g>
</g>
<g>
</g>
<g>
</g>
<g>
</g>
<g>
</g>
<g>
</g>
</svg>
