<?xml version="1.0" encoding="UTF-8"?><svg id="a" xmlns="http://www.w3.org/2000/svg" width="38" height="36.04" viewBox="0 0 38 36.04"><path d="M19,0C8.5,0,0,8.3,0,18.5c0,8.2,5.4,15.1,13,17.5,.9,.2,1.3-.4,1.3-.9v-3.1c-5.3,1-6.4-2.5-6.4-2.5-.9-2.1-2.1-2.7-2.1-2.7-1.7-1.1,.1-1.1,.1-1.1,1.9,.1,2.9,1.9,2.9,1.9,1.7,2.8,4.4,2,5.5,1.5,.2-1.2,.7-2,1.2-2.5-4.2-.5-8.7-2.1-8.7-9.1,0-2,.7-3.7,2-5-.2-.5-.9-2.3,.2-4.9,0,0,1.6-.5,5.2,1.9,1.5-.4,3.1-.6,4.8-.6,1.6,0,3.2,.2,4.8,.6,3.6-2.4,5.2-1.9,5.2-1.9,1,2.5,.4,4.4,.2,4.9,1.2,1.3,1.9,2.9,1.9,5,0,7.1-4.4,8.6-8.7,9.1,.7,.6,1.3,1.7,1.3,3.4v5.1c0,.5,.3,1.1,1.3,.9,7.5-2.4,13-9.4,13-17.5C38,8.3,29.5,0,19,0Z" fill="#8ab9f1" fill-rule="evenodd"/></svg>