<?xml version="1.0" encoding="utf-8"?>
<!-- Generator: Adobe Illustrator 27.8.0, SVG Export Plug-In . SVG Version: 6.00 Build 0)  -->
<svg version="1.1" id="Layer_1" xmlns="http://www.w3.org/2000/svg" xmlns:xlink="http://www.w3.org/1999/xlink" x="0px" y="0px"
	 width="50px" height="50px" viewBox="0 0 50 50" style="enable-background:new 0 0 50 50;" xml:space="preserve">
<style type="text/css">
	.st0{fill:#FEDE00;}
	.st1{fill:#020100;}
</style>
<g>
	<path class="st0" d="M47.5,47.4c-15,0-29.9,0-44.9,0c0-15,0-29.9,0-44.9c15,0,29.9,0,44.9,0C47.5,17.5,47.5,32.5,47.5,47.4z
		 M29.3,39.6c0.5,1,1.2,1.9,2.1,2.6c3,2.1,6.2,2.3,9.5,0.9c1.4-0.6,2.3-1.7,2.7-3.1c0.7-2.6,0.2-5.4-2.5-7c-1.4-0.8-2.9-1.4-4.3-2.1
		c-0.6-0.3-1.1-0.6-1.6-1c-0.6-0.5-0.7-1.2-0.5-1.9c0.2-0.7,0.6-1.1,1.3-1.3c1.1-0.3,2.1,0,2.8,0.9c0.2,0.3,0.4,0.5,0.6,0.8
		c1.1-0.7,2.2-1.4,3.3-2.1c-1-1.7-2.3-2.9-4.3-3.2c-1.1-0.2-2.2-0.2-3.3,0c-2.2,0.5-3.8,1.7-4.4,3.9c-0.6,2.3-0.1,4.4,1.7,6
		c0.9,0.9,2.1,1.4,3.2,1.9c1,0.4,2,0.9,2.9,1.4c0.8,0.4,1.2,1.1,1.1,2.1c-0.1,0.9-0.8,1.4-1.6,1.6c-1.7,0.5-3.6,0-4.7-1.4
		c-0.2-0.3-0.5-0.6-0.7-0.9C31.6,38.3,30.4,38.9,29.3,39.6z M27,23.2c-1.4,0-2.8,0-4.2,0c0,0.2,0,0.4,0,0.5c0,4.5,0,9,0,13.5
		c0,0.4,0,0.8-0.1,1.2c-0.1,0.7-0.4,1.4-1.2,1.6c-1.2,0.4-2.3,0-3-0.9c-0.3-0.3-0.5-0.7-0.7-1.1c-1.1,0.7-2.3,1.4-3.4,2.1
		c0.6,1.3,1.5,2.4,2.8,3c1.8,0.9,3.6,1,5.5,0.6c2.1-0.5,3.4-1.8,4-3.9c0.2-0.8,0.3-1.6,0.3-2.4c0-3.3,0-6.5,0-9.8
		C27,26.1,27,24.7,27,23.2z"/>
	<path class="st1" d="M29.3,39.6c1.2-0.7,2.3-1.3,3.4-2c0.2,0.3,0.5,0.6,0.7,0.9c1.2,1.4,3,2,4.7,1.4c0.8-0.3,1.4-0.7,1.6-1.6
		c0.1-0.9-0.3-1.6-1.1-2.1c-0.9-0.5-1.9-0.9-2.9-1.4c-1.1-0.5-2.3-1-3.2-1.9c-1.8-1.6-2.3-3.7-1.7-6c0.6-2.2,2.2-3.4,4.4-3.9
		c1.1-0.2,2.2-0.2,3.3,0c1.9,0.4,3.3,1.5,4.3,3.2c-1.1,0.7-2.2,1.4-3.3,2.1c-0.2-0.3-0.4-0.6-0.6-0.8c-0.7-0.9-1.7-1.1-2.8-0.9
		c-0.7,0.2-1.1,0.6-1.3,1.3c-0.2,0.7-0.1,1.4,0.5,1.9c0.5,0.4,1.1,0.7,1.6,1c1.4,0.7,2.9,1.3,4.3,2.1c2.7,1.6,3.2,4.4,2.5,7
		c-0.4,1.5-1.4,2.5-2.7,3.1c-3.3,1.4-6.5,1.2-9.5-0.9C30.5,41.5,29.8,40.7,29.3,39.6z"/>
	<path class="st1" d="M27,23.2c0,1.5,0,3,0,4.4c0,3.3,0,6.5,0,9.8c0,0.8-0.1,1.6-0.3,2.4c-0.5,2.1-1.9,3.4-4,3.9
		c-1.9,0.4-3.8,0.3-5.5-0.6c-1.3-0.7-2.2-1.7-2.8-3c1.1-0.7,2.3-1.4,3.4-2.1c0.2,0.4,0.5,0.7,0.7,1.1c0.7,1,1.8,1.3,3,0.9
		c0.8-0.3,1.1-0.9,1.2-1.6c0.1-0.4,0.1-0.8,0.1-1.2c0-4.5,0-9,0-13.5c0-0.2,0-0.3,0-0.5C24.2,23.2,25.6,23.2,27,23.2z"/>
</g>
</svg>
