<!--?xml version="1.0" encoding="UTF-8"?--><svg id="a" xmlns="http://www.w3.org/2000/svg" width="634.8" height="634.81" viewBox="0 0 634.8 634.81" style=""><path d="M317.42,634.81C142.39,634.81,0,492.42,0,317.4S142.39,0,317.4,0s317.39,142.38,317.39,317.38v.04c0,175.01-142.38,317.38-317.38,317.38Zm0-613.43C154.18,21.38,21.38,154.18,21.38,317.4s132.8,296.02,296.02,296.02,296.01-132.78,296.01-296v-.04c0-163.22-132.78-296-296-296Z" fill="#e726ed" class="QZEJWPAH_0"></path><path d="M171.03,263.79h66.28v213.23h-66.28v-213.23Zm33.15-105.99c21.18,0,38.4,17.23,38.4,38.45s-17.22,38.39-38.4,38.39-38.41-17.19-38.41-38.39,17.17-38.45,38.41-38.45" fill="#e726ed" class="QZEJWPAH_1"></path><path d="M278.87,263.79h63.58v29.17h.91c8.84-16.78,30.46-34.44,62.7-34.44,67.11,0,79.51,44.15,79.51,101.54v116.95h-66.25v-103.69c0-24.73-.43-56.55-34.45-56.55s-39.74,26.97-39.74,54.78v105.46h-66.25v-213.23Z" fill="#e726ed" class="QZEJWPAH_2"></path><style data-made-with="vivus-instant">.QZEJWPAH_0{stroke-dasharray:3854 3856;stroke-dashoffset:3855;animation:QZEJWPAH_draw 2000ms linear 0ms forwards;}.QZEJWPAH_1{stroke-dasharray:801 803;stroke-dashoffset:802;animation:QZEJWPAH_draw 2000ms linear 500ms forwards;}.QZEJWPAH_2{stroke-dasharray:1144 1146;stroke-dashoffset:1145;animation:QZEJWPAH_draw 2000ms linear 1000ms forwards;}@keyframes QZEJWPAH_draw{100%{stroke-dashoffset:0;}}@keyframes QZEJWPAH_fade{0%{stroke-opacity:1;}94.44444444444444%{stroke-opacity:1;}100%{stroke-opacity:0;}}</style></svg>