<?xml version="1.0" encoding="utf-8"?>
<!-- Generator: Adobe Illustrator 26.5.0, SVG Export Plug-In . SVG Version: 6.00 Build 0)  -->
<svg version="1.1" id="Layer_1" xmlns="http://www.w3.org/2000/svg" xmlns:xlink="http://www.w3.org/1999/xlink" x="0px" y="0px"
	 viewBox="0 0 275 273" enable-background="new 0 0 275 273" xml:space="preserve">
<path fill="#8FB8E2" d="M265.8,264.3c-7.2,0-13.7,0-20.3,0c-1.1-37.4-16.7-67.3-47.4-89c-19.9-14-42.3-19.9-66.5-18.8
	c-54.7,2.6-102.2,48.6-102.4,107.7c-6.5,0-13.1,0-19.9,0c0.3-27.1,7.9-51.8,23.6-73.9c15.7-22,36.5-37.6,62.3-46.9
	C73.3,126.8,62,105.2,63.6,77.7c1.2-21,10.3-38.5,26.4-51.9C120.5,0.1,166.8,2.8,194,35c26.7,31.6,23,81.5-14.2,108.1
	C233.6,165.6,262.5,205.6,265.8,264.3z M191.3,82.6c0.1-29.6-24-53.9-53.7-54.1c-29.6-0.2-54.1,24.1-54.2,53.9
	c-0.1,29.6,24,53.9,53.7,54.1C166.7,136.7,191.2,112.3,191.3,82.6z"/>
<g>
</g>
<g>
</g>
<g>
</g>
<g>
</g>
<g>
</g>
<g>
</g>
<g>
</g>
<g>
</g>
<g>
</g>
<g>
</g>
<g>
</g>
<g>
</g>
<g>
</g>
<g>
</g>
<g>
</g>
</svg>
