<?xml version="1.0" encoding="utf-8"?>
<!-- Generator: Adobe Illustrator 26.5.0, SVG Export Plug-In . SVG Version: 6.00 Build 0)  -->
<svg version="1.1" id="Layer_1" xmlns="http://www.w3.org/2000/svg" xmlns:xlink="http://www.w3.org/1999/xlink" x="0px" y="0px"
	 viewBox="0 0 275 273" enable-background="new 0 0 275 273" xml:space="preserve">
<path fill="#85B8E4" d="M219.5,163.8c11.7,5.8,22.7,11.4,33.8,16.9c2.3,1.2,4.6,2.3,6.9,3.5c4.3,2.1,5.7,5.6,5.4,10.3
	c-0.2,4-2.3,6.3-5.5,7.9c-15.1,7.6-30.2,15.1-45.3,22.7c-23.4,11.7-46.8,23.3-70.1,35.1c-4.7,2.4-8.8,2.4-13.5,0
	C93.3,241,55,221.9,16.9,202.8c-5.7-2.8-8-7.6-6.3-12.8c1-3,3.1-4.8,5.8-6.2c12.4-6.2,24.9-12.4,37.3-18.6c0.8-0.4,1.6-0.8,2.8-1.5
	c-1.1-0.6-1.8-1-2.6-1.4c-12.6-6.3-25.2-12.5-37.7-18.9c-6.2-3.1-8.1-10.1-4.1-15.2c1.1-1.4,2.8-2.6,4.5-3.4
	c12.3-6.3,24.7-12.4,37-18.6c0.8-0.4,1.6-0.8,2.8-1.5c-1.1-0.6-1.8-1-2.6-1.4c-12.6-6.3-25.2-12.6-37.7-18.9
	c-5.4-2.7-7.5-8-5.4-13.1c1.1-2.8,3.4-4.4,6-5.7c29.3-14.6,58.7-29.3,88-44c9.2-4.6,18.5-9.2,27.7-13.9c3.8-2,7.4-1.9,11.2,0
	c38.7,19.4,77.4,38.7,116.1,58.1c4.3,2.1,6.1,5.3,5.9,10.2c-0.2,4.4-2.5,6.8-6.1,8.6c-12.4,6.2-24.9,12.4-37.3,18.6
	c-0.8,0.4-1.5,0.9-2.6,1.4c1.1,0.6,1.8,1,2.6,1.4c12.4,6.2,24.7,12.3,37.1,18.5c5.6,2.8,7.5,6.8,6,12.7c-0.7,2.9-2.9,4.7-5.6,6.1
	c-9.6,4.8-19.2,9.6-28.8,14.4C227.4,159.8,223.8,161.6,219.5,163.8z M42.6,75.2c0.9,0.5,1.3,0.8,1.7,1c30.7,15.4,61.5,30.7,92.2,46
	c0.9,0.5,2.5,0.4,3.4-0.1c30.6-15.2,61.2-30.5,91.8-45.8c0.5-0.3,1-0.7,1.6-1.1c-0.5-0.3-0.8-0.5-1.1-0.7
	c-30.8-15.4-61.6-30.8-92.4-46.3c-1.5-0.8-2.6-0.4-3.9,0.3c-21,10.5-42,21-62.9,31.5C63,65,53,70,42.6,75.2z M233.6,134.3
	c-1.2-0.6-1.9-1.1-2.6-1.4c-10.6-5.3-21.1-10.5-31.7-15.9c-1.6-0.8-2.8-0.8-4.4,0c-16.9,8.5-33.9,16.9-50.9,25.5
	c-4.2,2.1-7.9,2.1-12.1-0.1c-16.8-8.5-33.8-16.9-50.6-25.4c-1.7-0.9-2.9-0.8-4.6,0c-10.5,5.4-21.1,10.6-31.7,15.9
	c-0.7,0.4-1.4,0.8-2.3,1.3c0.9,0.5,1.5,0.9,2.2,1.2c30.3,15.2,60.7,30.3,91,45.6c1.6,0.8,2.8,0.7,4.4,0
	c24.2-12.2,48.5-24.3,72.7-36.4C219.8,141.2,226.4,137.9,233.6,134.3z M42.6,193.2c0.9,0.5,1.3,0.8,1.7,1
	c30.7,15.4,61.4,30.7,92.2,46c0.9,0.5,2.5,0.4,3.4-0.1c30.6-15.2,61.2-30.5,91.7-45.8c0.5-0.3,1-0.7,1.8-1.2
	c-11.6-5.8-22.8-11.3-34-17c-1.7-0.8-2.9-0.9-4.6,0c-16.9,8.5-33.9,16.9-50.9,25.5c-4.1,2.1-7.8,2-11.9,0
	c-16.9-8.6-33.9-17-50.8-25.5c-1.6-0.8-2.8-0.8-4.4,0c-3.8,2-7.7,3.9-11.6,5.8C57.9,185.5,50.5,189.3,42.6,193.2z"/>
<g>
</g>
<g>
</g>
<g>
</g>
<g>
</g>
<g>
</g>
<g>
</g>
<g>
</g>
<g>
</g>
<g>
</g>
<g>
</g>
<g>
</g>
<g>
</g>
<g>
</g>
<g>
</g>
<g>
</g>
</svg>
