<?xml version="1.0" encoding="utf-8"?>
<!-- Generator: Adobe Illustrator 26.5.0, SVG Export Plug-In . SVG Version: 6.00 Build 0)  -->
<svg version="1.1" id="Layer_1" xmlns="http://www.w3.org/2000/svg" xmlns:xlink="http://www.w3.org/1999/xlink" x="0px" y="0px"
	 viewBox="0 0 742.3 127.1" style="enable-background:new 0 0 742.3 127.1;" xml:space="preserve">
<style type="text/css">
	.st0{fill:#92B5E9;}
	.st1{fill:#FAFAFA;}
	.st2{fill:#171717;}
</style>
<path class="st0" d="M344.7,53.4c1.2-5.8,2.3-11.7,3.6-17.5c2-8.8,4.1-17.6,6.2-26.4c0.3-1.3,0.8-1.9,2.3-1.8c2.2,0.2,4.3,0.1,6.5,0
	c1.5-0.1,1.9,0.4,2.3,1.8c3.2,13.9,6.7,27.7,9.3,41.8c0.1,0.7,0.1,1.5,0.9,2.1c1.8-14.6,4.3-28.9,6.6-43.3c0.3-1.9,0.9-2.6,2.8-2.4
	c2.3,0.2,4.7,0.1,7,0c1.3,0,1.9,0.1,1.6,1.8c-3.3,17.8-6.6,35.6-9.8,53.4c-0.4,2.1-1,3.1-3.4,2.9c-3.2-0.3-6.5-0.1-9.7,0
	c-1.4,0-2.1-0.2-2.5-1.9c-2.6-12.4-5.9-24.7-8-37.2c-0.1-0.6-0.3-1.3-0.6-2.3c-1.5,7-2.8,13.8-4.3,20.5c-1.3,6.3-2.8,12.6-4.1,19
	c-0.3,1.5-1,1.9-2.5,1.9c-3.4-0.1-6.8-0.2-10.2,0c-1.7,0.1-2.3-0.6-2.5-2.1c-2.2-11.7-4.4-23.3-6.6-35c-1.2-6.4-2.4-12.9-3.7-19.3
	c-0.3-1.5,0.1-1.7,1.4-1.7c2.9,0.1,5.8,0.1,8.7,0c1.3,0,1.6,0.5,1.8,1.7c1.7,11.2,3.6,22.3,5.3,33.4c0.6,3.5,1,7.1,1.6,10.6
	C344.5,53.4,344.6,53.4,344.7,53.4z"/>
<path class="st0" d="M545.4,53.2c2.8-14.7,6.7-29.1,10-43.7c0.3-1.3,0.8-2,2.3-1.9c2.2,0.2,4.3,0.1,6.5,0c1.5-0.1,1.9,0.5,2.3,1.9
	c3.4,14.4,7,28.8,10.1,43.5c0.4-2.8,0.8-5.5,1.3-8.3c1.8-11.9,3.7-23.8,5.5-35.7c0.1-0.8,0.3-1.4,1.3-1.4c3.3,0,6.6,0,10.1,0
	c-2.4,13.1-4.8,26-7.2,38.9c-1.1,5.8-2.2,11.6-3.2,17.4c-0.2,1.4-0.8,1.7-2.1,1.7c-3.7-0.1-7.5-0.1-11.2,0c-1.2,0-1.7-0.3-1.9-1.6
	c-2.9-13.1-6.2-26.1-8.8-39.4c-0.7,3.3-1.3,6.6-2,9.9c-2.1,9.8-4.3,19.6-6.4,29.4c-0.3,1.4-0.8,1.7-2.1,1.7c-3.6-0.1-7.2-0.1-10.7,0
	c-1.5,0.1-2-0.6-2.3-1.9c-2.8-15.1-5.7-30.1-8.6-45.2c-0.6-3-1.1-6-1.8-9c-0.3-1.4-0.1-2,1.5-1.9c2.8,0.1,5.7,0.1,8.5,0
	c1.1,0,1.7,0.1,1.9,1.5c2.2,13.9,4.7,27.8,6.5,41.8C545,51.8,545.2,52.5,545.4,53.2z"/>
<path class="st0" d="M25.7,24.8c1.4,13.1,0.5,26.2,0.8,39.3c0,1.4-0.6,1.6-1.8,1.6c-2.8-0.1-6.5,1-8.2-0.4c-1.8-1.5-0.5-5.3-0.5-8.1
	c-0.1-15.7,0-31.5-0.1-47.2c0-1.9,0.5-2.4,2.4-2.3c3,0.2,6,0.1,9,0c1.3,0,1.9,0.4,2.3,1.6c4.2,11.9,8.9,23.7,12.6,35.9
	c1.1-0.4,1-1.5,1.2-2.2C46.7,31.7,51,20.6,54.8,9.4c0.5-1.3,1.1-1.8,2.5-1.7c3,0.1,6,0.1,9,0c1.5,0,2.2,0.2,2.2,2
	c-0.1,18.1-0.1,36.1,0,54.2c0,1.4-0.3,1.9-1.8,1.8c-2.2-0.1-4.5-0.2-6.7,0c-1.9,0.1-2.2-0.6-2.1-2.3c0.3-12.4-0.6-24.8,1-37.2
	c0.1-0.6,0-1.1,0-1.8c-0.9,0.5-0.9,1.4-1.1,2.2C53.9,37,50.1,47.4,46.5,57.8c-0.7,1.9-1.5,2.8-3.6,2.7c-4.2-0.2-4.2,0-5.7-4
	c-3.7-9.9-7.5-19.9-10.8-29.9C26.2,25.9,25.9,25.4,25.7,24.8z"/>
<path class="st0" d="M521,36.6c0,7.7-1.5,15-6.4,21.3c-11.2,14.1-34.9,11.2-42.1-5.3c-4.1-9.3-4.4-19.1-1.3-28.7
	c4.7-14.6,18.2-19.1,30.4-16.3c11.2,2.6,16.6,10.5,18.8,21.1C520.9,31.3,520.8,33.9,521,36.6z M508.9,36.7c0-5-0.7-9.6-3.2-13.8
	c-4.9-8.1-16.7-8.2-21.2,0.1c-4.9,9.1-4.8,18.6,0.3,27.6c4.6,8.1,15.9,7.8,20.8-0.2C508.2,46.1,509,41.4,508.9,36.7z"/>
<path class="st0" d="M223.9,36.7c0-8.9,0.1-17.8,0-26.7c0-1.9,0.5-2.4,2.4-2.3c2.5,0.2,5,0.1,7.5,0c1.6-0.1,2.1,0.4,2.1,2.1
	c-0.1,6.2,0,12.3-0.1,18.5c0,1.7,0.5,2.3,2.2,2.2c5.7-0.1,11.5-0.1,17.2,0c1.8,0,2.2-0.6,2.2-2.3c-0.1-6,0.1-12-0.1-18
	c-0.1-2.2,0.6-2.7,2.6-2.5c2.2,0.2,4.5,0.2,6.7,0c1.9-0.2,2.3,0.5,2.3,2.3c-0.1,15.6,0,31.3,0,46.9c0,2.2-0.1,4.5,0,6.7
	c0.1,1.5-0.3,2.1-1.9,2c-2.7-0.1-5.3-0.1-8,0c-1.5,0.1-1.8-0.5-1.8-1.9c0.1-7,0-14,0.1-21c0-1.7-0.4-2.3-2.2-2.2
	c-5.7,0.1-11.5,0.1-17.2,0c-1.7,0-2.3,0.4-2.2,2.2c0.1,6.9,0,13.8,0.1,20.7c0,1.6-0.3,2.2-2.1,2.1c-2.6-0.1-5.2-0.2-7.7,0
	c-1.9,0.1-2.2-0.6-2.1-2.3C224,54.5,223.9,45.6,223.9,36.7z"/>
<path class="st0" d="M282.9,36.6c0-8.9,0-17.8,0-26.7c0-1.8,0.5-2.2,2.2-2.2c10.4,0.1,20.8,0.1,31.2,0c1.7,0,2.4,0.4,2.3,2.2
	c-0.1,1.8-0.2,3.7,0,5.5c0.2,2-0.7,2.3-2.5,2.3c-6.3-0.1-12.7,0-19-0.1c-1.8,0-2.5,0.3-2.4,2.3c0.2,2.9,0.2,5.8,0,8.7
	c-0.1,1.8,0.6,2.2,2.3,2.1c5.3-0.1,10.7,0,16-0.1c1.5,0,2.1,0.4,2,1.9c-0.1,2-0.1,4,0,6c0.1,1.7-0.6,2.1-2.1,2.1
	c-5.3-0.1-10.7,0-16-0.1c-1.6,0-2.1,0.5-2.1,2.1c0.1,3.6,0.1,7.2,0,10.7c-0.1,1.8,0.4,2.4,2.3,2.4c6.7-0.1,13.3,0,20-0.1
	c2.1,0,2.5,0.6,2.4,2.5c-0.2,2.4,0.8,5.6-0.4,7c-1.4,1.6-4.7,0.5-7.1,0.5c-8.8,0.1-17.7,0-26.5,0.1c-1.9,0-2.5-0.4-2.5-2.4
	C283,54.4,282.9,45.5,282.9,36.6z"/>
<path class="st0" d="M125.7,65.7c-3.6,0-7.3,0-10.9,0c-1.1,0-1.3-0.5-1.6-1.4c-1-3.8-2.2-7.6-3.1-11.5c-0.4-1.5-0.9-2.1-2.5-2
	c-4.9,0.1-9.8,0.1-14.7,0c-1.5,0-2,0.6-2.4,1.9c-1,3.8-2.1,7.7-3.1,11.5c-0.3,1.2-0.8,1.6-2,1.6c-2.7-0.1-5.5-0.1-8.2,0
	c-1.9,0.1-2.1-0.5-1.5-2.1c3.9-11.9,7.6-23.8,11.5-35.7C89,21.8,91,15.7,92.9,9.6c0.4-1.3,0.9-2,2.5-1.9c3.4,0.2,6.8,0.1,10.2,0
	c1.1,0,1.8,0.2,2.2,1.4c5.9,18.6,11.9,37.2,17.9,55.9C125.8,65.1,125.7,65.3,125.7,65.7z M100.3,16.7C98.1,24.9,96.1,32.4,94,40
	c-0.4,1.3-0.1,1.8,1.4,1.7c3.2-0.1,6.5-0.1,9.7,0c1.4,0,1.9-0.2,1.4-1.8c-1.1-3.5-2-7.2-3-10.8C102.5,25.2,101.5,21.2,100.3,16.7z"
	/>
<path class="st0" d="M419.9,36.6c0-8.9,0-17.8,0-26.7c0-1.7,0.4-2.3,2.2-2.2c7.9,0.3,15.8-0.4,23.7,0.5c10.1,1.2,15.7,7.3,16.1,17.3
	c0.3,9.4-5.6,16.8-14.8,18.7c-4.4,0.9-8.7,1-13.2,0.9c-1.7-0.1-2.1,0.5-2.1,2.1c0.1,5.5,0,11,0.1,16.5c0,1.5-0.3,2.1-1.9,2
	c-2.7-0.1-5.3-0.1-8,0c-1.8,0.1-2-0.6-2-2.2C419.9,54.6,419.9,45.6,419.9,36.6z M431.8,26.5c0,2.6,0,5.2,0,7.7c0,0.7-0.2,1.6,1,1.5
	c4-0.1,8.2,0.6,12.1-1c3.6-1.5,5.7-5.1,5.3-9.3c-0.3-4.3-2.3-6.7-6.5-7.7c-3.5-0.9-7.1-0.4-10.7-0.6c-1.3-0.1-1.3,0.7-1.3,1.6
	C431.8,21.3,431.8,23.9,431.8,26.5z"/>
<path class="st0" d="M603.3,36.6c0-8.9,0-17.8,0-26.7c0-1.7,0.4-2.2,2.2-2.2c10.4,0.1,20.8,0.1,31.2,0c1.7,0,2.4,0.4,2.2,2.2
	c-0.2,2.5,0.8,5.7-0.5,7.2c-1.3,1.6-4.7,0.4-7.2,0.5c-4.7,0.1-9.5,0.1-14.2,0c-1.6,0-2.2,0.3-2.2,2.1c0.1,3,0.1,6,0,9
	c-0.1,1.6,0.4,2.2,2.1,2.1c5.2-0.1,10.5,0.1,15.7-0.1c2.3-0.1,2.9,0.7,2.7,2.8c-0.2,1.7-0.1,3.5,0,5.2c0.1,1.5-0.4,2-2,2
	c-5.4-0.1-10.8,0-16.2-0.1c-1.7,0-2.3,0.4-2.3,2.2c0.1,3.4,0.2,6.8,0,10.2c-0.1,2.1,0.3,2.9,2.7,2.8c6.7-0.2,13.3,0,20-0.1
	c1.7,0,2.5,0.3,2.3,2.2c-0.3,2.5,1.1,5.8-0.6,7.4c-1.5,1.5-4.8,0.4-7.2,0.4c-8.7,0-17.3-0.1-26,0.1c-2.1,0-2.8-0.4-2.8-2.7
	C603.3,54.3,603.3,45.5,603.3,36.6z"/>
<path class="st0" d="M149.8,41.7c0,7.2-0.1,14.5,0,21.7c0,1.9-0.5,2.4-2.4,2.3c-2.4-0.2-4.8-0.2-7.2,0c-1.9,0.1-2.4-0.5-2.4-2.3
	c0.1-14.1,0-28.1,0-42.2c0-3.6,0-3.6-3.7-3.6c-3.4,0-6.8-0.1-10.2,0c-1.5,0-2.3-0.3-2.2-2c0.2-2.2,0.1-4.3,0-6.5
	c0-1.1,0.4-1.4,1.4-1.4c13.7,0,27.5,0,41.2,0c1.2,0,1.6,0.3,1.6,1.5c-0.1,2.2-0.1,4.5,0,6.7c0,1.4-0.6,1.7-1.8,1.7
	c-3.8-0.1-7.7,0.1-11.5-0.1c-2.3-0.1-3.1,0.4-3.1,2.9C149.9,27.6,149.8,34.6,149.8,41.7z"/>
<path class="st0" d="M198.4,42c0,7.2-0.1,14.5,0,21.7c0,1.7-0.5,2.1-2.1,2c-2.3-0.1-4.7-0.2-7,0c-2.4,0.3-2.7-0.8-2.6-2.8
	c0.1-14.2,0-28.4,0.1-42.7c0-2.3-0.7-2.8-2.8-2.7c-3.8,0.2-7.7,0-11.5,0.1c-1.6,0-2.3-0.3-2.2-2.1c0.1-2.1,0.1-4.2,0-6.2
	c-0.1-1.4,0.5-1.7,1.7-1.7c13.7,0,27.3,0,41,0c1.4,0,1.9,0.4,1.8,1.8c-0.1,2.1-0.1,4.2,0,6.2c0.1,1.7-0.6,1.9-2,1.9
	c-4-0.1-8,0.1-12-0.1c-1.9-0.1-2.6,0.4-2.5,2.4C198.5,27.3,198.4,34.7,198.4,42z"/>
<path class="st0" d="M651.2,36.6c0-8.9,0-17.8,0-26.7c0-1.7,0.4-2.4,2.2-2.2c2.4,0.2,4.8,0.2,7.2,0c1.9-0.1,2.3,0.5,2.3,2.4
	c-0.1,14.3,0,28.6-0.1,42.9c0,2.3,0.6,2.9,2.9,2.8c6.2-0.2,12.5,0,18.7-0.1c1.5,0,2.1,0.3,2,1.9c-0.1,2.1-0.1,4.2,0,6.2
	c0.1,1.6-0.6,1.9-2,1.9c-10.4-0.1-20.8-0.1-31.2,0c-1.8,0-2-0.7-2-2.2C651.3,54.6,651.2,45.6,651.2,36.6z"/>
<path class="st0" d="M708,31.9c0,7.2,0.1,14.3,0,21.5c0,2,0.6,2.5,2.5,2.4c6.2-0.1,12.3,0.1,18.5-0.1c2.2-0.1,2.7,0.6,2.5,2.7
	c-0.2,1.9-0.1,3.8,0,5.7c0.1,1.4-0.5,1.7-1.7,1.7c-10.6,0-21.1-0.1-31.7,0c-1.5,0-1.8-0.5-1.8-1.8c0-18.1,0-36.3,0-54.4
	c0-1.4,0.4-1.8,1.8-1.8c2.7,0.1,5.3,0.1,8,0c1.6-0.1,2,0.4,2,2C708,17.1,708,24.5,708,31.9z"/>
<path class="st1" d="M621.5,109.3c0.9-6.3,1.9-12.6,2.7-18.9c0.2-1.4,0.6-1.7,2-1.7c5.5-0.1,5.5-0.1,4.5,5.3
	c-1.3,7.5-2.7,15-3.9,22.6c-0.3,1.5-0.6,2.4-2.4,2.2c-2.4-0.3-5.4,0.9-7-0.5c-1.4-1.3-1.2-4.3-1.7-6.5c-0.7-3.4-1.4-6.8-2.1-10.2
	c0,0-0.2,0-0.5,0c-1,5-2.1,10.1-3,15.2c-0.3,1.6-0.8,2.3-2.5,2.1c-2.3-0.2-5.3,0.7-6.7-0.5c-1.4-1.1-1.1-4.3-1.6-6.5
	c-1.4-7.6-2.8-15.2-4.2-22.7c0.3-0.1,0.5-0.3,0.6-0.3c2.2,0,4.7-0.7,6.4,0.2c1.8,1,1.1,3.9,1.4,5.9c0.7,4.8,1.3,9.5,2,14.4
	c1.2-1,1-2.5,1.2-3.7c1.1-5,2.2-10,3.2-15.1c0.3-1.4,0.9-1.8,2.3-1.8c4.5,0,4.5,0,5.5,4.4c1.1,5,2.1,10.1,3.1,15.1
	C620.9,108.6,620.9,109.2,621.5,109.3z"/>
<path class="st1" d="M286.6,106.4c-0.5-5.3-0.5-10.6-0.5-15.9c0-1.4,0.3-1.8,1.8-1.8c5.4-0.1,5.4-0.1,5.4,5.3c0,7.6,0,15.1,0,22.7
	c0,1.6-0.5,1.9-2.1,2.1c-4.2,0.6-6.6-0.9-8.2-4.9c-1.9-4.8-4.8-9.2-7-14c0.5,5.3,0.2,10.5,0.4,15.7c0.1,2.4-0.3,3.3-3,3.2
	c-4.1-0.3-4.1-0.1-4.1-4.2c0-7.8,0.1-15.6-0.1-23.5c0-2,0.7-2.2,2.5-2.4c4-0.5,6.1,1,7.6,4.7c1.9,4.6,4.5,9,6.8,13.5
	c0.1,0.4,0.2,0.7,0.4,1.2C286.9,107.4,286.8,106.9,286.6,106.4z"/>
<path class="st1" d="M113.6,106.4c-0.5-5.3-0.5-10.6-0.5-15.9c0-1.4,0.3-1.8,1.8-1.8c5.4-0.1,5.4-0.1,5.4,5.3c0,7.6,0,15.1,0,22.7
	c0,1.6-0.5,1.9-2.1,2.1c-4.2,0.6-6.6-0.9-8.2-4.9c-1.9-4.8-4.6-9.3-7.1-14c0.6,5.2,0.3,10.5,0.5,15.7c0.1,2.4-0.3,3.3-3,3.2
	c-4.1-0.3-4.1-0.1-4.1-4.2c0-7.8,0.1-15.6-0.1-23.5c0-2,0.7-2.2,2.5-2.4c4-0.5,6.1,1,7.6,4.7c1.9,4.6,4.5,9,6.8,13.5
	c0.1,0.4,0.2,0.7,0.4,1.2C114,107.4,113.9,106.9,113.6,106.4z"/>
<path class="st1" d="M205.3,118.4c-0.4,0.1-0.4,0.2-0.5,0.2c-7.6,0.4-7.6,0.4-11.2-6.4c-0.6-1.1-1.2-2.2-1.7-3.3
	c-0.6-1.2-1.8-0.7-2.7-0.7c-1.2,0-0.8,1.1-0.8,1.7c0,2.4,0,4.8,0,7.2c0,0.5,0.3,1.4-0.5,1.4c-2.1,0.1-4.2,0.1-6.2,0
	c-0.9,0-0.7-0.8-0.7-1.3c0-9.1,0-18.1,0-27.2c0-0.9,0.1-1.4,1.2-1.4c4.8,0.2,9.7-0.5,14.4,0.5c3.6,0.8,6.2,2.8,6.9,6.6
	c0.8,3.9,0.1,7.5-3.2,10.1c-1.2,0.9-1.3,1.5-0.5,2.7C201.6,111.7,203.4,115,205.3,118.4z M188.3,98.6c0.8,1.2-1.4,3.9,2.3,3.7
	c4-0.2,5.9-1.4,5.8-4.2c-0.1-2.5-1.7-3.3-5.7-3.5C187,94.4,188.9,97,188.3,98.6z"/>
<path class="st1" d="M60.9,103.6c-0.2,5.4-1.4,10.5-6.4,13.5c-9.1,5.6-19.6,0.1-21-11c-0.4-3-0.1-6,0.8-8.9c1.6-5.2,5.7-8.5,11.1-9
	c6.2-0.6,11.1,1.8,13.6,6.7C60.4,97.7,60.9,100.6,60.9,103.6z M53.4,103.6c-0.1-2-0.3-4-1.3-5.8c-1.1-2-2.6-3.2-5-3.1
	c-2.2,0-3.8,1.1-4.7,3.1c-1.9,4.1-1.9,8.2,0.2,12.2c2.1,3.8,6.8,3.8,9.1,0.1C53,108.1,53.2,105.8,53.4,103.6z"/>
<path class="st1" d="M592.8,103.6c-0.2,5.4-1.4,10.5-6.3,13.6c-9.1,5.7-19.6,0.1-21-11c-0.4-3-0.1-6,0.8-8.9c1.6-5.2,5.6-8.5,11-9.1
	c6.2-0.6,11.1,1.8,13.7,6.6C592.4,97.6,592.9,100.6,592.8,103.6z M585.3,103.6c-0.1-2-0.3-4-1.3-5.8c-1.1-2-2.6-3.2-5-3.1
	c-2.2,0-3.8,1.1-4.7,3.1c-1.9,4.1-1.9,8.2,0.2,12.2c2.1,3.8,6.8,3.8,9.1,0.1C584.9,108,585.2,105.8,585.3,103.6z"/>
<path class="st1" d="M472.6,118.5c-0.6,0.1-0.7,0.2-0.9,0.2c-7.4,0.2-7.4,0.2-10.8-6.3c-0.5-1-1.2-2-1.6-3.1
	c-0.6-1.4-1.7-1.1-2.7-1.1c-1.4,0-0.8,1.2-0.9,1.9c-0.1,2.3-0.1,4.7,0,7c0,1.1-0.3,1.5-1.5,1.6c-6,0.3-6,0.4-6-5.6
	c0-7.5,0.1-15,0-22.4c0-1.7,0.5-2.1,2.1-2c4.4,0.3,8.8-0.4,13.2,0.5c3.7,0.7,6.4,2.6,7.2,6.3c0.9,4,0.4,7.9-3.3,10.5
	c-1.3,0.9-1,1.6-0.4,2.6C468.8,111.7,470.6,115,472.6,118.5z M458.1,94.7c-2.2-0.7-2.6,0.6-2.4,2.8c0.1,1.1,0,2.3,0,3.5
	c0,0.5-0.1,1,0.4,1.3c1.5,0.8,6.1-0.5,7-2C464.9,97.2,462.9,94.8,458.1,94.7z"/>
<path class="st1" d="M388.8,103.5c0.1,2.1-0.1,4.1-0.6,6.2c-1.6,5.6-6.2,9.3-12,9.5c-6.8,0.2-11.5-2.7-13.5-8.7
	c-1.9-5.6-1.8-11.2,1.2-16.4c2.9-4.9,8.9-6.9,15.1-5.4c5.6,1.3,9.3,5.9,9.8,12.1C388.9,101.6,388.8,102.5,388.8,103.5z M369.2,103.6
	c0,2.3,0.3,4.5,1.6,6.4c2.2,3.4,6.6,3.5,8.9,0.2c2.2-3.2,2.3-9.8,0.2-13.1c-2.3-3.6-7-3.5-9.2,0.2
	C369.4,99.3,369.2,101.5,369.2,103.6z"/>
<path class="st1" d="M560.2,103.7c0,4.3,0,8.7,0,13c0,1.4-0.2,2-1.9,2.1c-5.6,0-5.6,0.1-5.6-5.5c0-2.1,0.9-4.9-0.4-6.3
	c-1.3-1.3-4.1-0.2-6.2-0.5c-2.5-0.4-3.1,0.7-2.9,3c0.2,2.6,0,5.2,0.1,7.7c0,1-0.2,1.4-1.4,1.5c-6.1,0.4-6.1,0.4-6.1-5.7
	c0-7.4,0.1-14.8,0-22.2c0-1.8,0.5-2.2,2.2-2.1c5.3,0.1,5.2,0,5.3,5.3c0,2-0.9,4.6,0.4,5.7c1.2,1,3.6,0.3,5.5,0.3
	c3.4,0,3.4,0,3.4-3.4c0-2,0-4,0-6c0-0.4-0.2-1.1,0-1.2c1.9-1.5,4.2-0.4,6.3-0.7c1.4-0.2,1.1,1,1.1,1.7
	C560.2,94.8,560.2,99.3,560.2,103.7z"/>
<path class="st1" d="M126.9,103.5c0-4.3,0.1-8.7,0-13c0-1.6,0.5-2,2-1.9c2.7,0.1,5.3,0,8,0.1c9.5,0.4,14.8,6.4,13.9,15.9
	c-0.8,9.6-5.5,13.9-15.2,14c-2.3,0-4.7-0.1-7,0c-1.3,0.1-1.7-0.4-1.7-1.7C126.9,112.5,126.9,108,126.9,103.5z M134.4,103.6
	c0,2.6,0,5.1,0,7.7c0,0.9,0.1,1.3,1.2,1.3c3.3,0,5.9-1.8,7-5c0.7-2.1,0.6-4.2,0.4-6.4c-0.4-4.1-3-6.4-7.1-6.6
	c-1.3-0.1-1.5,0.3-1.5,1.5C134.4,98.7,134.4,101.2,134.4,103.6z"/>
<path class="st1" d="M299.9,103.6c0-4.3,0.1-8.7,0-13c-0.1-1.7,0.5-2.1,2.1-2c2.7,0.1,5.3,0,8,0.1c9.2,0.4,14.3,6,13.8,15.3
	c-0.5,9.8-5.4,14.5-15.1,14.6c-2.3,0-4.7-0.1-7,0c-1.4,0.1-1.8-0.4-1.8-1.8C299.9,112.5,299.9,108.1,299.9,103.6z M307.3,103.4
	c0,1.8,0,3.6,0,5.5c0,4.2,0.9,4.7,4.8,2.9c1.6-0.8,2.6-2,3.2-3.6c0.8-2.2,0.8-4.6,0.5-6.9c-0.4-4-2.8-6.2-6.8-6.5
	c-1.2-0.1-1.8,0-1.7,1.5C307.4,98.6,307.3,101,307.3,103.4z"/>
<path class="st1" d="M394.1,103.7c0-4.3,0.1-8.6,0-13c0-1.5,0.2-2.2,2-2.1c3.6,0.2,7.2-0.2,10.7,0.4c6.2,1.1,9.7,4.3,10.8,10.5
	c1,5.8,0.7,11.5-4.1,15.9c-2.4,2.2-5.3,3-8.5,3.2c-3.1,0.1-6.2,0-9.2,0.1c-1.4,0.1-1.7-0.5-1.6-1.7
	C394.1,112.5,394.1,108.1,394.1,103.7z M401.5,103.7c0,1.7-0.1,3.3,0,5c0.1,1.3-0.7,3.2,0.4,3.7c1.5,0.8,3.4-0.1,5-0.9
	c1.5-0.9,2.4-2.3,2.9-3.9c0.6-2.4,0.8-4.7,0.2-7.1c-0.9-3.6-3.2-5.5-6.9-5.7c-1.2-0.1-1.6,0.3-1.6,1.5
	C401.6,98.7,401.5,101.2,401.5,103.7z"/>
<path class="st1" d="M90.1,99.9c-0.1,3.1,0.2,6.9-0.6,10.6c-1.3,5.8-4.9,8.6-11,8.7c-6.6,0.1-10.7-2.6-11.8-8.4
	c-1.4-7-0.4-14.1-0.7-21.1c0-0.1,0-0.2,0-0.2c1.9-1.6,4.2-0.4,6.3-0.7c1.3-0.2,1.2,0.8,1.2,1.6c0,5.2,0,10.3,0,15.5
	c0,1.4,0.1,2.8,0.6,4.2c0.7,1.8,2,2.7,4,2.7c2,0,3.4-0.8,4.1-2.6c0.6-1.4,0.8-2.9,0.8-4.4c0-5.1,0-10.1,0-15.2
	c0-1.4,0.3-1.8,1.8-1.8c5.4-0.1,5.4-0.1,5.4,5.2C90.1,95.7,90.1,97.5,90.1,99.9z"/>
<path class="st1" d="M713.6,103.6c0-4.3,0.1-8.7,0-13c0-1.5,0.4-2,1.9-2c5.1,0.1,10.2,0.1,15.2,0c1.7,0,2.1,0.6,2.1,2.1
	c0,4.2,0,4.2-4.2,4.2c-1.4,0-2.8,0-4.2,0c-3.2,0-4.1,1.2-3.3,4.3c0.2,1,0.9,0.8,1.5,0.8c2.3,0,4.7,0.1,7,0c1.1,0,1.4,0.3,1.4,1.4
	c0.3,4.9,0.3,4.9-4.5,4.9c-0.7,0-1.5,0-2.2,0c-3.6,0-3-0.4-3.3,3.2c-0.1,2.1,0.4,3,2.7,2.8c2.5-0.2,5,0,7.5-0.1
	c1.4,0,2.1,0.2,2.1,1.9c0,4.5,0.1,4.5-4.4,4.5c-4.3,0-8.7-0.1-13,0.1c-2,0.1-2.3-0.6-2.3-2.4C713.6,112.1,713.6,107.8,713.6,103.6z"
	/>
<path class="st1" d="M239.3,118.7c3.1-9.8,6.1-19.4,9-28.9c0.2-0.8,0.6-1.1,1.4-1c0.1,0,0.2,0,0.2,0c7.4-0.5,7.4-0.5,9.5,6.6
	c2.2,7.1,4.4,14.2,6.7,21.3c0.5,1.6,0.4,2.1-1.5,2.1c-5.6,0-5.6,0.1-7.1-5.2c-0.3-1.2-0.7-1.8-2-1.6c-0.2,0-0.5,0-0.7,0
	c-5.8,0-5.8,0-7.4,5.4c-0.3,0.9-0.6,1.4-1.6,1.4C243.6,118.6,241.6,118.7,239.3,118.7z M253.1,95.9c-0.2,0-0.3,0-0.5,0.1
	c-0.5,2.2-1.1,4.3-1.6,6.5c-1,4-0.9,4.1,3.2,3.7c0.9-0.1,1.4-0.3,1.1-1.3C254.6,101.8,253.8,98.8,253.1,95.9z"/>
<path class="st1" d="M685.4,118.6c-0.8,0-1.3,0.1-1.8,0.1c-1.9,0-4.2,0.6-5.7-0.2c-1.5-0.8-1.2-3.4-1.8-5.1
	c-0.1-0.2-0.1-0.4-0.2-0.5c-2.1-2.1-4.8-0.5-7.2-1c-1.2-0.3-1.6,0.5-1.8,1.5c-0.5,1.7-0.5,4.3-1.6,5c-1.5,0.9-3.9,0.3-5.8,0.3
	c-0.4,0-0.8-0.1-1.5-0.1c1-3.2,1.9-6.3,2.8-9.4c1.9-6.2,3.9-12.3,5.8-18.5c0.4-1.4,0.9-2.1,2.5-2c2.3,0.2,5.2-0.6,6.8,0.5
	c1.5,1,1.6,4,2.2,6.1C680.6,102.9,682.9,110.6,685.4,118.6z M674.3,106c-0.9-3.7-1.8-7.1-2.8-11.2c-1,4.1-1.8,7.6-2.7,11.2
	C670.7,106,672.4,106,674.3,106z"/>
<path class="st1" d="M155.9,103.7c0-4.4,0.1-8.8,0-13.2c0-1.4,0.4-1.8,1.8-1.8c5.1,0.1,10.2,0.1,15.2,0c1.6,0,2.1,0.4,2.1,2.1
	c0,4.3,0,4.3-4.1,4.3c-1.4,0-2.8,0-4.2,0c-3.4,0-3.9,0.8-3.3,4.3c0.2,1,0.7,0.9,1.4,0.9c2.2,0,4.5,0.1,6.7,0
	c1.4-0.1,1.9,0.3,1.9,1.8c0,4.6,0.1,4.6-4.3,4.6c-0.9,0-1.9,0.1-2.7,0c-2.4-0.4-3,0.5-3,2.9c0,2.5,0.6,3.3,3.1,3.1
	c2.5-0.2,5,0,7.5-0.1c1.2,0,1.5,0.4,1.6,1.6c0.2,4.8,0.3,4.8-4.5,4.8c-4.4,0-8.8-0.1-13.2,0c-1.4,0-1.8-0.4-1.8-1.8
	C155.9,112.5,155.9,108.1,155.9,103.7z"/>
<path class="st1" d="M423.3,103.6c0-4.4,0.1-8.8,0-13.2c0-1.3,0.4-1.7,1.7-1.7c5.2,0.1,10.3,0.1,15.5,0c1.5,0,2,0.4,2,1.9
	c0,4.4,0.1,4.4-4.2,4.4c-1.9,0-3.8,0.1-5.7,0c-1.3-0.1-1.7,0.3-1.7,1.7c0,3.5-0.1,3.5,3.3,3.5c1.6,0,3.2,0.1,4.7,0
	c1.6-0.1,1.9,0.5,1.9,2c0,4.3,0.1,4.3-4.3,4.3c-0.7,0-1.5,0-2.2,0c-3.3,0-3.2,0-3.4,3.2c-0.1,2.2,0.4,2.9,2.7,2.7
	c2.6-0.2,5.3,0,8-0.1c1,0,1.4,0.3,1.5,1.4c0.4,4.9,0.4,4.9-4.4,4.9c-4.4,0-8.8-0.1-13.2,0c-1.5,0-2-0.3-2-1.9
	C423.3,112.4,423.3,108,423.3,103.6z"/>
<path class="st1" d="M697.4,119.2c-3.6,0.1-6.8-1.1-9.8-3.1c-1.2-0.8-1.8-1.5-0.4-2.6c0.1-0.1,0.1-0.1,0.2-0.2
	c0.9-1.1,1.6-2.6,2.8-3.1c1.3-0.6,2.3,1.2,3.6,1.6c1.6,0.6,3.1,1.1,4.8,0.9c1.2-0.2,2.3-0.6,2.6-2c0.3-1.3-0.7-2-1.7-2.5
	c-1.9-0.9-4-1.7-5.9-2.6c-4.6-2.1-6.7-5.3-6.2-9.4c0.5-3.9,3.6-6.9,8.3-7.8c4-0.7,7.7,0.2,11.1,2.6c1.1,0.8,1.5,1.5,0.4,2.5
	c-0.4,0.4-0.8,0.9-1.1,1.4c-0.9,1.6-1.9,2.2-3.7,0.8c-1.3-1-3-1.3-4.8-1.1c-1.1,0.1-2.2,0.5-2.5,1.7c-0.3,1.3,0.6,2,1.6,2.5
	c1.7,0.8,3.3,1.5,5,2.1c5.6,2.3,7.9,5.6,7,10.5c-0.8,4.4-5.1,7.5-10.6,7.7C697.9,119.2,697.7,119.2,697.4,119.2z"/>
<path class="st1" d="M217.9,119.1c-3.8,0.1-7.2-1.1-10.2-3.3c-0.9-0.7-1.2-1.3-0.3-2.1c0.1-0.1,0.2-0.2,0.3-0.4
	c0.9-1.1,1.6-2.6,2.8-3.2c1.4-0.7,2.3,1.1,3.6,1.6c1.8,0.7,3.5,1.2,5.3,0.8c1-0.2,1.9-0.7,2.1-1.8c0.2-1.2-0.5-1.9-1.4-2.4
	c-2-1-4.1-1.8-6.1-2.7c-4.8-2.2-6.7-5.2-6.1-9.7c0.5-3.7,3.6-6.7,8.2-7.6c3.9-0.7,7.6,0.2,10.9,2.4c1.2,0.8,1.9,1.6,0.5,2.9
	c-0.4,0.3-0.7,0.7-0.9,1.2c-1,1.8-2.1,2.1-3.9,0.8c-1.4-1-3.1-1.2-4.8-1c-1.1,0.1-2.2,0.6-2.4,1.9c-0.2,1.2,0.6,1.8,1.6,2.3
	c1.7,0.8,3.5,1.5,5.3,2.3c5.5,2.2,7.8,5.7,6.9,10.3c-0.9,4.5-5,7.6-10.3,7.8C218.6,119.2,218.3,119.1,217.9,119.1z"/>
<path class="st1" d="M519.7,119.2c-3.7,0-7-1.1-10-3.2c-1.2-0.9-1.3-1.5-0.3-2.5c0.1-0.1,0.1-0.1,0.2-0.2c0.9-1.1,1.6-2.5,2.8-3.1
	c1.4-0.7,2.3,1.2,3.6,1.6c1.8,0.7,3.5,1.2,5.3,0.8c1-0.2,1.9-0.6,2.1-1.8c0.2-1.2-0.5-1.9-1.4-2.4c-2-0.9-4.1-1.8-6.2-2.7
	c-4.7-2.1-6.6-5.1-6.1-9.4c0.5-3.9,3.3-6.8,8-7.7c4.1-0.8,7.9,0.1,11.3,2.6c1.1,0.8,1.5,1.4,0.4,2.5c-0.4,0.4-0.8,0.9-1.1,1.4
	c-1,1.8-2.2,2.1-3.9,0.8c-1.4-1.1-3.3-1.3-5-0.9c-1,0.2-1.9,0.6-2.1,1.8c-0.1,1.1,0.5,1.8,1.4,2.1c1.7,0.8,3.5,1.5,5.3,2.2
	c5.6,2.3,7.9,5.5,7.1,10.2c-0.8,4.8-4.9,7.8-10.6,8C520.2,119.2,520,119.2,519.7,119.2z"/>
<path class="st1" d="M485.2,119.2c-3.8,0-7.2-1.1-10.2-3.4c-1-0.7-1.1-1.3-0.2-2.1c0.1-0.1,0.2-0.3,0.3-0.4c0.9-1.1,1.6-2.5,2.8-3.1
	c1.4-0.7,2.3,1.1,3.6,1.6c1.8,0.7,3.5,1.2,5.3,0.8c1-0.2,1.9-0.6,2.1-1.8c0.2-1.2-0.5-1.9-1.4-2.4c-2-0.9-4.1-1.8-6.2-2.7
	c-4.7-2.1-6.6-5.1-6.1-9.4c0.5-3.9,3.3-6.8,8-7.7c4.1-0.8,7.9,0.1,11.3,2.5c1,0.8,1.6,1.4,0.4,2.5c-0.4,0.4-0.8,0.9-1.1,1.4
	c-1,1.8-2.1,2.1-3.9,0.8c-1.4-1.1-3.3-1.3-5-0.9c-1,0.2-1.9,0.6-2.1,1.8c-0.1,1.1,0.5,1.8,1.4,2.2c1.7,0.8,3.5,1.5,5.3,2.3
	c5.6,2.3,7.9,5.5,7.1,10.2c-0.8,4.8-4.9,7.8-10.6,8C485.7,119.2,485.5,119.2,485.2,119.2z"/>
<path class="st1" d="M11.1,103.8c0-4.3,0.1-8.7,0-13c-0.1-1.8,0.6-2.2,2.2-2.2c5,0.1,10,0.1,15,0c1.6,0,2.1,0.4,2.1,2.1
	c-0.1,4.3,0,4.3-4.3,4.3c-1.7,0-3.5,0.1-5.2,0c-1.7-0.1-2.3,0.3-2.3,2.1c0.1,4,0,4,4.1,4c1.2,0,2.5,0.1,3.7,0c2-0.3,2.5,0.6,2.4,2.5
	c-0.1,3.8,0,3.8-3.9,3.8c-6.3,0-6.3,0-6.3,6.3c0,5,0,4.9-5,5.1c-1.9,0-2.6-0.5-2.5-2.4C11.2,112.1,11.1,107.9,11.1,103.8z"/>
<path class="st1" d="M647.8,119.2c-7,0-12.2-4.2-13.5-11.2c-1.6-8.2,1.3-15.4,7.6-18.4c4.9-2.3,9.7-2,14.1,1.2
	c1.1,0.8,1.7,1.6,0.4,2.7c-0.4,0.4-0.8,0.9-1.1,1.4c-1,1.7-2,2-3.9,0.7c-3-2.1-6.7-1-8.5,2.4c-2,3.8-2,7.7,0,11.5
	c1.9,3.6,6,4.3,9.4,1.8c1.4-1,2-1,3.1,0.3c2.8,3.5,2.8,4-1.3,6.2C652.2,118.7,650.4,119.2,647.8,119.2z"/>
<path class="st1" d="M336.7,103.9c0.2-9.6,5.9-15.7,14.3-15.7c1.8,0,3.5,0.4,5.1,1.1c4.3,1.9,4.4,2.6,1.6,6.2
	c-0.9,1.2-1.5,1.5-2.9,0.5c-3.5-2.4-7.5-1.3-9.3,2.6c-1.5,3.2-1.5,6.6-0.2,9.9c1.7,4.3,6.1,5.6,9.7,2.8c1.5-1.1,2.1-1.1,3.3,0.3
	c2.7,3.5,2.7,3.9-1.2,6.1c-8.5,4.7-19-1-20.1-10.8C336.7,105.8,336.7,104.8,336.7,103.9z"/>
<path class="st2" d="M113.6,106.4c0.2,0.5,0.3,0.9-0.1,1.6c-0.1-0.5-0.3-0.8-0.4-1.2C113.4,106.7,113.5,106.6,113.6,106.4z"/>
</svg>
